<?xml version="1.0" encoding="utf-8"?>
<VTKFile byte_order="LittleEndian" type="UnstructuredGrid" version="0.1">
   <UnstructuredGrid>
      <Piece NumberOfCells="24" NumberOfPoints="63">
         <Points>
            <DataArray Name="Points" NumberOfComponents="3" format="ascii" type="Float32">
-1.0000 -1.0000 -1.0000
-1.0000 1.0000 -1.0000
-1.0000 3.0000 -1.0000
1.0000 -1.0000 -1.0000
1.0000 1.0000 -1.0000
1.0000 3.0000 -1.0000
3.0000 -1.0000 -1.0000
3.0000 1.0000 -1.0000
3.0000 3.0000 -1.0000
5.0000 -1.0000 -1.0000
5.0000 1.0000 -1.0000
5.0000 3.0000 -1.0000
7.0000 -1.0000 -1.0000
7.0000 1.0000 -1.0000
7.0000 3.0000 -1.0000
9.0000 -1.0000 -1.0000
9.0000 1.0000 -1.0000
9.0000 3.0000 -1.0000
11.0000 -1.0000 -1.0000
11.0000 1.0000 -1.0000
11.0000 3.0000 -1.0000
-1.0000 -1.0000 1.0000
-1.0000 1.0000 1.0000
-1.0000 3.0000 1.0000
1.0000 -1.0000 1.0000
1.0000 1.0000 1.0000
1.0000 3.0000 1.0000
3.0000 -1.0000 1.0000
3.0000 1.0000 1.0000
3.0000 3.0000 1.0000
5.0000 -1.0000 1.0000
5.0000 1.0000 1.0000
5.0000 3.0000 1.0000
7.0000 -1.0000 1.0000
7.0000 1.0000 1.0000
7.0000 3.0000 1.0000
9.0000 -1.0000 1.0000
9.0000 1.0000 1.0000
9.0000 3.0000 1.0000
11.0000 -1.0000 1.0000
11.0000 1.0000 1.0000
11.0000 3.0000 1.0000
-1.0000 -1.0000 3.0000
-1.0000 1.0000 3.0000
-1.0000 3.0000 3.0000
1.0000 -1.0000 3.0000
1.0000 1.0000 3.0000
1.0000 3.0000 3.0000
3.0000 -1.0000 3.0000
3.0000 1.0000 3.0000
3.0000 3.0000 3.0000
5.0000 -1.0000 3.0000
5.0000 1.0000 3.0000
5.0000 3.0000 3.0000
7.0000 -1.0000 3.0000
7.0000 1.0000 3.0000
7.0000 3.0000 3.0000
9.0000 -1.0000 3.0000
9.0000 1.0000 3.0000
9.0000 3.0000 3.0000
11.0000 -1.0000 3.0000
11.0000 1.0000 3.0000
11.0000 3.0000 3.0000</DataArray>
         </Points>
         <Cells>
            <DataArray Name="connectivity" format="ascii" type="Int32">
 1 4 25 22 0 3 24 21
 2 5 26 23 1 4 25 22
 4 7 28 25 3 6 27 24
 5 8 29 26 4 7 28 25
 7 10 31 28 6 9 30 27
 8 11 32 29 7 10 31 28
 10 13 34 31 9 12 33 30
 11 14 35 32 10 13 34 31
 13 16 37 34 12 15 36 33
 14 17 38 35 13 16 37 34
 16 19 40 37 15 18 39 36
 17 20 41 38 16 19 40 37
 22 25 46 43 21 24 45 42
 23 26 47 44 22 25 46 43
 25 28 49 46 24 27 48 45
 26 29 50 47 25 28 49 46
 28 31 52 49 27 30 51 48
 29 32 53 50 28 31 52 49
 31 34 55 52 30 33 54 51
 32 35 56 53 31 34 55 52
 34 37 58 55 33 36 57 54
 35 38 59 56 34 37 58 55
 37 40 61 58 36 39 60 57
 38 41 62 59 37 40 61 58</DataArray>
            <DataArray Name="offsets" format="ascii" type="Int32">8 16 24 32 40 48 56 64 72 80 88 96 104 112 120 128 136 144 152 160 168 176 184 192 </DataArray>
            <DataArray Name="types" format="ascii" type="UInt8">12 12 12 12 12 12 12 12 12 12 12 12 12 12 12 12 12 12 12 12 12 12 12 12 </DataArray>
         </Cells>
         <PointData>
            <DataArray Name="fValues" NumberOfComponents="1" format="ascii" type="Float64">
       00000 
       00000 
       00000 
       00000 
       00000 
       00000 
       00000 
       00000 
       00000 
       00000 
       00000 
       00000 
       00000 
       00000 
       00000 
       00000 
       00000 
       00000 
       00000 
       00000 
       00000 
       00000 
       00000 
       00000 
       00000 
       00000 
       00000 
       00000 
       00000 
       00000 
       00000 
       00000 
       00000 
       00000 
       00000 
       00000 
       00000 
       00000 
       00000 
       00000 
       00000 
       00000 
       00000 
       00000 
       00000 
       00000 
       00000 
       00000 
       00000 
       00000 
       00000 
       00000 
       00000 
       00000 
       00000 
       00000 
       00000 
       00000 
       00000 
       00000 
       00000 
       00000 
       00000 </DataArray>
         </PointData>
         <CellData/>
      </Piece>
   </UnstructuredGrid>
</VTKFile>