<?xml version="1.0" encoding="utf-8"?>
<VTKFile byte_order="LittleEndian" type="UnstructuredGrid" version="0.1">
   <UnstructuredGrid>
      <Piece NumberOfCells="2208" NumberOfPoints="690">
         <Points>
            <DataArray Name="Points" NumberOfComponents="3" format="ascii" type="Float32">
-0.2000 -0.0667 -0.3333
-0.3333 0.0667 -0.2000
-0.2000 0.0667 -0.2000
-0.2000 0.0667 -0.3333
-0.0667 -0.2000 -0.3333
-0.2000 -0.0667 -0.2000
-0.0667 -0.0667 -0.2000
-0.0667 -0.0667 -0.3333
-0.0667 0.0667 -0.2000
-0.0667 0.0667 -0.3333
-0.2000 0.2000 -0.2000
-0.0667 0.2000 -0.2000
-0.0667 0.2000 -0.3333
-0.0667 -0.2000 -0.2000
0.0667 -0.2000 -0.3333
0.0667 -0.0667 -0.2000
0.0667 -0.0667 -0.3333
0.0667 0.0667 -0.2000
0.0667 0.0667 -0.3333
0.0667 0.2000 -0.2000
0.0667 0.2000 -0.3333
0.0667 -0.2000 -0.2000
0.2000 -0.0667 -0.3333
0.2000 0.0667 -0.2000
0.2000 0.0667 -0.3333
-0.2000 -0.2000 -0.2000
-0.3333 -0.0667 -0.0667
-0.2000 -0.0667 -0.0667
-0.3333 0.0667 -0.0667
-0.2000 0.0667 -0.0667
-0.3333 0.2000 -0.0667
-0.2000 0.2000 -0.0667
-0.0667 -0.3333 -0.2000
-0.2000 -0.2000 -0.0667
-0.0667 -0.2000 -0.0667
-0.0667 -0.0667 -0.0667
-0.0667 0.0667 -0.0667
-0.0667 0.2000 -0.0667
-0.2000 0.3333 -0.0667
-0.0667 0.3333 -0.0667
-0.0667 0.3333 -0.2000
-0.0667 -0.3333 -0.0667
0.0667 -0.3333 -0.2000
0.0667 -0.2000 -0.0667
0.0667 -0.0667 -0.0667
0.0667 0.0667 -0.0667
0.0667 0.2000 -0.0667
0.0667 0.3333 -0.0667
0.0667 0.3333 -0.2000
0.0667 -0.3333 -0.0667
0.2000 -0.2000 -0.2000
0.2000 -0.0667 -0.0667
0.2000 -0.0667 -0.2000
0.2000 0.0667 -0.0667
0.2000 0.2000 -0.0667
0.2000 0.2000 -0.2000
0.2000 -0.2000 -0.0667
0.3333 -0.0667 -0.2000
0.3333 0.0667 -0.0667
0.3333 0.0667 -0.2000
-0.3333 -0.0667 0.0667
-0.3333 -0.2000 0.0667
-0.2000 -0.0667 0.0667
-0.3333 0.0667 0.0667
-0.2000 0.0667 0.0667
-0.3333 0.2000 0.0667
-0.2000 0.2000 0.0667
-0.2000 0.3333 0.0667
-0.2000 -0.2000 0.0667
-0.2000 -0.3333 0.0667
-0.0667 -0.2000 0.0667
-0.0667 -0.0667 0.0667
-0.0667 0.0667 0.0667
-0.0667 0.2000 0.0667
-0.0667 0.3333 0.0667
-0.0667 -0.3333 0.0667
0.0667 -0.2000 0.0667
0.0667 -0.0667 0.0667
0.0667 0.0667 0.0667
0.0667 0.2000 0.0667
0.0667 0.3333 0.0667
0.0667 -0.3333 0.0667
0.2000 -0.3333 -0.0667
0.2000 -0.2000 0.0667
0.2000 -0.0667 0.0667
0.2000 0.0667 0.0667
0.2000 0.2000 0.0667
0.2000 0.3333 0.0667
0.2000 0.3333 -0.0667
0.2000 -0.3333 0.0667
0.3333 -0.2000 -0.0667
0.3333 -0.0667 0.0667
0.3333 -0.0667 -0.0667
0.3333 0.0667 0.0667
0.3333 0.2000 0.0667
0.3333 0.2000 -0.0667
-0.3333 -0.0667 0.2000
-0.3333 0.0667 0.2000
-0.2000 0.0667 0.2000
-0.2000 0.2000 0.2000
-0.2000 -0.2000 0.2000
-0.2000 -0.0667 0.2000
-0.0667 -0.0667 0.2000
-0.0667 0.0667 0.2000
-0.0667 0.2000 0.2000
-0.0667 0.3333 0.2000
-0.0667 -0.2000 0.2000
-0.0667 -0.3333 0.2000
0.0667 -0.2000 0.2000
0.0667 -0.0667 0.2000
0.0667 0.0667 0.2000
0.0667 0.2000 0.2000
0.0667 0.3333 0.2000
0.0667 -0.3333 0.2000
0.2000 -0.2000 0.2000
0.2000 -0.0667 0.2000
0.2000 0.0667 0.2000
0.2000 0.2000 0.2000
0.3333 -0.0667 0.2000
0.3333 0.0667 0.2000
-0.2000 -0.0667 0.3333
-0.2000 0.0667 0.3333
-0.0667 0.0667 0.3333
-0.0667 0.2000 0.3333
-0.0667 -0.2000 0.3333
-0.0667 -0.0667 0.3333
0.0667 -0.0667 0.3333
0.0667 0.0667 0.3333
0.0667 0.2000 0.3333
0.0667 -0.2000 0.3333
0.2000 -0.0667 0.3333
0.2000 0.0667 0.3333
-0.3333 -0.0667 -0.2000
-0.3333 -0.2000 -0.0667
-0.2000 -0.3333 -0.0667
0.3333 -0.2000 0.0667
-0.2000 -0.0792 -0.3458
-0.2000 -0.0667 -0.3500
-0.2000 0.0500 -0.3500
-0.2000 0.0667 -0.3500
-0.0667 -0.2100 -0.3433
-0.0667 -0.2000 -0.3500
-0.0667 -0.1125 -0.3792
-0.1750 -0.0667 -0.3583
-0.0667 -0.0667 -0.3944
-0.0667 0.0056 -0.3944
-0.1750 -0.0417 -0.3583
-0.1750 0.0667 -0.3583
-0.0667 0.0667 -0.3944
-0.0667 0.1750 -0.3583
-0.1833 0.0833 -0.3500
-0.0667 0.2000 -0.3500
0.0667 -0.2100 -0.3433
-0.0500 -0.2000 -0.3500
0.0667 -0.2000 -0.3500
0.0667 -0.1125 -0.3792
-0.0417 -0.1750 -0.3583
-0.0056 -0.0667 -0.3944
0.0667 -0.0667 -0.3944
0.0667 0.0056 -0.3944
-0.0056 -0.0056 -0.3944
-0.0056 0.0667 -0.3944
0.0667 0.0667 -0.3944
0.0667 0.1750 -0.3583
-0.0208 0.1125 -0.3792
-0.0500 0.2000 -0.3500
0.0667 0.2000 -0.3500
-0.0567 0.2100 -0.3433
0.0792 -0.2000 -0.3458
0.2000 -0.0792 -0.3458
0.0833 -0.1833 -0.3500
0.1125 -0.0667 -0.3792
0.2000 -0.0667 -0.3500
0.2000 0.0500 -0.3500
0.1125 -0.0208 -0.3792
0.1125 0.0667 -0.3792
0.2000 0.0667 -0.3500
0.1033 0.1033 -0.3700
0.0792 0.2000 -0.3458
0.0750 0.2083 -0.3417
0.2100 -0.0667 -0.3433
0.2100 -0.0567 -0.3433
0.2100 0.0667 -0.3433
0.2083 0.0750 -0.3417
-0.2167 -0.0833 -0.3333
-0.3333 -0.0833 -0.2167
-0.2250 -0.0667 -0.3333
-0.2250 0.0417 -0.3333
-0.3333 -0.0667 -0.2250
-0.3333 0.0417 -0.2250
-0.2250 0.0667 -0.3333
-0.3333 0.0667 -0.2250
-0.0833 -0.2167 -0.3333
-0.2000 -0.2458 -0.2458
-0.2000 -0.1167 -0.3333
-0.1167 -0.2000 -0.3333
-0.1583 -0.1583 -0.3333
-0.2000 -0.2000 -0.2917
-0.2000 -0.1722 -0.3056
-0.2500 -0.1167 -0.2833
-0.2000 0.1167 -0.3333
-0.1167 0.2000 -0.3333
-0.2833 0.1167 -0.2500
-0.2000 0.2000 -0.2917
-0.0667 -0.3433 -0.2100
-0.0667 -0.2250 -0.3333
0.0417 -0.2250 -0.3333
-0.0667 -0.3333 -0.2250
-0.0667 -0.2792 -0.2792
-0.1167 -0.2500 -0.2833
-0.0667 0.2250 -0.3333
-0.0417 0.2250 -0.3333
-0.1389 0.2611 -0.2611
-0.0667 0.3333 -0.2250
0.0667 -0.3433 -0.2100
0.0667 -0.2250 -0.3333
-0.0417 -0.3333 -0.2250
0.0667 -0.3333 -0.2250
0.0667 -0.2792 -0.2792
0.1167 -0.2000 -0.3333
0.1583 0.1583 -0.3333
0.0667 0.2250 -0.3333
0.1167 0.2000 -0.3333
0.0833 0.2167 -0.3333
0.0125 0.2792 -0.2792
-0.0417 0.3333 -0.2250
0.0667 0.3333 -0.2250
-0.0567 0.3433 -0.2100
0.0833 -0.3333 -0.2167
0.2000 -0.2458 -0.2458
0.2000 -0.1167 -0.3333
0.1167 -0.2833 -0.2500
0.1722 -0.2000 -0.3056
0.2000 -0.2000 -0.2917
0.2000 -0.1722 -0.3056
0.2250 -0.0667 -0.3333
0.2250 -0.0417 -0.3333
0.2000 0.1167 -0.3333
0.2250 0.0667 -0.3333
0.2167 0.0833 -0.3333
0.1792 0.1792 -0.3125
0.1722 0.2000 -0.3056
0.2000 0.2000 -0.2917
0.1300 0.2633 -0.2633
0.0833 0.3333 -0.2167
0.0750 0.3417 -0.2083
0.2458 -0.2000 -0.2458
0.3333 -0.0833 -0.2167
0.2611 -0.1389 -0.2611
0.2792 -0.0667 -0.2792
0.3333 -0.0667 -0.2250
0.3333 0.0417 -0.2250
0.2792 0.0125 -0.2792
0.2792 0.0667 -0.2792
0.3333 0.0667 -0.2250
0.2633 0.1300 -0.2633
0.2458 0.2000 -0.2458
0.2306 0.2306 -0.2306
0.3433 -0.0667 -0.2100
0.3433 -0.0567 -0.2100
0.3433 0.0667 -0.2100
0.3417 0.0750 -0.2083
-0.3458 -0.0792 -0.2000
-0.3500 -0.0667 -0.2000
-0.3500 0.0500 -0.2000
-0.3500 0.0667 -0.2000
-0.2458 -0.2458 -0.2000
-0.3333 -0.2167 -0.0833
-0.3333 -0.1167 -0.2000
-0.2917 -0.2000 -0.2000
-0.3056 -0.1722 -0.2000
-0.3333 -0.2000 -0.1167
-0.3333 -0.1583 -0.1583
-0.3500 -0.0833 -0.1833
-0.3583 -0.0667 -0.1750
-0.3333 0.1167 -0.2000
-0.3583 0.0417 -0.1750
-0.3583 0.0667 -0.1750
-0.2917 0.2000 -0.2000
-0.3333 0.2000 -0.1167
-0.0792 -0.3458 -0.2000
-0.2000 -0.3458 -0.0792
-0.2000 -0.2917 -0.2000
-0.1167 -0.3333 -0.2000
-0.1722 -0.3056 -0.2000
-0.2000 -0.3333 -0.1167
-0.2000 -0.3056 -0.1722
-0.2611 -0.2611 -0.1389
-0.2000 0.2917 -0.2000
-0.1167 0.3333 -0.2000
-0.2833 0.2500 -0.1167
-0.2000 0.3333 -0.1167
-0.0667 -0.3500 -0.2000
0.0500 -0.3500 -0.2000
-0.0667 -0.3792 -0.1125
-0.0833 -0.3500 -0.1833
-0.0667 0.3500 -0.2000
-0.0500 0.3500 -0.2000
-0.0667 0.3583 -0.1750
-0.1833 0.3500 -0.0833
0.0667 -0.3500 -0.2000
0.0667 -0.3792 -0.1125
0.1167 -0.3333 -0.2000
0.0417 -0.3583 -0.1750
0.1722 0.3056 -0.2000
0.0667 0.3500 -0.2000
0.1167 0.3333 -0.2000
0.0792 0.3458 -0.2000
0.0667 0.3583 -0.1750
-0.0208 0.3792 -0.1125
0.2000 -0.3458 -0.0792
0.2000 -0.2917 -0.2000
0.1583 -0.3333 -0.1583
0.2000 -0.3333 -0.1167
0.2000 -0.3056 -0.1722
0.2917 -0.2000 -0.2000
0.3056 0.1722 -0.2000
0.2000 0.2917 -0.2000
0.2917 0.2000 -0.2000
0.2458 0.2458 -0.2000
0.1792 0.3125 -0.1792
0.1583 0.3333 -0.1583
0.2000 0.3333 -0.1167
0.1033 0.3700 -0.1033
0.2167 -0.3333 -0.0833
0.3333 -0.2167 -0.0833
0.3333 -0.1167 -0.2000
0.2500 -0.2833 -0.1167
0.3056 -0.2000 -0.1722
0.3333 -0.2000 -0.1167
0.3333 -0.1583 -0.1583
0.3500 -0.0667 -0.2000
0.3500 -0.0500 -0.2000
0.3333 0.1167 -0.2000
0.3500 0.0667 -0.2000
0.3458 0.0792 -0.2000
0.3125 0.1792 -0.1792
0.3056 0.2000 -0.1722
0.3333 0.2000 -0.1167
0.2633 0.2633 -0.1300
0.2167 0.3333 -0.0833
0.2083 0.3417 -0.0750
0.3458 -0.2000 -0.0792
0.3500 -0.1833 -0.0833
0.3792 -0.0667 -0.1125
0.3792 -0.0208 -0.1125
0.3792 0.0667 -0.1125
0.3700 0.1033 -0.1033
0.3458 0.2000 -0.0792
0.3417 0.2083 -0.0750
-0.3433 -0.2100 -0.0667
-0.3500 -0.2000 -0.0667
-0.3792 -0.1125 -0.0667
-0.3944 -0.0667 -0.0667
-0.3944 0.0056 -0.0667
-0.3944 0.0667 -0.0667
-0.3583 0.1750 -0.0667
-0.3500 0.2000 -0.0667
-0.2100 -0.3433 -0.0667
-0.3333 -0.2250 -0.0667
-0.2250 -0.3333 -0.0667
-0.2792 -0.2792 -0.0667
-0.3333 -0.2250 0.0417
-0.3433 -0.2100 -0.0567
-0.3500 -0.2000 -0.0500
-0.3792 -0.1125 -0.0208
-0.3944 -0.0667 -0.0056
-0.3944 0.0056 -0.0056
-0.3944 0.0667 -0.0056
-0.3333 0.2250 -0.0667
-0.3583 0.1750 -0.0417
-0.3500 0.2000 -0.0500
-0.3333 0.2250 -0.0417
-0.2250 0.3333 -0.0667
-0.2000 -0.3500 -0.0667
-0.1125 -0.3792 -0.0667
-0.2000 -0.3500 0.0500
-0.2100 -0.3433 -0.0567
-0.2250 -0.3333 -0.0417
-0.2792 -0.2792 0.0125
-0.2000 0.3500 -0.0667
-0.1750 0.3583 -0.0667
-0.2250 0.3333 -0.0417
-0.2000 0.3500 -0.0500
-0.0667 -0.3944 -0.0667
0.0056 -0.3944 -0.0667
-0.0667 -0.3944 0.0056
-0.1125 -0.3792 -0.0208
-0.0667 0.3944 -0.0667
-0.0056 0.3944 -0.0667
-0.0667 0.3944 -0.0056
-0.1750 0.3583 0.0417
0.0667 -0.3944 -0.0667
0.1750 -0.3583 -0.0667
0.0667 -0.3944 0.0056
0.0056 -0.3944 -0.0056
0.0667 0.3944 -0.0667
0.1125 0.3792 -0.0667
0.0667 0.3944 -0.0056
-0.0056 0.3944 0.0056
0.2000 -0.3500 -0.0667
0.2000 -0.3500 0.0500
0.2250 -0.3333 -0.0667
0.1750 -0.3583 -0.0417
0.2792 0.2792 -0.0667
0.2000 0.3500 -0.0667
0.2250 0.3333 -0.0667
0.2100 0.3433 -0.0667
0.2000 0.3500 -0.0500
0.1125 0.3792 0.0208
0.3333 -0.2250 -0.0667
0.2250 -0.3333 0.0417
0.3333 -0.2250 0.0417
0.3500 -0.2000 -0.0667
0.3583 -0.1750 -0.0667
0.3944 -0.0667 -0.0667
0.3944 -0.0056 -0.0667
0.3944 0.0667 -0.0667
0.3792 0.1125 -0.0667
0.3333 0.2250 -0.0667
0.3500 0.2000 -0.0667
0.3433 0.2100 -0.0667
0.3333 0.2250 -0.0417
0.2792 0.2792 -0.0125
0.2250 0.3333 0.0417
0.2100 0.3433 0.0567
0.3500 -0.2000 0.0500
0.3583 -0.1750 0.0417
0.3944 -0.0667 0.0056
0.3944 -0.0056 0.0056
0.3944 0.0667 0.0056
0.3792 0.1125 0.0208
0.3500 0.2000 0.0500
0.3433 0.2100 0.0567
-0.3433 -0.2100 0.0667
-0.3500 -0.2000 0.0667
-0.3792 -0.1125 0.0667
-0.3944 -0.0667 0.0667
-0.3944 0.0056 0.0667
-0.3944 0.0667 0.0667
-0.3583 0.1750 0.0667
-0.3500 0.2000 0.0667
-0.2100 -0.3433 0.0667
-0.3333 -0.2250 0.0667
-0.2250 -0.3333 0.0667
-0.2792 -0.2792 0.0667
-0.3417 -0.2083 0.0750
-0.3458 -0.2000 0.0792
-0.3333 -0.2000 0.1167
-0.3700 -0.1033 0.1033
-0.3792 -0.0667 0.1125
-0.3792 0.0208 0.1125
-0.3792 0.0667 0.1125
-0.3333 0.1583 0.1583
-0.3333 0.2250 0.0667
-0.3500 0.1833 0.0833
-0.3458 0.2000 0.0792
-0.3333 0.2000 0.1167
-0.3333 0.2167 0.0833
-0.2250 0.3333 0.0667
-0.2000 -0.3500 0.0667
-0.1125 -0.3792 0.0667
-0.2083 -0.3417 0.0750
-0.2167 -0.3333 0.0833
-0.2000 -0.3333 0.1167
-0.2633 -0.2633 0.1300
-0.3056 -0.2000 0.1722
-0.3125 -0.1792 0.1792
-0.3056 0.2000 0.1722
-0.2000 0.3056 0.1722
-0.2000 0.3500 0.0667
-0.1750 0.3583 0.0667
-0.2500 0.2833 0.1167
-0.2167 0.3333 0.0833
-0.2000 0.3333 0.1167
-0.2000 0.3458 0.0792
-0.0667 -0.3944 0.0667
0.0056 -0.3944 0.0667
-0.0667 -0.3583 0.1750
-0.1033 -0.3700 0.1033
-0.1583 -0.3333 0.1583
-0.1792 -0.3125 0.1792
-0.0667 0.3944 0.0667
-0.0056 0.3944 0.0667
-0.1583 0.3333 0.1583
-0.0667 0.3792 0.1125
0.0667 -0.3944 0.0667
0.1750 -0.3583 0.0667
0.0667 -0.3583 0.1750
0.0208 -0.3792 0.1125
0.0667 0.3944 0.0667
0.1125 0.3792 0.0667
0.0667 0.3792 0.1125
-0.0417 0.3583 0.1750
0.2000 -0.3500 0.0667
0.2250 -0.3333 0.0667
0.1833 -0.3500 0.0833
0.2000 -0.3333 0.1167
0.2792 0.2792 0.0667
0.2000 0.3056 0.1722
0.2000 0.3500 0.0667
0.2250 0.3333 0.0667
0.2100 0.3433 0.0667
0.2000 0.3333 0.1167
0.2000 0.3458 0.0792
0.0833 0.3500 0.1833
0.3333 -0.2250 0.0667
0.3500 -0.2000 0.0667
0.3583 -0.1750 0.0667
0.2833 -0.2500 0.1167
0.3333 -0.2000 0.1167
0.3944 -0.0667 0.0667
0.3944 -0.0056 0.0667
0.3944 0.0667 0.0667
0.3792 0.1125 0.0667
0.3333 0.1583 0.1583
0.3333 0.2250 0.0667
0.3500 0.2000 0.0667
0.3433 0.2100 0.0667
0.3333 0.2000 0.1167
0.3333 0.2167 0.0833
0.2611 0.2611 0.1389
0.3583 -0.0667 0.1750
0.3583 -0.0417 0.1750
0.3583 0.0667 0.1750
0.3500 0.0833 0.1833
-0.3458 -0.0792 0.2000
-0.3500 -0.0667 0.2000
-0.3500 0.0500 0.2000
-0.3500 0.0667 0.2000
-0.2458 -0.2458 0.2000
-0.3333 -0.1167 0.2000
-0.2917 -0.2000 0.2000
-0.3056 -0.1722 0.2000
-0.3417 -0.0750 0.2083
-0.3433 -0.0667 0.2100
-0.3333 -0.0667 0.2250
-0.3333 -0.0417 0.2250
-0.3333 0.1167 0.2000
-0.3433 0.0567 0.2100
-0.3433 0.0667 0.2100
-0.3333 0.0667 0.2250
-0.3333 0.0833 0.2167
-0.2917 0.2000 0.2000
-0.0792 -0.3458 0.2000
-0.2000 -0.2917 0.2000
-0.1167 -0.3333 0.2000
-0.1722 -0.3056 0.2000
-0.2306 -0.2306 0.2306
-0.2458 -0.2000 0.2458
-0.2000 -0.2000 0.2917
-0.2633 -0.1300 0.2633
-0.2792 -0.0667 0.2792
-0.2792 -0.0125 0.2792
-0.2792 0.0667 0.2792
-0.2000 0.1722 0.3056
-0.2000 0.2917 0.2000
-0.2611 0.1389 0.2611
-0.2458 0.2000 0.2458
-0.2000 0.2000 0.2917
-0.2000 0.2458 0.2458
-0.1167 0.3333 0.2000
-0.0667 -0.3500 0.2000
0.0500 -0.3500 0.2000
-0.0750 -0.3417 0.2083
-0.0833 -0.3333 0.2167
-0.0667 -0.3333 0.2250
-0.1300 -0.2633 0.2633
-0.1722 -0.2000 0.3056
-0.1792 -0.1792 0.3125
-0.1722 0.2000 0.3056
-0.0667 0.2792 0.2792
-0.0667 0.3500 0.2000
-0.0500 0.3500 0.2000
-0.1167 0.2833 0.2500
-0.0833 0.3333 0.2167
-0.0667 0.3333 0.2250
-0.0667 0.3433 0.2100
0.0667 -0.3500 0.2000
0.1167 -0.3333 0.2000
0.0567 -0.3433 0.2100
0.0417 -0.3333 0.2250
0.0667 -0.3333 0.2250
-0.0125 -0.2792 0.2792
0.1722 0.3056 0.2000
0.0667 0.2792 0.2792
0.0667 0.3500 0.2000
0.1167 0.3333 0.2000
0.0792 0.3458 0.2000
0.0417 0.3333 0.2250
0.0667 0.3333 0.2250
0.0667 0.3433 0.2100
0.2000 -0.2917 0.2000
0.2917 -0.2000 0.2000
0.1389 -0.2611 0.2611
0.2000 -0.2000 0.2917
0.3056 0.1722 0.2000
0.2000 0.1722 0.3056
0.2000 0.2917 0.2000
0.2917 0.2000 0.2000
0.2458 0.2458 0.2000
0.2000 0.2000 0.2917
0.2000 0.2458 0.2458
0.1167 0.2500 0.2833
0.3333 -0.1167 0.2000
0.3500 -0.0667 0.2000
0.3500 -0.0500 0.2000
0.2833 -0.1167 0.2500
0.3333 -0.0667 0.2250
0.3333 -0.0417 0.2250
0.3333 0.1167 0.2000
0.3500 0.0667 0.2000
0.3458 0.0792 0.2000
0.3333 0.0667 0.2250
0.3333 0.0833 0.2167
0.2500 0.1167 0.2833
-0.2167 -0.0833 0.3333
-0.2250 -0.0667 0.3333
-0.2250 0.0417 0.3333
-0.2250 0.0667 0.3333
-0.0833 -0.2167 0.3333
-0.2000 -0.1167 0.3333
-0.1167 -0.2000 0.3333
-0.1583 -0.1583 0.3333
-0.2083 -0.0750 0.3417
-0.2100 -0.0667 0.3433
-0.2000 -0.0667 0.3500
-0.2000 -0.0500 0.3500
-0.2000 0.1167 0.3333
-0.2100 0.0567 0.3433
-0.2100 0.0667 0.3433
-0.2000 0.0667 0.3500
-0.2000 0.0792 0.3458
-0.1167 0.2000 0.3333
-0.0667 -0.2250 0.3333
0.0417 -0.2250 0.3333
-0.0750 -0.2083 0.3417
-0.0792 -0.2000 0.3458
-0.0667 -0.2000 0.3500
-0.0667 -0.1750 0.3583
-0.1033 -0.1033 0.3700
-0.1125 -0.0667 0.3792
-0.0667 -0.0667 0.3944
-0.0667 -0.0056 0.3944
-0.1125 0.0208 0.3792
-0.1125 0.0667 0.3792
-0.0667 0.0667 0.3944
-0.0667 0.1125 0.3792
-0.0667 0.2250 0.3333
-0.0417 0.2250 0.3333
-0.0833 0.1833 0.3500
-0.0792 0.2000 0.3458
-0.0667 0.2000 0.3500
-0.0667 0.2100 0.3433
0.0667 -0.2250 0.3333
0.1167 -0.2000 0.3333
0.0567 -0.2100 0.3433
0.0500 -0.2000 0.3500
0.0667 -0.2000 0.3500
0.0667 -0.1750 0.3583
0.0208 -0.1125 0.3792
0.0056 -0.0667 0.3944
0.0667 -0.0667 0.3944
0.0667 -0.0056 0.3944
0.1583 0.1583 0.3333
0.0056 0.0056 0.3944
0.0056 0.0667 0.3944
0.0667 0.0667 0.3944
0.0667 0.1125 0.3792
0.0667 0.2250 0.3333
0.1167 0.2000 0.3333
0.0833 0.2167 0.3333
0.0417 0.1750 0.3583
0.0500 0.2000 0.3500
0.0667 0.2000 0.3500
0.0667 0.2100 0.3433
0.2000 -0.1167 0.3333
0.2250 -0.0667 0.3333
0.2250 -0.0417 0.3333
0.1833 -0.0833 0.3500
0.1750 -0.0667 0.3583
0.2000 -0.0667 0.3500
0.2000 -0.0500 0.3500
0.2000 0.1167 0.3333
0.2250 0.0667 0.3333
0.2167 0.0833 0.3333
0.1750 0.0417 0.3583
0.1750 0.0667 0.3583
0.2000 0.0667 0.3500
0.2000 0.0792 0.3458</DataArray>
         </Points>
         <Cells>
            <DataArray Name="connectivity" format="ascii" type="Int32">
 0 132 5 2
 1 2 132 3
 2 0 132 3
 3 1 2 10
 4 25 13 6
 5 6 25 7
 6 4 25 7
 2 3 9 0
 5 2 9 0
 7 5 6 8
 2 8 5 9
 8 7 5 9
 9 7 5 0
 2 10 12 3
 9 2 8 11
 10 11 2 12
 11 9 2 12
 12 9 2 3
 12 10 11 40
 13 21 32 14
 6 7 16 4
 13 6 16 4
 14 13 21 15
 6 15 13 16
 15 14 13 16
 16 14 13 4
 8 9 18 7
 6 8 18 7
 16 6 15 17
 8 17 6 18
 17 16 6 18
 18 16 6 7
 11 12 20 9
 8 11 20 9
 18 8 17 19
 11 19 8 20
 19 18 8 20
 20 18 8 9
 20 11 19 48
 15 16 22 14
 21 15 22 14
 15 52 21 22
 17 18 24 16
 15 17 24 16
 22 15 52 23
 17 23 15 24
 23 22 15 24
 24 22 15 16
 24 17 23 55
 25 133 33 27
 26 27 133 5
 27 25 133 5
 28 1 2 132
 26 28 2 132
 5 26 27 29
 28 29 26 2
 29 5 26 2
 2 5 26 132
 28 30 10 1
 2 28 29 31
 30 31 28 10
 31 2 28 10
 10 2 28 1
 10 30 31 38
 32 134 41 34
 33 34 134 13
 34 32 134 13
 27 5 6 25
 33 27 6 25
 13 33 34 35
 27 35 33 6
 35 13 33 6
 6 13 33 25
 29 2 8 5
 27 29 8 5
 6 27 35 36
 29 36 27 8
 36 6 27 8
 8 6 27 5
 31 10 11 2
 29 31 11 2
 8 29 36 37
 31 37 29 11
 37 8 29 11
 11 8 29 2
 31 38 40 10
 11 31 37 39
 38 39 31 40
 39 11 31 40
 40 11 31 10
 34 13 21 32
 41 34 21 32
 42 41 49 43
 34 43 41 21
 43 42 41 21
 21 42 41 32
 35 6 15 13
 34 35 15 13
 21 34 43 44
 35 44 34 15
 44 21 34 15
 15 21 34 13
 36 8 17 6
 35 36 17 6
 15 35 44 45
 36 45 35 17
 45 15 35 17
 17 15 35 6
 37 11 19 8
 36 37 19 8
 17 36 45 46
 37 46 36 19
 46 17 36 19
 19 17 36 8
 39 40 48 11
 37 39 48 11
 19 37 46 47
 39 47 37 48
 47 19 37 48
 48 19 37 11
 43 21 50 42
 49 43 50 42
 43 56 49 50
 44 15 52 21
 43 44 52 21
 50 43 56 51
 44 51 43 52
 51 50 43 52
 52 50 43 21
 45 17 23 15
 44 45 23 15
 52 44 51 53
 45 53 44 23
 53 52 44 23
 23 52 44 15
 46 19 55 17
 45 46 55 17
 23 45 53 54
 46 54 45 55
 54 23 45 55
 55 23 45 17
 55 46 54 88
 51 52 57 50
 56 51 57 50
 51 92 56 57
 53 23 59 52
 51 53 59 52
 57 51 92 58
 53 58 51 59
 58 57 51 59
 59 57 51 52
 59 53 58 95
 60 26 27 133
 61 60 27 133
 33 61 68 62
 60 62 61 27
 62 33 61 27
 27 33 61 133
 63 28 29 26
 60 63 29 26
 27 60 62 64
 63 64 60 29
 64 27 60 29
 29 27 60 26
 65 30 31 28
 63 65 31 28
 29 63 64 66
 65 66 63 31
 66 29 63 31
 31 29 63 28
 31 65 66 67
 67 31 65 38
 38 31 65 30
 68 33 34 134
 69 68 34 134
 41 69 75 70
 68 70 69 34
 70 41 69 34
 34 41 69 134
 62 27 35 33
 68 62 35 33
 34 68 70 71
 62 71 68 35
 71 34 68 35
 35 34 68 33
 64 29 36 27
 62 64 36 27
 35 62 71 72
 64 72 62 36
 72 35 62 36
 36 35 62 27
 66 31 37 29
 64 66 37 29
 36 64 72 73
 66 73 64 37
 73 36 64 37
 37 36 64 29
 67 38 39 31
 66 67 39 31
 37 66 73 74
 67 74 66 39
 74 37 66 39
 39 37 66 31
 70 34 43 41
 75 70 43 41
 49 75 81 76
 70 76 75 43
 76 49 75 43
 43 49 75 41
 71 35 44 34
 70 71 44 34
 43 70 76 77
 71 77 70 44
 77 43 70 44
 44 43 70 34
 72 36 45 35
 71 72 45 35
 44 71 77 78
 72 78 71 45
 78 44 71 45
 45 44 71 35
 73 37 46 36
 72 73 46 36
 45 72 78 79
 73 79 72 46
 79 45 72 46
 46 45 72 36
 74 39 47 37
 73 74 47 37
 46 73 79 80
 74 80 73 47
 80 46 73 47
 47 46 73 37
 76 43 56 49
 81 76 56 49
 82 81 89 83
 76 83 81 56
 83 82 81 56
 56 82 81 49
 77 44 51 43
 76 77 51 43
 56 76 83 84
 77 84 76 51
 84 56 76 51
 51 56 76 43
 78 45 53 44
 77 78 53 44
 51 77 84 85
 78 85 77 53
 85 51 77 53
 53 51 77 44
 79 46 54 45
 78 79 54 45
 53 78 85 86
 79 86 78 54
 86 53 78 54
 54 53 78 45
 80 47 88 46
 79 80 88 46
 54 79 86 87
 80 87 79 88
 87 54 79 88
 88 54 79 46
 83 56 90 82
 89 83 90 82
 83 135 89 90
 84 51 92 56
 83 84 92 56
 90 83 135 91
 84 91 83 92
 91 90 83 92
 92 90 83 56
 85 53 58 51
 84 85 58 51
 92 84 91 93
 85 93 84 58
 93 92 84 58
 58 92 84 51
 86 54 95 53
 85 86 95 53
 58 85 93 94
 86 94 85 95
 94 58 85 95
 95 58 85 53
 96 60 62 61
 97 63 64 60
 96 97 64 60
 62 96 101 98
 97 98 96 64
 98 62 96 64
 64 62 96 60
 64 97 98 99
 99 64 97 66
 66 64 97 63
 100 68 70 69
 101 62 71 68
 100 101 71 68
 70 100 106 102
 101 102 100 71
 102 70 100 71
 71 70 100 68
 98 64 72 62
 101 98 72 62
 71 101 102 103
 98 103 101 72
 103 71 101 72
 72 71 101 62
 99 66 73 64
 98 99 73 64
 72 98 103 104
 99 104 98 73
 104 72 98 73
 73 72 98 64
 73 99 104 105
 105 73 99 74
 74 73 99 66
 106 70 76 75
 107 106 76 75
 81 107 113 108
 106 108 107 76
 108 81 107 76
 76 81 107 75
 102 71 77 70
 106 102 77 70
 76 106 108 109
 102 109 106 77
 109 76 106 77
 77 76 106 70
 103 72 78 71
 102 103 78 71
 77 102 109 110
 103 110 102 78
 110 77 102 78
 78 77 102 71
 104 73 79 72
 103 104 79 72
 78 103 110 111
 104 111 103 79
 111 78 103 79
 79 78 103 72
 105 74 80 73
 104 105 80 73
 79 104 111 112
 105 112 104 80
 112 79 104 80
 80 79 104 73
 108 76 83 81
 113 108 83 81
 108 114 113 83
 114 89 113 83
 83 89 113 81
 109 77 84 76
 108 109 84 76
 83 108 114 115
 109 115 108 84
 115 83 108 84
 84 83 108 76
 110 78 85 77
 109 110 85 77
 84 109 115 116
 110 116 109 85
 116 84 109 85
 85 84 109 77
 111 79 86 78
 110 111 86 78
 85 110 116 117
 111 117 110 86
 117 85 110 86
 86 85 110 78
 112 80 87 79
 111 112 87 79
 87 86 111 79
 114 83 135 89
 115 84 91 83
 114 115 91 83
 115 118 114 91
 118 135 114 91
 91 135 114 83
 116 85 93 84
 115 116 93 84
 91 115 118 119
 116 119 115 93
 119 91 115 93
 93 91 115 84
 117 86 94 85
 116 117 94 85
 94 93 116 85
 120 101 102 100
 121 98 103 101
 120 121 103 101
 102 120 125 122
 121 122 120 103
 122 102 120 103
 103 102 120 101
 103 121 122 123
 123 103 121 104
 104 103 121 98
 124 106 108 107
 125 102 109 106
 124 125 109 106
 108 124 129 126
 125 126 124 109
 126 108 124 109
 109 108 124 106
 122 103 110 102
 125 122 110 102
 109 125 126 127
 122 127 125 110
 127 109 125 110
 110 109 125 102
 123 104 111 103
 122 123 111 103
 110 122 127 128
 123 128 122 111
 128 110 122 111
 111 110 122 103
 112 111 123 104
 129 108 114 113
 126 109 115 108
 129 126 115 108
 126 130 129 115
 130 114 129 115
 115 114 129 108
 127 110 116 109
 126 127 116 109
 115 126 130 131
 127 131 126 116
 131 115 126 116
 116 115 126 109
 128 111 117 110
 127 128 117 110
 117 116 127 110
 130 115 118 114
 131 116 119 115
 130 131 119 115
 119 118 130 115
 136 184 194 0
 186 184 137 0
 184 137 0 136
 190 187 139 3
 187 139 3 138
 139 200 190 3
 140 192 205 4
 195 192 141 4
 192 141 4 140
 143 136 0 137
 194 143 136 0
 196 144 7 142
 147 138 3 139
 0 143 145 144
 0 9 144 145
 0 9 7 144
 3 147 148 146
 3 9 146 148
 3 9 0 146
 146 137 143 0
 150 139 3 200
 3 147 149 148
 3 12 148 149
 3 12 9 148
 150 139 147 3
 151 210 201 12
 153 140 4 141
 205 153 140 4
 152 206 215 14
 206 154 14 152
 157 142 7 144
 4 153 155 154
 4 16 154 155
 4 16 14 154
 7 157 158 156
 7 16 156 158
 7 16 4 156
 156 141 153 4
 161 145 9 148
 7 157 159 158
 7 18 158 159
 7 18 16 158
 9 161 162 160
 9 18 160 162
 9 18 7 160
 160 144 157 7
 165 149 12 151
 9 161 163 162
 9 20 162 163
 9 20 18 162
 12 165 166 164
 12 20 164 166
 12 20 9 164
 164 148 161 9
 167 151 12 210
 210 167 211 12
 211 167 165 12
 167 151 165 12
 168 152 14 154
 215 168 152 14
 215 168 14 219
 171 155 16 158
 16 171 172 170
 16 22 170 172
 16 22 14 170
 170 154 168 14
 175 159 18 162
 16 171 173 172
 16 24 172 173
 16 24 22 172
 18 175 176 174
 18 24 174 176
 18 24 16 174
 174 158 171 16
 178 163 20 166
 220 177 175 18
 177 162 175 18
 179 166 20 221
 178 222 223 20
 221 179 223 20
 223 179 178 20
 179 166 178 20
 180 169 22 172
 230 180 169 22
 230 180 22 235
 182 173 24 176
 180 235 236 22
 236 181 180 22
 181 172 180 22
 183 176 24 237
 182 238 239 24
 237 183 239 24
 239 183 182 24
 183 176 182 24
 185 262 268 132
 263 262 188 132
 262 188 132 185
 265 264 191 1
 264 191 1 189
 191 275 265 1
 193 266 282 25
 269 266 197 25
 266 197 25 193
 132 268 199 270
 132 0 270 199
 132 0 5 270
 199 184 0 194
 132 188 189 187
 132 1 187 189
 132 1 3 187
 3 187 186 188
 3 0 188 186
 3 0 132 188
 202 191 1 275
 10 203 200 202
 10 3 202 200
 10 3 1 202
 203 288 278 10
 204 280 292 32
 283 280 207 32
 280 207 32 204
 25 282 209 284
 25 4 284 209
 25 4 13 284
 209 192 4 205
 5 198 194 196
 5 0 196 194
 5 0 7 196
 25 197 198 196
 25 5 196 198
 25 5 7 196
 7 196 195 197
 7 4 197 195
 7 4 25 197
 10 203 201 200
 10 12 200 201
 10 12 3 200
 212 203 10 288
 40 213 210 212
 40 12 212 210
 40 12 10 212
 213 296 289 40
 216 204 32 207
 292 216 204 32
 214 293 300 42
 293 217 42 214
 13 208 205 206
 13 4 206 205
 13 4 14 206
 32 207 208 206
 32 13 206 208
 32 13 14 206
 32 216 218 217
 32 21 217 218
 32 21 42 217
 21 218 216 215
 21 32 215 216
 21 32 14 215
 11 224 211 225
 11 12 225 211
 11 12 40 225
 40 225 226 224
 40 48 224 226
 40 48 11 224
 48 226 221 224
 48 20 224 221
 48 20 11 224
 20 221 211 224
 20 12 224 211
 20 12 11 224
 227 213 40 296
 296 227 297 40
 297 227 225 40
 227 213 225 40
 228 214 42 217
 300 228 214 42
 300 228 42 302
 21 232 233 231
 21 50 231 233
 21 50 42 231
 231 217 228 42
 21 232 234 233
 21 52 233 234
 21 52 50 233
 52 234 232 230
 52 21 230 232
 52 21 22 230
 22 230 232 219
 22 21 219 232
 22 21 14 219
 19 241 220 222
 19 18 222 220
 19 18 20 222
 17 240 220 241
 17 18 241 220
 17 18 19 241
 19 241 242 240
 19 55 240 242
 19 55 17 240
 55 242 237 240
 55 24 240 237
 55 24 17 240
 24 237 220 240
 24 18 240 220
 24 18 17 240
 19 243 223 244
 19 20 244 223
 19 20 48 244
 304 243 241 19
 245 226 48 305
 244 306 307 48
 305 245 307 48
 307 245 244 48
 245 226 244 48
 246 229 50 233
 311 246 229 50
 311 246 50 315
 52 249 250 248
 52 57 248 250
 52 57 50 248
 248 233 246 50
 23 253 236 238
 23 22 238 236
 23 22 24 238
 52 252 236 253
 52 22 253 236
 52 22 23 253
 52 249 251 250
 52 59 250 251
 52 59 57 250
 23 253 254 252
 23 59 252 254
 23 59 52 252
 23 255 239 256
 23 24 256 239
 23 24 55 256
 316 255 253 23
 257 242 55 317
 256 318 319 55
 317 257 319 55
 319 257 256 55
 257 242 256 55
 258 247 57 250
 326 258 247 57
 326 258 57 331
 260 251 59 254
 258 331 332 57
 332 259 258 57
 259 250 258 57
 261 254 59 333
 260 334 335 59
 333 261 335 59
 335 261 260 59
 261 254 260 59
 267 350 359 133
 351 350 271 133
 350 271 133 267
 274 262 263 132
 273 262 274 132
 273 262 132 268
 277 264 265 1
 276 264 277 1
 132 274 353 354
 132 26 354 353
 132 26 28 354
 28 354 276 274
 28 1 274 276
 28 1 132 274
 1 277 355 356
 1 28 356 355
 1 28 30 356
 357 356 279 30
 275 277 265 1
 279 369 357 30
 281 358 374 134
 360 358 285 134
 358 285 134 281
 133 359 287 361
 133 25 361 287
 133 25 33 361
 287 266 25 282
 26 272 268 270
 26 132 270 268
 26 132 5 270
 133 271 272 270
 133 26 270 272
 133 26 5 270
 5 270 269 271
 5 25 271 269
 5 25 133 271
 30 279 278 275
 30 10 275 278
 30 10 1 275
 290 279 30 369
 38 291 288 290
 38 10 290 288
 38 10 30 290
 291 380 373 38
 294 375 384 41
 134 374 295 375
 134 32 375 295
 134 32 41 375
 295 280 32 292
 33 286 282 284
 33 25 284 282
 33 25 13 284
 134 285 286 284
 134 33 284 286
 134 33 13 284
 13 284 283 285
 13 32 285 283
 13 32 134 285
 38 291 289 288
 38 40 288 289
 38 40 10 288
 299 291 38 380
 40 298 381 388
 40 38 388 381
 40 38 39 388
 380 299 381 38
 41 294 292 293
 41 32 293 292
 41 32 42 293
 301 385 392 49
 41 384 303 385
 41 42 385 303
 41 42 49 385
 303 293 42 300
 298 296 297 40
 48 308 389 396
 48 39 396 389
 48 39 47 396
 388 309 389 39
 48 305 297 309
 48 40 309 297
 48 40 39 309
 392 312 301 49
 310 393 400 82
 393 313 82 310
 49 312 314 313
 49 56 313 314
 49 56 82 313
 56 314 312 311
 56 49 311 312
 56 49 50 311
 50 311 312 302
 50 49 302 312
 50 49 42 302
 47 321 304 306
 47 19 306 304
 47 19 48 306
 46 320 304 321
 46 19 321 304
 46 19 47 321
 47 321 322 320
 47 88 320 322
 47 88 46 320
 88 322 317 320
 88 55 320 317
 88 55 46 320
 55 317 304 320
 55 19 320 304
 55 19 46 320
 308 305 307 48
 396 323 397 47
 397 323 321 47
 324 310 82 313
 400 324 310 82
 400 324 82 402
 56 328 329 327
 56 90 327 329
 56 90 82 327
 327 313 324 82
 56 328 330 329
 56 92 329 330
 56 92 90 329
 92 330 328 326
 92 56 326 328
 92 56 57 326
 57 326 328 315
 57 56 315 328
 57 56 50 315
 54 337 316 318
 54 23 318 316
 54 23 55 318
 53 336 316 337
 53 23 337 316
 53 23 54 337
 54 337 338 336
 54 95 336 338
 54 95 53 336
 95 338 333 336
 95 59 336 333
 95 59 53 336
 59 333 316 336
 59 23 336 316
 59 23 53 336
 54 339 319 340
 54 55 340 319
 54 55 88 340
 404 339 337 54
 341 322 88 405
 340 406 407 88
 405 341 407 88
 407 341 340 88
 341 322 340 88
 342 325 90 329
 410 342 325 90
 410 342 90 413
 342 413 414 90
 414 343 342 90
 343 329 342 90
 58 346 332 334
 58 57 334 332
 58 57 59 334
 92 345 332 346
 92 57 346 332
 92 57 58 346
 344 415 416 92
 416 345 344 92
 58 347 335 348
 58 59 348 335
 58 59 95 348
 346 417 418 58
 418 347 346 58
 349 338 95 419
 348 420 421 95
 419 349 421 95
 421 349 348 95
 349 338 348 95
 364 350 351 133
 363 350 364 133
 362 434 443 61
 363 350 133 359
 366 352 353 26
 365 352 366 26
 133 364 435 436
 133 61 436 435
 133 61 60 436
 60 436 365 364
 60 26 364 365
 60 26 133 364
 368 354 355 28
 367 354 368 28
 26 366 437 438
 26 60 438 437
 26 60 63 438
 63 438 367 366
 63 28 366 367
 63 28 26 366
 371 356 357 30
 370 356 371 30
 28 368 439 440
 28 63 440 439
 28 63 65 440
 65 440 370 368
 65 30 368 370
 65 30 28 368
 372 371 369 30
 369 371 357 30
 378 358 360 134
 377 358 378 134
 376 442 460 69
 377 358 134 374
 61 362 359 361
 61 133 361 359
 61 133 33 361
 134 378 444 445
 134 69 445 444
 134 69 68 445
 61 443 379 445
 61 33 445 379
 61 33 68 445
 68 445 379 378
 68 33 378 379
 68 33 134 378
 65 454 382 372
 65 38 372 382
 65 38 30 372
 67 459 382 454
 67 38 454 382
 67 38 65 454
 383 382 380 38
 380 382 373 38
 69 376 374 375
 69 134 375 374
 69 134 41 375
 386 461 476 75
 69 460 387 461
 69 41 461 387
 69 41 75 461
 387 375 41 384
 383 380 381 38
 39 390 471 482
 39 67 482 471
 39 67 74 482
 470 391 471 67
 39 388 381 391
 39 38 391 381
 39 38 67 391
 75 386 384 385
 75 41 385 384
 75 41 49 385
 394 477 486 81
 75 476 395 477
 75 49 477 395
 75 49 81 477
 395 385 49 392
 390 388 389 39
 47 398 483 490
 47 74 490 483
 47 74 80 490
 482 399 483 74
 47 396 389 399
 47 39 399 389
 47 39 74 399
 81 394 392 393
 81 49 393 392
 81 49 82 393
 401 487 494 89
 81 486 403 487
 81 82 487 403
 81 82 89 487
 403 393 82 400
 398 396 397 47
 88 408 491 500
 88 80 500 491
 88 80 87 500
 490 409 491 80
 88 405 397 409
 88 47 409 397
 88 47 80 409
 494 411 401 89
 494 411 89 495
 135 412 411 410
 135 89 410 411
 135 89 90 410
 90 410 411 402
 90 89 402 411
 90 89 82 402
 87 424 404 406
 87 54 406 404
 87 54 88 406
 86 423 404 424
 86 54 424 404
 86 54 87 424
 95 422 498 516
 95 86 516 498
 95 86 94 516
 95 419 404 423
 95 54 423 404
 95 54 86 423
 408 405 407 88
 424 501 502 87
 500 425 502 87
 502 425 424 87
 506 426 412 135
 506 426 135 507
 91 428 414 415
 91 90 415 414
 91 90 92 415
 135 427 414 428
 135 90 428 414
 135 90 91 428
 426 507 508 135
 508 427 426 135
 93 430 416 417
 93 92 417 416
 93 92 58 417
 91 429 416 430
 91 92 430 416
 91 92 93 430
 428 511 512 91
 512 429 428 91
 94 432 418 420
 94 58 420 418
 94 58 95 420
 93 431 418 432
 93 58 432 418
 93 58 94 432
 430 513 514 93
 514 431 430 93
 422 419 421 95
 432 517 518 94
 516 433 518 94
 518 433 432 94
 447 434 435 61
 446 434 447 61
 447 448 446 61
 448 443 446 61
 446 434 61 443
 450 436 437 60
 449 436 450 60
 96 526 449 447
 96 60 447 449
 96 60 61 447
 452 438 439 63
 451 438 452 63
 60 450 527 528
 60 96 528 527
 60 96 97 528
 97 528 451 450
 97 63 450 451
 97 63 60 450
 456 440 441 65
 455 440 456 65
 456 457 455 65
 457 458 65 456
 458 456 454 65
 454 456 441 65
 463 442 444 69
 462 442 463 69
 463 464 462 69
 464 460 462 69
 462 442 69 460
 465 445 466 68
 100 530 465 463
 100 68 463 465
 100 68 69 463
 96 531 448 467
 96 61 467 448
 96 61 62 467
 68 466 532 533
 68 100 533 532
 68 100 101 533
 96 531 467 533
 96 62 533 467
 96 62 101 533
 101 533 467 466
 101 62 466 467
 101 62 68 466
 62 467 448 466
 62 61 466 448
 62 61 68 466
 65 457 453 468
 65 63 468 453
 65 63 66 468
 97 538 468 453
 97 66 453 468
 97 66 63 453
 99 543 468 538
 99 66 538 468
 99 66 97 538
 473 474 472 67
 67 472 457 468
 67 65 468 457
 67 65 66 468
 474 475 67 473
 475 473 470 67
 470 473 459 67
 479 461 480 75
 478 544 562 107
 479 461 75 476
 100 545 464 481
 100 69 481 464
 100 69 70 481
 75 480 546 547
 75 107 547 546
 75 107 106 547
 100 545 481 547
 100 70 547 481
 100 70 106 547
 106 547 481 480
 106 70 480 481
 106 70 75 480
 70 481 464 480
 70 69 480 464
 70 69 75 480
 67 474 469 484
 67 66 484 469
 67 66 74 484
 99 556 484 469
 99 74 469 484
 99 74 66 469
 105 561 484 556
 105 74 556 484
 105 74 99 556
 475 470 471 67
 474 475 471 67
 485 484 482 74
 107 478 476 477
 107 75 477 476
 107 75 81 477
 488 563 578 113
 107 562 489 563
 107 81 563 489
 107 81 113 563
 489 477 81 486
 485 482 483 74
 80 492 573 586
 80 105 586 573
 80 105 112 586
 572 493 573 105
 80 490 483 493
 80 74 493 483
 80 74 105 493
 113 488 486 487
 113 81 487 486
 113 81 89 487
 497 494 496 89
 496 487 89 494
 89 497 592 579
 89 114 579 592
 89 114 113 579
 86 499 584 598
 86 111 598 584
 86 111 117 598
 112 587 584 503
 112 111 503 584
 112 111 87 503
 86 499 503 584
 86 87 584 503
 86 87 111 584
 492 490 491 80
 586 505 588 112
 87 500 491 505
 87 80 505 491
 87 80 112 505
 497 495 494 89
 114 592 497 509
 114 89 509 497
 114 89 135 509
 510 506 509 135
 135 510 604 593
 135 118 593 604
 135 118 114 593
 93 515 596 610
 93 116 610 596
 93 116 119 610
 117 599 596 519
 117 116 519 596
 117 116 94 519
 93 515 519 596
 93 94 596 519
 93 94 116 596
 598 521 600 117
 94 516 498 521
 94 86 521 498
 94 86 117 521
 504 500 502 87
 503 504 502 87
 502 501 503 87
 510 507 506 135
 118 522 508 511
 118 135 511 508
 118 135 91 511
 604 522 118 605
 508 507 510 135
 119 524 512 513
 119 91 513 512
 119 91 93 513
 118 523 512 524
 118 91 524 512
 118 91 119 524
 522 605 606 118
 606 523 522 118
 524 611 612 119
 610 525 612 119
 612 525 524 119
 520 516 518 94
 519 520 518 94
 518 517 519 94
 535 526 527 96
 534 526 535 96
 535 536 534 96
 536 531 534 96
 534 526 96 531
 540 528 529 97
 539 528 540 97
 536 537 96 535
 540 541 539 97
 541 542 97 540
 542 540 538 97
 538 540 529 97
 549 530 532 100
 548 530 549 100
 549 550 548 100
 550 545 548 100
 548 530 100 545
 551 533 552 101
 120 616 551 549
 120 101 549 551
 120 101 100 549
 97 541 537 554
 97 96 554 537
 97 96 98 554
 101 552 617 618
 101 120 618 617
 101 120 121 618
 121 618 553 552
 121 98 552 553
 121 98 101 552
 98 553 536 552
 98 96 552 536
 98 96 101 552
 558 559 557 99
 99 557 541 554
 99 97 554 541
 99 97 98 554
 559 560 99 558
 560 558 556 99
 556 558 543 99
 565 544 546 107
 564 544 565 107
 565 566 564 107
 566 562 564 107
 564 544 107 562
 567 547 568 106
 124 620 567 565
 124 106 565 567
 124 106 107 565
 120 621 550 569
 120 100 569 550
 120 100 102 569
 106 568 622 623
 106 124 623 622
 106 124 125 623
 120 621 569 623
 120 102 623 569
 120 102 125 623
 125 623 569 568
 125 102 568 569
 125 102 106 568
 102 569 550 568
 102 100 568 550
 102 100 106 568
 99 559 555 570
 99 98 570 555
 99 98 104 570
 121 628 570 555
 121 104 555 570
 121 104 98 555
 123 633 570 628
 123 104 628 570
 123 104 121 628
 575 576 574 105
 105 574 559 570
 105 99 570 559
 105 99 104 570
 576 577 105 575
 577 575 572 105
 572 575 561 105
 580 563 581 113
 581 582 580 113
 582 578 580 113
 580 563 113 578
 124 634 566 583
 124 107 583 566
 124 107 108 583
 124 634 583 635
 124 108 635 583
 124 108 129 635
 129 635 583 581
 129 108 581 583
 129 108 113 581
 108 583 566 581
 108 107 581 566
 108 107 113 581
 105 576 571 589
 105 104 589 571
 105 104 112 589
 123 648 589 571
 123 112 571 589
 123 112 104 571
 111 585 649 669
 111 123 669 649
 111 123 128 669
 111 585 590 649
 111 112 649 590
 111 112 123 649
 577 572 573 105
 576 577 573 105
 590 591 112 589
 591 589 586 112
 582 579 578 113
 129 654 582 594
 129 113 594 582
 129 113 114 594
 595 592 594 114
 114 595 676 655
 114 130 655 676
 114 130 129 655
 116 597 664 683
 116 127 683 664
 116 127 131 683
 128 670 664 601
 128 127 601 664
 128 127 117 601
 116 597 601 664
 116 117 664 601
 116 117 127 664
 669 603 671 128
 117 598 584 603
 117 111 603 584
 117 111 128 603
 591 586 588 112
 590 591 588 112
 588 587 590 112
 595 593 592 114
 130 676 595 607
 130 114 607 595
 130 114 118 607
 608 604 607 118
 131 684 678 613
 131 130 613 678
 131 130 119 613
 118 609 613 678
 118 119 678 613
 118 119 130 678
 683 615 685 131
 119 610 596 615
 119 116 615 596
 119 116 131 615
 602 598 600 117
 601 602 600 117
 600 599 601 117
 608 605 604 118
 608 609 606 118
 606 605 608 118
 614 610 612 119
 613 614 612 119
 612 611 613 119
 625 616 617 120
 624 616 625 120
 625 626 624 120
 626 621 624 120
 624 616 120 621
 630 618 619 121
 629 618 630 121
 626 627 120 625
 630 631 629 121
 631 632 121 630
 632 630 628 121
 628 630 619 121
 637 620 622 124
 636 620 637 124
 637 638 636 124
 638 634 636 124
 636 620 124 634
 640 623 641 125
 638 639 124 637
 641 642 640 125
 121 631 627 645
 121 120 645 627
 121 120 122 645
 642 643 125 641
 645 646 644 122
 122 644 626 641
 122 120 641 626
 122 120 125 641
 646 647 122 645
 651 652 650 123
 123 650 631 645
 123 121 645 631
 123 121 122 645
 652 653 123 651
 653 651 648 123
 648 651 633 123
 656 635 657 129
 657 658 656 129
 658 654 656 129
 656 635 129 654
 125 642 639 661
 125 124 661 639
 125 124 126 661
 658 659 129 657
 661 662 660 126
 126 660 638 657
 126 124 657 638
 126 124 129 657
 122 646 643 666
 122 125 666 643
 122 125 127 666
 662 663 126 661
 666 667 665 127
 127 665 642 661
 127 125 661 642
 127 125 126 661
 123 652 647 673
 123 122 673 647
 123 122 128 673
 667 668 127 666
 673 674 672 128
 128 672 646 666
 128 122 666 646
 128 122 127 666
 653 648 649 123
 652 653 649 123
 674 675 128 673
 675 673 669 128
 658 655 654 129
 126 662 659 680
 126 129 680 659
 126 129 130 680
 680 681 679 130
 681 676 679 130
 127 667 663 687
 127 126 687 663
 127 126 131 687
 681 682 130 680
 687 688 686 131
 131 686 662 680
 131 126 680 662
 131 126 130 680
 667 668 664 127
 688 689 131 687
 689 687 683 131
 675 669 671 128
 674 675 671 128
 671 670 674 128
 681 677 676 130
 681 682 678 130
 678 677 681 130
 689 683 685 131
 688 689 685 131
 685 684 688 131
 138 137 0 186
 138 3 186 0
 138 3 187 186
 142 141 4 195
 142 7 195 4
 142 7 196 195
 0 7 196 144
 0 194 144 196
 0 194 143 144
 0 3 147 138
 0 146 138 147
 0 146 137 138
 0 9 145 148
 0 143 148 145
 0 143 146 148
 200 201 12 151
 200 3 151 12
 200 3 150 151
 3 12 149 151
 3 147 151 149
 3 147 150 151
 4 14 206 154
 4 205 154 206
 4 205 153 154
 4 7 157 142
 4 156 142 157
 4 156 141 142
 4 16 155 158
 4 153 158 155
 4 153 156 158
 7 9 161 145
 7 160 145 161
 7 160 144 145
 7 18 159 162
 7 157 162 159
 7 157 160 162
 9 12 165 149
 9 164 149 165
 9 164 148 149
 9 20 163 166
 9 161 166 163
 9 161 164 166
 166 165 12 211
 166 20 211 12
 166 20 221 211
 14 16 171 155
 14 170 155 171
 14 170 154 155
 22 14 168 219
 22 169 219 168
 22 169 230 219
 14 22 169 172
 14 168 172 169
 14 168 170 172
 16 18 175 159
 16 174 159 175
 16 174 158 159
 16 24 173 176
 16 171 176 173
 16 171 174 176
 18 20 178 163
 18 177 163 178
 18 177 162 163
 176 175 18 220
 176 24 220 18
 176 24 237 220
 18 20 222 178
 18 220 178 222
 18 220 177 178
 22 24 182 173
 22 181 173 182
 22 181 172 173
 22 24 238 182
 22 236 182 238
 22 236 181 182
 189 188 132 263
 189 1 263 132
 189 1 264 263
 0 132 188 185
 0 186 185 188
 0 186 184 185
 199 268 132 185
 199 0 185 132
 199 0 184 185
 198 197 25 269
 198 5 269 25
 198 5 270 269
 5 0 194 199
 5 198 199 194
 5 198 270 199
 3 1 191 189
 3 190 189 191
 3 190 187 189
 275 278 10 203
 275 1 203 10
 275 1 202 203
 202 200 3 190
 202 1 190 3
 202 1 191 190
 4 25 197 193
 4 195 193 197
 4 195 192 193
 209 282 25 193
 209 4 193 25
 209 4 192 193
 208 207 32 283
 208 13 283 32
 208 13 284 283
 13 4 205 209
 13 208 209 205
 13 208 284 209
 288 289 40 213
 288 10 213 40
 288 10 212 213
 212 210 12 201
 212 10 201 12
 212 10 203 201
 32 42 293 217
 32 292 217 293
 32 292 216 217
 32 14 215 206
 32 216 206 215
 32 216 207 206
 40 12 210 211
 40 213 211 210
 40 213 225 211
 226 225 40 297
 226 48 297 40
 226 48 305 297
 21 14 219 215
 21 232 215 219
 21 232 218 215
 42 21 232 218
 42 231 218 232
 42 231 217 218
 50 42 228 302
 50 229 302 228
 50 229 311 302
 42 50 229 233
 42 228 233 229
 42 228 231 233
 48 20 221 223
 48 226 223 221
 48 226 244 223
 242 241 19 304
 242 55 304 19
 242 55 317 304
 19 48 306 244
 19 304 244 306
 19 304 243 244
 223 243 19 241
 223 20 241 19
 223 20 222 241
 52 22 235 230
 52 249 230 235
 52 249 234 230
 50 52 249 234
 50 248 234 249
 50 248 233 234
 57 50 246 315
 57 247 315 246
 57 247 326 315
 50 57 247 250
 50 246 250 247
 50 246 248 250
 52 59 251 254
 52 249 254 251
 52 249 252 254
 236 252 52 249
 236 22 249 52
 236 22 235 249
 55 24 237 239
 55 242 239 237
 55 242 256 239
 254 253 23 316
 254 59 316 23
 254 59 333 316
 23 55 318 256
 23 316 256 318
 23 316 255 256
 239 255 23 253
 239 24 253 23
 239 24 238 253
 57 59 260 251
 57 259 251 260
 57 259 250 251
 57 59 334 260
 57 332 260 334
 57 332 259 260
 272 271 133 351
 272 26 351 133
 272 26 352 351
 132 26 353 352
 132 274 352 353
 132 274 273 352
 26 132 268 273
 26 272 273 268
 26 272 352 273
 1 28 355 354
 1 277 354 355
 1 277 276 354
 1 132 274 263
 1 276 263 274
 1 276 264 263
 30 1 277 275
 30 356 275 277
 30 356 279 275
 25 133 271 267
 25 269 267 271
 25 269 266 267
 287 359 133 267
 287 25 267 133
 287 25 266 267
 286 285 134 360
 286 33 360 134
 286 33 361 360
 33 25 282 287
 33 286 287 282
 33 286 361 287
 369 373 38 291
 369 30 291 38
 369 30 290 291
 290 288 10 278
 290 30 278 10
 290 30 279 278
 32 134 285 281
 32 283 281 285
 32 283 280 281
 295 374 134 281
 295 32 281 134
 295 32 280 281
 41 32 292 295
 41 294 295 292
 41 294 375 295
 381 298 40 296
 381 38 296 40
 381 38 299 296
 299 296 40 289
 299 38 289 40
 299 38 291 289
 303 384 41 294
 303 42 294 41
 303 42 293 294
 49 42 300 303
 49 301 303 300
 49 301 385 303
 39 40 298 297
 39 388 297 298
 39 388 309 297
 389 308 48 305
 389 39 305 48
 389 39 309 305
 49 42 302 300
 49 312 300 302
 49 312 301 300
 49 82 393 313
 49 392 313 393
 49 392 312 313
 47 48 308 307
 47 396 307 308
 47 396 323 307
 322 321 47 397
 322 88 397 47
 322 88 405 397
 307 323 47 321
 307 48 321 47
 307 48 306 321
 56 50 315 311
 56 328 311 315
 56 328 314 311
 82 56 328 314
 82 327 314 328
 82 327 313 314
 90 82 324 402
 90 325 402 324
 90 325 410 402
 82 90 325 329
 82 324 329 325
 82 324 327 329
 88 55 317 319
 88 322 319 317
 88 322 340 319
 338 337 54 404
 338 95 404 54
 338 95 419 404
 54 88 406 340
 54 404 340 406
 54 404 339 340
 319 339 54 337
 319 55 337 54
 319 55 318 337
 92 57 331 326
 92 344 326 331
 92 344 330 326
 90 92 344 330
 90 343 330 344
 90 343 329 330
 90 92 415 344
 90 414 344 415
 90 414 343 344
 92 58 417 346
 92 416 346 417
 92 416 345 346
 332 345 92 344
 332 57 344 92
 332 57 331 344
 95 59 333 335
 95 338 335 333
 95 338 348 335
 58 95 420 348
 58 418 348 420
 58 418 347 348
 335 347 58 346
 335 59 346 58
 335 59 334 346
 133 61 435 434
 133 364 434 435
 133 364 363 434
 61 133 359 363
 61 362 363 359
 61 362 434 363
 26 60 437 436
 26 366 436 437
 26 366 365 436
 26 133 364 351
 26 365 351 364
 26 365 352 351
 28 63 439 438
 28 368 438 439
 28 368 367 438
 28 26 366 353
 28 367 353 366
 28 367 354 353
 30 65 441 440
 30 371 440 441
 30 371 370 440
 30 28 368 355
 30 370 355 368
 30 370 356 355
 65 30 371 372
 65 441 372 371
 65 441 454 372
 134 69 444 442
 134 378 442 444
 134 378 377 442
 69 134 374 377
 69 376 377 374
 69 376 442 377
 379 443 61 362
 379 33 362 61
 379 33 361 362
 33 134 378 360
 33 379 360 378
 33 379 361 360
 372 382 38 373
 372 30 373 38
 372 30 369 373
 67 38 382 383
 67 459 383 382
 67 459 470 383
 387 460 69 376
 387 41 376 69
 387 41 375 376
 75 41 384 387
 75 386 387 384
 75 386 461 387
 67 38 383 381
 67 470 381 383
 67 470 391 381
 471 390 39 388
 471 67 388 39
 471 67 391 388
 395 476 75 386
 395 49 386 75
 395 49 385 386
 81 49 392 395
 81 394 395 392
 81 394 477 395
 74 39 390 389
 74 482 389 390
 74 482 399 389
 483 398 47 396
 483 74 396 47
 483 74 399 396
 403 486 81 394
 403 82 394 81
 403 82 393 394
 89 82 400 403
 89 401 403 400
 89 401 487 403
 80 47 398 397
 80 490 397 398
 80 490 409 397
 491 408 88 405
 491 80 405 88
 491 80 409 405
 89 82 402 400
 89 411 400 402
 89 411 401 400
 135 89 411 495
 135 412 495 411
 135 412 506 495
 86 87 501 424
 86 498 424 501
 86 498 423 424
 498 422 95 419
 498 86 419 95
 498 86 423 419
 87 88 408 407
 87 500 407 408
 87 500 425 407
 407 425 87 424
 407 88 424 87
 407 88 406 424
 135 90 413 410
 135 426 410 413
 135 426 412 410
 135 91 511 428
 135 508 428 511
 135 508 427 428
 414 427 135 426
 414 90 426 135
 414 90 413 426
 91 93 513 430
 91 512 430 513
 91 512 429 430
 416 429 91 428
 416 92 428 91
 416 92 415 428
 93 94 517 432
 93 514 432 517
 93 514 431 432
 418 431 93 430
 418 58 430 93
 418 58 417 430
 94 95 422 421
 94 516 421 422
 94 516 433 421
 421 433 94 432
 421 95 432 94
 421 95 420 432
 61 96 526 531
 61 447 531 526
 61 447 448 531
 60 96 527 526
 60 450 526 527
 60 450 449 526
 60 61 447 435
 60 449 435 447
 60 449 436 435
 63 97 529 528
 63 452 528 529
 63 452 451 528
 63 60 450 437
 63 451 437 450
 63 451 438 437
 97 63 452 453
 97 529 453 452
 97 529 538 453
 65 63 453 452
 65 457 452 453
 65 457 455 452
 65 63 452 439
 65 455 439 452
 65 455 440 439
 466 448 61 443
 466 68 443 61
 466 68 445 443
 69 100 530 545
 69 463 545 530
 69 463 464 545
 68 100 532 530
 68 466 530 532
 68 466 465 530
 68 69 463 444
 68 465 444 463
 68 465 445 444
 458 473 67 459
 458 65 459 67
 458 65 454 459
 457 472 67 473
 457 65 473 67
 457 65 458 473
 99 66 468 469
 99 543 469 468
 99 543 556 469
 67 66 469 468
 67 474 468 469
 67 474 472 468
 480 464 69 460
 480 75 460 69
 480 75 461 460
 75 107 546 544
 75 480 544 546
 75 480 479 544
 107 75 476 479
 107 478 479 476
 107 478 544 479
 105 74 484 485
 105 561 485 484
 105 561 572 485
 67 74 482 484
 67 471 484 482
 67 471 474 484
 489 562 107 478
 489 81 478 107
 489 81 477 478
 113 81 486 489
 113 488 489 486
 113 488 563 489
 105 74 485 483
 105 572 483 485
 105 572 493 483
 573 492 80 490
 573 105 490 80
 573 105 493 490
 496 578 113 488
 496 89 488 113
 496 89 487 488
 113 89 497 496
 113 579 496 497
 113 579 578 496
 112 80 492 491
 112 586 491 492
 112 586 505 491
 87 112 587 588
 87 503 588 587
 87 503 504 588
 588 504 87 500
 588 112 500 87
 588 112 505 500
 114 135 510 509
 114 593 509 510
 114 593 592 509
 135 89 495 497
 135 506 497 495
 135 506 509 497
 86 87 503 501
 86 499 501 503
 86 499 498 501
 117 86 499 498
 117 598 498 499
 117 598 521 498
 94 117 599 600
 94 519 600 599
 94 519 520 600
 600 520 94 516
 600 117 516 94
 600 117 521 516
 135 118 604 522
 135 510 522 604
 135 510 508 522
 118 119 611 524
 118 606 524 611
 118 606 523 524
 512 523 118 522
 512 91 522 118
 512 91 511 522
 93 94 519 517
 93 515 517 519
 93 515 514 517
 119 93 515 514
 119 610 514 515
 119 610 525 514
 514 525 119 524
 514 93 524 119
 514 93 513 524
 97 96 537 535
 97 541 535 537
 97 541 539 535
 97 96 535 527
 97 539 527 535
 97 539 528 527
 552 536 96 531
 552 101 531 96
 552 101 533 531
 100 120 616 621
 100 549 621 616
 100 549 550 621
 101 120 617 616
 101 552 616 617
 101 552 551 616
 101 100 549 532
 101 551 532 549
 101 551 533 532
 536 553 98 554
 536 96 554 98
 536 96 537 554
 98 121 619 618
 98 554 618 619
 98 554 553 618
 542 558 99 543
 542 97 543 99
 542 97 538 543
 541 557 99 558
 541 97 558 99
 541 97 542 558
 121 98 554 555
 121 619 555 554
 121 619 628 555
 99 98 555 554
 99 559 554 555
 99 559 557 554
 568 550 100 545
 568 106 545 100
 568 106 547 545
 107 124 620 634
 107 565 634 620
 107 565 566 634
 106 124 622 620
 106 568 620 622
 106 568 567 620
 106 107 565 546
 106 567 546 565
 106 567 547 546
 560 575 105 561
 560 99 561 105
 560 99 556 561
 559 574 105 575
 559 99 575 105
 559 99 560 575
 123 104 570 571
 123 633 571 570
 123 633 648 571
 105 104 571 570
 105 576 570 571
 105 576 574 570
 581 566 107 562
 581 113 562 107
 581 113 563 562
 113 129 635 654
 113 581 654 635
 113 581 582 654
 589 648 123 649
 589 112 649 123
 589 112 590 649
 105 112 586 589
 105 573 589 586
 105 573 576 589
 129 114 595 594
 129 655 594 595
 129 655 654 594
 114 113 579 582
 114 592 582 579
 114 592 594 582
 111 112 590 587
 111 585 587 590
 111 585 584 587
 128 111 585 584
 128 669 584 585
 128 669 603 584
 117 128 670 671
 117 601 671 670
 117 601 602 671
 671 602 117 598
 671 128 598 117
 671 128 603 598
 130 118 608 607
 130 677 607 608
 130 677 676 607
 118 114 593 595
 118 604 595 593
 118 604 607 595
 118 130 677 678
 118 608 678 677
 118 608 609 678
 116 117 601 599
 116 597 599 601
 116 597 596 599
 131 116 597 596
 131 683 596 597
 131 683 615 596
 119 131 684 685
 119 613 685 684
 119 613 614 685
 685 614 119 610
 685 131 610 119
 685 131 615 610
 118 119 613 611
 118 609 611 613
 118 609 606 611
 121 120 627 625
 121 631 625 627
 121 631 629 625
 121 120 625 617
 121 629 617 625
 121 629 618 617
 641 626 120 621
 641 125 621 120
 641 125 623 621
 125 124 639 637
 125 642 637 639
 125 642 640 637
 125 124 637 622
 125 640 622 637
 125 640 623 622
 626 644 122 645
 626 120 645 122
 626 120 627 645
 122 125 643 641
 122 646 641 643
 122 646 644 641
 632 651 123 633
 632 121 633 123
 632 121 628 633
 631 650 123 651
 631 121 651 123
 631 121 632 651
 123 122 647 645
 123 652 645 647
 123 652 650 645
 657 638 124 634
 657 129 634 124
 657 129 635 634
 638 660 126 661
 638 124 661 126
 638 124 639 661
 126 129 659 657
 126 662 657 659
 126 662 660 657
 642 665 127 666
 642 125 666 127
 642 125 643 666
 127 126 663 661
 127 667 661 663
 127 667 665 661
 646 672 128 673
 646 122 673 128
 646 122 647 673
 128 127 668 666
 128 674 666 668
 128 674 672 666
 123 128 669 673
 123 649 673 669
 123 649 652 673
 658 679 130 680
 658 129 680 130
 658 129 659 680
 130 129 655 658
 130 676 658 655
 130 676 679 658
 662 686 131 687
 662 126 687 131
 662 126 663 687
 131 130 682 680
 131 688 680 682
 131 688 686 680
 127 128 674 670
 127 668 670 674
 127 668 664 670
 127 131 683 687
 127 664 687 683
 127 664 667 687
 130 131 688 684
 130 682 684 688
 130 682 678 684</DataArray>
            <DataArray Name="offsets" format="ascii" type="Int32">4 8 12 16 20 24 28 32 36 40 44 48 52 56 60 64 68 72 76 80 84 88 92 96 100 104 108 112 116 120 124 128 132 136 140 144 148 152 156 160 164 168 172 176 180 184 188 192 196 200 204 208 212 216 220 224 228 232 236 240 244 248 252 256 260 264 268 272 276 280 284 288 292 296 300 304 308 312 316 320 324 328 332 336 340 344 348 352 356 360 364 368 372 376 380 384 388 392 396 400 404 408 412 416 420 424 428 432 436 440 444 448 452 456 460 464 468 472 476 480 484 488 492 496 500 504 508 512 516 520 524 528 532 536 540 544 548 552 556 560 564 568 572 576 580 584 588 592 596 600 604 608 612 616 620 624 628 632 636 640 644 648 652 656 660 664 668 672 676 680 684 688 692 696 700 704 708 712 716 720 724 728 732 736 740 744 748 752 756 760 764 768 772 776 780 784 788 792 796 800 804 808 812 816 820 824 828 832 836 840 844 848 852 856 860 864 868 872 876 880 884 888 892 896 900 904 908 912 916 920 924 928 932 936 940 944 948 952 956 960 964 968 972 976 980 984 988 992 996 1000 1004 1008 1012 1016 1020 1024 1028 1032 1036 1040 1044 1048 1052 1056 1060 1064 1068 1072 1076 1080 1084 1088 1092 1096 1100 1104 1108 1112 1116 1120 1124 1128 1132 1136 1140 1144 1148 1152 1156 1160 1164 1168 1172 1176 1180 1184 1188 1192 1196 1200 1204 1208 1212 1216 1220 1224 1228 1232 1236 1240 1244 1248 1252 1256 1260 1264 1268 1272 1276 1280 1284 1288 1292 1296 1300 1304 1308 1312 1316 1320 1324 1328 1332 1336 1340 1344 1348 1352 1356 1360 1364 1368 1372 1376 1380 1384 1388 1392 1396 1400 1404 1408 1412 1416 1420 1424 1428 1432 1436 1440 1444 1448 1452 1456 1460 1464 1468 1472 1476 1480 1484 1488 1492 1496 1500 1504 1508 1512 1516 1520 1524 1528 1532 1536 1540 1544 1548 1552 1556 1560 1564 1568 1572 1576 1580 1584 1588 1592 1596 1600 1604 1608 1612 1616 1620 1624 1628 1632 1636 1640 1644 1648 1652 1656 1660 1664 1668 1672 1676 1680 1684 1688 1692 1696 1700 1704 1708 1712 1716 1720 1724 1728 1732 1736 1740 1744 1748 1752 1756 1760 1764 1768 1772 1776 1780 1784 1788 1792 1796 1800 1804 1808 1812 1816 1820 1824 1828 1832 1836 1840 1844 1848 1852 1856 1860 1864 1868 1872 1876 1880 1884 1888 1892 1896 1900 1904 1908 1912 1916 1920 1924 1928 1932 1936 1940 1944 1948 1952 1956 1960 1964 1968 1972 1976 1980 1984 1988 1992 1996 2000 2004 2008 2012 2016 2020 2024 2028 2032 2036 2040 2044 2048 2052 2056 2060 2064 2068 2072 2076 2080 2084 2088 2092 2096 2100 2104 2108 2112 2116 2120 2124 2128 2132 2136 2140 2144 2148 2152 2156 2160 2164 2168 2172 2176 2180 2184 2188 2192 2196 2200 2204 2208 2212 2216 2220 2224 2228 2232 2236 2240 2244 2248 2252 2256 2260 2264 2268 2272 2276 2280 2284 2288 2292 2296 2300 2304 2308 2312 2316 2320 2324 2328 2332 2336 2340 2344 2348 2352 2356 2360 2364 2368 2372 2376 2380 2384 2388 2392 2396 2400 2404 2408 2412 2416 2420 2424 2428 2432 2436 2440 2444 2448 2452 2456 2460 2464 2468 2472 2476 2480 2484 2488 2492 2496 2500 2504 2508 2512 2516 2520 2524 2528 2532 2536 2540 2544 2548 2552 2556 2560 2564 2568 2572 2576 2580 2584 2588 2592 2596 2600 2604 2608 2612 2616 2620 2624 2628 2632 2636 2640 2644 2648 2652 2656 2660 2664 2668 2672 2676 2680 2684 2688 2692 2696 2700 2704 2708 2712 2716 2720 2724 2728 2732 2736 2740 2744 2748 2752 2756 2760 2764 2768 2772 2776 2780 2784 2788 2792 2796 2800 2804 2808 2812 2816 2820 2824 2828 2832 2836 2840 2844 2848 2852 2856 2860 2864 2868 2872 2876 2880 2884 2888 2892 2896 2900 2904 2908 2912 2916 2920 2924 2928 2932 2936 2940 2944 2948 2952 2956 2960 2964 2968 2972 2976 2980 2984 2988 2992 2996 3000 3004 3008 3012 3016 3020 3024 3028 3032 3036 3040 3044 3048 3052 3056 3060 3064 3068 3072 3076 3080 3084 3088 3092 3096 3100 3104 3108 3112 3116 3120 3124 3128 3132 3136 3140 3144 3148 3152 3156 3160 3164 3168 3172 3176 3180 3184 3188 3192 3196 3200 3204 3208 3212 3216 3220 3224 3228 3232 3236 3240 3244 3248 3252 3256 3260 3264 3268 3272 3276 3280 3284 3288 3292 3296 3300 3304 3308 3312 3316 3320 3324 3328 3332 3336 3340 3344 3348 3352 3356 3360 3364 3368 3372 3376 3380 3384 3388 3392 3396 3400 3404 3408 3412 3416 3420 3424 3428 3432 3436 3440 3444 3448 3452 3456 3460 3464 3468 3472 3476 3480 3484 3488 3492 3496 3500 3504 3508 3512 3516 3520 3524 3528 3532 3536 3540 3544 3548 3552 3556 3560 3564 3568 3572 3576 3580 3584 3588 3592 3596 3600 3604 3608 3612 3616 3620 3624 3628 3632 3636 3640 3644 3648 3652 3656 3660 3664 3668 3672 3676 3680 3684 3688 3692 3696 3700 3704 3708 3712 3716 3720 3724 3728 3732 3736 3740 3744 3748 3752 3756 3760 3764 3768 3772 3776 3780 3784 3788 3792 3796 3800 3804 3808 3812 3816 3820 3824 3828 3832 3836 3840 3844 3848 3852 3856 3860 3864 3868 3872 3876 3880 3884 3888 3892 3896 3900 3904 3908 3912 3916 3920 3924 3928 3932 3936 3940 3944 3948 3952 3956 3960 3964 3968 3972 3976 3980 3984 3988 3992 3996 4000 4004 4008 4012 4016 4020 4024 4028 4032 4036 4040 4044 4048 4052 4056 4060 4064 4068 4072 4076 4080 4084 4088 4092 4096 4100 4104 4108 4112 4116 4120 4124 4128 4132 4136 4140 4144 4148 4152 4156 4160 4164 4168 4172 4176 4180 4184 4188 4192 4196 4200 4204 4208 4212 4216 4220 4224 4228 4232 4236 4240 4244 4248 4252 4256 4260 4264 4268 4272 4276 4280 4284 4288 4292 4296 4300 4304 4308 4312 4316 4320 4324 4328 4332 4336 4340 4344 4348 4352 4356 4360 4364 4368 4372 4376 4380 4384 4388 4392 4396 4400 4404 4408 4412 4416 4420 4424 4428 4432 4436 4440 4444 4448 4452 4456 4460 4464 4468 4472 4476 4480 4484 4488 4492 4496 4500 4504 4508 4512 4516 4520 4524 4528 4532 4536 4540 4544 4548 4552 4556 4560 4564 4568 4572 4576 4580 4584 4588 4592 4596 4600 4604 4608 4612 4616 4620 4624 4628 4632 4636 4640 4644 4648 4652 4656 4660 4664 4668 4672 4676 4680 4684 4688 4692 4696 4700 4704 4708 4712 4716 4720 4724 4728 4732 4736 4740 4744 4748 4752 4756 4760 4764 4768 4772 4776 4780 4784 4788 4792 4796 4800 4804 4808 4812 4816 4820 4824 4828 4832 4836 4840 4844 4848 4852 4856 4860 4864 4868 4872 4876 4880 4884 4888 4892 4896 4900 4904 4908 4912 4916 4920 4924 4928 4932 4936 4940 4944 4948 4952 4956 4960 4964 4968 4972 4976 4980 4984 4988 4992 4996 5000 5004 5008 5012 5016 5020 5024 5028 5032 5036 5040 5044 5048 5052 5056 5060 5064 5068 5072 5076 5080 5084 5088 5092 5096 5100 5104 5108 5112 5116 5120 5124 5128 5132 5136 5140 5144 5148 5152 5156 5160 5164 5168 5172 5176 5180 5184 5188 5192 5196 5200 5204 5208 5212 5216 5220 5224 5228 5232 5236 5240 5244 5248 5252 5256 5260 5264 5268 5272 5276 5280 5284 5288 5292 5296 5300 5304 5308 5312 5316 5320 5324 5328 5332 5336 5340 5344 5348 5352 5356 5360 5364 5368 5372 5376 5380 5384 5388 5392 5396 5400 5404 5408 5412 5416 5420 5424 5428 5432 5436 5440 5444 5448 5452 5456 5460 5464 5468 5472 5476 5480 5484 5488 5492 5496 5500 5504 5508 5512 5516 5520 5524 5528 5532 5536 5540 5544 5548 5552 5556 5560 5564 5568 5572 5576 5580 5584 5588 5592 5596 5600 5604 5608 5612 5616 5620 5624 5628 5632 5636 5640 5644 5648 5652 5656 5660 5664 5668 5672 5676 5680 5684 5688 5692 5696 5700 5704 5708 5712 5716 5720 5724 5728 5732 5736 5740 5744 5748 5752 5756 5760 5764 5768 5772 5776 5780 5784 5788 5792 5796 5800 5804 5808 5812 5816 5820 5824 5828 5832 5836 5840 5844 5848 5852 5856 5860 5864 5868 5872 5876 5880 5884 5888 5892 5896 5900 5904 5908 5912 5916 5920 5924 5928 5932 5936 5940 5944 5948 5952 5956 5960 5964 5968 5972 5976 5980 5984 5988 5992 5996 6000 6004 6008 6012 6016 6020 6024 6028 6032 6036 6040 6044 6048 6052 6056 6060 6064 6068 6072 6076 6080 6084 6088 6092 6096 6100 6104 6108 6112 6116 6120 6124 6128 6132 6136 6140 6144 6148 6152 6156 6160 6164 6168 6172 6176 6180 6184 6188 6192 6196 6200 6204 6208 6212 6216 6220 6224 6228 6232 6236 6240 6244 6248 6252 6256 6260 6264 6268 6272 6276 6280 6284 6288 6292 6296 6300 6304 6308 6312 6316 6320 6324 6328 6332 6336 6340 6344 6348 6352 6356 6360 6364 6368 6372 6376 6380 6384 6388 6392 6396 6400 6404 6408 6412 6416 6420 6424 6428 6432 6436 6440 6444 6448 6452 6456 6460 6464 6468 6472 6476 6480 6484 6488 6492 6496 6500 6504 6508 6512 6516 6520 6524 6528 6532 6536 6540 6544 6548 6552 6556 6560 6564 6568 6572 6576 6580 6584 6588 6592 6596 6600 6604 6608 6612 6616 6620 6624 6628 6632 6636 6640 6644 6648 6652 6656 6660 6664 6668 6672 6676 6680 6684 6688 6692 6696 6700 6704 6708 6712 6716 6720 6724 6728 6732 6736 6740 6744 6748 6752 6756 6760 6764 6768 6772 6776 6780 6784 6788 6792 6796 6800 6804 6808 6812 6816 6820 6824 6828 6832 6836 6840 6844 6848 6852 6856 6860 6864 6868 6872 6876 6880 6884 6888 6892 6896 6900 6904 6908 6912 6916 6920 6924 6928 6932 6936 6940 6944 6948 6952 6956 6960 6964 6968 6972 6976 6980 6984 6988 6992 6996 7000 7004 7008 7012 7016 7020 7024 7028 7032 7036 7040 7044 7048 7052 7056 7060 7064 7068 7072 7076 7080 7084 7088 7092 7096 7100 7104 7108 7112 7116 7120 7124 7128 7132 7136 7140 7144 7148 7152 7156 7160 7164 7168 7172 7176 7180 7184 7188 7192 7196 7200 7204 7208 7212 7216 7220 7224 7228 7232 7236 7240 7244 7248 7252 7256 7260 7264 7268 7272 7276 7280 7284 7288 7292 7296 7300 7304 7308 7312 7316 7320 7324 7328 7332 7336 7340 7344 7348 7352 7356 7360 7364 7368 7372 7376 7380 7384 7388 7392 7396 7400 7404 7408 7412 7416 7420 7424 7428 7432 7436 7440 7444 7448 7452 7456 7460 7464 7468 7472 7476 7480 7484 7488 7492 7496 7500 7504 7508 7512 7516 7520 7524 7528 7532 7536 7540 7544 7548 7552 7556 7560 7564 7568 7572 7576 7580 7584 7588 7592 7596 7600 7604 7608 7612 7616 7620 7624 7628 7632 7636 7640 7644 7648 7652 7656 7660 7664 7668 7672 7676 7680 7684 7688 7692 7696 7700 7704 7708 7712 7716 7720 7724 7728 7732 7736 7740 7744 7748 7752 7756 7760 7764 7768 7772 7776 7780 7784 7788 7792 7796 7800 7804 7808 7812 7816 7820 7824 7828 7832 7836 7840 7844 7848 7852 7856 7860 7864 7868 7872 7876 7880 7884 7888 7892 7896 7900 7904 7908 7912 7916 7920 7924 7928 7932 7936 7940 7944 7948 7952 7956 7960 7964 7968 7972 7976 7980 7984 7988 7992 7996 8000 8004 8008 8012 8016 8020 8024 8028 8032 8036 8040 8044 8048 8052 8056 8060 8064 8068 8072 8076 8080 8084 8088 8092 8096 8100 8104 8108 8112 8116 8120 8124 8128 8132 8136 8140 8144 8148 8152 8156 8160 8164 8168 8172 8176 8180 8184 8188 8192 8196 8200 8204 8208 8212 8216 8220 8224 8228 8232 8236 8240 8244 8248 8252 8256 8260 8264 8268 8272 8276 8280 8284 8288 8292 8296 8300 8304 8308 8312 8316 8320 8324 8328 8332 8336 8340 8344 8348 8352 8356 8360 8364 8368 8372 8376 8380 8384 8388 8392 8396 8400 8404 8408 8412 8416 8420 8424 8428 8432 8436 8440 8444 8448 8452 8456 8460 8464 8468 8472 8476 8480 8484 8488 8492 8496 8500 8504 8508 8512 8516 8520 8524 8528 8532 8536 8540 8544 8548 8552 8556 8560 8564 8568 8572 8576 8580 8584 8588 8592 8596 8600 8604 8608 8612 8616 8620 8624 8628 8632 8636 8640 8644 8648 8652 8656 8660 8664 8668 8672 8676 8680 8684 8688 8692 8696 8700 8704 8708 8712 8716 8720 8724 8728 8732 8736 8740 8744 8748 8752 8756 8760 8764 8768 8772 8776 8780 8784 8788 8792 8796 8800 8804 8808 8812 8816 8820 8824 8828 8832 </DataArray>
            <DataArray Name="types" format="ascii" type="UInt8">10 10 10 10 10 10 10 10 10 10 10 10 10 10 10 10 10 10 10 10 10 10 10 10 10 10 10 10 10 10 10 10 10 10 10 10 10 10 10 10 10 10 10 10 10 10 10 10 10 10 10 10 10 10 10 10 10 10 10 10 10 10 10 10 10 10 10 10 10 10 10 10 10 10 10 10 10 10 10 10 10 10 10 10 10 10 10 10 10 10 10 10 10 10 10 10 10 10 10 10 10 10 10 10 10 10 10 10 10 10 10 10 10 10 10 10 10 10 10 10 10 10 10 10 10 10 10 10 10 10 10 10 10 10 10 10 10 10 10 10 10 10 10 10 10 10 10 10 10 10 10 10 10 10 10 10 10 10 10 10 10 10 10 10 10 10 10 10 10 10 10 10 10 10 10 10 10 10 10 10 10 10 10 10 10 10 10 10 10 10 10 10 10 10 10 10 10 10 10 10 10 10 10 10 10 10 10 10 10 10 10 10 10 10 10 10 10 10 10 10 10 10 10 10 10 10 10 10 10 10 10 10 10 10 10 10 10 10 10 10 10 10 10 10 10 10 10 10 10 10 10 10 10 10 10 10 10 10 10 10 10 10 10 10 10 10 10 10 10 10 10 10 10 10 10 10 10 10 10 10 10 10 10 10 10 10 10 10 10 10 10 10 10 10 10 10 10 10 10 10 10 10 10 10 10 10 10 10 10 10 10 10 10 10 10 10 10 10 10 10 10 10 10 10 10 10 10 10 10 10 10 10 10 10 10 10 10 10 10 10 10 10 10 10 10 10 10 10 10 10 10 10 10 10 10 10 10 10 10 10 10 10 10 10 10 10 10 10 10 10 10 10 10 10 10 10 10 10 10 10 10 10 10 10 10 10 10 10 10 10 10 10 10 10 10 10 10 10 10 10 10 10 10 10 10 10 10 10 10 10 10 10 10 10 10 10 10 10 10 10 10 10 10 10 10 10 10 10 10 10 10 10 10 10 10 10 10 10 10 10 10 10 10 10 10 10 10 10 10 10 10 10 10 10 10 10 10 10 10 10 10 10 10 10 10 10 10 10 10 10 10 10 10 10 10 10 10 10 10 10 10 10 10 10 10 10 10 10 10 10 10 10 10 10 10 10 10 10 10 10 10 10 10 10 10 10 10 10 10 10 10 10 10 10 10 10 10 10 10 10 10 10 10 10 10 10 10 10 10 10 10 10 10 10 10 10 10 10 10 10 10 10 10 10 10 10 10 10 10 10 10 10 10 10 10 10 10 10 10 10 10 10 10 10 10 10 10 10 10 10 10 10 10 10 10 10 10 10 10 10 10 10 10 10 10 10 10 10 10 10 10 10 10 10 10 10 10 10 10 10 10 10 10 10 10 10 10 10 10 10 10 10 10 10 10 10 10 10 10 10 10 10 10 10 10 10 10 10 10 10 10 10 10 10 10 10 10 10 10 10 10 10 10 10 10 10 10 10 10 10 10 10 10 10 10 10 10 10 10 10 10 10 10 10 10 10 10 10 10 10 10 10 10 10 10 10 10 10 10 10 10 10 10 10 10 10 10 10 10 10 10 10 10 10 10 10 10 10 10 10 10 10 10 10 10 10 10 10 10 10 10 10 10 10 10 10 10 10 10 10 10 10 10 10 10 10 10 10 10 10 10 10 10 10 10 10 10 10 10 10 10 10 10 10 10 10 10 10 10 10 10 10 10 10 10 10 10 10 10 10 10 10 10 10 10 10 10 10 10 10 10 10 10 10 10 10 10 10 10 10 10 10 10 10 10 10 10 10 10 10 10 10 10 10 10 10 10 10 10 10 10 10 10 10 10 10 10 10 10 10 10 10 10 10 10 10 10 10 10 10 10 10 10 10 10 10 10 10 10 10 10 10 10 10 10 10 10 10 10 10 10 10 10 10 10 10 10 10 10 10 10 10 10 10 10 10 10 10 10 10 10 10 10 10 10 10 10 10 10 10 10 10 10 10 10 10 10 10 10 10 10 10 10 10 10 10 10 10 10 10 10 10 10 10 10 10 10 10 10 10 10 10 10 10 10 10 10 10 10 10 10 10 10 10 10 10 10 10 10 10 10 10 10 10 10 10 10 10 10 10 10 10 10 10 10 10 10 10 10 10 10 10 10 10 10 10 10 10 10 10 10 10 10 10 10 10 10 10 10 10 10 10 10 10 10 10 10 10 10 10 10 10 10 10 10 10 10 10 10 10 10 10 10 10 10 10 10 10 10 10 10 10 10 10 10 10 10 10 10 10 10 10 10 10 10 10 10 10 10 10 10 10 10 10 10 10 10 10 10 10 10 10 10 10 10 10 10 10 10 10 10 10 10 10 10 10 10 10 10 10 10 10 10 10 10 10 10 10 10 10 10 10 10 10 10 10 10 10 10 10 10 10 10 10 10 10 10 10 10 10 10 10 10 10 10 10 10 10 10 10 10 10 10 10 10 10 10 10 10 10 10 10 10 10 10 10 10 10 10 10 10 10 10 10 10 10 10 10 10 10 10 10 10 10 10 10 10 10 10 10 10 10 10 10 10 10 10 10 10 10 10 10 10 10 10 10 10 10 10 10 10 10 10 10 10 10 10 10 10 10 10 10 10 10 10 10 10 10 10 10 10 10 10 10 10 10 10 10 10 10 10 10 10 10 10 10 10 10 10 10 10 10 10 10 10 10 10 10 10 10 10 10 10 10 10 10 10 10 10 10 10 10 10 10 10 10 10 10 10 10 10 10 10 10 10 10 10 10 10 10 10 10 10 10 10 10 10 10 10 10 10 10 10 10 10 10 10 10 10 10 10 10 10 10 10 10 10 10 10 10 10 10 10 10 10 10 10 10 10 10 10 10 10 10 10 10 10 10 10 10 10 10 10 10 10 10 10 10 10 10 10 10 10 10 10 10 10 10 10 10 10 10 10 10 10 10 10 10 10 10 10 10 10 10 10 10 10 10 10 10 10 10 10 10 10 10 10 10 10 10 10 10 10 10 10 10 10 10 10 10 10 10 10 10 10 10 10 10 10 10 10 10 10 10 10 10 10 10 10 10 10 10 10 10 10 10 10 10 10 10 10 10 10 10 10 10 10 10 10 10 10 10 10 10 10 10 10 10 10 10 10 10 10 10 10 10 10 10 10 10 10 10 10 10 10 10 10 10 10 10 10 10 10 10 10 10 10 10 10 10 10 10 10 10 10 10 10 10 10 10 10 10 10 10 10 10 10 10 10 10 10 10 10 10 10 10 10 10 10 10 10 10 10 10 10 10 10 10 10 10 10 10 10 10 10 10 10 10 10 10 10 10 10 10 10 10 10 10 10 10 10 10 10 10 10 10 10 10 10 10 10 10 10 10 10 10 10 10 10 10 10 10 10 10 10 10 10 10 10 10 10 10 10 10 10 10 10 10 10 10 10 10 10 10 10 10 10 10 10 10 10 10 10 10 10 10 10 10 10 10 10 10 10 10 10 10 10 10 10 10 10 10 10 10 10 10 10 10 10 10 10 10 10 10 10 10 10 10 10 10 10 10 10 10 10 10 10 10 10 10 10 10 10 10 10 10 10 10 10 10 10 10 10 10 10 10 10 10 10 10 10 10 10 10 10 10 10 10 10 10 10 10 10 10 10 10 10 10 10 10 10 10 10 10 10 10 10 10 10 10 10 10 10 10 10 10 10 10 10 10 10 10 10 10 10 10 10 10 10 10 10 10 10 10 10 10 10 10 10 10 10 10 10 10 10 10 10 10 10 10 10 10 10 10 10 10 10 10 10 10 10 10 10 10 10 10 10 10 10 10 10 10 10 10 10 10 10 10 10 10 10 10 10 10 10 10 10 10 10 10 10 10 10 10 10 10 10 10 10 10 10 10 10 10 10 10 10 10 10 10 10 10 10 10 10 10 10 10 10 10 10 10 10 10 10 10 10 10 10 10 10 10 10 10 10 10 10 10 10 10 10 10 10 10 10 10 10 10 10 10 10 10 10 10 10 10 10 10 10 10 10 10 10 10 10 10 10 10 10 10 10 10 10 10 10 10 10 10 10 10 10 10 10 10 10 10 10 10 10 10 10 10 10 10 10 10 10 10 10 10 10 10 10 10 10 10 10 10 10 10 10 10 10 10 10 10 10 10 10 10 10 10 10 10 10 10 10 10 10 10 10 10 10 10 10 10 10 10 10 10 10 10 10 10 10 10 10 10 10 10 10 10 10 10 10 10 10 10 10 10 10 10 10 10 10 10 10 10 10 10 10 10 10 10 10 10 10 10 10 10 10 10 10 10 10 10 10 10 10 10 10 10 10 10 10 10 10 10 10 10 10 10 10 10 10 10 10 10 10 10 10 10 10 10 10 10 10 10 10 10 10 10 10 10 10 10 10 10 10 10 10 10 10 10 10 10 10 10 10 10 10 10 10 10 10 10 10 10 10 10 10 10 10 10 10 10 10 10 10 10 10 10 10 10 10 10 10 10 10 10 10 10 10 10 10 10 10 10 10 10 10 10 10 10 10 10 10 10 10 10 10 10 10 10 10 10 10 10 10 10 10 10 10 10 10 10 10 10 10 10 10 10 10 10 10 10 10 10 10 10 10 10 10 10 10 10 10 10 10 10 10 10 10 10 10 10 10 10 10 10 10 10 10 10 10 10 10 10 10 10 10 10 10 10 10 10 10 10 10 10 10 10 10 10 10 10 10 10 10 10 10 10 10 10 10 10 10 10 10 10 10 10 10 10 10 10 10 10 10 10 10 10 10 10 10 10 10 10 10 10 10 10 10 10 10 10 10 10 10 10 10 10 10 10 10 10 10 10 10 10 10 10 10 10 10 10 10 10 10 10 10 10 10 10 10 10 10 10 10 10 10 10 10 10 10 10 10 10 10 10 10 10 10 10 10 10 10 10 10 10 10 10 10 10 10 10 10 10 10 10 10 10 10 10 10 10 10 10 10 10 10 10 10 10 10 10 10 10 10 10 10 10 10 10 10 10 10 10 </DataArray>
         </Cells>
         <PointData>
            <DataArray Name="fValues" NumberOfComponents="1" format="ascii" type="Float64">
       00000 
       00000 
       00000 
       00000 
       00000 
       00000 
       00000 
       00000 
       00000 
       00000 
       00000 
       00000 
       00000 
       00000 
       00000 
       00000 
       00000 
       00000 
       00000 
       00000 
       00000 
       00000 
       00000 
       00000 
       00000 
       00000 
       00000 
       00000 
       00000 
       00000 
       00000 
       00000 
       00000 
       00000 
       00000 
       00000 
       00000 
       00000 
       00000 
       00000 
       00000 
       00000 
       00000 
       00000 
       00000 
       00000 
       00000 
       00000 
       00000 
       00000 
       00000 
       00000 
       00000 
       00000 
       00000 
       00000 
       00000 
       00000 
       00000 
       00000 
       00000 
       00000 
       00000 
       00000 
       00000 
       00000 
       00000 
       00000 
       00000 
       00000 
       00000 
       00000 
       00000 
       00000 
       00000 
       00000 
       00000 
       00000 
       00000 
       00000 
       00000 
       00000 
       00000 
       00000 
       00000 
       00000 
       00000 
       00000 
       00000 
       00000 
       00000 
       00000 
       00000 
       00000 
       00000 
       00000 
       00000 
       00000 
       00000 
       00000 
       00000 
       00000 
       00000 
       00000 
       00000 
       00000 
       00000 
       00000 
       00000 
       00000 
       00000 
       00000 
       00000 
       00000 
       00000 
       00000 
       00000 
       00000 
       00000 
       00000 
       00000 
       00000 
       00000 
       00000 
       00000 
       00000 
       00000 
       00000 
       00000 
       00000 
       00000 
       00000 
       00000 
       00000 
       00000 
       00000 
       00000 
       00000 
       00000 
       00000 
       00000 
       00000 
       00000 
       00000 
       00000 
       00000 
       00000 
       00000 
       00000 
       00000 
       00000 
       00000 
       00000 
       00000 
       00000 
       00000 
       00000 
       00000 
       00000 
       00000 
       00000 
       00000 
       00000 
       00000 
       00000 
       00000 
       00000 
       00000 
       00000 
       00000 
       00000 
       00000 
       00000 
       00000 
       00000 
       00000 
       00000 
       00000 
       00000 
       00000 
       00000 
       00000 
       00000 
       00000 
       00000 
       00000 
       00000 
       00000 
       00000 
       00000 
       00000 
       00000 
       00000 
       00000 
       00000 
       00000 
       00000 
       00000 
       00000 
       00000 
       00000 
       00000 
       00000 
       00000 
       00000 
       00000 
       00000 
       00000 
       00000 
       00000 
       00000 
       00000 
       00000 
       00000 
       00000 
       00000 
       00000 
       00000 
       00000 
       00000 
       00000 
       00000 
       00000 
       00000 
       00000 
       00000 
       00000 
       00000 
       00000 
       00000 
       00000 
       00000 
       00000 
       00000 
       00000 
       00000 
       00000 
       00000 
       00000 
       00000 
       00000 
       00000 
       00000 
       00000 
       00000 
       00000 
       00000 
       00000 
       00000 
       00000 
       00000 
       00000 
       00000 
       00000 
       00000 
       00000 
       00000 
       00000 
       00000 
       00000 
       00000 
       00000 
       00000 
       00000 
       00000 
       00000 
       00000 
       00000 
       00000 
       00000 
       00000 
       00000 
       00000 
       00000 
       00000 
       00000 
       00000 
       00000 
       00000 
       00000 
       00000 
       00000 
       00000 
       00000 
       00000 
       00000 
       00000 
       00000 
       00000 
       00000 
       00000 
       00000 
       00000 
       00000 
       00000 
       00000 
       00000 
       00000 
       00000 
       00000 
       00000 
       00000 
       00000 
       00000 
       00000 
       00000 
       00000 
       00000 
       00000 
       00000 
       00000 
       00000 
       00000 
       00000 
       00000 
       00000 
       00000 
       00000 
       00000 
       00000 
       00000 
       00000 
       00000 
       00000 
       00000 
       00000 
       00000 
       00000 
       00000 
       00000 
       00000 
       00000 
       00000 
       00000 
       00000 
       00000 
       00000 
       00000 
       00000 
       00000 
       00000 
       00000 
       00000 
       00000 
       00000 
       00000 
       00000 
       00000 
       00000 
       00000 
       00000 
       00000 
       00000 
       00000 
       00000 
       00000 
       00000 
       00000 
       00000 
       00000 
       00000 
       00000 
       00000 
       00000 
       00000 
       00000 
       00000 
       00000 
       00000 
       00000 
       00000 
       00000 
       00000 
       00000 
       00000 
       00000 
       00000 
       00000 
       00000 
       00000 
       00000 
       00000 
       00000 
       00000 
       00000 
       00000 
       00000 
       00000 
       00000 
       00000 
       00000 
       00000 
       00000 
       00000 
       00000 
       00000 
       00000 
       00000 
       00000 
       00000 
       00000 
       00000 
       00000 
       00000 
       00000 
       00000 
       00000 
       00000 
       00000 
       00000 
       00000 
       00000 
       00000 
       00000 
       00000 
       00000 
       00000 
       00000 
       00000 
       00000 
       00000 
       00000 
       00000 
       00000 
       00000 
       00000 
       00000 
       00000 
       00000 
       00000 
       00000 
       00000 
       00000 
       00000 
       00000 
       00000 
       00000 
       00000 
       00000 
       00000 
       00000 
       00000 
       00000 
       00000 
       00000 
       00000 
       00000 
       00000 
       00000 
       00000 
       00000 
       00000 
       00000 
       00000 
       00000 
       00000 
       00000 
       00000 
       00000 
       00000 
       00000 
       00000 
       00000 
       00000 
       00000 
       00000 
       00000 
       00000 
       00000 
       00000 
       00000 
       00000 
       00000 
       00000 
       00000 
       00000 
       00000 
       00000 
       00000 
       00000 
       00000 
       00000 
       00000 
       00000 
       00000 
       00000 
       00000 
       00000 
       00000 
       00000 
       00000 
       00000 
       00000 
       00000 
       00000 
       00000 
       00000 
       00000 
       00000 
       00000 
       00000 
       00000 
       00000 
       00000 
       00000 
       00000 
       00000 
       00000 
       00000 
       00000 
       00000 
       00000 
       00000 
       00000 
       00000 
       00000 
       00000 
       00000 
       00000 
       00000 
       00000 
       00000 
       00000 
       00000 
       00000 
       00000 
       00000 
       00000 
       00000 
       00000 
       00000 
       00000 
       00000 
       00000 
       00000 
       00000 
       00000 
       00000 
       00000 
       00000 
       00000 
       00000 
       00000 
       00000 
       00000 
       00000 
       00000 
       00000 
       00000 
       00000 
       00000 
       00000 
       00000 
       00000 
       00000 
       00000 
       00000 
       00000 
       00000 
       00000 
       00000 
       00000 
       00000 
       00000 
       00000 
       00000 
       00000 
       00000 
       00000 
       00000 
       00000 
       00000 
       00000 
       00000 
       00000 
       00000 
       00000 
       00000 
       00000 
       00000 
       00000 
       00000 
       00000 
       00000 
       00000 
       00000 
       00000 
       00000 
       00000 
       00000 
       00000 
       00000 
       00000 
       00000 
       00000 
       00000 
       00000 
       00000 
       00000 
       00000 
       00000 
       00000 
       00000 
       00000 
       00000 
       00000 
       00000 
       00000 
       00000 
       00000 
       00000 
       00000 
       00000 
       00000 
       00000 
       00000 
       00000 
       00000 
       00000 
       00000 
       00000 
       00000 
       00000 
       00000 
       00000 
       00000 
       00000 
       00000 
       00000 
       00000 
       00000 
       00000 
       00000 
       00000 
       00000 
       00000 
       00000 
       00000 
       00000 
       00000 
       00000 
       00000 
       00000 
       00000 
       00000 
       00000 
       00000 
       00000 
       00000 
       00000 
       00000 
       00000 
       00000 
       00000 
       00000 
       00000 
       00000 
       00000 
       00000 
       00000 
       00000 
       00000 
       00000 
       00000 
       00000 
       00000 
       00000 
       00000 
       00000 
       00000 
       00000 
       00000 
       00000 
       00000 
       00000 
       00000 
       00000 
       00000 
       00000 
       00000 
       00000 
       00000 
       00000 
       00000 
       00000 
       00000 
       00000 
       00000 
       00000 
       00000 </DataArray>
         </PointData>
         <CellData/>
      </Piece>
   </UnstructuredGrid>
</VTKFile>