<?xml version="1.0" encoding="utf-8"?>
<VTKFile byte_order="LittleEndian" type="UnstructuredGrid" version="0.1">
   <UnstructuredGrid>
      <Piece NumberOfCells="392" NumberOfPoints="218">
         <Points>
            <DataArray Name="Points" NumberOfComponents="3" format="ascii" type="Float32">
0.0000 0.0000 0.0000
0.0000 0.1429 0.0000
0.0000 0.2857 0.0000
0.0000 0.4286 0.0000
0.0000 0.5714 0.0000
0.0000 0.7143 0.0000
0.0000 0.8571 0.0000
0.0000 1.0000 0.0000
0.0000 1.1429 0.0000
0.0000 1.2857 0.0000
0.0000 1.4286 0.0000
0.0000 1.5714 0.0000
0.0000 1.7143 0.0000
0.0000 1.8571 0.0000
0.0000 2.0000 0.0000
0.1429 0.0000 0.0000
0.1429 0.1429 0.0000
0.1429 0.2857 0.0000
0.1429 0.4286 0.0000
0.1429 0.5714 0.0000
0.1429 0.7143 0.0000
0.1429 0.8571 0.0000
0.1429 1.0000 0.0000
0.1429 1.1429 0.0000
0.1429 1.2857 0.0000
0.1429 1.4286 0.0000
0.1429 1.5714 0.0000
0.1429 1.7143 0.0000
0.1429 1.8571 0.0000
0.1429 2.0000 0.0000
0.2857 0.0000 0.0000
0.2857 0.1429 0.0000
0.2857 0.2857 0.0000
0.2857 0.4286 0.0000
0.2857 0.5714 0.0000
0.2857 0.7143 0.0000
0.2857 0.8571 0.0000
0.2857 1.0000 0.0000
0.2857 1.1429 0.0000
0.2857 1.2857 0.0000
0.2857 1.4286 0.0000
0.2857 1.5714 0.0000
0.2857 1.7143 0.0000
0.2857 1.8571 0.0000
0.2857 2.0000 0.0000
0.4286 0.0000 0.0000
0.4286 0.1429 0.0000
0.4286 0.2857 0.0000
0.4286 0.4286 0.0000
0.4286 0.5714 0.0000
0.4286 0.7143 0.0000
0.4286 0.8571 0.0000
0.4286 1.0000 0.0000
0.4286 1.1429 0.0000
0.4286 1.2857 0.0000
0.4286 1.4286 0.0000
0.4286 1.5714 0.0000
0.4286 1.7143 0.0000
0.4286 1.8571 0.0000
0.4286 2.0000 0.0000
0.5714 0.0000 0.0000
0.5714 0.1429 0.0000
0.5714 0.2857 0.0000
0.5714 0.4286 0.0000
0.5714 0.5714 0.0000
0.5714 0.7143 0.0000
0.5714 0.8571 0.0000
0.5714 1.0000 0.0000
0.5714 1.1429 0.0000
0.5714 1.2857 0.0000
0.5714 1.4286 0.0000
0.5714 1.5714 0.0000
0.5714 1.7143 0.0000
0.5714 1.8571 0.0000
0.5714 2.0000 0.0000
0.7143 0.0000 0.0000
0.7143 0.1429 0.0000
0.7143 0.2857 0.0000
0.7143 0.4286 0.0000
0.7143 0.5714 0.0000
0.7143 0.7143 0.0000
0.7143 0.8571 0.0000
0.7143 1.0000 0.0000
0.7143 1.1429 0.0000
0.7143 1.2857 0.0000
0.7143 1.4286 0.0000
0.7143 1.5714 0.0000
0.7143 1.7143 0.0000
0.7143 1.8571 0.0000
0.7143 2.0000 0.0000
0.8571 0.0000 0.0000
0.8571 0.1429 0.0000
0.8571 0.2857 0.0000
0.8571 0.4286 0.0000
0.8571 0.5714 0.0000
0.8571 0.7143 0.0000
0.8571 0.8571 0.0000
0.8571 1.0000 0.0000
0.8571 1.1429 0.0000
0.8571 1.2857 0.0000
0.8571 1.4286 0.0000
0.8571 1.5714 0.0000
0.8571 1.7143 0.0000
0.8571 1.8571 0.0000
0.8571 2.0000 0.0000
1.0000 0.0000 0.0000
1.0000 0.1429 0.0000
1.0000 0.2857 0.0000
1.0000 0.4286 0.0000
1.0000 0.5714 0.0000
1.0000 0.7143 0.0000
1.0000 0.8571 0.0000
1.0000 1.0000 0.0000
1.0000 1.1429 0.0000
1.0000 1.2857 0.0000
1.0000 1.4286 0.0000
1.0000 1.5714 0.0000
1.0000 1.7143 0.0000
1.0000 1.8571 0.0000
1.0000 2.0000 0.0000
0.0714 0.0714 0.0000
0.0714 0.2143 0.0000
0.0714 0.3571 0.0000
0.0714 0.5000 0.0000
0.0714 0.6429 0.0000
0.0714 0.7857 0.0000
0.0714 0.9286 0.0000
0.0714 1.0714 0.0000
0.0714 1.2143 0.0000
0.0714 1.3571 0.0000
0.0714 1.5000 0.0000
0.0714 1.6429 0.0000
0.0714 1.7857 0.0000
0.0714 1.9286 0.0000
0.2143 0.0714 0.0000
0.2143 0.2143 0.0000
0.2143 0.3571 0.0000
0.2143 0.5000 0.0000
0.2143 0.6429 0.0000
0.2143 0.7857 0.0000
0.2143 0.9286 0.0000
0.2143 1.0714 0.0000
0.2143 1.2143 0.0000
0.2143 1.3571 0.0000
0.2143 1.5000 0.0000
0.2143 1.6429 0.0000
0.2143 1.7857 0.0000
0.2143 1.9286 0.0000
0.3571 0.0714 0.0000
0.3571 0.2143 0.0000
0.3571 0.3571 0.0000
0.3571 0.5000 0.0000
0.3571 0.6429 0.0000
0.3571 0.7857 0.0000
0.3571 0.9286 0.0000
0.3571 1.0714 0.0000
0.3571 1.2143 0.0000
0.3571 1.3571 0.0000
0.3571 1.5000 0.0000
0.3571 1.6429 0.0000
0.3571 1.7857 0.0000
0.3571 1.9286 0.0000
0.5000 0.0714 0.0000
0.5000 0.2143 0.0000
0.5000 0.3571 0.0000
0.5000 0.5000 0.0000
0.5000 0.6429 0.0000
0.5000 0.7857 0.0000
0.5000 0.9286 0.0000
0.5000 1.0714 0.0000
0.5000 1.2143 0.0000
0.5000 1.3571 0.0000
0.5000 1.5000 0.0000
0.5000 1.6429 0.0000
0.5000 1.7857 0.0000
0.5000 1.9286 0.0000
0.6429 0.0714 0.0000
0.6429 0.2143 0.0000
0.6429 0.3571 0.0000
0.6429 0.5000 0.0000
0.6429 0.6429 0.0000
0.6429 0.7857 0.0000
0.6429 0.9286 0.0000
0.6429 1.0714 0.0000
0.6429 1.2143 0.0000
0.6429 1.3571 0.0000
0.6429 1.5000 0.0000
0.6429 1.6429 0.0000
0.6429 1.7857 0.0000
0.6429 1.9286 0.0000
0.7857 0.0714 0.0000
0.7857 0.2143 0.0000
0.7857 0.3571 0.0000
0.7857 0.5000 0.0000
0.7857 0.6429 0.0000
0.7857 0.7857 0.0000
0.7857 0.9286 0.0000
0.7857 1.0714 0.0000
0.7857 1.2143 0.0000
0.7857 1.3571 0.0000
0.7857 1.5000 0.0000
0.7857 1.6429 0.0000
0.7857 1.7857 0.0000
0.7857 1.9286 0.0000
0.9286 0.0714 0.0000
0.9286 0.2143 0.0000
0.9286 0.3571 0.0000
0.9286 0.5000 0.0000
0.9286 0.6429 0.0000
0.9286 0.7857 0.0000
0.9286 0.9286 0.0000
0.9286 1.0714 0.0000
0.9286 1.2143 0.0000
0.9286 1.3571 0.0000
0.9286 1.5000 0.0000
0.9286 1.6429 0.0000
0.9286 1.7857 0.0000
0.9286 1.9286 0.0000</DataArray>
         </Points>
         <Cells>
            <DataArray Name="connectivity" format="ascii" type="Int32">
 1 0 120
 2 1 121
 3 2 122
 4 3 123
 5 4 124
 6 5 125
 7 6 126
 8 7 127
 9 8 128
 10 9 129
 11 10 130
 12 11 131
 13 12 132
 14 13 133
 16 15 134
 17 16 135
 18 17 136
 19 18 137
 20 19 138
 21 20 139
 22 21 140
 23 22 141
 24 23 142
 25 24 143
 26 25 144
 27 26 145
 28 27 146
 29 28 147
 31 30 148
 32 31 149
 33 32 150
 34 33 151
 35 34 152
 36 35 153
 37 36 154
 38 37 155
 39 38 156
 40 39 157
 41 40 158
 42 41 159
 43 42 160
 44 43 161
 46 45 162
 47 46 163
 48 47 164
 49 48 165
 50 49 166
 51 50 167
 52 51 168
 53 52 169
 54 53 170
 55 54 171
 56 55 172
 57 56 173
 58 57 174
 59 58 175
 61 60 176
 62 61 177
 63 62 178
 64 63 179
 65 64 180
 66 65 181
 67 66 182
 68 67 183
 69 68 184
 70 69 185
 71 70 186
 72 71 187
 73 72 188
 74 73 189
 76 75 190
 77 76 191
 78 77 192
 79 78 193
 80 79 194
 81 80 195
 82 81 196
 83 82 197
 84 83 198
 85 84 199
 86 85 200
 87 86 201
 88 87 202
 89 88 203
 91 90 204
 92 91 205
 93 92 206
 94 93 207
 95 94 208
 96 95 209
 97 96 210
 98 97 211
 99 98 212
 100 99 213
 101 100 214
 102 101 215
 103 102 216
 104 103 217
 16 1 120
 17 2 121
 18 3 122
 19 4 123
 20 5 124
 21 6 125
 22 7 126
 23 8 127
 24 9 128
 25 10 129
 26 11 130
 27 12 131
 28 13 132
 29 14 133
 31 16 134
 32 17 135
 33 18 136
 34 19 137
 35 20 138
 36 21 139
 37 22 140
 38 23 141
 39 24 142
 40 25 143
 41 26 144
 42 27 145
 43 28 146
 44 29 147
 46 31 148
 47 32 149
 48 33 150
 49 34 151
 50 35 152
 51 36 153
 52 37 154
 53 38 155
 54 39 156
 55 40 157
 56 41 158
 57 42 159
 58 43 160
 59 44 161
 61 46 162
 62 47 163
 63 48 164
 64 49 165
 65 50 166
 66 51 167
 67 52 168
 68 53 169
 69 54 170
 70 55 171
 71 56 172
 72 57 173
 73 58 174
 74 59 175
 76 61 176
 77 62 177
 78 63 178
 79 64 179
 80 65 180
 81 66 181
 82 67 182
 83 68 183
 84 69 184
 85 70 185
 86 71 186
 87 72 187
 88 73 188
 89 74 189
 91 76 190
 92 77 191
 93 78 192
 94 79 193
 95 80 194
 96 81 195
 97 82 196
 98 83 197
 99 84 198
 100 85 199
 101 86 200
 102 87 201
 103 88 202
 104 89 203
 106 91 204
 107 92 205
 108 93 206
 109 94 207
 110 95 208
 111 96 209
 112 97 210
 113 98 211
 114 99 212
 115 100 213
 116 101 214
 117 102 215
 118 103 216
 119 104 217
 15 16 120
 16 17 121
 17 18 122
 18 19 123
 19 20 124
 20 21 125
 21 22 126
 22 23 127
 23 24 128
 24 25 129
 25 26 130
 26 27 131
 27 28 132
 28 29 133
 30 31 134
 31 32 135
 32 33 136
 33 34 137
 34 35 138
 35 36 139
 36 37 140
 37 38 141
 38 39 142
 39 40 143
 40 41 144
 41 42 145
 42 43 146
 43 44 147
 45 46 148
 46 47 149
 47 48 150
 48 49 151
 49 50 152
 50 51 153
 51 52 154
 52 53 155
 53 54 156
 54 55 157
 55 56 158
 56 57 159
 57 58 160
 58 59 161
 60 61 162
 61 62 163
 62 63 164
 63 64 165
 64 65 166
 65 66 167
 66 67 168
 67 68 169
 68 69 170
 69 70 171
 70 71 172
 71 72 173
 72 73 174
 73 74 175
 75 76 176
 76 77 177
 77 78 178
 78 79 179
 79 80 180
 80 81 181
 81 82 182
 82 83 183
 83 84 184
 84 85 185
 85 86 186
 86 87 187
 87 88 188
 88 89 189
 90 91 190
 91 92 191
 92 93 192
 93 94 193
 94 95 194
 95 96 195
 96 97 196
 97 98 197
 98 99 198
 99 100 199
 100 101 200
 101 102 201
 102 103 202
 103 104 203
 105 106 204
 106 107 205
 107 108 206
 108 109 207
 109 110 208
 110 111 209
 111 112 210
 112 113 211
 113 114 212
 114 115 213
 115 116 214
 116 117 215
 117 118 216
 118 119 217
 0 15 120
 1 16 121
 2 17 122
 3 18 123
 4 19 124
 5 20 125
 6 21 126
 7 22 127
 8 23 128
 9 24 129
 10 25 130
 11 26 131
 12 27 132
 13 28 133
 15 30 134
 16 31 135
 17 32 136
 18 33 137
 19 34 138
 20 35 139
 21 36 140
 22 37 141
 23 38 142
 24 39 143
 25 40 144
 26 41 145
 27 42 146
 28 43 147
 30 45 148
 31 46 149
 32 47 150
 33 48 151
 34 49 152
 35 50 153
 36 51 154
 37 52 155
 38 53 156
 39 54 157
 40 55 158
 41 56 159
 42 57 160
 43 58 161
 45 60 162
 46 61 163
 47 62 164
 48 63 165
 49 64 166
 50 65 167
 51 66 168
 52 67 169
 53 68 170
 54 69 171
 55 70 172
 56 71 173
 57 72 174
 58 73 175
 60 75 176
 61 76 177
 62 77 178
 63 78 179
 64 79 180
 65 80 181
 66 81 182
 67 82 183
 68 83 184
 69 84 185
 70 85 186
 71 86 187
 72 87 188
 73 88 189
 75 90 190
 76 91 191
 77 92 192
 78 93 193
 79 94 194
 80 95 195
 81 96 196
 82 97 197
 83 98 198
 84 99 199
 85 100 200
 86 101 201
 87 102 202
 88 103 203
 90 105 204
 91 106 205
 92 107 206
 93 108 207
 94 109 208
 95 110 209
 96 111 210
 97 112 211
 98 113 212
 99 114 213
 100 115 214
 101 116 215
 102 117 216
 103 118 217</DataArray>
            <DataArray Name="offsets" format="ascii" type="Int32">3 6 9 12 15 18 21 24 27 30 33 36 39 42 45 48 51 54 57 60 63 66 69 72 75 78 81 84 87 90 93 96 99 102 105 108 111 114 117 120 123 126 129 132 135 138 141 144 147 150 153 156 159 162 165 168 171 174 177 180 183 186 189 192 195 198 201 204 207 210 213 216 219 222 225 228 231 234 237 240 243 246 249 252 255 258 261 264 267 270 273 276 279 282 285 288 291 294 297 300 303 306 309 312 315 318 321 324 327 330 333 336 339 342 345 348 351 354 357 360 363 366 369 372 375 378 381 384 387 390 393 396 399 402 405 408 411 414 417 420 423 426 429 432 435 438 441 444 447 450 453 456 459 462 465 468 471 474 477 480 483 486 489 492 495 498 501 504 507 510 513 516 519 522 525 528 531 534 537 540 543 546 549 552 555 558 561 564 567 570 573 576 579 582 585 588 591 594 597 600 603 606 609 612 615 618 621 624 627 630 633 636 639 642 645 648 651 654 657 660 663 666 669 672 675 678 681 684 687 690 693 696 699 702 705 708 711 714 717 720 723 726 729 732 735 738 741 744 747 750 753 756 759 762 765 768 771 774 777 780 783 786 789 792 795 798 801 804 807 810 813 816 819 822 825 828 831 834 837 840 843 846 849 852 855 858 861 864 867 870 873 876 879 882 885 888 891 894 897 900 903 906 909 912 915 918 921 924 927 930 933 936 939 942 945 948 951 954 957 960 963 966 969 972 975 978 981 984 987 990 993 996 999 1002 1005 1008 1011 1014 1017 1020 1023 1026 1029 1032 1035 1038 1041 1044 1047 1050 1053 1056 1059 1062 1065 1068 1071 1074 1077 1080 1083 1086 1089 1092 1095 1098 1101 1104 1107 1110 1113 1116 1119 1122 1125 1128 1131 1134 1137 1140 1143 1146 1149 1152 1155 1158 1161 1164 1167 1170 1173 1176 </DataArray>
            <DataArray Name="types" format="ascii" type="UInt8">5 5 5 5 5 5 5 5 5 5 5 5 5 5 5 5 5 5 5 5 5 5 5 5 5 5 5 5 5 5 5 5 5 5 5 5 5 5 5 5 5 5 5 5 5 5 5 5 5 5 5 5 5 5 5 5 5 5 5 5 5 5 5 5 5 5 5 5 5 5 5 5 5 5 5 5 5 5 5 5 5 5 5 5 5 5 5 5 5 5 5 5 5 5 5 5 5 5 5 5 5 5 5 5 5 5 5 5 5 5 5 5 5 5 5 5 5 5 5 5 5 5 5 5 5 5 5 5 5 5 5 5 5 5 5 5 5 5 5 5 5 5 5 5 5 5 5 5 5 5 5 5 5 5 5 5 5 5 5 5 5 5 5 5 5 5 5 5 5 5 5 5 5 5 5 5 5 5 5 5 5 5 5 5 5 5 5 5 5 5 5 5 5 5 5 5 5 5 5 5 5 5 5 5 5 5 5 5 5 5 5 5 5 5 5 5 5 5 5 5 5 5 5 5 5 5 5 5 5 5 5 5 5 5 5 5 5 5 5 5 5 5 5 5 5 5 5 5 5 5 5 5 5 5 5 5 5 5 5 5 5 5 5 5 5 5 5 5 5 5 5 5 5 5 5 5 5 5 5 5 5 5 5 5 5 5 5 5 5 5 5 5 5 5 5 5 5 5 5 5 5 5 5 5 5 5 5 5 5 5 5 5 5 5 5 5 5 5 5 5 5 5 5 5 5 5 5 5 5 5 5 5 5 5 5 5 5 5 5 5 5 5 5 5 5 5 5 5 5 5 5 5 5 5 5 5 5 5 5 5 5 5 5 5 5 5 5 5 5 5 5 5 5 5 5 5 5 5 5 5 5 5 5 5 5 5 5 5 5 5 5 5 </DataArray>
         </Cells>
         <PointData>
            <DataArray Name="fValues" NumberOfComponents="1" format="ascii" type="Float64">
       00001 
 1.00000e+00 
 1.00000e+00 
 1.00000e+00 
 1.00000e+00 
 1.00000e+00 
 1.00000e+00 
 1.00000e+00 
 1.00000e+00 
 9.96418e-01 
 9.92240e-01 
 9.88899e-01 
 9.86522e-01 
 9.85265e-01 
 9.84922e-01 
 1.00000e+00 
 1.00000e+00 
 1.00000e+00 
 1.00000e+00 
       00001 
 1.00000e+00 
 1.00000e+00 
 9.99257e-01 
 9.95753e-01 
 9.92809e-01 
 9.90448e-01 
 9.88674e-01 
 9.87350e-01 
 9.86135e-01 
 9.85656e-01 
 9.99644e-01 
       00001 
 1.00000e+00 
 1.00000e+00 
 9.97902e-01 
 9.95879e-01 
 9.94111e-01 
 9.92582e-01 
 9.91277e-01 
 9.90202e-01 
 9.89365e-01 
 9.88768e-01 
 9.88453e-01 
 9.88359e-01 
 9.91289e-01 
 9.88255e-01 
 9.89136e-01 
 9.90530e-01 
 9.90821e-01 
 9.90530e-01 
 9.90160e-01 
 9.89839e-01 
 9.89568e-01 
 9.89328e-01 
 9.89086e-01 
 9.88796e-01 
 9.88436e-01 
 9.88193e-01 
 9.90524e-01 
 9.95920e-01 
 9.88255e-01 
 9.89136e-01 
 9.90530e-01 
 9.90821e-01 
 9.90530e-01 
 9.90160e-01 
 9.89839e-01 
 9.89568e-01 
 9.89328e-01 
 9.89086e-01 
 9.88796e-01 
 9.88436e-01 
 9.88193e-01 
 9.90524e-01 
 9.95920e-01 
 9.99644e-01 
       00001 
 1.00000e+00 
 1.00000e+00 
 9.97902e-01 
 9.95879e-01 
 9.94111e-01 
 9.92582e-01 
 9.91277e-01 
 9.90202e-01 
 9.89365e-01 
 9.88768e-01 
 9.88453e-01 
 9.88359e-01 
 9.91289e-01 
       00001 
 1.00000e+00 
 1.00000e+00 
 1.00000e+00 
 1.00000e+00 
 1.00000e+00 
 1.00000e+00 
 9.99257e-01 
 9.95753e-01 
 9.92809e-01 
 9.90448e-01 
 9.88674e-01 
 9.87350e-01 
 9.86135e-01 
 9.85656e-01 
       00001 
 1.00000e+00 
 1.00000e+00 
       00001 
 1.00000e+00 
       00001 
 1.00000e+00 
 1.00000e+00 
 1.00000e+00 
 9.96418e-01 
 9.92240e-01 
 9.88899e-01 
 9.86522e-01 
 9.85265e-01 
 9.84922e-01 
 1.00000e+00 
 1.00000e+00 
       00001 
 1.00000e+00 
 1.00000e+00 
 1.00000e+00 
 1.00000e+00 
       00001 
 9.96844e-01 
 9.92938e-01 
 9.89771e-01 
 9.87365e-01 
 9.85727e-01 
 9.84924e-01 
 1.00000e+00 
 1.00000e+00 
 1.00000e+00 
 1.00000e+00 
 1.00000e+00 
 9.99460e-01 
 9.96646e-01 
 9.94202e-01 
 9.92137e-01 
 9.90482e-01 
 9.89277e-01 
 9.88501e-01 
 9.88014e-01 
 9.86336e-01 
 9.91970e-01 
 9.94383e-01 
 9.94891e-01 
 9.93964e-01 
 9.92909e-01 
 9.91972e-01 
 9.91170e-01 
 9.90485e-01 
 9.89900e-01 
 9.89397e-01 
 9.88945e-01 
 9.88543e-01 
 9.88593e-01 
 9.94390e-01 
 9.86441e-01 
 9.88582e-01 
 9.89736e-01 
 9.89910e-01 
 9.89747e-01 
 9.89582e-01 
 9.89454e-01 
 9.89346e-01 
 9.89222e-01 
 9.89026e-01 
 9.88678e-01 
 9.88172e-01 
 9.87753e-01 
 9.93443e-01 
 9.91970e-01 
 9.94383e-01 
 9.94891e-01 
 9.93964e-01 
 9.92909e-01 
 9.91972e-01 
 9.91170e-01 
 9.90485e-01 
 9.89900e-01 
 9.89397e-01 
 9.88945e-01 
 9.88543e-01 
 9.88593e-01 
 9.94390e-01 
 1.00000e+00 
 1.00000e+00 
 1.00000e+00 
 1.00000e+00 
 1.00000e+00 
 9.99460e-01 
 9.96646e-01 
 9.94202e-01 
 9.92137e-01 
 9.90482e-01 
 9.89277e-01 
 9.88501e-01 
 9.88014e-01 
 9.86336e-01 
 1.00000e+00 
       00001 
 1.00000e+00 
 1.00000e+00 
 1.00000e+00 
       00001 
 1.00000e+00 
 1.00000e+00 
 9.96844e-01 
 9.92938e-01 
 9.89771e-01 
 9.87365e-01 
 9.85727e-01 
 9.84924e-01 </DataArray>
         </PointData>
         <CellData/>
      </Piece>
   </UnstructuredGrid>
</VTKFile>