<?xml version="1.0" encoding="utf-8"?>
<VTKFile byte_order="LittleEndian" type="UnstructuredGrid" version="0.1">
   <UnstructuredGrid>
      <Piece NumberOfCells="48" NumberOfPoints="27">
         <Points>
            <DataArray Name="Points" NumberOfComponents="3" format="ascii" type="Float32">
0.0000 0.0000 0.0000
0.0000 0.5000 0.0000
0.0000 1.0000 0.0000
0.5000 0.0000 0.0000
0.5000 0.5000 0.0000
0.5000 1.0000 0.0000
1.0000 0.0000 0.0000
1.0000 0.5000 0.0000
1.0000 1.0000 0.0000
0.0000 0.0000 0.5000
0.0000 0.5000 0.5000
0.0000 1.0000 0.5000
0.5000 0.0000 0.5000
0.5000 0.5000 0.5000
0.5000 1.0000 0.5000
1.0000 0.0000 0.5000
1.0000 0.5000 0.5000
1.0000 1.0000 0.5000
0.0000 0.0000 1.0000
0.0000 0.5000 1.0000
0.0000 1.0000 1.0000
0.5000 0.0000 1.0000
0.5000 0.5000 1.0000
0.5000 1.0000 1.0000
1.0000 0.0000 1.0000
1.0000 0.5000 1.0000
1.0000 1.0000 1.0000</DataArray>
         </Points>
         <Cells>
            <DataArray Name="connectivity" format="ascii" type="Int32">
 10 1 4 0
 9 10 4 0
 3 9 12 13
 10 13 9 4
 13 3 9 4
 4 3 9 0
 11 2 5 1
 10 11 5 1
 4 10 13 14
 11 14 10 5
 14 4 10 5
 5 4 10 1
 13 4 7 3
 12 13 7 3
 6 12 15 16
 13 16 12 7
 16 6 12 7
 7 6 12 3
 14 5 8 4
 13 14 8 4
 7 13 16 17
 14 17 13 8
 17 7 13 8
 8 7 13 4
 19 10 13 9
 18 19 13 9
 12 18 21 22
 19 22 18 13
 22 12 18 13
 13 12 18 9
 20 11 14 10
 19 20 14 10
 13 19 22 23
 20 23 19 14
 23 13 19 14
 14 13 19 10
 22 13 16 12
 21 22 16 12
 15 21 24 25
 22 25 21 16
 25 15 21 16
 16 15 21 12
 23 14 17 13
 22 23 17 13
 16 22 25 26
 23 26 22 17
 26 16 22 17
 17 16 22 13</DataArray>
            <DataArray Name="offsets" format="ascii" type="Int32">4 8 12 16 20 24 28 32 36 40 44 48 52 56 60 64 68 72 76 80 84 88 92 96 100 104 108 112 116 120 124 128 132 136 140 144 148 152 156 160 164 168 172 176 180 184 188 192 </DataArray>
            <DataArray Name="types" format="ascii" type="UInt8">10 10 10 10 10 10 10 10 10 10 10 10 10 10 10 10 10 10 10 10 10 10 10 10 10 10 10 10 10 10 10 10 10 10 10 10 10 10 10 10 10 10 10 10 10 10 10 10 </DataArray>
         </Cells>
         <PointData>
            <DataArray Name="fValues" NumberOfComponents="3" format="ascii" type="Float64">
 4.87592e-01  6.31138e-02 -4.99825e-02 
 3.56593e-01  5.03115e-02 -6.56286e-02 
 5.62447e-01  6.10955e-02 -6.21443e-02 
-4.42177e-03  2.35308e-02  1.68562e-02 
-3.67384e-03  1.47002e-03  4.20595e-04 
 9.88093e-02 -8.85678e-02  9.07211e-02 
-5.13043e-01 -4.71023e-02  4.77580e-02 
-4.05875e-01 -2.35442e-02  7.24933e-02 
-3.88059e-01 -6.37072e-02  6.57374e-02 
 4.07387e-01  7.64075e-02 -3.12480e-02 
 3.53187e-02  9.95637e-03 -9.35126e-03 
 3.51706e-01  6.43295e-02 -5.05177e-02 
-4.21864e-03 -8.83066e-04 -1.20510e-03 
-3.38882e-17 -6.29974e-19  4.69222e-18 
-4.21864e-03 -8.83066e-04 -1.20510e-03 
-3.28681e-01 -5.74740e-02  4.17414e-02 
 3.53187e-02  9.95637e-03 -9.35126e-03 
-4.14542e-01 -6.87031e-02  2.73585e-02 
 3.76575e-01  7.01101e-02 -7.15615e-02 
 4.00283e-01  2.79619e-02 -7.88418e-02 
 4.94069e-01  4.87163e-02 -5.82941e-02 
-1.09496e-01  1.04814e-01 -1.07522e-01 
-3.67384e-03  1.47002e-03  4.20595e-04 
-9.27685e-03 -1.92862e-02 -2.05724e-02 
-5.64149e-01 -5.33596e-02  5.64123e-02 
-3.36356e-01 -3.96455e-02  6.05662e-02 
-5.05475e-01 -5.25862e-02  4.83059e-02 </DataArray>
         </PointData>
         <CellData/>
      </Piece>
   </UnstructuredGrid>
</VTKFile>