<?xml version="1.0" encoding="UTF-8" standalone="no"?>
<svg
   style="fill-opacity:1; color-rendering:auto; color-interpolation:auto; text-rendering:auto; stroke:black; stroke-linecap:square; stroke-miterlimit:10; shape-rendering:auto; stroke-opacity:1; fill:black; stroke-dasharray:none; font-weight:normal; stroke-width:1; font-family:'Dialog'; font-style:normal; stroke-linejoin:miter; font-size:12px; stroke-dashoffset:0; image-rendering:auto;"
   width="1920"
   height="926"
   version="1.1"
   id="svg127"
   sodipodi:docname="Figure3_RATvsHS.svg"
   inkscape:version="1.4 (86a8ad7, 2024-10-11)"
   xmlns:inkscape="http://www.inkscape.org/namespaces/inkscape"
   xmlns:sodipodi="http://sodipodi.sourceforge.net/DTD/sodipodi-0.dtd"
   xmlns="http://www.w3.org/2000/svg"
   xmlns:svg="http://www.w3.org/2000/svg">
  <sodipodi:namedview
     id="namedview127"
     pagecolor="#ffffff"
     bordercolor="#000000"
     borderopacity="0.25"
     inkscape:showpageshadow="2"
     inkscape:pageopacity="0.0"
     inkscape:pagecheckerboard="0"
     inkscape:deskcolor="#d1d1d1"
     inkscape:zoom="0.41738661"
     inkscape:cx="1011.053"
     inkscape:cy="557.03752"
     inkscape:window-width="1920"
     inkscape:window-height="991"
     inkscape:window-x="-9"
     inkscape:window-y="-9"
     inkscape:window-maximized="1"
     inkscape:current-layer="svg127" />
  <!--Generated by the Batik Graphics2D SVG Generator-->
  <defs
     id="genericDefs" />
  <g
     id="g127">
    <defs
       id="defs1">
      <clipPath
         clipPathUnits="userSpaceOnUse"
         id="clipPath1">
        <path
           d="M0 0 L1920 0 L1920 926 L0 926 L0 0 Z"
           id="path1" />
      </clipPath>
    </defs>
    <g
       style="fill:white; stroke:white;"
       id="g1">
      <rect
         x="0"
         y="0"
         width="1920"
         style="clip-path:url(#clipPath1); stroke:none;"
         height="926"
         clip-path="url(#clipPath1)"
         id="rect1" />
    </g>
    <g
       style="fill:white; text-rendering:optimizeSpeed; color-rendering:optimizeSpeed; image-rendering:optimizeSpeed; shape-rendering:crispEdges; stroke:white; color-interpolation:sRGB;"
       id="g2">
      <rect
         x="0"
         width="1920"
         height="926"
         y="0"
         style="stroke:none;"
         id="rect2" />
    </g>
    <g
       transform="translate(980.6667,833.9167)"
       style="font-size:66.6667px; fill:rgb(38,38,38); text-rendering:geometricPrecision; image-rendering:optimizeQuality; color-rendering:optimizeQuality; font-family:'mwa_cmr10'; stroke:rgb(38,38,38); color-interpolation:linearRGB;"
       id="g10">
      <path
         style="stroke:none;"
         d="M-172.7353 55.9998 L-172.7353 53.6404 Q-165.829 53.6404 -165.829 51.5154 L-165.829 14.7185 Q-165.829 12.5935 -172.7353 12.5935 L-172.7353 10.2341 L-148.0321 10.2341 Q-143.454 10.2341 -139.6571 12.2107 Q-135.8603 14.1873 -133.1806 17.4919 Q-130.5009 20.7966 -129.0399 24.9841 Q-127.579 29.1716 -127.579 33.5623 Q-127.579 37.8123 -129.0556 41.8201 Q-130.5321 45.8279 -133.2978 49.0466 Q-136.0634 52.2654 -139.8368 54.1326 Q-143.6103 55.9998 -148.0321 55.9998 L-172.7353 55.9998 ZM-159.8134 51.5154 Q-159.8134 52.9529 -158.9931 53.2966 Q-158.1728 53.6404 -156.4071 53.6404 L-149.7665 53.6404 Q-146.329 53.6404 -143.2353 52.156 Q-140.1415 50.6716 -138.1103 48.0154 Q-135.9853 45.2029 -135.2665 41.7185 Q-134.5478 38.2341 -134.5478 33.5623 Q-134.5478 28.6873 -135.2665 25.0232 Q-135.9853 21.3591 -138.1103 18.4685 Q-140.1103 15.6248 -143.1884 14.1091 Q-146.2665 12.5935 -149.7665 12.5935 L-156.4071 12.5935 Q-157.6103 12.5935 -158.2821 12.6873 Q-158.954 12.781 -159.3837 13.2576 Q-159.8134 13.7341 -159.8134 14.7185 L-159.8134 51.5154 Z"
         id="path2" />
      <path
         style="stroke:none;"
         d="M-121.3405 49.4216 Q-121.3405 45.4373 -118.1999 42.9294 Q-115.0593 40.4216 -110.6608 39.3904 Q-106.2624 38.3591 -102.3093 38.3591 L-102.3093 35.6248 Q-102.3093 33.6873 -103.1608 31.8748 Q-104.0124 30.0623 -105.614 28.8982 Q-107.2155 27.7341 -109.1374 27.7341 Q-113.5905 27.7341 -115.9186 29.7341 Q-114.6374 29.7341 -113.8015 30.6951 Q-112.9655 31.656 -112.9655 32.9373 Q-112.9655 34.281 -113.9186 35.2263 Q-114.8718 36.1716 -116.1686 36.1716 Q-117.5124 36.1716 -118.4655 35.2263 Q-119.4186 34.281 -119.4186 32.9373 Q-119.4186 29.406 -116.2077 27.6873 Q-112.9968 25.9685 -109.1374 25.9685 Q-106.4343 25.9685 -103.6843 27.1326 Q-100.9343 28.2966 -99.1843 30.4529 Q-97.4343 32.6091 -97.4343 35.4841 L-97.4343 50.5623 Q-97.4343 51.8748 -96.8796 52.9685 Q-96.3249 54.0623 -95.1374 54.0623 Q-94.028 54.0623 -93.489 52.9529 Q-92.9499 51.8435 -92.9499 50.5623 L-92.9499 46.281 L-90.9811 46.281 L-90.9811 50.5623 Q-90.9811 52.0779 -91.7702 53.4373 Q-92.5593 54.7966 -93.8796 55.5935 Q-95.1999 56.3904 -96.7468 56.3904 Q-98.6999 56.3904 -100.1296 54.8669 Q-101.5593 53.3435 -101.7155 51.2498 Q-102.9655 53.781 -105.3796 55.2654 Q-107.7936 56.7498 -110.5436 56.7498 Q-113.1061 56.7498 -115.5749 55.9998 Q-118.0436 55.2498 -119.6921 53.6326 Q-121.3405 52.0154 -121.3405 49.4216 ZM-115.9186 49.4216 Q-115.9186 51.781 -114.1843 53.3826 Q-112.4499 54.9841 -110.0905 54.9841 Q-107.9343 54.9841 -106.1686 53.906 Q-104.403 52.8279 -103.3561 50.9607 Q-102.3093 49.0935 -102.3093 47.031 L-102.3093 40.0623 Q-105.3405 40.0623 -108.5358 41.0623 Q-111.7311 42.0623 -113.8249 44.1873 Q-115.9186 46.3123 -115.9186 49.4216 Z"
         id="path3" />
      <path
         style="stroke:none;"
         d="M-88.6946 55.9998 L-88.6946 53.6404 Q-86.4133 53.6404 -84.9368 53.281 Q-83.4602 52.9216 -83.4602 51.5154 L-83.4602 33.2341 Q-83.4602 31.4373 -83.9993 30.6326 Q-84.5383 29.8279 -85.554 29.6482 Q-86.5696 29.4685 -88.6946 29.4685 L-88.6946 27.1091 L-78.9758 26.3904 L-78.9758 32.9373 Q-77.6477 30.0623 -75.0071 28.2263 Q-72.3665 26.3904 -69.2727 26.3904 Q-61.5383 26.3904 -60.2102 32.6716 Q-58.8665 29.8591 -56.2805 28.1248 Q-53.6946 26.3904 -50.6165 26.3904 Q-47.5696 26.3904 -45.4993 27.3748 Q-43.429 28.3591 -42.3821 30.3669 Q-41.3352 32.3748 -41.3352 35.4216 L-41.3352 51.5154 Q-41.3352 52.9216 -39.843 53.281 Q-38.3508 53.6404 -36.1008 53.6404 L-36.1008 55.9998 L-51.429 55.9998 L-51.429 53.6404 Q-49.1477 53.6404 -47.6711 53.281 Q-46.1946 52.9216 -46.1946 51.5154 L-46.1946 35.6248 Q-46.1946 32.2498 -47.1477 30.1873 Q-48.1008 28.1248 -51.0383 28.1248 Q-54.8977 28.1248 -57.4211 31.2341 Q-59.9446 34.3435 -59.9446 38.2966 L-59.9446 51.5154 Q-59.9446 52.9216 -58.468 53.281 Q-56.9915 53.6404 -54.7102 53.6404 L-54.7102 55.9998 L-70.054 55.9998 L-70.054 53.6404 Q-67.7571 53.6404 -66.2883 53.281 Q-64.8196 52.9216 -64.8196 51.5154 L-64.8196 35.6248 Q-64.8196 32.3435 -65.7649 30.2341 Q-66.7102 28.1248 -69.6633 28.1248 Q-73.554 28.1248 -76.054 31.2341 Q-78.554 34.3435 -78.554 38.2966 L-78.554 51.5154 Q-78.554 52.9216 -77.0852 53.281 Q-75.6165 53.6404 -73.3508 53.6404 L-73.3508 55.9998 L-88.6946 55.9998 Z"
         id="path4" />
      <path
         style="stroke:none;"
         d="M-32.4514 49.4216 Q-32.4514 45.4373 -29.3107 42.9294 Q-26.1701 40.4216 -21.7717 39.3904 Q-17.3732 38.3591 -13.4201 38.3591 L-13.4201 35.6248 Q-13.4201 33.6873 -14.2717 31.8748 Q-15.1232 30.0623 -16.7248 28.8982 Q-18.3264 27.7341 -20.2482 27.7341 Q-24.7014 27.7341 -27.0295 29.7341 Q-25.7482 29.7341 -24.9123 30.6951 Q-24.0764 31.656 -24.0764 32.9373 Q-24.0764 34.281 -25.0295 35.2263 Q-25.9826 36.1716 -27.2795 36.1716 Q-28.6232 36.1716 -29.5764 35.2263 Q-30.5295 34.281 -30.5295 32.9373 Q-30.5295 29.406 -27.3185 27.6873 Q-24.1076 25.9685 -20.2482 25.9685 Q-17.5451 25.9685 -14.7951 27.1326 Q-12.0451 28.2966 -10.2951 30.4529 Q-8.5451 32.6091 -8.5451 35.4841 L-8.5451 50.5623 Q-8.5451 51.8748 -7.9904 52.9685 Q-7.4357 54.0623 -6.2482 54.0623 Q-5.1389 54.0623 -4.5998 52.9529 Q-4.0607 51.8435 -4.0607 50.5623 L-4.0607 46.281 L-2.092 46.281 L-2.092 50.5623 Q-2.092 52.0779 -2.881 53.4373 Q-3.6701 54.7966 -4.9904 55.5935 Q-6.3107 56.3904 -7.8576 56.3904 Q-9.8107 56.3904 -11.2404 54.8669 Q-12.6701 53.3435 -12.8264 51.2498 Q-14.0764 53.781 -16.4904 55.2654 Q-18.9045 56.7498 -21.6545 56.7498 Q-24.217 56.7498 -26.6857 55.9998 Q-29.1545 55.2498 -30.8029 53.6326 Q-32.4514 52.0154 -32.4514 49.4216 ZM-27.0295 49.4216 Q-27.0295 51.781 -25.2951 53.3826 Q-23.5607 54.9841 -21.2014 54.9841 Q-19.0451 54.9841 -17.2795 53.906 Q-15.5139 52.8279 -14.467 50.9607 Q-13.4201 49.0935 -13.4201 47.031 L-13.4201 40.0623 Q-16.4514 40.0623 -19.6467 41.0623 Q-22.842 42.0623 -24.9357 44.1873 Q-27.0295 46.3123 -27.0295 49.4216 Z"
         id="path5" />
      <path
         style="stroke:none;"
         d="M0.054 61.2341 Q0.054 58.8435 1.7883 57.0623 Q3.5227 55.281 5.9133 54.531 Q4.5696 53.5154 3.8665 51.9763 Q3.1633 50.4373 3.1633 48.7029 Q3.1633 45.5623 5.1633 43.1404 Q2.0852 40.1404 2.0852 36.2341 Q2.0852 34.1404 2.9836 32.3123 Q3.8821 30.4841 5.4915 29.1404 Q7.1008 27.7966 9.0618 27.0935 Q11.0227 26.3904 13.0852 26.3904 Q17.0696 26.3904 20.2415 28.7185 Q21.6165 27.2498 23.4993 26.4451 Q25.3821 25.6404 27.4133 25.6404 Q28.8508 25.6404 29.7649 26.6716 Q30.679 27.7029 30.679 29.1404 Q30.679 29.9529 30.0618 30.5779 Q29.4446 31.2029 28.6165 31.2029 Q27.7727 31.2029 27.1477 30.5779 Q26.5227 29.9529 26.5227 29.1404 Q26.5227 27.8904 27.3508 27.406 Q23.8821 27.406 21.3821 29.7966 Q22.6008 30.9998 23.3352 32.7498 Q24.0696 34.4998 24.0696 36.2341 Q24.0696 39.0935 22.4993 41.3669 Q20.929 43.6404 18.3586 44.8982 Q15.7883 46.156 13.0852 46.156 Q9.4133 46.156 6.3665 44.156 Q5.429 45.4685 5.429 47.0935 Q5.429 48.8748 6.5852 50.1951 Q7.7415 51.5154 9.5071 51.5154 L15.0071 51.5154 Q19.0071 51.5154 22.2102 52.2341 Q25.4133 52.9529 27.5852 55.1169 Q29.7571 57.281 29.7571 61.2341 Q29.7571 64.1716 27.2727 66.1248 Q24.7883 68.0779 21.3352 68.9451 Q17.8821 69.8123 14.9446 69.8123 Q11.9602 69.8123 8.4993 68.9451 Q5.0383 68.0779 2.5461 66.1248 Q0.054 64.1716 0.054 61.2341 ZM3.8196 61.2341 Q3.8196 63.4841 5.6555 65.0076 Q7.4915 66.531 10.0696 67.2654 Q12.6477 67.9998 14.9446 67.9998 Q17.1946 67.9998 19.7805 67.2654 Q22.3665 66.531 24.1868 65.0076 Q26.0071 63.4841 26.0071 61.2341 Q26.0071 57.7341 22.7961 56.7029 Q19.5852 55.6716 15.0071 55.6716 L9.5071 55.6716 Q7.9758 55.6716 6.6868 56.406 Q5.3977 57.1404 4.6086 58.4685 Q3.8196 59.7966 3.8196 61.2341 ZM13.0852 44.3591 Q18.7727 44.3591 18.7727 36.2341 Q18.7727 32.7341 17.5618 30.4607 Q16.3508 28.1873 13.0852 28.1873 Q9.804 28.1873 8.593 30.4607 Q7.3821 32.7341 7.3821 36.2341 Q7.3821 38.4685 7.843 40.2654 Q8.304 42.0623 9.5461 43.2107 Q10.7883 44.3591 13.0852 44.3591 Z"
         id="path6" />
      <path
         style="stroke:none;"
         d="M48.2155 56.7498 Q44.1218 56.7498 40.7077 54.6091 Q37.2936 52.4685 35.3405 48.8826 Q33.3874 45.2966 33.3874 41.3123 Q33.3874 37.3904 35.1765 33.8513 Q36.9655 30.3123 40.153 28.1404 Q43.3405 25.9685 47.2624 25.9685 Q50.3405 25.9685 52.614 26.9998 Q54.8874 28.031 56.3561 29.8591 Q57.8249 31.6873 58.5827 34.1794 Q59.3405 36.6716 59.3405 39.6404 Q59.3405 40.531 58.653 40.531 L39.2468 40.531 L39.2468 41.2498 Q39.2468 46.8123 41.489 50.8044 Q43.7311 54.7966 48.8093 54.7966 Q50.8561 54.7966 52.6061 53.8748 Q54.3561 52.9529 55.653 51.3201 Q56.9499 49.6873 57.403 47.8279 Q57.4655 47.5935 57.6452 47.4138 Q57.8249 47.2341 58.0593 47.2341 L58.653 47.2341 Q59.3405 47.2341 59.3405 48.0779 Q58.3874 51.8748 55.2468 54.3123 Q52.1061 56.7498 48.2155 56.7498 ZM39.3093 38.8591 L54.5905 38.8591 Q54.5905 36.3435 53.8874 33.7576 Q53.1843 31.1716 51.5515 29.4529 Q49.9186 27.7341 47.2624 27.7341 Q43.4655 27.7341 41.3874 31.281 Q39.3093 34.8279 39.3093 38.8591 Z"
         id="path7" />
      <path
         style="stroke:none;"
         d="M104.1611 72.6248 Q100.4267 69.6716 97.7236 65.8591 Q95.0204 62.0466 93.3095 57.7341 Q91.5986 53.4216 90.747 48.7107 Q89.8954 43.9998 89.8954 39.2498 Q89.8954 34.4373 90.747 29.7263 Q91.5986 25.0154 93.3486 20.6638 Q95.0986 16.3123 97.8095 12.5232 Q100.5204 8.7341 104.1611 5.8748 Q104.1611 5.7498 104.4736 5.7498 L105.0986 5.7498 Q105.3017 5.7498 105.4658 5.9294 Q105.6298 6.1091 105.6298 6.3435 Q105.6298 6.6404 105.4892 6.7654 Q102.2236 9.9685 100.0517 13.6326 Q97.8798 17.2966 96.5517 21.4373 Q95.2236 25.5779 94.6376 30.0076 Q94.0517 34.4373 94.0517 39.2498 Q94.0517 60.5466 105.4267 71.6091 Q105.6298 71.7966 105.6298 72.156 Q105.6298 72.3279 105.4501 72.5388 Q105.2704 72.7498 105.0986 72.7498 L104.4736 72.7498 Q104.1611 72.7498 104.1611 72.6248 Z"
         id="path8" />
      <path
         style="stroke:none;"
         d="M122.2902 69.0466 L125.3058 56.9529 Q121.8996 56.9529 118.9543 55.3669 Q116.0089 53.781 114.2277 50.9294 Q112.4464 48.0779 112.4464 44.7498 Q112.4464 41.1091 114.2433 37.8044 Q116.0402 34.4998 119.1652 31.8044 Q122.2902 29.1091 125.8918 27.656 Q129.4933 26.2029 133.0246 26.2029 L137.0558 9.906 Q137.1808 9.5154 137.5714 9.5154 L138.3839 9.5154 Q138.6496 9.5154 138.8136 9.7419 Q138.9777 9.9685 138.9777 10.1716 L134.9621 26.2029 Q137.4777 26.2029 139.8293 27.1169 Q142.1808 28.031 144.0011 29.6794 Q145.8214 31.3279 146.8293 33.5701 Q147.8371 35.8123 147.8371 38.3591 Q147.8371 41.9998 146.0402 45.3044 Q144.2433 48.6091 141.2043 51.2576 Q138.1652 53.906 134.4152 55.4294 Q130.6652 56.9529 127.2589 56.9529 L124.1964 69.3435 Q124.0558 69.7341 123.6339 69.7341 L122.8527 69.7341 Q122.5871 69.7341 122.4386 69.4919 Q122.2902 69.2498 122.2902 69.0466 ZM125.7277 55.1873 L132.5714 27.9373 Q130.8683 27.9373 129.0011 28.6169 Q127.1339 29.2966 125.4855 30.3435 Q123.8371 31.3904 122.4933 32.7341 Q120.8527 34.3748 119.6105 36.6013 Q118.3683 38.8279 117.7277 41.2966 Q117.0871 43.7654 117.0871 46.156 Q117.0871 48.6716 118.173 50.7341 Q119.2589 52.7966 121.2199 53.9919 Q123.1808 55.1873 125.7277 55.1873 ZM127.7277 55.1873 Q130.2433 55.1873 133.0871 53.7419 Q135.9308 52.2966 137.7746 50.3748 Q140.2902 47.8904 141.7433 44.2732 Q143.1964 40.656 143.1964 36.9529 Q143.1964 34.4685 142.1183 32.3904 Q141.0402 30.3123 139.0793 29.1248 Q137.1183 27.9373 134.5558 27.9373 L127.7277 55.1873 Z"
         id="path9" />
      <path
         style="stroke:none;"
         d="M153.3719 72.7498 Q152.7937 72.7498 152.7937 72.156 Q152.7937 71.8591 152.9187 71.7341 Q164.3719 60.5466 164.3719 39.2498 Q164.3719 17.9529 153.0594 6.8904 Q152.7937 6.7341 152.7937 6.3435 Q152.7937 6.1091 152.9734 5.9294 Q153.1531 5.7498 153.3719 5.7498 L153.9969 5.7498 Q154.2 5.7498 154.325 5.8748 Q159.1375 9.6716 162.3406 15.1013 Q165.5437 20.531 167.0359 26.6873 Q168.5281 32.8435 168.5281 39.2498 Q168.5281 43.9998 167.7234 48.5935 Q166.9187 53.1873 165.1687 57.656 Q163.4187 62.1248 160.739 65.8982 Q158.0594 69.6716 154.325 72.6248 Q154.2 72.7498 153.9969 72.7498 L153.3719 72.7498 Z"
         id="path10" />
    </g>
    <g
       style="fill:white; text-rendering:optimizeSpeed; color-rendering:optimizeSpeed; image-rendering:optimizeSpeed; shape-rendering:crispEdges; stroke:white; color-interpolation:sRGB;"
       id="g11">
      <path
         style="stroke:none;"
         d="M208 728 L863 728 L863 69 L208 69 Z"
         id="path11" />
    </g>
    <g
       style="fill-opacity:0.251; color-rendering:optimizeQuality; color-interpolation:linearRGB; text-rendering:geometricPrecision; stroke:rgb(26,26,26); stroke-linecap:butt; stroke-miterlimit:1; stroke-opacity:0.251; fill:rgb(26,26,26); stroke-dasharray:1,3; stroke-width:0.8333; stroke-linejoin:bevel; image-rendering:optimizeQuality;"
       id="g32">
      <line
         y2="69"
         style="fill:none;"
         x1="208"
         x2="208"
         y1="728"
         id="line11" />
      <line
         y2="69"
         style="fill:none;"
         x1="273.5"
         x2="273.5"
         y1="728"
         id="line12" />
      <line
         y2="69"
         style="fill:none;"
         x1="339"
         x2="339"
         y1="728"
         id="line13" />
      <line
         y2="69"
         style="fill:none;"
         x1="404.5"
         x2="404.5"
         y1="728"
         id="line14" />
      <line
         y2="69"
         style="fill:none;"
         x1="470"
         x2="470"
         y1="728"
         id="line15" />
      <line
         y2="69"
         style="fill:none;"
         x1="535.5"
         x2="535.5"
         y1="728"
         id="line16" />
      <line
         y2="69"
         style="fill:none;"
         x1="601"
         x2="601"
         y1="728"
         id="line17" />
      <line
         y2="69"
         style="fill:none;"
         x1="666.5"
         x2="666.5"
         y1="728"
         id="line18" />
      <line
         y2="69"
         style="fill:none;"
         x1="732"
         x2="732"
         y1="728"
         id="line19" />
      <line
         y2="69"
         style="fill:none;"
         x1="797.5"
         x2="797.5"
         y1="728"
         id="line20" />
      <line
         y2="69"
         style="fill:none;"
         x1="863"
         x2="863"
         y1="728"
         id="line21" />
      <line
         y2="728"
         style="fill:none;"
         x1="863"
         x2="208"
         y1="728"
         id="line22" />
      <line
         y2="662.1"
         style="fill:none;"
         x1="863"
         x2="208"
         y1="662.1"
         id="line23" />
      <line
         y2="596.2"
         style="fill:none;"
         x1="863"
         x2="208"
         y1="596.2"
         id="line24" />
      <line
         y2="530.3"
         style="fill:none;"
         x1="863"
         x2="208"
         y1="530.3"
         id="line25" />
      <line
         y2="464.4"
         style="fill:none;"
         x1="863"
         x2="208"
         y1="464.4"
         id="line26" />
      <line
         y2="398.5"
         style="fill:none;"
         x1="863"
         x2="208"
         y1="398.5"
         id="line27" />
      <line
         y2="332.6"
         style="fill:none;"
         x1="863"
         x2="208"
         y1="332.6"
         id="line28" />
      <line
         y2="266.7"
         style="fill:none;"
         x1="863"
         x2="208"
         y1="266.7"
         id="line29" />
      <line
         y2="200.8"
         style="fill:none;"
         x1="863"
         x2="208"
         y1="200.8"
         id="line30" />
      <line
         y2="134.9"
         style="fill:none;"
         x1="863"
         x2="208"
         y1="134.9"
         id="line31" />
      <line
         y2="69"
         style="fill:none;"
         x1="863"
         x2="208"
         y1="69"
         id="line32" />
    </g>
    <g
       style="fill:rgb(38,38,38); text-rendering:geometricPrecision; image-rendering:optimizeQuality; color-rendering:optimizeQuality; stroke-linejoin:round; stroke:rgb(38,38,38); color-interpolation:linearRGB; stroke-width:0.8333;"
       id="g36">
      <line
         y2="728"
         style="fill:none;"
         x1="208"
         x2="863"
         y1="728"
         id="line33" />
      <line
         y2="721.41"
         style="fill:none;"
         x1="208"
         x2="208"
         y1="728"
         id="line34" />
      <line
         y2="721.41"
         style="fill:none;"
         x1="535.5"
         x2="535.5"
         y1="728"
         id="line35" />
      <line
         y2="721.41"
         style="fill:none;"
         x1="863"
         x2="863"
         y1="728"
         id="line36" />
    </g>
    <g
       transform="translate(208,744.6667)"
       style="font-size:66.6667px; fill:rgb(38,38,38); text-rendering:geometricPrecision; color-rendering:optimizeQuality; image-rendering:optimizeQuality; stroke:rgb(38,38,38); color-interpolation:linearRGB;"
       id="g37">
      <path
         style="stroke:none;"
         d="M-16.2188 44.3438 Q-16.2188 35.8438 -14.4688 30.6562 Q-12.7188 25.4688 -9.2656 22.6562 Q-5.8125 19.8438 -0.5781 19.8438 Q3.2812 19.8438 6.1953 21.3984 Q9.1094 22.9531 11 25.8828 Q12.8906 28.8125 13.9766 33.0156 Q15.0625 37.2188 15.0625 44.3438 Q15.0625 52.7812 13.3281 57.9688 Q11.5938 63.1562 8.1406 65.9844 Q4.6875 68.8125 -0.5781 68.8125 Q-7.5156 68.8125 -11.4688 63.8438 Q-16.2188 57.8594 -16.2188 44.3438 ZM-10.1719 44.3438 Q-10.1719 56.1562 -7.4062 60.0625 Q-4.6406 63.9688 -0.5781 63.9688 Q3.4688 63.9688 6.2344 60.0469 Q9 56.125 9 44.3438 Q9 32.5 6.2344 28.6094 Q3.4688 24.7188 -0.6406 24.7188 Q-4.7031 24.7188 -7.125 28.1562 Q-10.1719 32.5312 -10.1719 44.3438 Z"
         id="path36" />
    </g>
    <g
       transform="translate(535.5,744.6667)"
       style="font-size:66.6667px; fill:rgb(38,38,38); text-rendering:geometricPrecision; color-rendering:optimizeQuality; image-rendering:optimizeQuality; stroke:rgb(38,38,38); color-interpolation:linearRGB;"
       id="g38">
      <path
         style="stroke:none;"
         d="M-43.7188 44.3438 Q-43.7188 35.8438 -41.9688 30.6562 Q-40.2188 25.4688 -36.7656 22.6562 Q-33.3125 19.8438 -28.0781 19.8438 Q-24.2188 19.8438 -21.3047 21.3984 Q-18.3906 22.9531 -16.5 25.8828 Q-14.6094 28.8125 -13.5234 33.0156 Q-12.4375 37.2188 -12.4375 44.3438 Q-12.4375 52.7812 -14.1719 57.9688 Q-15.9062 63.1562 -19.3594 65.9844 Q-22.8125 68.8125 -28.0781 68.8125 Q-35.0156 68.8125 -38.9688 63.8438 Q-43.7188 57.8594 -43.7188 44.3438 ZM-37.6719 44.3438 Q-37.6719 56.1562 -34.9062 60.0625 Q-32.1406 63.9688 -28.0781 63.9688 Q-24.0312 63.9688 -21.2656 60.0469 Q-18.5 56.125 -18.5 44.3438 Q-18.5 32.5 -21.2656 28.6094 Q-24.0312 24.7188 -28.1406 24.7188 Q-32.2031 24.7188 -34.625 28.1562 Q-37.6719 32.5312 -37.6719 44.3438 ZM-3.3508 68 L-3.3508 61.2969 L3.3679 61.2969 L3.3679 68 L-3.3508 68 ZM11.8715 55.4375 L18.059 54.9062 Q18.7465 59.4219 21.2465 61.6953 Q23.7465 63.9688 27.2778 63.9688 Q31.5278 63.9688 34.4731 60.7656 Q37.4184 57.5625 37.4184 52.2656 Q37.4184 47.2188 34.5903 44.3125 Q31.7621 41.4062 27.184 41.4062 Q24.3403 41.4062 22.0512 42.6953 Q19.7621 43.9844 18.4496 46.0469 L12.9184 45.3281 L17.559 20.6875 L41.4184 20.6875 L41.4184 26.3281 L22.2778 26.3281 L19.684 39.2031 Q24.0121 36.2031 28.7465 36.2031 Q35.0278 36.2031 39.3481 40.5547 Q43.6684 44.9062 43.6684 51.7344 Q43.6684 58.25 39.8715 63 Q35.2621 68.8125 27.2778 68.8125 Q20.7309 68.8125 16.5981 65.1484 Q12.4653 61.4844 11.8715 55.4375 Z"
         id="path37" />
    </g>
    <g
       transform="translate(863,744.6667)"
       style="font-size:66.6667px; fill:rgb(38,38,38); text-rendering:geometricPrecision; color-rendering:optimizeQuality; image-rendering:optimizeQuality; stroke:rgb(38,38,38); color-interpolation:linearRGB;"
       id="g39">
      <path
         style="stroke:none;"
         d="M5.9688 68 L0.0781 68 L0.0781 30.4688 Q-2.0469 32.5 -5.5 34.5312 Q-8.9531 36.5625 -11.7031 37.5781 L-11.7031 31.875 Q-6.7656 29.5625 -3.0703 26.2578 Q0.625 22.9531 2.1719 19.8438 L5.9688 19.8438 L5.9688 68 Z"
         id="path38" />
    </g>
    <g
       style="fill:rgb(38,38,38); text-rendering:geometricPrecision; image-rendering:optimizeQuality; color-rendering:optimizeQuality; stroke-linejoin:round; stroke:rgb(38,38,38); color-interpolation:linearRGB; stroke-width:0.8333;"
       id="g42">
      <line
         y2="69"
         style="fill:none;"
         x1="208"
         x2="208"
         y1="728"
         id="line39" />
      <line
         y2="728"
         style="fill:none;"
         x1="208"
         x2="214.59"
         y1="728"
         id="line40" />
      <line
         y2="398.5"
         style="fill:none;"
         x1="208"
         x2="214.59"
         y1="398.5"
         id="line41" />
      <line
         y2="69"
         style="fill:none;"
         x1="208"
         x2="214.59"
         y1="69"
         id="line42" />
    </g>
    <g
       transform="translate(191.3333,728)"
       style="font-size:66.6667px; fill:rgb(38,38,38); text-rendering:geometricPrecision; color-rendering:optimizeQuality; image-rendering:optimizeQuality; stroke:rgb(38,38,38); color-interpolation:linearRGB;"
       id="g43">
      <path
         style="stroke:none;"
         d="M-35.2188 2.8438 Q-35.2188 -5.6562 -33.4688 -10.8438 Q-31.7188 -16.0312 -28.2656 -18.8438 Q-24.8125 -21.6562 -19.5781 -21.6562 Q-15.7188 -21.6562 -12.8047 -20.1016 Q-9.8906 -18.5469 -8 -15.6172 Q-6.1094 -12.6875 -5.0234 -8.4844 Q-3.9375 -4.2812 -3.9375 2.8438 Q-3.9375 11.2812 -5.6719 16.4688 Q-7.4062 21.6562 -10.8594 24.4844 Q-14.3125 27.3125 -19.5781 27.3125 Q-26.5156 27.3125 -30.4688 22.3438 Q-35.2188 16.3594 -35.2188 2.8438 ZM-29.1719 2.8438 Q-29.1719 14.6562 -26.4062 18.5625 Q-23.6406 22.4688 -19.5781 22.4688 Q-15.5312 22.4688 -12.7656 18.5469 Q-10 14.625 -10 2.8438 Q-10 -9 -12.7656 -12.8906 Q-15.5312 -16.7812 -19.6406 -16.7812 Q-23.7031 -16.7812 -26.125 -13.3438 Q-29.1719 -8.9688 -29.1719 2.8438 Z"
         id="path42" />
    </g>
    <g
       transform="translate(191.3333,398.5)"
       style="font-size:66.6667px; fill:rgb(38,38,38); text-rendering:geometricPrecision; color-rendering:optimizeQuality; image-rendering:optimizeQuality; stroke:rgb(38,38,38); color-interpolation:linearRGB;"
       id="g44">
      <path
         style="stroke:none;"
         d="M-90.2188 2.8438 Q-90.2188 -5.6562 -88.4688 -10.8438 Q-86.7188 -16.0312 -83.2656 -18.8438 Q-79.8125 -21.6562 -74.5781 -21.6562 Q-70.7188 -21.6562 -67.8047 -20.1016 Q-64.8906 -18.5469 -63 -15.6172 Q-61.1094 -12.6875 -60.0234 -8.4844 Q-58.9375 -4.2812 -58.9375 2.8438 Q-58.9375 11.2812 -60.6719 16.4688 Q-62.4062 21.6562 -65.8594 24.4844 Q-69.3125 27.3125 -74.5781 27.3125 Q-81.5156 27.3125 -85.4688 22.3438 Q-90.2188 16.3594 -90.2188 2.8438 ZM-84.1719 2.8438 Q-84.1719 14.6562 -81.4062 18.5625 Q-78.6406 22.4688 -74.5781 22.4688 Q-70.5312 22.4688 -67.7656 18.5469 Q-65 14.625 -65 2.8438 Q-65 -9 -67.7656 -12.8906 Q-70.5312 -16.7812 -74.6406 -16.7812 Q-78.7031 -16.7812 -81.125 -13.3438 Q-84.1719 -8.9688 -84.1719 2.8438 ZM-49.8508 26.5 L-49.8508 19.7969 L-43.1321 19.7969 L-43.1321 26.5 L-49.8508 26.5 ZM-34.6285 13.9375 L-28.441 13.4062 Q-27.7535 17.9219 -25.2535 20.1953 Q-22.7535 22.4688 -19.2222 22.4688 Q-14.9722 22.4688 -12.0269 19.2656 Q-9.0816 16.0625 -9.0816 10.7656 Q-9.0816 5.7188 -11.9097 2.8125 Q-14.7379 -0.0938 -19.316 -0.0938 Q-22.1597 -0.0938 -24.4488 1.1953 Q-26.7379 2.4844 -28.0504 4.5469 L-33.5816 3.8281 L-28.941 -20.8125 L-5.0816 -20.8125 L-5.0816 -15.1719 L-24.2222 -15.1719 L-26.816 -2.2969 Q-22.4879 -5.2969 -17.7535 -5.2969 Q-11.4722 -5.2969 -7.1519 -0.9453 Q-2.8316 3.4062 -2.8316 10.2344 Q-2.8316 16.75 -6.6285 21.5 Q-11.2379 27.3125 -19.2222 27.3125 Q-25.7691 27.3125 -29.9019 23.6484 Q-34.0347 19.9844 -34.6285 13.9375 Z"
         id="path43" />
    </g>
    <g
       transform="translate(191.3333,69)"
       style="font-size:66.6667px; fill:rgb(38,38,38); text-rendering:geometricPrecision; color-rendering:optimizeQuality; image-rendering:optimizeQuality; stroke:rgb(38,38,38); color-interpolation:linearRGB;"
       id="g45">
      <path
         style="stroke:none;"
         d="M-13.0312 26.5 L-18.9219 26.5 L-18.9219 -11.0312 Q-21.0469 -9 -24.5 -6.9688 Q-27.9531 -4.9375 -30.7031 -3.9219 L-30.7031 -9.625 Q-25.7656 -11.9375 -22.0703 -15.2422 Q-18.375 -18.5469 -16.8281 -21.6562 L-13.0312 -21.6562 L-13.0312 26.5 Z"
         id="path44" />
    </g>
    <g
       transform="translate(93.3333,398.4997) rotate(-90)"
       style="font-size:66.6667px; fill:rgb(38,38,38); text-rendering:geometricPrecision; image-rendering:optimizeQuality; color-rendering:optimizeQuality; font-family:'mwb_cmmi10'; stroke:rgb(38,38,38); color-interpolation:linearRGB;"
       id="g51">
      <path
         style="stroke:none;"
         d="M-110.6352 -25.1409 Q-110.6352 -25.5315 -110.5727 -25.7346 L-104.1508 -51.4846 Q-103.8852 -52.4221 -103.1039 -53.0159 Q-102.3227 -53.6096 -101.3383 -53.6096 Q-100.4946 -53.6096 -99.9008 -53.1018 Q-99.3071 -52.594 -99.3071 -51.7502 Q-99.3071 -51.5471 -99.3227 -51.4299 Q-99.3383 -51.3127 -99.3852 -51.1877 L-101.7914 -41.5002 Q-99.1196 -42.3909 -94.6664 -46.1018 Q-90.2133 -49.8127 -87.9399 -51.3518 Q-85.6664 -52.8909 -82.3696 -52.8909 Q-81.2914 -52.8909 -80.5493 -52.219 Q-79.8071 -51.5471 -79.8071 -50.4065 Q-79.8071 -48.8284 -80.9399 -47.7346 Q-82.0727 -46.6409 -83.6352 -46.6409 Q-84.7289 -46.6409 -85.4633 -47.344 Q-86.1977 -48.0471 -86.1977 -49.1252 Q-86.1977 -49.8752 -85.9321 -50.4065 Q-87.5414 -49.7502 -89.2211 -48.5706 Q-90.9008 -47.3909 -92.2758 -46.1956 Q-93.6508 -45.0002 -95.5805 -43.3987 Q-97.5102 -41.7971 -99.0571 -40.9534 Q-96.3071 -40.9534 -93.4243 -40.3596 Q-90.5414 -39.7659 -88.4321 -38.1956 Q-86.3227 -36.6252 -86.3227 -33.9065 Q-86.3227 -32.8284 -86.5883 -32.0471 Q-87.2133 -29.3596 -87.2133 -28.0315 Q-87.2133 -25.0159 -85.1196 -25.0159 Q-82.7289 -25.0159 -81.4477 -27.6643 Q-80.1664 -30.3127 -79.3539 -33.844 Q-79.2289 -34.2346 -78.8383 -34.2346 L-78.0102 -34.2346 Q-77.7602 -34.2346 -77.5961 -34.0549 Q-77.4321 -33.8752 -77.4321 -33.6565 Q-77.4321 -33.5784 -77.4946 -33.4534 Q-79.9477 -23.2502 -85.2446 -23.2502 Q-87.1352 -23.2502 -88.5961 -24.1331 Q-90.0571 -25.0159 -90.8383 -26.5393 Q-91.6196 -28.0627 -91.6196 -29.9534 Q-91.6196 -31.1721 -91.3696 -32.1721 Q-91.1352 -33.094 -91.1352 -33.719 Q-91.1352 -35.8752 -93.0493 -37.1174 Q-94.9633 -38.3596 -97.5649 -38.8206 Q-100.1664 -39.2815 -102.4164 -39.2815 L-105.8227 -25.469 Q-106.0571 -24.5627 -106.8539 -23.9065 Q-107.6508 -23.2502 -108.6352 -23.2502 Q-109.4477 -23.2502 -110.0414 -23.7737 Q-110.6352 -24.2971 -110.6352 -25.1409 Z"
         id="path45" />
      <path
         style="stroke:none;"
         d="M-55.0059 -7.3752 Q-58.7403 -10.3284 -61.4434 -14.1409 Q-64.1465 -17.9534 -65.8575 -22.2659 Q-67.5684 -26.5784 -68.42 -31.2893 Q-69.2715 -36.0002 -69.2715 -40.7502 Q-69.2715 -45.5627 -68.42 -50.2737 Q-67.5684 -54.9846 -65.8184 -59.3362 Q-64.0684 -63.6877 -61.3575 -67.4768 Q-58.6465 -71.2659 -55.0059 -74.1252 Q-55.0059 -74.2502 -54.6934 -74.2502 L-54.0684 -74.2502 Q-53.8653 -74.2502 -53.7012 -74.0706 Q-53.5371 -73.8909 -53.5371 -73.6565 Q-53.5371 -73.3596 -53.6778 -73.2346 Q-56.9434 -70.0315 -59.1153 -66.3674 Q-61.2871 -62.7034 -62.6153 -58.5627 Q-63.9434 -54.4221 -64.5293 -49.9924 Q-65.1153 -45.5627 -65.1153 -40.7502 Q-65.1153 -19.4534 -53.7403 -8.3909 Q-53.5371 -8.2034 -53.5371 -7.844 Q-53.5371 -7.6721 -53.7168 -7.4612 Q-53.8965 -7.2502 -54.0684 -7.2502 L-54.6934 -7.2502 Q-55.0059 -7.2502 -55.0059 -7.3752 Z"
         id="path46" />
      <path
         style="stroke:none;"
         d="M-36.8768 -10.9534 L-33.8611 -23.0471 Q-37.2674 -23.0471 -40.2127 -24.6331 Q-43.158 -26.219 -44.9393 -29.0706 Q-46.7205 -31.9221 -46.7205 -35.2502 Q-46.7205 -38.8909 -44.9236 -42.1956 Q-43.1268 -45.5002 -40.0018 -48.1956 Q-36.8768 -50.8909 -33.2752 -52.344 Q-29.6736 -53.7971 -26.1424 -53.7971 L-22.1111 -70.094 Q-21.9861 -70.4846 -21.5955 -70.4846 L-20.783 -70.4846 Q-20.5174 -70.4846 -20.3533 -70.2581 Q-20.1893 -70.0315 -20.1893 -69.8284 L-24.2049 -53.7971 Q-21.6893 -53.7971 -19.3377 -52.8831 Q-16.9861 -51.969 -15.1658 -50.3206 Q-13.3455 -48.6721 -12.3377 -46.4299 Q-11.3299 -44.1877 -11.3299 -41.6409 Q-11.3299 -38.0002 -13.1268 -34.6956 Q-14.9236 -31.3909 -17.9627 -28.7424 Q-21.0018 -26.094 -24.7518 -24.5706 Q-28.5018 -23.0471 -31.908 -23.0471 L-34.9705 -10.6565 Q-35.1111 -10.2659 -35.533 -10.2659 L-36.3143 -10.2659 Q-36.5799 -10.2659 -36.7283 -10.5081 Q-36.8768 -10.7502 -36.8768 -10.9534 ZM-33.4393 -24.8127 L-26.5955 -52.0627 Q-28.2986 -52.0627 -30.1658 -51.3831 Q-32.033 -50.7034 -33.6815 -49.6565 Q-35.3299 -48.6096 -36.6736 -47.2659 Q-38.3143 -45.6252 -39.5565 -43.3987 Q-40.7986 -41.1721 -41.4393 -38.7034 Q-42.0799 -36.2346 -42.0799 -33.844 Q-42.0799 -31.3284 -40.994 -29.2659 Q-39.908 -27.2034 -37.9471 -26.0081 Q-35.9861 -24.8127 -33.4393 -24.8127 ZM-31.4393 -24.8127 Q-28.9236 -24.8127 -26.0799 -26.2581 Q-23.2361 -27.7034 -21.3924 -29.6252 Q-18.8768 -32.1096 -17.4236 -35.7268 Q-15.9705 -39.344 -15.9705 -43.0471 Q-15.9705 -45.5315 -17.0486 -47.6096 Q-18.1268 -49.6877 -20.0877 -50.8752 Q-22.0486 -52.0627 -24.6111 -52.0627 L-31.4393 -24.8127 Z"
         id="path47" />
      <path
         style="stroke:none;"
         d="M-5.7951 -7.2502 Q-6.3732 -7.2502 -6.3732 -7.844 Q-6.3732 -8.1409 -6.2482 -8.2659 Q5.2049 -19.4534 5.2049 -40.7502 Q5.2049 -62.0471 -6.1076 -73.1096 Q-6.3732 -73.2659 -6.3732 -73.6565 Q-6.3732 -73.8909 -6.1935 -74.0706 Q-6.0139 -74.2502 -5.7951 -74.2502 L-5.1701 -74.2502 Q-4.967 -74.2502 -4.842 -74.1252 Q-0.0295 -70.3284 3.1736 -64.8987 Q6.3768 -59.469 7.869 -53.3127 Q9.3611 -47.1565 9.3611 -40.7502 Q9.3611 -36.0002 8.5565 -31.4065 Q7.7518 -26.8127 6.0018 -22.344 Q4.2518 -17.8752 1.5721 -14.1018 Q-1.1076 -10.3284 -4.842 -7.3752 Q-4.967 -7.2502 -5.1701 -7.2502 L-5.7951 -7.2502 Z"
         id="path48" />
      <path
         style="stroke:none;"
         d="M19.5528 -8.594 Q19.5528 -8.7815 19.6153 -8.8596 L42.9121 -73.4377 Q43.0371 -73.8284 43.3653 -74.0393 Q43.6934 -74.2502 44.1153 -74.2502 Q44.709 -74.2502 45.084 -73.8909 Q45.459 -73.5315 45.459 -72.9065 L45.459 -72.6409 L22.1621 -8.0627 Q21.7715 -7.2502 20.8965 -7.2502 Q20.334 -7.2502 19.9434 -7.6409 Q19.5528 -8.0315 19.5528 -8.594 Z"
         id="path49" />
      <path
         style="stroke:none;"
         d="M52.6831 -25.1409 Q52.6831 -25.5315 52.7456 -25.7346 L59.1675 -51.4846 Q59.4331 -52.4221 60.2143 -53.0159 Q60.9956 -53.6096 61.98 -53.6096 Q62.8237 -53.6096 63.4175 -53.1018 Q64.0112 -52.594 64.0112 -51.7502 Q64.0112 -51.5471 63.9956 -51.4299 Q63.98 -51.3127 63.9331 -51.1877 L61.5268 -41.5002 Q64.1987 -42.3909 68.6518 -46.1018 Q73.105 -49.8127 75.3784 -51.3518 Q77.6518 -52.8909 80.9487 -52.8909 Q82.0268 -52.8909 82.769 -52.219 Q83.5112 -51.5471 83.5112 -50.4065 Q83.5112 -48.8284 82.3784 -47.7346 Q81.2456 -46.6409 79.6831 -46.6409 Q78.5893 -46.6409 77.855 -47.344 Q77.1206 -48.0471 77.1206 -49.1252 Q77.1206 -49.8752 77.3862 -50.4065 Q75.7768 -49.7502 74.0971 -48.5706 Q72.4175 -47.3909 71.0425 -46.1956 Q69.6675 -45.0002 67.7378 -43.3987 Q65.8081 -41.7971 64.2612 -40.9534 Q67.0112 -40.9534 69.894 -40.3596 Q72.7768 -39.7659 74.8862 -38.1956 Q76.9956 -36.6252 76.9956 -33.9065 Q76.9956 -32.8284 76.73 -32.0471 Q76.105 -29.3596 76.105 -28.0315 Q76.105 -25.0159 78.1987 -25.0159 Q80.5893 -25.0159 81.8706 -27.6643 Q83.1518 -30.3127 83.9643 -33.844 Q84.0893 -34.2346 84.48 -34.2346 L85.3081 -34.2346 Q85.5581 -34.2346 85.7221 -34.0549 Q85.8862 -33.8752 85.8862 -33.6565 Q85.8862 -33.5784 85.8237 -33.4534 Q83.3706 -23.2502 78.0737 -23.2502 Q76.1831 -23.2502 74.7221 -24.1331 Q73.2612 -25.0159 72.48 -26.5393 Q71.6987 -28.0627 71.6987 -29.9534 Q71.6987 -31.1721 71.9487 -32.1721 Q72.1831 -33.094 72.1831 -33.719 Q72.1831 -35.8752 70.269 -37.1174 Q68.355 -38.3596 65.7534 -38.8206 Q63.1518 -39.2815 60.9018 -39.2815 L57.4956 -25.469 Q57.2612 -24.5627 56.4643 -23.9065 Q55.6675 -23.2502 54.6831 -23.2502 Q53.8706 -23.2502 53.2768 -23.7737 Q52.6831 -24.2971 52.6831 -25.1409 Z"
         id="path50" />
      <path
         style="stroke:none;"
         d="M99.2811 -12.9691 Q93.5155 -12.9691 91.4452 -17.7113 Q89.3749 -22.4535 89.3749 -28.9847 Q89.3749 -33.0785 90.1171 -36.68 Q90.8593 -40.2816 93.0702 -42.7894 Q95.2811 -45.2972 99.2811 -45.2972 Q102.3749 -45.2972 104.3514 -43.7894 Q106.328 -42.2816 107.3593 -39.8832 Q108.3905 -37.4847 108.7733 -34.7425 Q109.1561 -32.0003 109.1561 -28.9847 Q109.1561 -24.9535 108.4061 -21.43 Q107.6561 -17.9066 105.4764 -15.4378 Q103.2968 -12.9691 99.2811 -12.9691 ZM99.2811 -14.1878 Q101.8905 -14.1878 103.1796 -16.8675 Q104.4686 -19.5472 104.7655 -22.8128 Q105.0624 -26.0785 105.0624 -29.7503 Q105.0624 -33.2816 104.7655 -36.266 Q104.4686 -39.2503 103.1952 -41.6722 Q101.9218 -44.0941 99.2811 -44.0941 Q96.6249 -44.0941 95.3358 -41.6566 Q94.0468 -39.2191 93.7499 -36.2503 Q93.453 -33.2816 93.453 -29.7503 Q93.453 -27.1253 93.578 -24.805 Q93.703 -22.4847 94.2577 -20.0238 Q94.8124 -17.5628 96.0389 -15.8753 Q97.2655 -14.1878 99.2811 -14.1878 Z"
         id="path51" />
    </g>
    <g
       style="stroke-linecap:butt; text-rendering:geometricPrecision; color-rendering:optimizeQuality; image-rendering:optimizeQuality; stroke-linejoin:round; color-interpolation:linearRGB; stroke-width:5;"
       id="g58">
      <path
         d="M208 69 L208.0267 728 L208.0534 728 L208.08 728 L208.1067 728 L208.1601 728 L208.2134 728 L208.3202 728 L208.4269 728 L208.6403 728 L208.8538 728 L209.2806 728 L209.7075 728 L210.5613 728 L211.415 728 L213.1226 728 L214.8301 728 L218.2451 728 L221.6602 728 L229.7165 728 L237.7727 728 L253.3583 728 L267.5455 728 L282.1514 728 L297.3182 728 L313.7437 728 L327.0909 728 L343.6821 728 L356.8636 728 L371.2249 728 L386.6364 728 L400.9468 728 L416.4091 728 L433.015 728 L446.1818 728 L462.1475 728 L475.9545 728 L491.6234 728 L505.7273 728 L520.4756 728 L535.5 728 L550.3903 728 L565.2728 728 L580.7508 728 L595.0454 728 L611.1249 728 L624.8182 728 L639.4491 728 L654.5909 728 L669.575 728 L684.3636 728 L699.2615 728 L714.1364 728 L730.1085 728 L743.9091 728 L758.0933 728 L773.6818 728 L789.3029 728 L803.4546 728 L814.6909 728 L833.2272 728 L847.8371 728 L863 728"
         style="fill:none; fill-rule:evenodd;"
         id="path52" />
      <path
         d="M208 69 L221.6602 95.9257 L237.7727 126.3043 L253.3583 154.3595 L267.5455 178.8333 L282.1514 203.0347 L297.3182 227.16 L313.7437 252.2026 L327.0909 271.7692 L343.6821 295.1705 L356.8636 313.0741 L371.2249 331.9234 L386.6364 351.4286 L400.9468 368.9055 L416.4091 387.1379 L433.015 406.0054 L446.1818 420.4667 L462.1475 437.4401 L475.9545 451.6452 L491.6234 467.2594 L505.7273 480.875 L520.4756 494.688 L535.5 508.3333 L550.3903 521.4512 L565.2728 534.1765 L580.7508 547.0201 L595.0454 558.5428 L611.1249 571.1323 L624.8182 581.5555 L639.4491 592.4023 L654.5909 603.3243 L669.575 613.841 L684.3636 623.9474 L699.2615 633.8647 L714.1364 643.5128 L730.1085 653.6012 L743.9091 662.1 L758.0933 670.6323 L773.6818 679.7805 L789.3029 688.7164 L803.4546 696.619 L814.6909 702.7675 L833.2272 712.6744 L847.8371 720.2829 L863 728"
         style="fill:none; fill-rule:evenodd;"
         id="path53" />
      <path
         d="M208 69 L221.6602 82.7436 L237.7727 98.9546 L253.3583 114.6353 L267.5455 128.9091 L282.1514 143.6043 L297.3182 158.8636 L313.7437 175.3895 L327.0909 188.8182 L343.6821 205.5107 L356.8636 218.7727 L371.2249 233.2217 L386.6364 248.7273 L400.9468 263.1251 L416.4091 278.6818 L433.015 295.3891 L446.1818 308.6364 L462.1475 324.6996 L475.9545 338.5909 L491.6234 354.3554 L505.7273 368.5454 L520.4756 383.3838 L535.5 398.5 L550.3903 413.4812 L565.2728 428.4545 L580.7508 444.0272 L595.0454 458.4091 L611.1249 474.5868 L624.8182 488.3636 L639.4491 503.0839 L654.5909 518.3182 L669.575 533.3938 L684.3636 548.2727 L699.2615 563.2616 L714.1364 578.2273 L730.1085 594.297 L743.9091 608.1818 L758.0933 622.4527 L773.6818 638.1364 L789.3029 653.8528 L803.4546 668.0909 L814.6909 679.3959 L833.2272 698.0455 L847.8371 712.7445 L863 728"
         style="fill:none; fill-rule:evenodd; stroke:rgb(102,170,215);"
         id="path54" />
      <path
         d="M208 69 L221.6602 108.5799 L237.7727 151.375 L253.3583 189.2512 L267.5455 221.0769 L282.1514 251.4933 L297.3182 280.8214 L313.7437 310.2676 L327.0909 332.6 L343.6821 358.5659 L356.8636 377.9062 L371.2249 397.7949 L386.6364 417.8824 L400.9468 435.4696 L416.4091 453.4167 L433.015 471.5725 L446.1818 485.2105 L462.1475 500.9193 L475.9545 513.825 L491.6234 527.7645 L505.7273 539.7143 L520.4756 551.6467 L535.5 563.25 L550.3903 574.2361 L565.2728 584.7391 L580.7508 595.1888 L595.0454 604.4375 L611.1249 614.4084 L624.8182 622.56 L639.4491 630.9447 L654.5909 639.2885 L669.575 647.23 L684.3636 654.7778 L699.2615 662.1055 L714.1364 669.1607 L730.1085 676.4613 L743.9091 682.5517 L758.0933 688.6119 L773.6818 695.05 L789.3029 701.28 L803.4546 706.7419 L814.6909 710.9608 L833.2272 717.7031 L847.8371 722.8351 L863 728"
         style="fill:none; fill-rule:evenodd; stroke:rgb(76,156,209);"
         id="path55" />
      <path
         d="M208 69 L214.8301 101.9833 L221.6602 132.4269 L229.7165 165.4537 L237.7727 195.7308 L245.5655 222.7119 L253.3583 247.682 L267.5455 288.6667 L282.1514 325.7544 L297.3182 359.7353 L313.7437 392.2223 L327.0909 415.8421 L343.6821 442.267 L356.8636 461.2619 L371.2249 480.2136 L386.6364 498.7826 L400.9468 514.5883 L416.4091 530.3 L433.015 545.7819 L446.1818 557.1481 L462.1475 569.9697 L475.9545 580.2931 L491.6234 591.2366 L505.7273 600.4516 L520.4756 609.5038 L535.5 618.1667 L550.3903 626.2447 L565.2728 633.8571 L580.7508 641.3262 L595.0454 647.8514 L611.1249 654.7979 L624.8182 660.4103 L639.4491 666.1215 L654.5909 671.7439 L669.575 677.0397 L684.3636 682.0233 L699.2615 686.8161 L714.1364 691.3889 L730.1085 696.0782 L743.9091 699.9575 L758.0933 703.7883 L773.6818 707.8265 L789.3029 711.7037 L803.4546 715.0784 L814.6909 717.6697 L833.2272 721.783 L847.8371 724.8914 L863 728"
         style="fill:none; fill-rule:evenodd; stroke:rgb(51,142,202);"
         id="path56" />
      <path
         d="M208 69 L209.7075 85.7857 L211.415 101.819 L213.1226 117.1495 L214.8301 131.8222 L216.5376 145.8788 L218.2451 159.3572 L219.9527 172.2923 L221.6602 184.7164 L223.6743 198.7544 L225.6883 212.1672 L227.7024 224.9959 L229.7165 237.2777 L233.7446 260.3348 L237.7727 281.5806 L241.6691 300.6017 L245.5655 318.2794 L249.4619 334.7512 L253.3583 350.1364 L260.4519 375.688 L267.5455 398.5 L274.8484 419.5639 L282.1514 438.5339 L297.3182 472.4694 L313.7437 502.7175 L327.0909 523.4828 L343.6821 545.5878 L356.8636 560.7911 L371.2249 575.4218 L386.6364 589.2632 L400.9468 600.6781 L416.4091 611.7059 L433.015 622.2739 L446.1818 629.8511 L462.1475 638.2202 L475.9545 644.8253 L491.6234 651.701 L505.7273 657.3929 L520.4756 662.8989 L535.5 668.0909 L550.3903 672.8657 L565.2728 677.3077 L580.7508 681.6126 L595.0454 685.3309 L611.1249 689.2466 L624.8182 692.3784 L639.4491 695.5366 L654.5909 698.6179 L669.575 701.495 L684.3636 704.1807 L699.2615 706.7438 L714.1364 709.1714 L730.1085 711.6429 L743.9091 713.6739 L758.0933 715.6676 L773.6818 717.7565 L789.3029 719.7498 L803.4546 721.4752 L814.6909 722.794 L833.2272 724.8768 L847.8371 726.442 L863 728"
         style="fill:none; fill-rule:evenodd; stroke:rgb(25,128,196);"
         id="path57" />
      <path
         d="M208 69 L208.0534 71.6736 L208.1067 74.3261 L208.1601 76.9576 L208.2134 79.5685 L208.2668 82.1589 L208.3202 84.7291 L208.3735 87.2793 L208.4269 89.8098 L208.4802 92.3208 L208.5336 94.8126 L208.587 97.2853 L208.6403 99.7391 L208.6937 102.1743 L208.747 104.5912 L208.8004 106.9898 L208.8538 109.3703 L208.9071 111.7331 L208.9605 114.0784 L209.0138 116.4061 L209.0672 118.7168 L209.1206 121.0103 L209.1739 123.287 L209.2273 125.5471 L209.2806 127.7908 L209.334 130.0181 L209.3874 132.2293 L209.4407 134.4246 L209.4941 136.6042 L209.5474 138.7681 L209.6008 140.9166 L209.6542 143.0498 L209.7075 145.168 L209.7609 147.2712 L209.8142 149.3596 L209.8676 151.4333 L209.921 153.4927 L209.9743 155.5376 L210.0277 157.5684 L210.081 159.5852 L210.1344 161.5881 L210.2411 165.5528 L210.3478 169.4637 L210.4546 173.3217 L210.5613 177.1281 L210.668 180.8839 L210.7747 184.59 L210.8814 188.2473 L210.9882 191.857 L211.0949 195.4198 L211.2016 198.9368 L211.3083 202.4087 L211.415 205.8365 L211.5218 209.221 L211.6285 212.563 L211.7352 215.8632 L211.8419 219.1225 L211.9487 222.3417 L212.0554 225.5214 L212.1621 228.6624 L212.2688 231.7654 L212.3755 234.8311 L212.4823 237.86 L212.589 240.853 L212.6957 243.8107 L212.8024 246.7335 L212.9091 249.6223 L213.0159 252.4775 L213.1226 255.2997 L213.2293 258.0896 L213.336 260.8476 L213.4427 263.5743 L213.5495 266.2703 L213.6562 268.936 L213.7629 271.572 L213.8696 274.1787 L213.9763 276.7567 L214.0831 279.3063 L214.1898 281.8281 L214.4032 286.7902 L214.6167 291.6461 L214.8301 296.3996 L215.0435 301.0535 L215.257 305.6111 L215.4704 310.0754 L215.6839 314.4492 L215.8973 318.7351 L216.1107 322.9359 L216.3242 327.054 L216.5376 331.0918 L216.7511 335.0517 L216.9645 338.9359 L217.1779 342.7466 L217.3914 346.4857 L217.6048 350.1555 L217.8183 353.7576 L218.0317 357.294 L218.2451 360.7665 L218.4586 364.1768 L218.672 367.5265 L218.8855 370.8173 L219.0989 374.0506 L219.3123 377.2281 L219.5258 380.351 L219.9527 386.4389 L220.3795 392.3249 L220.8064 398.019 L221.2333 403.5302 L221.6602 408.8674 L222.1637 414.95 L222.6672 420.8141 L223.1707 426.4713 L223.6743 431.9323 L224.1778 437.2072 L224.6813 442.3053 L225.1848 447.2354 L225.6883 452.0056 L226.1918 456.6235 L226.6954 461.0965 L227.1989 465.4311 L227.7024 469.6337 L228.7094 477.6664 L229.7165 485.2379 L230.7235 492.3869 L231.7305 499.1478 L232.7376 505.5513 L233.7446 511.6251 L234.7516 517.3939 L235.7587 522.8802 L237.7727 533.0845 L239.7209 542.0876 L241.6691 550.3449 L243.6173 557.9454 L245.5655 564.9645 L247.5137 571.4664 L249.4619 577.5062 L253.3583 588.3837 L256.9051 597.1017 L260.4519 604.8801 L267.5455 618.1667 L274.8484 629.3905 L282.1514 638.7412 L289.7348 646.931 L297.3182 653.9113 L305.5309 660.394 L313.7437 665.9828 L320.4173 669.9867 L327.0909 673.5872 L335.3865 677.5867 L343.6821 681.1411 L350.2729 683.6949 L356.8636 686.0412 L371.2249 690.5472 L386.6364 694.6329 L400.9468 697.8802 L416.4091 700.9178 L433.015 703.7413 L446.1818 705.715 L462.1475 707.8477 L475.9545 709.4968 L491.6234 711.1825 L505.7273 712.5547 L520.4756 713.8625 L535.5 715.0784 L550.3903 716.1822 L565.2728 717.1967 L580.7508 718.1689 L595.0454 719 L611.1249 719.8667 L624.8182 720.5536 L639.4491 721.241 L654.5909 721.9062 L669.575 722.5228 L684.3636 723.0943 L699.2615 723.6362 L714.1364 724.1462 L730.1085 724.6623 L743.9091 725.084 L758.0933 725.496 L773.6818 725.9255 L789.3029 726.3333 L803.4546 726.6846 L814.6909 726.9522 L833.2272 727.373 L847.8371 727.6878 L863 728"
         style="fill:none; fill-rule:evenodd; stroke:rgb(0,114,189);"
         id="path58" />
    </g>
    <g
       style="fill:white; text-rendering:optimizeSpeed; color-rendering:optimizeSpeed; image-rendering:optimizeSpeed; shape-rendering:crispEdges; stroke:white; color-interpolation:sRGB;"
       id="g59">
      <path
         style="stroke:none;"
         d="M1098 728 L1753 728 L1753 69 L1098 69 Z"
         id="path59" />
    </g>
    <g
       style="fill-opacity:0.251; color-rendering:optimizeQuality; color-interpolation:linearRGB; text-rendering:geometricPrecision; stroke:rgb(26,26,26); stroke-linecap:butt; stroke-miterlimit:1; stroke-opacity:0.251; fill:rgb(26,26,26); stroke-dasharray:1,3; stroke-width:0.8333; stroke-linejoin:bevel; image-rendering:optimizeQuality;"
       id="g80">
      <line
         y2="69"
         style="fill:none;"
         x1="1098"
         x2="1098"
         y1="728"
         id="line59" />
      <line
         y2="69"
         style="fill:none;"
         x1="1163.5"
         x2="1163.5"
         y1="728"
         id="line60" />
      <line
         y2="69"
         style="fill:none;"
         x1="1229"
         x2="1229"
         y1="728"
         id="line61" />
      <line
         y2="69"
         style="fill:none;"
         x1="1294.5"
         x2="1294.5"
         y1="728"
         id="line62" />
      <line
         y2="69"
         style="fill:none;"
         x1="1360"
         x2="1360"
         y1="728"
         id="line63" />
      <line
         y2="69"
         style="fill:none;"
         x1="1425.5"
         x2="1425.5"
         y1="728"
         id="line64" />
      <line
         y2="69"
         style="fill:none;"
         x1="1491"
         x2="1491"
         y1="728"
         id="line65" />
      <line
         y2="69"
         style="fill:none;"
         x1="1556.5"
         x2="1556.5"
         y1="728"
         id="line66" />
      <line
         y2="69"
         style="fill:none;"
         x1="1622"
         x2="1622"
         y1="728"
         id="line67" />
      <line
         y2="69"
         style="fill:none;"
         x1="1687.5"
         x2="1687.5"
         y1="728"
         id="line68" />
      <line
         y2="69"
         style="fill:none;"
         x1="1753"
         x2="1753"
         y1="728"
         id="line69" />
      <line
         y2="728"
         style="fill:none;"
         x1="1753"
         x2="1098"
         y1="728"
         id="line70" />
      <line
         y2="662.1"
         style="fill:none;"
         x1="1753"
         x2="1098"
         y1="662.1"
         id="line71" />
      <line
         y2="596.2"
         style="fill:none;"
         x1="1753"
         x2="1098"
         y1="596.2"
         id="line72" />
      <line
         y2="530.3"
         style="fill:none;"
         x1="1753"
         x2="1098"
         y1="530.3"
         id="line73" />
      <line
         y2="464.4"
         style="fill:none;"
         x1="1753"
         x2="1098"
         y1="464.4"
         id="line74" />
      <line
         y2="398.5"
         style="fill:none;"
         x1="1753"
         x2="1098"
         y1="398.5"
         id="line75" />
      <line
         y2="332.6"
         style="fill:none;"
         x1="1753"
         x2="1098"
         y1="332.6"
         id="line76" />
      <line
         y2="266.7"
         style="fill:none;"
         x1="1753"
         x2="1098"
         y1="266.7"
         id="line77" />
      <line
         y2="200.8"
         style="fill:none;"
         x1="1753"
         x2="1098"
         y1="200.8"
         id="line78" />
      <line
         y2="134.9"
         style="fill:none;"
         x1="1753"
         x2="1098"
         y1="134.9"
         id="line79" />
      <line
         y2="69"
         style="fill:none;"
         x1="1753"
         x2="1098"
         y1="69"
         id="line80" />
    </g>
    <g
       style="fill:rgb(38,38,38); text-rendering:geometricPrecision; image-rendering:optimizeQuality; color-rendering:optimizeQuality; stroke-linejoin:round; stroke:rgb(38,38,38); color-interpolation:linearRGB; stroke-width:0.8333;"
       id="g84">
      <line
         y2="728"
         style="fill:none;"
         x1="1098"
         x2="1753"
         y1="728"
         id="line81" />
      <line
         y2="721.41"
         style="fill:none;"
         x1="1098"
         x2="1098"
         y1="728"
         id="line82" />
      <line
         y2="721.41"
         style="fill:none;"
         x1="1425.5"
         x2="1425.5"
         y1="728"
         id="line83" />
      <line
         y2="721.41"
         style="fill:none;"
         x1="1753"
         x2="1753"
         y1="728"
         id="line84" />
    </g>
    <g
       transform="translate(1098,744.6667)"
       style="font-size:66.6667px; fill:rgb(38,38,38); text-rendering:geometricPrecision; color-rendering:optimizeQuality; image-rendering:optimizeQuality; stroke:rgb(38,38,38); color-interpolation:linearRGB;"
       id="g85">
      <path
         style="stroke:none;"
         d="M-16.2188 44.3438 Q-16.2188 35.8438 -14.4688 30.6562 Q-12.7188 25.4688 -9.2656 22.6562 Q-5.8125 19.8438 -0.5781 19.8438 Q3.2812 19.8438 6.1953 21.3984 Q9.1094 22.9531 11 25.8828 Q12.8906 28.8125 13.9766 33.0156 Q15.0625 37.2188 15.0625 44.3438 Q15.0625 52.7812 13.3281 57.9688 Q11.5938 63.1562 8.1406 65.9844 Q4.6875 68.8125 -0.5781 68.8125 Q-7.5156 68.8125 -11.4688 63.8438 Q-16.2188 57.8594 -16.2188 44.3438 ZM-10.1719 44.3438 Q-10.1719 56.1562 -7.4062 60.0625 Q-4.6406 63.9688 -0.5781 63.9688 Q3.4688 63.9688 6.2344 60.0469 Q9 56.125 9 44.3438 Q9 32.5 6.2344 28.6094 Q3.4688 24.7188 -0.6406 24.7188 Q-4.7031 24.7188 -7.125 28.1562 Q-10.1719 32.5312 -10.1719 44.3438 Z"
         id="path84" />
    </g>
    <g
       transform="translate(1425.5,744.6667)"
       style="font-size:66.6667px; fill:rgb(38,38,38); text-rendering:geometricPrecision; color-rendering:optimizeQuality; image-rendering:optimizeQuality; stroke:rgb(38,38,38); color-interpolation:linearRGB;"
       id="g86">
      <path
         style="stroke:none;"
         d="M-43.7188 44.3438 Q-43.7188 35.8438 -41.9688 30.6562 Q-40.2188 25.4688 -36.7656 22.6562 Q-33.3125 19.8438 -28.0781 19.8438 Q-24.2188 19.8438 -21.3047 21.3984 Q-18.3906 22.9531 -16.5 25.8828 Q-14.6094 28.8125 -13.5234 33.0156 Q-12.4375 37.2188 -12.4375 44.3438 Q-12.4375 52.7812 -14.1719 57.9688 Q-15.9062 63.1562 -19.3594 65.9844 Q-22.8125 68.8125 -28.0781 68.8125 Q-35.0156 68.8125 -38.9688 63.8438 Q-43.7188 57.8594 -43.7188 44.3438 ZM-37.6719 44.3438 Q-37.6719 56.1562 -34.9062 60.0625 Q-32.1406 63.9688 -28.0781 63.9688 Q-24.0312 63.9688 -21.2656 60.0469 Q-18.5 56.125 -18.5 44.3438 Q-18.5 32.5 -21.2656 28.6094 Q-24.0312 24.7188 -28.1406 24.7188 Q-32.2031 24.7188 -34.625 28.1562 Q-37.6719 32.5312 -37.6719 44.3438 ZM-3.3508 68 L-3.3508 61.2969 L3.3679 61.2969 L3.3679 68 L-3.3508 68 ZM11.8715 55.4375 L18.059 54.9062 Q18.7465 59.4219 21.2465 61.6953 Q23.7465 63.9688 27.2778 63.9688 Q31.5278 63.9688 34.4731 60.7656 Q37.4184 57.5625 37.4184 52.2656 Q37.4184 47.2188 34.5903 44.3125 Q31.7621 41.4062 27.184 41.4062 Q24.3403 41.4062 22.0512 42.6953 Q19.7621 43.9844 18.4496 46.0469 L12.9184 45.3281 L17.559 20.6875 L41.4184 20.6875 L41.4184 26.3281 L22.2778 26.3281 L19.684 39.2031 Q24.0121 36.2031 28.7465 36.2031 Q35.0278 36.2031 39.3481 40.5547 Q43.6684 44.9062 43.6684 51.7344 Q43.6684 58.25 39.8715 63 Q35.2621 68.8125 27.2778 68.8125 Q20.7309 68.8125 16.5981 65.1484 Q12.4653 61.4844 11.8715 55.4375 Z"
         id="path85" />
    </g>
    <g
       transform="translate(1753,744.6667)"
       style="font-size:66.6667px; fill:rgb(38,38,38); text-rendering:geometricPrecision; color-rendering:optimizeQuality; image-rendering:optimizeQuality; stroke:rgb(38,38,38); color-interpolation:linearRGB;"
       id="g87">
      <path
         style="stroke:none;"
         d="M5.9688 68 L0.0781 68 L0.0781 30.4688 Q-2.0469 32.5 -5.5 34.5312 Q-8.9531 36.5625 -11.7031 37.5781 L-11.7031 31.875 Q-6.7656 29.5625 -3.0703 26.2578 Q0.625 22.9531 2.1719 19.8438 L5.9688 19.8438 L5.9688 68 Z"
         id="path86" />
    </g>
    <g
       style="fill:rgb(38,38,38); text-rendering:geometricPrecision; image-rendering:optimizeQuality; color-rendering:optimizeQuality; stroke-linejoin:round; stroke:rgb(38,38,38); color-interpolation:linearRGB; stroke-width:0.8333;"
       id="g90">
      <line
         y2="69"
         style="fill:none;"
         x1="1098"
         x2="1098"
         y1="728"
         id="line87" />
      <line
         y2="728"
         style="fill:none;"
         x1="1098"
         x2="1104.59"
         y1="728"
         id="line88" />
      <line
         y2="398.5"
         style="fill:none;"
         x1="1098"
         x2="1104.59"
         y1="398.5"
         id="line89" />
      <line
         y2="69"
         style="fill:none;"
         x1="1098"
         x2="1104.59"
         y1="69"
         id="line90" />
    </g>
    <g
       transform="translate(1081.3334,728)"
       style="font-size:66.6667px; fill:rgb(38,38,38); text-rendering:geometricPrecision; color-rendering:optimizeQuality; image-rendering:optimizeQuality; stroke:rgb(38,38,38); color-interpolation:linearRGB;"
       id="g91">
      <path
         style="stroke:none;"
         d="M-35.2188 2.8438 Q-35.2188 -5.6562 -33.4688 -10.8438 Q-31.7188 -16.0312 -28.2656 -18.8438 Q-24.8125 -21.6562 -19.5781 -21.6562 Q-15.7188 -21.6562 -12.8047 -20.1016 Q-9.8906 -18.5469 -8 -15.6172 Q-6.1094 -12.6875 -5.0234 -8.4844 Q-3.9375 -4.2812 -3.9375 2.8438 Q-3.9375 11.2812 -5.6719 16.4688 Q-7.4062 21.6562 -10.8594 24.4844 Q-14.3125 27.3125 -19.5781 27.3125 Q-26.5156 27.3125 -30.4688 22.3438 Q-35.2188 16.3594 -35.2188 2.8438 ZM-29.1719 2.8438 Q-29.1719 14.6562 -26.4062 18.5625 Q-23.6406 22.4688 -19.5781 22.4688 Q-15.5312 22.4688 -12.7656 18.5469 Q-10 14.625 -10 2.8438 Q-10 -9 -12.7656 -12.8906 Q-15.5312 -16.7812 -19.6406 -16.7812 Q-23.7031 -16.7812 -26.125 -13.3438 Q-29.1719 -8.9688 -29.1719 2.8438 Z"
         id="path90" />
    </g>
    <g
       transform="translate(1081.3334,398.5)"
       style="font-size:66.6667px; fill:rgb(38,38,38); text-rendering:geometricPrecision; color-rendering:optimizeQuality; image-rendering:optimizeQuality; stroke:rgb(38,38,38); color-interpolation:linearRGB;"
       id="g92">
      <path
         style="stroke:none;"
         d="M-90.2188 2.8438 Q-90.2188 -5.6562 -88.4688 -10.8438 Q-86.7188 -16.0312 -83.2656 -18.8438 Q-79.8125 -21.6562 -74.5781 -21.6562 Q-70.7188 -21.6562 -67.8047 -20.1016 Q-64.8906 -18.5469 -63 -15.6172 Q-61.1094 -12.6875 -60.0234 -8.4844 Q-58.9375 -4.2812 -58.9375 2.8438 Q-58.9375 11.2812 -60.6719 16.4688 Q-62.4062 21.6562 -65.8594 24.4844 Q-69.3125 27.3125 -74.5781 27.3125 Q-81.5156 27.3125 -85.4688 22.3438 Q-90.2188 16.3594 -90.2188 2.8438 ZM-84.1719 2.8438 Q-84.1719 14.6562 -81.4062 18.5625 Q-78.6406 22.4688 -74.5781 22.4688 Q-70.5312 22.4688 -67.7656 18.5469 Q-65 14.625 -65 2.8438 Q-65 -9 -67.7656 -12.8906 Q-70.5312 -16.7812 -74.6406 -16.7812 Q-78.7031 -16.7812 -81.125 -13.3438 Q-84.1719 -8.9688 -84.1719 2.8438 ZM-49.8508 26.5 L-49.8508 19.7969 L-43.1321 19.7969 L-43.1321 26.5 L-49.8508 26.5 ZM-34.6285 13.9375 L-28.441 13.4062 Q-27.7535 17.9219 -25.2535 20.1953 Q-22.7535 22.4688 -19.2222 22.4688 Q-14.9722 22.4688 -12.0269 19.2656 Q-9.0816 16.0625 -9.0816 10.7656 Q-9.0816 5.7188 -11.9097 2.8125 Q-14.7379 -0.0938 -19.316 -0.0938 Q-22.1597 -0.0938 -24.4488 1.1953 Q-26.7379 2.4844 -28.0504 4.5469 L-33.5816 3.8281 L-28.941 -20.8125 L-5.0816 -20.8125 L-5.0816 -15.1719 L-24.2222 -15.1719 L-26.816 -2.2969 Q-22.4879 -5.2969 -17.7535 -5.2969 Q-11.4722 -5.2969 -7.1519 -0.9453 Q-2.8316 3.4062 -2.8316 10.2344 Q-2.8316 16.75 -6.6285 21.5 Q-11.2379 27.3125 -19.2222 27.3125 Q-25.7691 27.3125 -29.9019 23.6484 Q-34.0347 19.9844 -34.6285 13.9375 Z"
         id="path91" />
    </g>
    <g
       transform="translate(1081.3334,69)"
       style="font-size:66.6667px; fill:rgb(38,38,38); text-rendering:geometricPrecision; color-rendering:optimizeQuality; image-rendering:optimizeQuality; stroke:rgb(38,38,38); color-interpolation:linearRGB;"
       id="g93">
      <path
         style="stroke:none;"
         d="M-13.0312 26.5 L-18.9219 26.5 L-18.9219 -11.0312 Q-21.0469 -9 -24.5 -6.9688 Q-27.9531 -4.9375 -30.7031 -3.9219 L-30.7031 -9.625 Q-25.7656 -11.9375 -22.0703 -15.2422 Q-18.375 -18.5469 -16.8281 -21.6562 L-13.0312 -21.6562 L-13.0312 26.5 Z"
         id="path92" />
    </g>
    <g
       transform="translate(983.3333,398.4997) rotate(-90)"
       style="font-size:73.3333px; fill:rgb(38,38,38); text-rendering:geometricPrecision; image-rendering:optimizeQuality; color-rendering:optimizeQuality; font-family:'mwb_cmmi10'; stroke:rgb(38,38,38); color-interpolation:linearRGB;"
       id="g99">
      <path
         style="stroke:none;"
         d="M-125.5215 -12.6815 Q-125.5215 -13.1034 -125.4434 -13.244 L-114.7246 -56.3378 Q-114.3965 -57.369 -113.5605 -58.0175 Q-112.7246 -58.6659 -111.6621 -58.6659 Q-110.7246 -58.6659 -110.084 -58.1112 Q-109.4434 -57.5565 -109.4434 -56.6346 Q-109.4434 -56.4159 -109.459 -56.2909 Q-109.4746 -56.1659 -109.5215 -56.0253 L-113.834 -38.9471 Q-114.5371 -35.9159 -114.5371 -33.7128 Q-114.5371 -30.994 -113.2559 -29.2518 Q-111.9746 -27.5096 -109.3809 -27.5096 Q-104.0684 -27.5096 -100.0371 -34.1346 Q-100.0059 -34.2128 -99.9824 -34.244 Q-99.959 -34.2753 -99.959 -34.3534 L-94.6934 -55.5253 Q-94.4434 -56.4784 -93.5527 -57.1737 Q-92.6621 -57.869 -91.6152 -57.869 Q-90.7715 -57.869 -90.1074 -57.2987 Q-89.4434 -56.7284 -89.4434 -55.8065 Q-89.4434 -55.3846 -89.5215 -55.244 L-94.7559 -34.2128 Q-95.2871 -32.1346 -95.2871 -30.6346 Q-95.2871 -27.5096 -93.1621 -27.5096 Q-90.8809 -27.5096 -89.7168 -30.3221 Q-88.5527 -33.1346 -87.709 -37.1346 Q-87.5527 -37.5565 -87.0996 -37.5565 L-86.2402 -37.5565 Q-85.959 -37.5565 -85.7637 -37.3221 Q-85.5684 -37.0878 -85.5684 -36.8378 Q-86.8496 -31.744 -88.3652 -28.6659 Q-89.8809 -25.5878 -93.3027 -25.5878 Q-95.7246 -25.5878 -97.5918 -26.9706 Q-99.459 -28.3534 -100.0371 -30.7128 Q-101.8496 -28.4315 -104.2949 -27.0096 Q-106.7402 -25.5878 -109.4434 -25.5878 Q-114.0059 -25.5878 -116.6152 -27.7128 L-120.3184 -12.9628 Q-120.5371 -11.9315 -121.3887 -11.2909 Q-122.2402 -10.6503 -123.3184 -10.6503 Q-124.209 -10.6503 -124.8652 -11.1971 Q-125.5215 -11.744 -125.5215 -12.6815 Z"
         id="path93" />
      <path
         style="stroke:none;"
         d="M-60.7252 -8.2909 Q-64.7877 -11.494 -67.7331 -15.6503 Q-70.6784 -19.8065 -72.5456 -24.5096 Q-74.4127 -29.2128 -75.3424 -34.3456 Q-76.2721 -39.4784 -76.2721 -44.6503 Q-76.2721 -49.8846 -75.3424 -55.0175 Q-74.4127 -60.1503 -72.5065 -64.8925 Q-70.6002 -69.6346 -67.6471 -73.7675 Q-64.694 -77.9003 -60.7252 -81.0096 Q-60.7252 -81.1503 -60.3815 -81.1503 L-59.694 -81.1503 Q-59.4909 -81.1503 -59.3112 -80.955 Q-59.1315 -80.7596 -59.1315 -80.5096 Q-59.1315 -80.1815 -59.2721 -80.0409 Q-62.8346 -76.5565 -65.2018 -72.5643 Q-67.569 -68.5721 -69.0143 -64.0643 Q-70.4596 -59.5565 -71.1002 -54.7206 Q-71.7409 -49.8846 -71.7409 -44.6503 Q-71.7409 -21.4471 -59.3346 -9.4003 Q-59.1315 -9.1815 -59.1315 -8.7909 Q-59.1315 -8.619 -59.3268 -8.3846 Q-59.5221 -8.1503 -59.694 -8.1503 L-60.3815 -8.1503 Q-60.7252 -8.1503 -60.7252 -8.2909 Z"
         id="path94" />
      <path
         style="stroke:none;"
         d="M-40.691 -12.1815 L-37.4098 -25.369 Q-41.1285 -25.369 -44.3316 -27.0956 Q-47.5348 -28.8221 -49.4801 -31.9237 Q-51.4254 -35.0253 -51.4254 -38.6659 Q-51.4254 -42.619 -49.4644 -46.2206 Q-47.5035 -49.8221 -44.0973 -52.7596 Q-40.691 -55.6971 -36.7691 -57.2831 Q-32.8473 -58.869 -29.0035 -58.869 L-24.6129 -76.619 Q-24.4723 -77.0565 -24.0504 -77.0565 L-23.1598 -77.0565 Q-22.8785 -77.0565 -22.6988 -76.8065 Q-22.5191 -76.5565 -22.5191 -76.3378 L-26.8941 -58.869 Q-24.1598 -58.869 -21.5894 -57.869 Q-19.0191 -56.869 -17.0426 -55.0721 Q-15.066 -53.2753 -13.9644 -50.8378 Q-12.8629 -48.4003 -12.8629 -45.619 Q-12.8629 -41.6503 -14.8238 -38.0565 Q-16.7848 -34.4628 -20.0973 -31.5721 Q-23.4098 -28.6815 -27.4879 -27.0253 Q-31.566 -25.369 -35.2848 -25.369 L-38.6285 -11.8534 Q-38.7691 -11.4315 -39.2379 -11.4315 L-40.0973 -11.4315 Q-40.3785 -11.4315 -40.5348 -11.6971 Q-40.691 -11.9628 -40.691 -12.1815 ZM-36.9566 -27.2909 L-29.5035 -56.9784 Q-31.3629 -56.9784 -33.3941 -56.2362 Q-35.4254 -55.494 -37.2223 -54.3534 Q-39.0191 -53.2128 -40.4879 -51.744 Q-42.2691 -49.9628 -43.6207 -47.5409 Q-44.9723 -45.119 -45.6676 -42.4237 Q-46.3629 -39.7284 -46.3629 -37.1346 Q-46.3629 -34.3846 -45.1832 -32.1425 Q-44.0035 -29.9003 -41.8707 -28.5956 Q-39.7379 -27.2909 -36.9566 -27.2909 ZM-34.7848 -27.2909 Q-32.0348 -27.2909 -28.9332 -28.8612 Q-25.8316 -30.4315 -23.8316 -32.5253 Q-21.0973 -35.244 -19.5113 -39.1815 Q-17.9254 -43.119 -17.9254 -47.1503 Q-17.9254 -49.8534 -19.0973 -52.119 Q-20.2691 -54.3846 -22.4098 -55.6815 Q-24.5504 -56.9784 -27.3316 -56.9784 L-34.7848 -27.2909 Z"
         id="path95" />
      <path
         style="stroke:none;"
         d="M-6.4184 -8.1503 Q-7.059 -8.1503 -7.059 -8.7909 Q-7.059 -9.119 -6.9184 -9.2596 Q5.566 -21.4471 5.566 -44.6503 Q5.566 -67.8534 -6.7621 -79.9003 Q-7.059 -80.0878 -7.059 -80.5096 Q-7.059 -80.7596 -6.8637 -80.955 Q-6.6684 -81.1503 -6.4184 -81.1503 L-5.7309 -81.1503 Q-5.5277 -81.1503 -5.3715 -81.0096 Q-0.1371 -76.869 3.3551 -70.955 Q6.8473 -65.0409 8.4723 -58.3378 Q10.0973 -51.6346 10.0973 -44.6503 Q10.0973 -39.4784 9.2223 -34.4706 Q8.3473 -29.4628 6.441 -24.5956 Q4.5348 -19.7284 1.6129 -15.6112 Q-1.309 -11.494 -5.3715 -8.2909 Q-5.5277 -8.1503 -5.7309 -8.1503 L-6.4184 -8.1503 Z"
         id="path96" />
      <path
         style="stroke:none;"
         d="M21.4596 -9.619 Q21.4596 -9.8221 21.5377 -9.9003 L46.9127 -80.2596 Q47.0534 -80.6815 47.4127 -80.9159 Q47.7721 -81.1503 48.2409 -81.1503 Q48.8815 -81.1503 49.2877 -80.7596 Q49.694 -80.369 49.694 -79.6815 L49.694 -79.4003 L24.319 -9.0409 Q23.8815 -8.1503 22.9284 -8.1503 Q22.319 -8.1503 21.8893 -8.58 Q21.4596 -9.0096 21.4596 -9.619 Z"
         id="path97" />
      <path
         style="stroke:none;"
         d="M56.0639 -12.6815 Q56.0639 -13.1034 56.142 -13.244 L66.8608 -56.3378 Q67.1889 -57.369 68.0248 -58.0175 Q68.8608 -58.6659 69.9233 -58.6659 Q70.8608 -58.6659 71.5014 -58.1112 Q72.142 -57.5565 72.142 -56.6346 Q72.142 -56.4159 72.1264 -56.2909 Q72.1108 -56.1659 72.0639 -56.0253 L67.7514 -38.9471 Q67.0483 -35.9159 67.0483 -33.7128 Q67.0483 -30.994 68.3295 -29.2518 Q69.6108 -27.5096 72.2045 -27.5096 Q77.517 -27.5096 81.5483 -34.1346 Q81.5795 -34.2128 81.603 -34.244 Q81.6264 -34.2753 81.6264 -34.3534 L86.892 -55.5253 Q87.142 -56.4784 88.0326 -57.1737 Q88.9233 -57.869 89.9701 -57.869 Q90.8139 -57.869 91.478 -57.2987 Q92.142 -56.7284 92.142 -55.8065 Q92.142 -55.3846 92.0639 -55.244 L86.8295 -34.2128 Q86.2983 -32.1346 86.2983 -30.6346 Q86.2983 -27.5096 88.4233 -27.5096 Q90.7045 -27.5096 91.8686 -30.3221 Q93.0326 -33.1346 93.8764 -37.1346 Q94.0326 -37.5565 94.4858 -37.5565 L95.3451 -37.5565 Q95.6264 -37.5565 95.8217 -37.3221 Q96.017 -37.0878 96.017 -36.8378 Q94.7358 -31.744 93.2201 -28.6659 Q91.7045 -25.5878 88.2826 -25.5878 Q85.8608 -25.5878 83.9936 -26.9706 Q82.1264 -28.3534 81.5483 -30.7128 Q79.7358 -28.4315 77.2905 -27.0096 Q74.8451 -25.5878 72.142 -25.5878 Q67.5795 -25.5878 64.9701 -27.7128 L61.267 -12.9628 Q61.0483 -11.9315 60.1967 -11.2909 Q59.3451 -10.6503 58.267 -10.6503 Q57.3764 -10.6503 56.7201 -11.1971 Q56.0639 -11.744 56.0639 -12.6815 Z"
         id="path98" />
      <path
         style="stroke:none;"
         d="M110.9695 -14.2754 Q104.7195 -14.2754 102.4695 -19.4238 Q100.2195 -24.5723 100.2195 -31.666 Q100.2195 -36.0879 101.0242 -40.0019 Q101.8289 -43.916 104.2351 -46.6426 Q106.6414 -49.3691 110.9695 -49.3691 Q114.3289 -49.3691 116.4695 -47.7285 Q118.6101 -46.0879 119.7351 -43.4785 Q120.8601 -40.8691 121.2664 -37.9004 Q121.6726 -34.9316 121.6726 -31.666 Q121.6726 -27.2754 120.868 -23.4551 Q120.0633 -19.6348 117.6961 -16.9551 Q115.3289 -14.2754 110.9695 -14.2754 ZM110.9695 -15.6035 Q113.8133 -15.6035 115.2039 -18.5176 Q116.5945 -21.4316 116.9226 -24.9629 Q117.2508 -28.4941 117.2508 -32.4785 Q117.2508 -36.3223 116.9226 -39.5566 Q116.5945 -42.791 115.2117 -45.416 Q113.8289 -48.041 110.9695 -48.041 Q108.0789 -48.041 106.6883 -45.4082 Q105.2976 -42.7754 104.9695 -39.5488 Q104.6414 -36.3223 104.6414 -32.4785 Q104.6414 -29.6504 104.782 -27.1348 Q104.9226 -24.6191 105.5164 -21.9394 Q106.1101 -19.2598 107.4461 -17.4316 Q108.782 -15.6035 110.9695 -15.6035 Z"
         id="path99" />
    </g>
    <g
       style="stroke-linecap:butt; text-rendering:geometricPrecision; color-rendering:optimizeQuality; image-rendering:optimizeQuality; stroke-linejoin:round; color-interpolation:linearRGB; stroke-width:5;"
       id="g106">
      <path
         d="M1098 69 L1098.0267 728 L1098.0533 728 L1098.0801 728 L1098.1067 728 L1098.16 728 L1098.2135 728 L1098.3202 728 L1098.4269 728 L1098.6404 728 L1098.8538 728 L1099.2806 728 L1099.7075 728 L1100.5613 728 L1101.415 728 L1103.1226 728 L1104.8301 728 L1108.2451 728 L1111.6602 728 L1119.7164 728 L1127.7727 728 L1143.3583 728 L1157.5454 728 L1172.1515 728 L1187.3182 728 L1203.7437 728 L1217.0909 728 L1233.682 728 L1246.8636 728 L1261.225 728 L1276.6364 728 L1290.9468 728 L1306.4091 728 L1323.015 728 L1336.1819 728 L1352.1475 728 L1365.9546 728 L1381.6234 728 L1395.7273 728 L1410.4756 728 L1425.5 728 L1440.3903 728 L1455.2727 728 L1470.7507 728 L1485.0454 728 L1501.125 728 L1514.8181 728 L1529.4491 728 L1544.5909 728 L1559.5751 728 L1574.3636 728 L1589.2615 728 L1604.1364 728 L1620.1085 728 L1633.9091 728 L1648.0933 728 L1663.6819 728 L1679.3029 728 L1693.4546 728 L1704.6909 728 L1723.2273 728 L1737.837 728 L1753 728"
         style="fill:none; fill-rule:evenodd;"
         id="path100" />
      <path
         d="M1098 69 L1111.6602 95.9257 L1127.7727 126.3043 L1143.3583 154.3595 L1157.5454 178.8333 L1172.1515 203.0347 L1187.3182 227.16 L1203.7437 252.2026 L1217.0909 271.7692 L1233.682 295.1705 L1246.8636 313.0741 L1261.225 331.9234 L1276.6364 351.4286 L1290.9468 368.9055 L1306.4091 387.1379 L1323.015 406.0054 L1336.1819 420.4667 L1352.1475 437.4401 L1365.9546 451.6452 L1381.6234 467.2594 L1395.7273 480.875 L1410.4756 494.688 L1425.5 508.3333 L1440.3903 521.4512 L1455.2727 534.1765 L1470.7507 547.0201 L1485.0454 558.5428 L1501.125 571.1323 L1514.8181 581.5555 L1529.4491 592.4023 L1544.5909 603.3243 L1559.5751 613.841 L1574.3636 623.9474 L1589.2615 633.8647 L1604.1364 643.5128 L1620.1085 653.6012 L1633.9091 662.1 L1648.0933 670.6323 L1663.6819 679.7805 L1679.3029 688.7164 L1693.4546 696.619 L1704.6909 702.7675 L1723.2273 712.6744 L1737.837 720.2829 L1753 728"
         style="fill:none; fill-rule:evenodd;"
         id="path101" />
      <path
         d="M1098 69 L1111.6602 82.7436 L1127.7727 98.9546 L1143.3583 114.6353 L1157.5454 128.9091 L1172.1515 143.6043 L1187.3182 158.8636 L1203.7437 175.3895 L1217.0909 188.8182 L1233.682 205.5107 L1246.8636 218.7727 L1261.225 233.2217 L1276.6364 248.7273 L1290.9468 263.1251 L1306.4091 278.6818 L1323.015 295.3891 L1336.1819 308.6364 L1352.1475 324.6996 L1365.9546 338.5909 L1381.6234 354.3554 L1395.7273 368.5454 L1410.4756 383.3838 L1425.5 398.5 L1440.3903 413.4812 L1455.2727 428.4545 L1470.7507 444.0272 L1485.0454 458.4091 L1501.125 474.5868 L1514.8181 488.3636 L1529.4491 503.0839 L1544.5909 518.3182 L1559.5751 533.3938 L1574.3636 548.2727 L1589.2615 563.2616 L1604.1364 578.2273 L1620.1085 594.297 L1633.9091 608.1818 L1648.0933 622.4527 L1663.6819 638.1364 L1679.3029 653.8528 L1693.4546 668.0909 L1704.6909 679.3959 L1723.2273 698.0455 L1737.837 712.7445 L1753 728"
         style="fill:none; fill-rule:evenodd; stroke:rgb(102,170,215);"
         id="path102" />
      <path
         d="M1098 69 L1111.6602 108.5799 L1127.7727 151.375 L1143.3583 189.2512 L1157.5454 221.0769 L1172.1515 251.4933 L1187.3182 280.8214 L1203.7437 310.2676 L1217.0909 332.6 L1233.682 358.5659 L1246.8636 377.9062 L1261.225 397.7949 L1276.6364 417.8824 L1290.9468 435.4696 L1306.4091 453.4167 L1323.015 471.5725 L1336.1819 485.2105 L1352.1475 500.9193 L1365.9546 513.825 L1381.6234 527.7645 L1395.7273 539.7143 L1410.4756 551.6467 L1425.5 563.25 L1440.3903 574.2361 L1455.2727 584.7391 L1470.7507 595.1888 L1485.0454 604.4375 L1501.125 614.4084 L1514.8181 622.56 L1529.4491 630.9447 L1544.5909 639.2885 L1559.5751 647.23 L1574.3636 654.7778 L1589.2615 662.1055 L1604.1364 669.1607 L1620.1085 676.4613 L1633.9091 682.5517 L1648.0933 688.6119 L1663.6819 695.05 L1679.3029 701.28 L1693.4546 706.7419 L1704.6909 710.9608 L1723.2273 717.7031 L1737.837 722.8351 L1753 728"
         style="fill:none; fill-rule:evenodd; stroke:rgb(76,156,209);"
         id="path103" />
      <path
         d="M1098 69 L1104.8301 101.9833 L1111.6602 132.4269 L1119.7164 165.4537 L1127.7727 195.7308 L1135.5656 222.7119 L1143.3583 247.682 L1157.5454 288.6667 L1172.1515 325.7544 L1187.3182 359.7353 L1203.7437 392.2223 L1217.0909 415.8421 L1233.682 442.267 L1246.8636 461.2619 L1261.225 480.2136 L1276.6364 498.7826 L1290.9468 514.5883 L1306.4091 530.3 L1323.015 545.7819 L1336.1819 557.1481 L1352.1475 569.9697 L1365.9546 580.2931 L1381.6234 591.2366 L1395.7273 600.4516 L1410.4756 609.5038 L1425.5 618.1667 L1440.3903 626.2447 L1455.2727 633.8571 L1470.7507 641.3262 L1485.0454 647.8514 L1501.125 654.7979 L1514.8181 660.4103 L1529.4491 666.1215 L1544.5909 671.7439 L1559.5751 677.0397 L1574.3636 682.0233 L1589.2615 686.8161 L1604.1364 691.3889 L1620.1085 696.0782 L1633.9091 699.9575 L1648.0933 703.7883 L1663.6819 707.8265 L1679.3029 711.7037 L1693.4546 715.0784 L1704.6909 717.6697 L1723.2273 721.783 L1737.837 724.8914 L1753 728"
         style="fill:none; fill-rule:evenodd; stroke:rgb(51,142,202);"
         id="path104" />
      <path
         d="M1098 69 L1099.7075 85.7857 L1101.415 101.819 L1103.1226 117.1495 L1104.8301 131.8222 L1106.5376 145.8788 L1108.2451 159.3572 L1109.9526 172.2923 L1111.6602 184.7164 L1113.6742 198.7544 L1115.6884 212.1672 L1117.7024 224.9959 L1119.7164 237.2777 L1121.7305 249.0469 L1123.7446 260.3348 L1127.7727 281.5806 L1131.6691 300.6017 L1135.5656 318.2794 L1139.4619 334.7512 L1143.3583 350.1364 L1146.905 363.2846 L1150.4519 375.688 L1157.5454 398.5 L1164.8484 419.5639 L1172.1515 438.5339 L1179.7349 456.3344 L1187.3182 472.4694 L1203.7437 502.7175 L1217.0909 523.4828 L1233.682 545.5878 L1246.8636 560.7911 L1261.225 575.4218 L1276.6364 589.2632 L1290.9468 600.6781 L1306.4091 611.7059 L1323.015 622.2739 L1336.1819 629.8511 L1352.1475 638.2202 L1365.9546 644.8253 L1381.6234 651.701 L1395.7273 657.3929 L1410.4756 662.8989 L1425.5 668.0909 L1440.3903 672.8657 L1455.2727 677.3077 L1470.7507 681.6126 L1485.0454 685.3309 L1501.125 689.2466 L1514.8181 692.3784 L1529.4491 695.5366 L1544.5909 698.6179 L1559.5751 701.495 L1574.3636 704.1807 L1589.2615 706.7438 L1604.1364 709.1714 L1620.1085 711.6429 L1633.9091 713.6739 L1648.0933 715.6676 L1663.6819 717.7565 L1679.3029 719.7498 L1693.4546 721.4752 L1704.6909 722.794 L1723.2273 724.8768 L1737.837 726.442 L1753 728"
         style="fill:none; fill-rule:evenodd; stroke:rgb(25,128,196);"
         id="path105" />
      <path
         d="M1098 69 L1098.0533 71.6736 L1098.1067 74.3261 L1098.16 76.9576 L1098.2135 79.5685 L1098.2668 82.1589 L1098.3202 84.7291 L1098.3735 87.2793 L1098.4269 89.8098 L1098.4802 92.3208 L1098.5336 94.8126 L1098.5869 97.2853 L1098.6404 99.7391 L1098.6937 102.1743 L1098.7471 104.5912 L1098.8004 106.9898 L1098.8538 109.3703 L1098.9071 111.7331 L1098.9604 114.0784 L1099.0138 116.4061 L1099.0673 118.7168 L1099.1206 121.0103 L1099.174 123.287 L1099.2273 125.5471 L1099.2806 127.7908 L1099.334 130.0181 L1099.3873 132.2293 L1099.4407 134.4246 L1099.4941 136.6042 L1099.5475 138.7681 L1099.6008 140.9166 L1099.6542 143.0498 L1099.7075 145.168 L1099.7609 147.2712 L1099.8142 149.3596 L1099.8676 151.4333 L1099.921 153.4927 L1099.9744 155.5376 L1100.0277 157.5684 L1100.0811 159.5852 L1100.1344 161.5881 L1100.1877 163.5772 L1100.2411 165.5528 L1100.2944 167.5149 L1100.3479 169.4637 L1100.4012 171.3992 L1100.4546 173.3217 L1100.5079 175.2313 L1100.5613 177.1281 L1100.6146 179.0123 L1100.668 180.8839 L1100.7213 182.743 L1100.7748 184.59 L1100.8281 186.4247 L1100.8815 188.2473 L1100.9882 191.857 L1101.0948 195.4198 L1101.2017 198.9368 L1101.3083 202.4087 L1101.415 205.8365 L1101.5217 209.221 L1101.6285 212.563 L1101.7352 215.8632 L1101.8419 219.1225 L1101.9486 222.3417 L1102.0554 225.5214 L1102.1621 228.6624 L1102.2688 231.7654 L1102.3755 234.8311 L1102.4823 237.86 L1102.589 240.853 L1102.6957 243.8107 L1102.8024 246.7335 L1102.9092 249.6223 L1103.0159 252.4775 L1103.1226 255.2997 L1103.2292 258.0896 L1103.3361 260.8476 L1103.4427 263.5743 L1103.5494 266.2703 L1103.6561 268.936 L1103.7629 271.572 L1103.8696 274.1787 L1103.9763 276.7567 L1104.083 279.3063 L1104.1898 281.8281 L1104.2965 284.3226 L1104.4032 286.7902 L1104.5099 289.2312 L1104.6167 291.6461 L1104.7234 294.0355 L1104.8301 296.3996 L1104.9368 298.7388 L1105.0436 301.0535 L1105.1503 303.3442 L1105.257 305.6111 L1105.4705 310.0754 L1105.6838 314.4492 L1105.8973 318.7351 L1106.1107 322.9359 L1106.3242 327.054 L1106.5376 331.0918 L1106.7511 335.0517 L1106.9645 338.9359 L1107.178 342.7466 L1107.3914 346.4857 L1107.6049 350.1555 L1107.8182 353.7576 L1108.0317 357.294 L1108.2451 360.7665 L1108.4586 364.1768 L1108.672 367.5265 L1108.8855 370.8173 L1109.0989 374.0506 L1109.3124 377.2281 L1109.5258 380.351 L1109.7393 383.4208 L1109.9526 386.4389 L1110.1661 389.4065 L1110.3795 392.3249 L1110.8064 398.019 L1111.2333 403.5302 L1111.6602 408.8674 L1112.1637 414.95 L1112.6672 420.8141 L1113.1708 426.4713 L1113.6742 431.9323 L1114.1777 437.2072 L1114.6813 442.3053 L1115.1848 447.2354 L1115.6884 452.0056 L1116.1919 456.6235 L1116.6953 461.0965 L1117.1989 465.4311 L1117.7024 469.6337 L1118.2059 473.7103 L1118.7095 477.6664 L1119.2129 481.5073 L1119.7164 485.2379 L1120.7235 492.3869 L1121.7305 499.1478 L1122.7375 505.5513 L1123.7446 511.6251 L1124.7516 517.3939 L1125.7587 522.8802 L1126.7657 528.1043 L1127.7727 533.0845 L1129.7209 542.0876 L1131.6691 550.3449 L1133.6173 557.9454 L1135.5656 564.9645 L1137.5137 571.4664 L1139.4619 577.5062 L1143.3583 588.3837 L1146.905 597.1017 L1150.4519 604.8801 L1153.9987 611.863 L1157.5454 618.1667 L1164.8484 629.3905 L1172.1515 638.7412 L1179.7349 646.931 L1187.3182 653.9113 L1195.531 660.394 L1203.7437 665.9828 L1210.4174 669.9867 L1217.0909 673.5872 L1225.3865 677.5867 L1233.682 681.1411 L1240.2728 683.6949 L1246.8636 686.0412 L1261.225 690.5472 L1276.6364 694.6329 L1290.9468 697.8802 L1306.4091 700.9178 L1323.015 703.7413 L1336.1819 705.715 L1352.1475 707.8477 L1365.9546 709.4968 L1381.6234 711.1825 L1395.7273 712.5547 L1410.4756 713.8625 L1425.5 715.0784 L1440.3903 716.1822 L1455.2727 717.1967 L1470.7507 718.1689 L1485.0454 719 L1501.125 719.8667 L1514.8181 720.5536 L1529.4491 721.241 L1544.5909 721.9062 L1559.5751 722.5228 L1574.3636 723.0943 L1589.2615 723.6362 L1604.1364 724.1462 L1620.1085 724.6623 L1633.9091 725.084 L1648.0933 725.496 L1663.6819 725.9255 L1679.3029 726.3333 L1693.4546 726.6846 L1704.6909 726.9522 L1723.2273 727.373 L1737.837 727.6878 L1753 728"
         style="fill:none; fill-rule:evenodd; stroke:rgb(0,114,189);"
         id="path106" />
    </g>
    <g
       style="fill:white; text-rendering:optimizeSpeed; color-rendering:optimizeSpeed; image-rendering:optimizeSpeed; shape-rendering:crispEdges; stroke:white; color-interpolation:sRGB;"
       id="g107">
      <path
         style="stroke:none;"
         d="M1740 232 L1740 83 L1369 83 L1369 232 Z"
         id="path107" />
    </g>
    <g
       transform="translate(1427.7896,121.3392)"
       style="font-size:60px; text-rendering:geometricPrecision; color-rendering:optimizeQuality; image-rendering:optimizeQuality; font-family:'mwa_cmr10'; color-interpolation:linearRGB;"
       id="g108">
      <path
         style="stroke:none;"
         d="M2 14.3998 L2 12.2904 Q8.1719 12.2904 8.1719 10.3842 L8.1719 -22.569 Q8.1719 -24.4752 2 -24.4752 L2 -26.5846 L20.8281 -26.5846 Q24.2031 -26.5846 27.9062 -25.3737 Q31.6094 -24.1627 34.1016 -21.6705 Q36.5938 -19.1783 36.5938 -15.7252 Q36.5938 -13.194 35.0859 -11.2174 Q33.5781 -9.2408 31.2188 -7.9127 Q28.8594 -6.5846 26.3906 -5.9908 Q29.0938 -5.0533 31.1172 -3.0065 Q33.1406 -0.9596 33.5469 1.681 L34.3906 7.0092 Q34.9844 10.6185 35.625 12.392 Q36.2656 14.1654 38.4688 14.1654 Q40.3438 14.1654 41.2656 12.4232 Q42.1875 10.681 42.1875 8.6342 Q42.1875 8.4154 42.375 8.2592 Q42.5625 8.1029 42.7812 8.1029 L43.3281 8.1029 Q43.9219 8.1029 43.9219 8.8842 Q43.9219 10.5248 43.2734 12.0951 Q42.625 13.6654 41.4141 14.6888 Q40.2031 15.7123 38.5312 15.7123 Q34.1875 15.7123 31.0703 13.5638 Q27.9531 11.4154 27.9531 7.2435 L27.9531 1.9154 Q27.9531 -1.069 25.875 -3.2096 Q23.7969 -5.3502 20.7656 -5.3502 L13.5625 -5.3502 L13.5625 10.3842 Q13.5625 12.2904 19.75 12.2904 L19.75 14.3998 L2 14.3998 ZM13.5625 -6.8971 L19.9844 -6.8971 Q24.9688 -6.8971 27.5703 -8.9049 Q30.1719 -10.9127 30.1719 -15.7252 Q30.1719 -20.4908 27.5938 -22.483 Q25.0156 -24.4752 19.9844 -24.4752 L16.6094 -24.4752 Q15.5312 -24.4752 14.9297 -24.3893 Q14.3281 -24.3033 13.9453 -23.8815 Q13.5625 -23.4596 13.5625 -22.569 L13.5625 -6.8971 Z"
         id="path108" />
    </g>
    <g
       transform="translate(1427.7896,121.3392)"
       style="font-size:60px; text-rendering:geometricPrecision; color-rendering:optimizeQuality; image-rendering:optimizeQuality; font-family:'mwa_cmr10'; color-interpolation:linearRGB;"
       id="g115">
      <path
         style="stroke:none;"
         d="M46.5729 8.5092 Q46.5729 4.931 49.3854 2.6888 Q52.1979 0.4467 56.1354 -0.4752 Q60.0729 -1.3971 63.6198 -1.3971 L63.6198 -3.8502 Q63.6198 -5.5846 62.862 -7.2096 Q62.1042 -8.8346 60.6667 -9.8737 Q59.2292 -10.9127 57.4948 -10.9127 Q53.5104 -10.9127 51.4323 -9.1315 Q52.5729 -9.1315 53.3229 -8.2643 Q54.0729 -7.3971 54.0729 -6.2565 Q54.0729 -5.0533 53.2214 -4.2018 Q52.3698 -3.3502 51.1979 -3.3502 Q49.9948 -3.3502 49.1432 -4.2018 Q48.2917 -5.0533 48.2917 -6.2565 Q48.2917 -9.4127 51.1667 -10.9518 Q54.0417 -12.4908 57.4948 -12.4908 Q59.9323 -12.4908 62.3932 -11.4518 Q64.8542 -10.4127 66.4167 -8.483 Q67.9792 -6.5533 67.9792 -3.9752 L67.9792 9.5404 Q67.9792 10.7123 68.4792 11.6888 Q68.9792 12.6654 70.0417 12.6654 Q71.0261 12.6654 71.5104 11.6732 Q71.9948 10.681 71.9948 9.5404 L71.9948 5.6967 L73.7604 5.6967 L73.7604 9.5404 Q73.7604 10.8842 73.0573 12.1029 Q72.3542 13.3217 71.1667 14.0404 Q69.9792 14.7592 68.6042 14.7592 Q66.8386 14.7592 65.5651 13.392 Q64.2917 12.0248 64.1511 10.1498 Q63.0417 12.3998 60.8698 13.7357 Q58.6979 15.0717 56.2448 15.0717 Q53.9479 15.0717 51.737 14.3998 Q49.5261 13.7279 48.0495 12.2748 Q46.5729 10.8217 46.5729 8.5092 ZM51.4323 8.5092 Q51.4323 10.6185 52.987 12.056 Q54.5417 13.4935 56.6511 13.4935 Q58.5886 13.4935 60.1667 12.5248 Q61.7448 11.556 62.6823 9.8842 Q63.6198 8.2123 63.6198 6.3685 L63.6198 0.1342 Q60.9011 0.1342 58.0417 1.0248 Q55.1823 1.9154 53.3073 3.8217 Q51.4323 5.7279 51.4323 8.5092 Z"
         id="path109" />
      <path
         style="stroke:none;"
         d="M80.2918 7.1967 L80.2918 -9.3658 L75.3074 -9.3658 L75.3074 -10.9127 Q79.2293 -10.9127 81.0808 -14.5768 Q82.9324 -18.2408 82.9324 -22.5221 L84.6511 -22.5221 L84.6511 -11.4752 L93.1199 -11.4752 L93.1199 -9.3658 L84.6511 -9.3658 L84.6511 7.0717 Q84.6511 9.5717 85.4871 11.4467 Q86.323 13.3217 88.4949 13.3217 Q90.5418 13.3217 91.448 11.3373 Q92.3543 9.3529 92.3543 7.0717 L92.3543 3.5248 L94.0886 3.5248 L94.0886 7.1967 Q94.0886 9.0717 93.4011 10.8998 Q92.7136 12.7279 91.3621 13.8998 Q90.0105 15.0717 88.0886 15.0717 Q84.4793 15.0717 82.3855 12.9154 Q80.2918 10.7592 80.2918 7.1967 Z"
         id="path110" />
      <path
         style="stroke:none;"
         d="M99.3439 14.3998 L99.3439 12.2904 Q101.3908 12.2904 102.7111 11.9701 Q104.0314 11.6498 104.0314 10.3842 L104.0314 -5.9908 Q104.0314 -8.3033 103.1408 -8.8346 Q102.2502 -9.3658 99.6096 -9.3658 L99.6096 -11.4752 L108.2502 -12.1158 L108.2502 10.3842 Q108.2502 11.6498 109.3908 11.9701 Q110.5314 12.2904 112.4377 12.2904 L112.4377 14.3998 L99.3439 14.3998 ZM101.8908 -22.4283 Q101.8908 -23.7408 102.8908 -24.7408 Q103.8908 -25.7408 105.1721 -25.7408 Q106.0314 -25.7408 106.8205 -25.3033 Q107.6096 -24.8658 108.0471 -24.069 Q108.4846 -23.2721 108.4846 -22.4283 Q108.4846 -21.1315 107.4924 -20.1393 Q106.5002 -19.1471 105.1721 -19.1471 Q103.8908 -19.1471 102.8908 -20.1393 Q101.8908 -21.1315 101.8908 -22.4283 Z"
         id="path111" />
      <path
         style="stroke:none;"
         d="M129.1669 15.0717 Q125.5575 15.0717 122.4872 13.2435 Q119.4169 11.4154 117.6278 8.3373 Q115.8388 5.2592 115.8388 1.6185 Q115.8388 -1.1315 116.8231 -3.6783 Q117.8075 -6.2252 119.6356 -8.233 Q121.4638 -10.2408 123.8935 -11.3658 Q126.3231 -12.4908 129.1669 -12.4908 Q132.8544 -12.4908 135.8857 -10.5455 Q138.9169 -8.6002 140.6747 -5.3346 Q142.4325 -2.069 142.4325 1.6185 Q142.4325 5.2279 140.6513 8.3217 Q138.87 11.4154 135.8075 13.2435 Q132.745 15.0717 129.1669 15.0717 ZM129.1669 13.3217 Q133.9794 13.3217 135.5888 9.8295 Q137.1982 6.3373 137.1982 0.9467 Q137.1982 -2.069 136.8778 -4.0455 Q136.5575 -6.0221 135.4638 -7.6315 Q134.7919 -8.6315 133.7528 -9.3737 Q132.7138 -10.1158 131.5575 -10.5143 Q130.4013 -10.9127 129.1669 -10.9127 Q127.2919 -10.9127 125.6044 -10.0612 Q123.9169 -9.2096 122.8075 -7.6315 Q121.6981 -5.9283 121.3935 -3.8971 Q121.0888 -1.8658 121.0888 0.9467 Q121.0888 4.3217 121.6747 7.0013 Q122.2606 9.681 124.0263 11.5013 Q125.7919 13.3217 129.1669 13.3217 Z"
         id="path112" />
      <path
         style="stroke:none;"
         d="M145.9482 14.3998 L145.9482 12.2904 Q148.0107 12.2904 149.3232 11.9701 Q150.6357 11.6498 150.6357 10.3842 L150.6357 -5.9908 Q150.6357 -7.6002 150.1592 -8.319 Q149.6826 -9.0377 148.7685 -9.2018 Q147.8545 -9.3658 145.9482 -9.3658 L145.9482 -11.4752 L154.6514 -12.1158 L154.6514 -6.2565 Q155.8545 -8.8346 158.2139 -10.4752 Q160.5732 -12.1158 163.3545 -12.1158 Q167.5107 -12.1158 169.6123 -10.1237 Q171.7139 -8.1315 171.7139 -4.0221 L171.7139 10.3842 Q171.7139 11.6498 173.0264 11.9701 Q174.3389 12.2904 176.4014 12.2904 L176.4014 14.3998 L162.6514 14.3998 L162.6514 12.2904 Q164.6982 12.2904 166.0185 11.9701 Q167.3389 11.6498 167.3389 10.3842 L167.3389 -3.8502 Q167.3389 -6.7877 166.4873 -8.6783 Q165.6357 -10.569 163.0107 -10.569 Q159.5264 -10.569 157.2842 -7.7799 Q155.042 -4.9908 155.042 -1.444 L155.042 10.3842 Q155.042 11.6498 156.3545 11.9701 Q157.667 12.2904 159.6982 12.2904 L159.6982 14.3998 L145.9482 14.3998 Z"
         id="path113" />
      <path
         style="stroke:none;"
         d="M179.9067 8.5092 Q179.9067 4.931 182.7192 2.6888 Q185.5317 0.4467 189.4692 -0.4752 Q193.4067 -1.3971 196.9535 -1.3971 L196.9535 -3.8502 Q196.9535 -5.5846 196.1957 -7.2096 Q195.4379 -8.8346 194.0004 -9.8737 Q192.5629 -10.9127 190.8285 -10.9127 Q186.8442 -10.9127 184.766 -9.1315 Q185.9067 -9.1315 186.6567 -8.2643 Q187.4067 -7.3971 187.4067 -6.2565 Q187.4067 -5.0533 186.5551 -4.2018 Q185.7035 -3.3502 184.5317 -3.3502 Q183.3285 -3.3502 182.477 -4.2018 Q181.6254 -5.0533 181.6254 -6.2565 Q181.6254 -9.4127 184.5004 -10.9518 Q187.3754 -12.4908 190.8285 -12.4908 Q193.266 -12.4908 195.727 -11.4518 Q198.1879 -10.4127 199.7504 -8.483 Q201.3129 -6.5533 201.3129 -3.9752 L201.3129 9.5404 Q201.3129 10.7123 201.8129 11.6888 Q202.3129 12.6654 203.3754 12.6654 Q204.3598 12.6654 204.8442 11.6732 Q205.3285 10.681 205.3285 9.5404 L205.3285 5.6967 L207.0942 5.6967 L207.0942 9.5404 Q207.0942 10.8842 206.391 12.1029 Q205.6879 13.3217 204.5004 14.0404 Q203.3129 14.7592 201.9379 14.7592 Q200.1723 14.7592 198.8988 13.392 Q197.6254 12.0248 197.4848 10.1498 Q196.3754 12.3998 194.2035 13.7357 Q192.0317 15.0717 189.5785 15.0717 Q187.2817 15.0717 185.0707 14.3998 Q182.8598 13.7279 181.3832 12.2748 Q179.9067 10.8217 179.9067 8.5092 ZM184.766 8.5092 Q184.766 10.6185 186.3207 12.056 Q187.8754 13.4935 189.9848 13.4935 Q191.9223 13.4935 193.5004 12.5248 Q195.0785 11.556 196.016 9.8842 Q196.9535 8.2123 196.9535 6.3685 L196.9535 0.1342 Q194.2348 0.1342 191.3754 1.0248 Q188.516 1.9154 186.641 3.8217 Q184.766 5.7279 184.766 8.5092 Z"
         id="path114" />
      <path
         style="stroke:none;"
         d="M209.3443 14.3998 L209.3443 12.2904 Q211.3911 12.2904 212.7114 11.9701 Q214.0318 11.6498 214.0318 10.3842 L214.0318 -21.1158 Q214.0318 -22.7252 213.5474 -23.444 Q213.063 -24.1627 212.1568 -24.319 Q211.2505 -24.4752 209.3443 -24.4752 L209.3443 -26.5846 L218.2505 -27.2252 L218.2505 10.3842 Q218.2505 11.6498 219.5708 11.9701 Q220.8911 12.2904 222.9068 12.2904 L222.9068 14.3998 L209.3443 14.3998 Z"
         id="path115" />
    </g>
    <g
       style="stroke-linecap:butt; fill:rgb(0,114,189); text-rendering:geometricPrecision; image-rendering:optimizeQuality; color-rendering:optimizeQuality; stroke-linejoin:round; stroke:rgb(0,114,189); color-interpolation:linearRGB; stroke-width:5;"
       id="g116">
      <line
         y2="121.3392"
         style="fill:none;"
         x1="1374.0034"
         x2="1424.037"
         y1="121.3392"
         id="line115" />
    </g>
    <g
       transform="translate(1427.7896,193.6608)"
       style="font-size:60px; text-rendering:geometricPrecision; color-rendering:optimizeQuality; image-rendering:optimizeQuality; font-family:'mwa_cmr10'; color-interpolation:linearRGB;"
       id="g117">
      <path
         style="stroke:none;"
         d="M1.8438 14.3998 L1.8438 12.2904 Q8.0312 12.2904 8.0312 10.3842 L8.0312 -22.569 Q8.0312 -24.4752 1.8438 -24.4752 L1.8438 -26.5846 L19.8125 -26.5846 L19.8125 -24.4752 Q13.625 -24.4752 13.625 -22.569 L13.625 -7.9908 L31.3125 -7.9908 L31.3125 -22.569 Q31.3125 -24.4752 25.1406 -24.4752 L25.1406 -26.5846 L43.0625 -26.5846 L43.0625 -24.4752 Q36.9219 -24.4752 36.9219 -22.569 L36.9219 10.3842 Q36.9219 12.2904 43.0625 12.2904 L43.0625 14.3998 L25.1406 14.3998 L25.1406 12.2904 Q31.3125 12.2904 31.3125 10.3842 L31.3125 -5.8815 L13.625 -5.8815 L13.625 10.3842 Q13.625 12.2904 19.8125 12.2904 L19.8125 14.3998 L1.8438 14.3998 Z"
         id="path116" />
    </g>
    <g
       transform="translate(1427.7896,193.6608)"
       style="font-size:60px; text-rendering:geometricPrecision; color-rendering:optimizeQuality; image-rendering:optimizeQuality; font-family:'mwa_cmr10'; color-interpolation:linearRGB;"
       id="g124">
      <path
         style="stroke:none;"
         d="M45.672 3.2904 L45.672 -0.4283 L61.547 -0.4283 L61.547 3.2904 L45.672 3.2904 Z"
         id="path117" />
      <path
         style="stroke:none;"
         d="M68.3751 15.2435 L68.3751 1.2435 Q68.3751 0.7748 68.8907 0.7748 L69.6251 0.7748 Q69.8126 0.7748 69.9532 0.9232 Q70.0938 1.0717 70.0938 1.2435 Q70.0938 7.1342 73.7422 10.3685 Q77.3907 13.6029 83.3126 13.6029 Q85.3907 13.6029 87.1485 12.4076 Q88.9063 11.2123 89.8907 9.2592 Q90.8751 7.306 90.8751 5.2279 Q90.8751 3.4154 90.1407 1.6967 Q89.4063 -0.0221 88.0313 -1.2799 Q86.6563 -2.5377 84.9219 -2.944 L77.1251 -4.8502 Q73.2657 -5.8815 70.8204 -9.0533 Q68.3751 -12.2252 68.3751 -16.194 Q68.3751 -19.2877 69.9532 -22.0143 Q71.5313 -24.7408 74.211 -26.3268 Q76.8907 -27.9127 80.0001 -27.9127 Q86.0001 -27.9127 89.5469 -23.8346 L92.0157 -27.7252 Q92.1876 -27.9127 92.4219 -27.9127 L92.8282 -27.9127 Q93.0157 -27.9127 93.1719 -27.7799 Q93.3282 -27.6471 93.3282 -27.4127 L93.3282 -13.4908 Q93.3282 -12.9596 92.8282 -12.9596 L92.1251 -12.9596 Q91.5782 -12.9596 91.5782 -13.4908 Q91.5782 -15.0221 91.0626 -16.8346 Q90.5469 -18.6471 89.6407 -20.319 Q88.7344 -21.9908 87.6719 -23.0377 Q84.7813 -25.9752 80.0001 -25.9752 Q77.9532 -25.9752 76.2266 -24.9362 Q74.5001 -23.8971 73.4688 -22.108 Q72.4376 -20.319 72.4376 -18.3502 Q72.4376 -15.7721 74.0391 -13.6783 Q75.6407 -11.5846 78.2188 -10.9127 L86.0001 -9.0065 Q87.9376 -8.5377 89.6563 -7.3268 Q91.3751 -6.1158 92.5157 -4.4987 Q93.6563 -2.8815 94.2969 -0.9049 Q94.9376 1.0717 94.9376 3.181 Q94.9376 6.431 93.4454 9.3138 Q91.9532 12.1967 89.2422 13.9545 Q86.5313 15.7123 83.3126 15.7123 Q81.3126 15.7123 79.2344 15.2748 Q77.1563 14.8373 75.3985 13.931 Q73.6407 13.0248 72.2032 11.5873 L69.6876 15.5404 Q69.5157 15.7123 69.2501 15.7123 L68.8907 15.7123 Q68.3751 15.7123 68.3751 15.2435 Z"
         id="path118" />
      <path
         style="stroke:none;"
         d="M124.5678 14.3998 L124.5678 -21.1158 Q124.5678 -22.7252 124.0913 -23.444 Q123.6147 -24.1627 122.7006 -24.319 Q121.7866 -24.4752 119.8803 -24.4752 L119.8803 -26.5846 L128.771 -27.2252 L128.771 -8.4596 Q129.7553 -9.569 131.0913 -10.4049 Q132.4272 -11.2408 133.9507 -11.6783 Q135.4741 -12.1158 137.0522 -12.1158 Q139.7553 -12.1158 142.0522 -11.0299 Q144.3491 -9.944 146.0522 -8.0377 Q147.7553 -6.1315 148.7007 -3.6627 Q149.646 -1.194 149.646 1.4467 Q149.646 5.0873 147.8803 8.2201 Q146.1147 11.3529 143.0522 13.2123 Q139.9897 15.0717 136.3178 15.0717 Q134.0366 15.0717 131.896 13.8998 Q129.7553 12.7279 128.3491 10.7904 L126.3022 14.3998 L124.5678 14.3998 ZM128.9428 8.5092 Q129.9428 10.7123 131.8178 12.1029 Q133.6928 13.4935 135.9741 13.4935 Q139.0835 13.4935 140.9975 11.7045 Q142.9116 9.9154 143.6772 7.1888 Q144.4428 4.4623 144.4428 1.4467 Q144.4428 -3.6158 143.1147 -6.2565 Q142.5366 -7.4283 141.521 -8.4205 Q140.5053 -9.4127 139.2632 -9.9908 Q138.021 -10.569 136.646 -10.569 Q134.2397 -10.569 132.1928 -9.2877 Q130.146 -8.0065 128.9428 -5.8815 L128.9428 8.5092 Z"
         id="path119" />
      <path
         style="stroke:none;"
         d="M168.3336 15.0717 Q164.7242 15.0717 161.6539 13.2435 Q158.5836 11.4154 156.7945 8.3373 Q155.0055 5.2592 155.0055 1.6185 Q155.0055 -1.1315 155.9899 -3.6783 Q156.9742 -6.2252 158.8024 -8.233 Q160.6305 -10.2408 163.0602 -11.3658 Q165.4899 -12.4908 168.3336 -12.4908 Q172.0211 -12.4908 175.0524 -10.5455 Q178.0836 -8.6002 179.8414 -5.3346 Q181.5992 -2.069 181.5992 1.6185 Q181.5992 5.2279 179.818 8.3217 Q178.0367 11.4154 174.9742 13.2435 Q171.9117 15.0717 168.3336 15.0717 ZM168.3336 13.3217 Q173.1461 13.3217 174.7555 9.8295 Q176.3649 6.3373 176.3649 0.9467 Q176.3649 -2.069 176.0445 -4.0455 Q175.7242 -6.0221 174.6305 -7.6315 Q173.9586 -8.6315 172.9195 -9.3737 Q171.8805 -10.1158 170.7242 -10.5143 Q169.568 -10.9127 168.3336 -10.9127 Q166.4586 -10.9127 164.7711 -10.0612 Q163.0836 -9.2096 161.9742 -7.6315 Q160.8649 -5.9283 160.5602 -3.8971 Q160.2555 -1.8658 160.2555 0.9467 Q160.2555 4.3217 160.8414 7.0013 Q161.4274 9.681 163.193 11.5013 Q164.9586 13.3217 168.3336 13.3217 Z"
         id="path120" />
      <path
         style="stroke:none;"
         d="M189.8024 7.2435 L189.8024 -5.9908 Q189.8024 -7.6002 189.3259 -8.319 Q188.8493 -9.0377 187.9353 -9.2018 Q187.0212 -9.3658 185.1149 -9.3658 L185.1149 -11.4752 L194.2087 -12.1158 L194.2087 7.2435 Q194.2087 9.5873 194.5446 10.892 Q194.8806 12.1967 195.9743 12.8451 Q197.0681 13.4935 199.4743 13.4935 Q202.6931 13.4935 204.5993 10.7982 Q206.5056 8.1029 206.5056 4.6654 L206.5056 -5.9908 Q206.5056 -7.6002 206.0056 -8.319 Q205.5056 -9.0377 204.6149 -9.2018 Q203.7243 -9.3658 201.8181 -9.3658 L201.8181 -11.4752 L210.8806 -12.1158 L210.8806 8.9467 Q210.8806 10.5248 211.3571 11.2435 Q211.8337 11.9623 212.7478 12.1263 Q213.6618 12.2904 215.5681 12.2904 L215.5681 14.3998 L206.6774 15.0717 L206.6774 10.0092 Q205.5681 12.2592 203.5759 13.6654 Q201.5837 15.0717 199.1774 15.0717 Q194.8806 15.0717 192.3415 13.2435 Q189.8024 11.4154 189.8024 7.2435 Z"
         id="path121" />
      <path
         style="stroke:none;"
         d="M218.4484 14.3998 L218.4484 12.2904 Q220.5109 12.2904 221.8234 11.9701 Q223.1359 11.6498 223.1359 10.3842 L223.1359 -5.9908 Q223.1359 -7.6002 222.6593 -8.319 Q222.1828 -9.0377 221.2687 -9.2018 Q220.3546 -9.3658 218.4484 -9.3658 L218.4484 -11.4752 L227.1515 -12.1158 L227.1515 -6.2565 Q228.3546 -8.8346 230.714 -10.4752 Q233.0734 -12.1158 235.8546 -12.1158 Q240.0109 -12.1158 242.1124 -10.1237 Q244.214 -8.1315 244.214 -4.0221 L244.214 10.3842 Q244.214 11.6498 245.5265 11.9701 Q246.839 12.2904 248.9015 12.2904 L248.9015 14.3998 L235.1515 14.3998 L235.1515 12.2904 Q237.1984 12.2904 238.5187 11.9701 Q239.839 11.6498 239.839 10.3842 L239.839 -3.8502 Q239.839 -6.7877 238.9874 -8.6783 Q238.1359 -10.569 235.5109 -10.569 Q232.0265 -10.569 229.7843 -7.7799 Q227.5421 -4.9908 227.5421 -1.444 L227.5421 10.3842 Q227.5421 11.6498 228.8546 11.9701 Q230.1671 12.2904 232.1984 12.2904 L232.1984 14.3998 L218.4484 14.3998 Z"
         id="path122" />
      <path
         style="stroke:none;"
         d="M264.6568 15.0717 Q261.1099 15.0717 258.1802 13.1498 Q255.2506 11.2279 253.6256 8.0951 Q252.0006 4.9623 252.0006 1.4467 Q252.0006 -2.1783 253.7662 -5.3033 Q255.5318 -8.4283 258.5787 -10.2721 Q261.6255 -12.1158 265.2974 -12.1158 Q267.4849 -12.1158 269.4537 -11.194 Q271.4224 -10.2721 272.8599 -8.6315 L272.8599 -21.1158 Q272.8599 -22.7252 272.3755 -23.444 Q271.8912 -24.1627 270.9927 -24.319 Q270.0943 -24.4752 268.188 -24.4752 L268.188 -26.5846 L277.0787 -27.2252 L277.0787 8.9467 Q277.0787 10.5248 277.5552 11.2435 Q278.0318 11.9623 278.9302 12.1263 Q279.8287 12.2904 281.7349 12.2904 L281.7349 14.3998 L272.6724 15.0717 L272.6724 11.2904 Q271.1255 13.0873 268.9849 14.0795 Q266.8443 15.0717 264.6568 15.0717 ZM258.5318 9.181 Q259.5474 11.1498 261.2662 12.3217 Q262.9849 13.4935 265.0005 13.4935 Q267.4849 13.4935 269.5709 12.056 Q271.6568 10.6185 272.6724 8.3373 L272.6724 -6.0533 Q271.9693 -7.3658 270.899 -8.4049 Q269.8287 -9.444 268.5005 -10.0065 Q267.1724 -10.569 265.6724 -10.569 Q262.5474 -10.569 260.6412 -8.7955 Q258.7349 -7.0221 257.9693 -4.2643 Q257.2037 -1.5065 257.2037 1.5092 Q257.2037 3.9154 257.4537 5.6967 Q257.7037 7.4779 258.5318 9.181 Z"
         id="path123" />
      <path
         style="stroke:none;"
         d="M285.334 14.5717 L285.334 4.7904 Q285.334 4.3217 285.8496 4.3217 L286.584 4.3217 Q286.9434 4.3217 287.0527 4.7904 Q288.7246 13.4935 295.1465 13.4935 Q297.9902 13.4935 299.9043 12.2045 Q301.8184 10.9154 301.8184 8.2123 Q301.8184 6.2904 300.3262 4.9232 Q298.834 3.556 296.7871 3.056 L292.7715 2.2748 Q290.7402 1.8373 289.0918 0.9232 Q287.4434 0.0092 286.3887 -1.4987 Q285.334 -3.0065 285.334 -4.9908 Q285.334 -7.6315 286.7246 -9.319 Q288.1152 -11.0065 290.3418 -11.7487 Q292.5684 -12.4908 295.1465 -12.4908 Q298.2246 -12.4908 300.5059 -10.8502 L302.2246 -12.3502 Q302.2246 -12.4908 302.5215 -12.4908 L302.959 -12.4908 Q303.1465 -12.4908 303.2871 -12.3346 Q303.4277 -12.1783 303.4277 -11.9908 L303.4277 -4.1471 Q303.4277 -3.5846 302.959 -3.5846 L302.2246 -3.5846 Q301.709 -3.5846 301.709 -4.1471 Q301.709 -7.2877 299.9668 -9.1862 Q298.2246 -11.0846 295.084 -11.0846 Q292.3809 -11.0846 290.4043 -10.0924 Q288.4277 -9.1002 288.4277 -6.6627 Q288.4277 -4.9908 289.8496 -3.9205 Q291.2715 -2.8502 293.1777 -2.3815 L297.2559 -1.6315 Q299.3027 -1.1627 301.0762 -0.0455 Q302.8496 1.0717 303.8887 2.767 Q304.9277 4.4623 304.9277 6.6029 Q304.9277 8.7748 304.1777 10.3685 Q303.4277 11.9623 302.0996 13.017 Q300.7715 14.0717 298.9512 14.5717 Q297.1309 15.0717 295.1465 15.0717 Q291.3965 15.0717 288.7246 12.556 L286.5215 14.931 Q286.5215 15.0717 286.209 15.0717 L285.8496 15.0717 Q285.334 15.0717 285.334 14.5717 Z"
         id="path124" />
    </g>
    <g
       style="stroke-linecap:butt; text-rendering:geometricPrecision; color-rendering:optimizeQuality; image-rendering:optimizeQuality; stroke-linejoin:round; color-interpolation:linearRGB; stroke-width:5;"
       id="g125">
      <line
         y2="193.6608"
         style="fill:none;"
         x1="1374.0034"
         x2="1424.037"
         y1="193.6608"
         id="line124" />
    </g>
    <g
       style="stroke-linecap:butt; fill:rgb(38,38,38); text-rendering:geometricPrecision; color-rendering:optimizeQuality; image-rendering:optimizeQuality; stroke:rgb(38,38,38); color-interpolation:linearRGB; stroke-width:0.8333;"
       id="g126">
      <path
         d="M1369 232 L1369 83 L1740 83 L1740 232 Z"
         style="fill:none; fill-rule:evenodd;"
         id="path125" />
    </g>
  </g>
  <text
     xml:space="preserve"
     style="font-style:normal;font-weight:normal;font-size:53.3333px;line-height:50.6667px;font-family:Cambria;-inkscape-font-specification:Cambria;text-align:center;writing-mode:lr-tb;direction:ltr;text-anchor:middle;color-interpolation:auto;fill:#6278da;fill-opacity:1;stroke:none;stroke-width:1.90866;stroke-linecap:square;stroke-linejoin:miter;stroke-miterlimit:10;stroke-dasharray:none;stroke-dashoffset:0;stroke-opacity:1;color-rendering:auto;image-rendering:auto;shape-rendering:auto;text-rendering:auto"
     x="1282.613"
     y="-757.14191"
     id="text125"
     transform="rotate(45.38329)"><tspan
       sodipodi:role="line"
       id="tspan125"
       x="1282.613"
       y="-757.14191"> 	a =2</tspan></text>
  <text
     xml:space="preserve"
     style="font-style:normal;font-weight:normal;font-size:53.3333px;line-height:50.6667px;font-family:Cambria;-inkscape-font-specification:Cambria;text-align:center;writing-mode:lr-tb;direction:ltr;text-anchor:middle;color-interpolation:auto;fill:#6278da;fill-opacity:1;stroke:none;stroke-width:1.90866;stroke-linecap:square;stroke-linejoin:miter;stroke-miterlimit:10;stroke-dasharray:none;stroke-dashoffset:0;stroke-opacity:1;color-rendering:auto;image-rendering:auto;shape-rendering:auto;text-rendering:auto"
     x="656.98932"
     y="-130.79489"
     id="text125-4"
     transform="rotate(45.692327)"><tspan
       sodipodi:role="line"
       id="tspan125-8"
       x="656.98932"
       y="-130.79489">a =2</tspan></text>
  <text
     xml:space="preserve"
     style="font-style:normal;font-weight:normal;font-size:53.3333px;line-height:50.6667px;font-family:Cambria;-inkscape-font-specification:Cambria;text-align:center;writing-mode:lr-tb;direction:ltr;text-anchor:middle;color-interpolation:auto;fill:#3556d2;fill-opacity:1;stroke:none;stroke-width:1.90866;stroke-linecap:square;stroke-linejoin:miter;stroke-miterlimit:10;stroke-dasharray:none;stroke-dashoffset:0;stroke-opacity:1;color-rendering:auto;image-rendering:auto;shape-rendering:auto;text-rendering:auto"
     x="680.7663"
     y="201.75056"
     id="text126"
     transform="rotate(46.442465)"><tspan
       sodipodi:role="line"
       id="tspan126"
       x="680.7663"
       y="201.75056">a =100</tspan></text>
  <text
     xml:space="preserve"
     style="font-style:normal;font-weight:normal;font-size:53.3333px;line-height:50.6667px;font-family:Cambria;-inkscape-font-specification:Cambria;text-align:center;writing-mode:lr-tb;direction:ltr;text-anchor:middle;color-interpolation:auto;fill:#3556d2;fill-opacity:1;stroke:none;stroke-width:1.90866;stroke-linecap:square;stroke-linejoin:miter;stroke-miterlimit:10;stroke-dasharray:none;stroke-dashoffset:0;stroke-opacity:1;color-rendering:auto;image-rendering:auto;shape-rendering:auto;text-rendering:auto"
     x="1293.2738"
     y="-442.11502"
     id="text126-4"
     transform="rotate(46.442465)"><tspan
       sodipodi:role="line"
       id="tspan126-5"
       x="1293.2738"
       y="-442.11502">a =100</tspan></text>
</svg>
