<?xml version="1.0" encoding="utf-8"?>
<VTKFile byte_order="LittleEndian" type="UnstructuredGrid" version="0.1">
   <UnstructuredGrid>
      <Piece NumberOfCells="16" NumberOfPoints="25">
         <Points>
            <DataArray Name="Points" NumberOfComponents="3" format="ascii" type="Float32">
0.0000 0.0000 0.0000
0.0000 0.2500 0.0000
0.0000 0.5000 0.0000
0.0000 0.7500 0.0000
0.0000 1.0000 0.0000
0.2500 0.0000 0.0000
0.2500 0.2500 0.0000
0.2500 0.5000 0.0000
0.2500 0.7500 0.0000
0.2500 1.0000 0.0000
0.5000 0.0000 0.0000
0.5000 0.2500 0.0000
0.5000 0.5000 0.0000
0.5000 0.7500 0.0000
0.5000 1.0000 0.0000
0.7500 0.0000 0.0000
0.7500 0.2500 0.0000
0.7500 0.5000 0.0000
0.7500 0.7500 0.0000
0.7500 1.0000 0.0000
1.0000 0.0000 0.0000
1.0000 0.2500 0.0000
1.0000 0.5000 0.0000
1.0000 0.7500 0.0000
1.0000 1.0000 0.0000</DataArray>
         </Points>
         <Cells>
            <DataArray Name="connectivity" format="ascii" type="Int32">
 0 5 6 1
 1 6 7 2
 2 7 8 3
 3 8 9 4
 5 10 11 6
 6 11 12 7
 7 12 13 8
 8 13 14 9
 10 15 16 11
 11 16 17 12
 12 17 18 13
 13 18 19 14
 15 20 21 16
 16 21 22 17
 17 22 23 18
 18 23 24 19</DataArray>
            <DataArray Name="offsets" format="ascii" type="Int32">4 8 12 16 20 24 28 32 36 40 44 48 52 56 60 64 </DataArray>
            <DataArray Name="types" format="ascii" type="UInt8">9 9 9 9 9 9 9 9 9 9 9 9 9 9 9 9 </DataArray>
         </Cells>
         <PointData/>
         <CellData>
            <DataArray Name="fValues" NumberOfComponents="1" format="ascii" type="Float64">
 3.48866e-04 
       00000 
       00000 
       00000 
       00000 
 1.93060e-02 
       00000 
       00000 
 3.23895e-01 
       00000 
       00000 
 3.94498e-01 
       00000 
       00000 
       00000 
       00000 </DataArray>
         </CellData>
      </Piece>
   </UnstructuredGrid>
</VTKFile>