<?xml version="1.0" encoding="utf-8"?>
<VTKFile byte_order="LittleEndian" type="UnstructuredGrid" version="0.1">
   <UnstructuredGrid>
      <Piece NumberOfCells="750" NumberOfPoints="216">
         <Points>
            <DataArray Name="Points" NumberOfComponents="3" format="ascii" type="Float32">
-1.0000 -1.0000 -1.0000
-1.0000 -0.6000 -1.0000
-1.0000 -0.2000 -1.0000
-1.0000 0.2000 -1.0000
-1.0000 0.6000 -1.0000
-1.0000 1.0000 -1.0000
-0.6000 -1.0000 -1.0000
-0.6000 -0.6000 -1.0000
-0.6000 -0.2000 -1.0000
-0.6000 0.2000 -1.0000
-0.6000 0.6000 -1.0000
-0.6000 1.0000 -1.0000
-0.2000 -1.0000 -1.0000
-0.2000 -0.6000 -1.0000
-0.2000 -0.2000 -1.0000
-0.2000 0.2000 -1.0000
-0.2000 0.6000 -1.0000
-0.2000 1.0000 -1.0000
0.2000 -1.0000 -1.0000
0.2000 -0.6000 -1.0000
0.2000 -0.2000 -1.0000
0.2000 0.2000 -1.0000
0.2000 0.6000 -1.0000
0.2000 1.0000 -1.0000
0.6000 -1.0000 -1.0000
0.6000 -0.6000 -1.0000
0.6000 -0.2000 -1.0000
0.6000 0.2000 -1.0000
0.6000 0.6000 -1.0000
0.6000 1.0000 -1.0000
1.0000 -1.0000 -1.0000
1.0000 -0.6000 -1.0000
1.0000 -0.2000 -1.0000
1.0000 0.2000 -1.0000
1.0000 0.6000 -1.0000
1.0000 1.0000 -1.0000
-1.0000 -1.0000 -0.6000
-1.0000 -0.6000 -0.6000
-1.0000 -0.2000 -0.6000
-1.0000 0.2000 -0.6000
-1.0000 0.6000 -0.6000
-1.0000 1.0000 -0.6000
-0.6000 -1.0000 -0.6000
-0.6000 -0.6000 -0.6000
-0.6000 -0.2000 -0.6000
-0.6000 0.2000 -0.6000
-0.6000 0.6000 -0.6000
-0.6000 1.0000 -0.6000
-0.2000 -1.0000 -0.6000
-0.2000 -0.6000 -0.6000
-0.2000 -0.2000 -0.6000
-0.2000 0.2000 -0.6000
-0.2000 0.6000 -0.6000
-0.2000 1.0000 -0.6000
0.2000 -1.0000 -0.6000
0.2000 -0.6000 -0.6000
0.2000 -0.2000 -0.6000
0.2000 0.2000 -0.6000
0.2000 0.6000 -0.6000
0.2000 1.0000 -0.6000
0.6000 -1.0000 -0.6000
0.6000 -0.6000 -0.6000
0.6000 -0.2000 -0.6000
0.6000 0.2000 -0.6000
0.6000 0.6000 -0.6000
0.6000 1.0000 -0.6000
1.0000 -1.0000 -0.6000
1.0000 -0.6000 -0.6000
1.0000 -0.2000 -0.6000
1.0000 0.2000 -0.6000
1.0000 0.6000 -0.6000
1.0000 1.0000 -0.6000
-1.0000 -1.0000 -0.2000
-1.0000 -0.6000 -0.2000
-1.0000 -0.2000 -0.2000
-1.0000 0.2000 -0.2000
-1.0000 0.6000 -0.2000
-1.0000 1.0000 -0.2000
-0.6000 -1.0000 -0.2000
-0.6000 -0.6000 -0.2000
-0.6000 -0.2000 -0.2000
-0.6000 0.2000 -0.2000
-0.6000 0.6000 -0.2000
-0.6000 1.0000 -0.2000
-0.2000 -1.0000 -0.2000
-0.2000 -0.6000 -0.2000
-0.2000 -0.2000 -0.2000
-0.2000 0.2000 -0.2000
-0.2000 0.6000 -0.2000
-0.2000 1.0000 -0.2000
0.2000 -1.0000 -0.2000
0.2000 -0.6000 -0.2000
0.2000 -0.2000 -0.2000
0.2000 0.2000 -0.2000
0.2000 0.6000 -0.2000
0.2000 1.0000 -0.2000
0.6000 -1.0000 -0.2000
0.6000 -0.6000 -0.2000
0.6000 -0.2000 -0.2000
0.6000 0.2000 -0.2000
0.6000 0.6000 -0.2000
0.6000 1.0000 -0.2000
1.0000 -1.0000 -0.2000
1.0000 -0.6000 -0.2000
1.0000 -0.2000 -0.2000
1.0000 0.2000 -0.2000
1.0000 0.6000 -0.2000
1.0000 1.0000 -0.2000
-1.0000 -1.0000 0.2000
-1.0000 -0.6000 0.2000
-1.0000 -0.2000 0.2000
-1.0000 0.2000 0.2000
-1.0000 0.6000 0.2000
-1.0000 1.0000 0.2000
-0.6000 -1.0000 0.2000
-0.6000 -0.6000 0.2000
-0.6000 -0.2000 0.2000
-0.6000 0.2000 0.2000
-0.6000 0.6000 0.2000
-0.6000 1.0000 0.2000
-0.2000 -1.0000 0.2000
-0.2000 -0.6000 0.2000
-0.2000 -0.2000 0.2000
-0.2000 0.2000 0.2000
-0.2000 0.6000 0.2000
-0.2000 1.0000 0.2000
0.2000 -1.0000 0.2000
0.2000 -0.6000 0.2000
0.2000 -0.2000 0.2000
0.2000 0.2000 0.2000
0.2000 0.6000 0.2000
0.2000 1.0000 0.2000
0.6000 -1.0000 0.2000
0.6000 -0.6000 0.2000
0.6000 -0.2000 0.2000
0.6000 0.2000 0.2000
0.6000 0.6000 0.2000
0.6000 1.0000 0.2000
1.0000 -1.0000 0.2000
1.0000 -0.6000 0.2000
1.0000 -0.2000 0.2000
1.0000 0.2000 0.2000
1.0000 0.6000 0.2000
1.0000 1.0000 0.2000
-1.0000 -1.0000 0.6000
-1.0000 -0.6000 0.6000
-1.0000 -0.2000 0.6000
-1.0000 0.2000 0.6000
-1.0000 0.6000 0.6000
-1.0000 1.0000 0.6000
-0.6000 -1.0000 0.6000
-0.6000 -0.6000 0.6000
-0.6000 -0.2000 0.6000
-0.6000 0.2000 0.6000
-0.6000 0.6000 0.6000
-0.6000 1.0000 0.6000
-0.2000 -1.0000 0.6000
-0.2000 -0.6000 0.6000
-0.2000 -0.2000 0.6000
-0.2000 0.2000 0.6000
-0.2000 0.6000 0.6000
-0.2000 1.0000 0.6000
0.2000 -1.0000 0.6000
0.2000 -0.6000 0.6000
0.2000 -0.2000 0.6000
0.2000 0.2000 0.6000
0.2000 0.6000 0.6000
0.2000 1.0000 0.6000
0.6000 -1.0000 0.6000
0.6000 -0.6000 0.6000
0.6000 -0.2000 0.6000
0.6000 0.2000 0.6000
0.6000 0.6000 0.6000
0.6000 1.0000 0.6000
1.0000 -1.0000 0.6000
1.0000 -0.6000 0.6000
1.0000 -0.2000 0.6000
1.0000 0.2000 0.6000
1.0000 0.6000 0.6000
1.0000 1.0000 0.6000
-1.0000 -1.0000 1.0000
-1.0000 -0.6000 1.0000
-1.0000 -0.2000 1.0000
-1.0000 0.2000 1.0000
-1.0000 0.6000 1.0000
-1.0000 1.0000 1.0000
-0.6000 -1.0000 1.0000
-0.6000 -0.6000 1.0000
-0.6000 -0.2000 1.0000
-0.6000 0.2000 1.0000
-0.6000 0.6000 1.0000
-0.6000 1.0000 1.0000
-0.2000 -1.0000 1.0000
-0.2000 -0.6000 1.0000
-0.2000 -0.2000 1.0000
-0.2000 0.2000 1.0000
-0.2000 0.6000 1.0000
-0.2000 1.0000 1.0000
0.2000 -1.0000 1.0000
0.2000 -0.6000 1.0000
0.2000 -0.2000 1.0000
0.2000 0.2000 1.0000
0.2000 0.6000 1.0000
0.2000 1.0000 1.0000
0.6000 -1.0000 1.0000
0.6000 -0.6000 1.0000
0.6000 -0.2000 1.0000
0.6000 0.2000 1.0000
0.6000 0.6000 1.0000
0.6000 1.0000 1.0000
1.0000 -1.0000 1.0000
1.0000 -0.6000 1.0000
1.0000 -0.2000 1.0000
1.0000 0.2000 1.0000
1.0000 0.6000 1.0000
1.0000 1.0000 1.0000</DataArray>
         </Points>
         <Cells>
            <DataArray Name="connectivity" format="ascii" type="Int32">
 37 1 7 0
 36 37 7 0
 6 36 42 43
 37 43 36 7
 43 6 36 7
 7 6 36 0
 38 2 8 1
 37 38 8 1
 7 37 43 44
 38 44 37 8
 44 7 37 8
 8 7 37 1
 39 3 9 2
 38 39 9 2
 8 38 44 45
 39 45 38 9
 45 8 38 9
 9 8 38 2
 40 4 10 3
 39 40 10 3
 9 39 45 46
 40 46 39 10
 46 9 39 10
 10 9 39 3
 41 5 11 4
 40 41 11 4
 10 40 46 47
 41 47 40 11
 47 10 40 11
 11 10 40 4
 43 7 13 6
 42 43 13 6
 12 42 48 49
 43 49 42 13
 49 12 42 13
 13 12 42 6
 44 8 14 7
 43 44 14 7
 13 43 49 50
 44 50 43 14
 50 13 43 14
 14 13 43 7
 45 9 15 8
 44 45 15 8
 14 44 50 51
 45 51 44 15
 51 14 44 15
 15 14 44 8
 46 10 16 9
 45 46 16 9
 15 45 51 52
 46 52 45 16
 52 15 45 16
 16 15 45 9
 47 11 17 10
 46 47 17 10
 16 46 52 53
 47 53 46 17
 53 16 46 17
 17 16 46 10
 49 13 19 12
 48 49 19 12
 18 48 54 55
 49 55 48 19
 55 18 48 19
 19 18 48 12
 50 14 20 13
 49 50 20 13
 19 49 55 56
 50 56 49 20
 56 19 49 20
 20 19 49 13
 51 15 21 14
 50 51 21 14
 20 50 56 57
 51 57 50 21
 57 20 50 21
 21 20 50 14
 52 16 22 15
 51 52 22 15
 21 51 57 58
 52 58 51 22
 58 21 51 22
 22 21 51 15
 53 17 23 16
 52 53 23 16
 22 52 58 59
 53 59 52 23
 59 22 52 23
 23 22 52 16
 55 19 25 18
 54 55 25 18
 24 54 60 61
 55 61 54 25
 61 24 54 25
 25 24 54 18
 56 20 26 19
 55 56 26 19
 25 55 61 62
 56 62 55 26
 62 25 55 26
 26 25 55 19
 57 21 27 20
 56 57 27 20
 26 56 62 63
 57 63 56 27
 63 26 56 27
 27 26 56 20
 58 22 28 21
 57 58 28 21
 27 57 63 64
 58 64 57 28
 64 27 57 28
 28 27 57 21
 59 23 29 22
 58 59 29 22
 28 58 64 65
 59 65 58 29
 65 28 58 29
 29 28 58 22
 61 25 31 24
 60 61 31 24
 30 60 66 67
 61 67 60 31
 67 30 60 31
 31 30 60 24
 62 26 32 25
 61 62 32 25
 31 61 67 68
 62 68 61 32
 68 31 61 32
 32 31 61 25
 63 27 33 26
 62 63 33 26
 32 62 68 69
 63 69 62 33
 69 32 62 33
 33 32 62 26
 64 28 34 27
 63 64 34 27
 33 63 69 70
 64 70 63 34
 70 33 63 34
 34 33 63 27
 65 29 35 28
 64 65 35 28
 34 64 70 71
 65 71 64 35
 71 34 64 35
 35 34 64 28
 73 37 43 36
 72 73 43 36
 42 72 78 79
 73 79 72 43
 79 42 72 43
 43 42 72 36
 74 38 44 37
 73 74 44 37
 43 73 79 80
 74 80 73 44
 80 43 73 44
 44 43 73 37
 75 39 45 38
 74 75 45 38
 44 74 80 81
 75 81 74 45
 81 44 74 45
 45 44 74 38
 76 40 46 39
 75 76 46 39
 45 75 81 82
 76 82 75 46
 82 45 75 46
 46 45 75 39
 77 41 47 40
 76 77 47 40
 46 76 82 83
 77 83 76 47
 83 46 76 47
 47 46 76 40
 79 43 49 42
 78 79 49 42
 48 78 84 85
 79 85 78 49
 85 48 78 49
 49 48 78 42
 80 44 50 43
 79 80 50 43
 49 79 85 86
 80 86 79 50
 86 49 79 50
 50 49 79 43
 81 45 51 44
 80 81 51 44
 50 80 86 87
 81 87 80 51
 87 50 80 51
 51 50 80 44
 82 46 52 45
 81 82 52 45
 51 81 87 88
 82 88 81 52
 88 51 81 52
 52 51 81 45
 83 47 53 46
 82 83 53 46
 52 82 88 89
 83 89 82 53
 89 52 82 53
 53 52 82 46
 85 49 55 48
 84 85 55 48
 54 84 90 91
 85 91 84 55
 91 54 84 55
 55 54 84 48
 86 50 56 49
 85 86 56 49
 55 85 91 92
 86 92 85 56
 92 55 85 56
 56 55 85 49
 87 51 57 50
 86 87 57 50
 56 86 92 93
 87 93 86 57
 93 56 86 57
 57 56 86 50
 88 52 58 51
 87 88 58 51
 57 87 93 94
 88 94 87 58
 94 57 87 58
 58 57 87 51
 89 53 59 52
 88 89 59 52
 58 88 94 95
 89 95 88 59
 95 58 88 59
 59 58 88 52
 91 55 61 54
 90 91 61 54
 60 90 96 97
 91 97 90 61
 97 60 90 61
 61 60 90 54
 92 56 62 55
 91 92 62 55
 61 91 97 98
 92 98 91 62
 98 61 91 62
 62 61 91 55
 93 57 63 56
 92 93 63 56
 62 92 98 99
 93 99 92 63
 99 62 92 63
 63 62 92 56
 94 58 64 57
 93 94 64 57
 63 93 99 100
 94 100 93 64
 100 63 93 64
 64 63 93 57
 95 59 65 58
 94 95 65 58
 64 94 100 101
 95 101 94 65
 101 64 94 65
 65 64 94 58
 97 61 67 60
 96 97 67 60
 66 96 102 103
 97 103 96 67
 103 66 96 67
 67 66 96 60
 98 62 68 61
 97 98 68 61
 67 97 103 104
 98 104 97 68
 104 67 97 68
 68 67 97 61
 99 63 69 62
 98 99 69 62
 68 98 104 105
 99 105 98 69
 105 68 98 69
 69 68 98 62
 100 64 70 63
 99 100 70 63
 69 99 105 106
 100 106 99 70
 106 69 99 70
 70 69 99 63
 101 65 71 64
 100 101 71 64
 70 100 106 107
 101 107 100 71
 107 70 100 71
 71 70 100 64
 109 73 79 72
 108 109 79 72
 78 108 114 115
 109 115 108 79
 115 78 108 79
 79 78 108 72
 110 74 80 73
 109 110 80 73
 79 109 115 116
 110 116 109 80
 116 79 109 80
 80 79 109 73
 111 75 81 74
 110 111 81 74
 80 110 116 117
 111 117 110 81
 117 80 110 81
 81 80 110 74
 112 76 82 75
 111 112 82 75
 81 111 117 118
 112 118 111 82
 118 81 111 82
 82 81 111 75
 113 77 83 76
 112 113 83 76
 82 112 118 119
 113 119 112 83
 119 82 112 83
 83 82 112 76
 115 79 85 78
 114 115 85 78
 84 114 120 121
 115 121 114 85
 121 84 114 85
 85 84 114 78
 116 80 86 79
 115 116 86 79
 85 115 121 122
 116 122 115 86
 122 85 115 86
 86 85 115 79
 117 81 87 80
 116 117 87 80
 86 116 122 123
 117 123 116 87
 123 86 116 87
 87 86 116 80
 118 82 88 81
 117 118 88 81
 87 117 123 124
 118 124 117 88
 124 87 117 88
 88 87 117 81
 119 83 89 82
 118 119 89 82
 88 118 124 125
 119 125 118 89
 125 88 118 89
 89 88 118 82
 121 85 91 84
 120 121 91 84
 90 120 126 127
 121 127 120 91
 127 90 120 91
 91 90 120 84
 122 86 92 85
 121 122 92 85
 91 121 127 128
 122 128 121 92
 128 91 121 92
 92 91 121 85
 123 87 93 86
 122 123 93 86
 92 122 128 129
 123 129 122 93
 129 92 122 93
 93 92 122 86
 124 88 94 87
 123 124 94 87
 93 123 129 130
 124 130 123 94
 130 93 123 94
 94 93 123 87
 125 89 95 88
 124 125 95 88
 94 124 130 131
 125 131 124 95
 131 94 124 95
 95 94 124 88
 127 91 97 90
 126 127 97 90
 96 126 132 133
 127 133 126 97
 133 96 126 97
 97 96 126 90
 128 92 98 91
 127 128 98 91
 97 127 133 134
 128 134 127 98
 134 97 127 98
 98 97 127 91
 129 93 99 92
 128 129 99 92
 98 128 134 135
 129 135 128 99
 135 98 128 99
 99 98 128 92
 130 94 100 93
 129 130 100 93
 99 129 135 136
 130 136 129 100
 136 99 129 100
 100 99 129 93
 131 95 101 94
 130 131 101 94
 100 130 136 137
 131 137 130 101
 137 100 130 101
 101 100 130 94
 133 97 103 96
 132 133 103 96
 102 132 138 139
 133 139 132 103
 139 102 132 103
 103 102 132 96
 134 98 104 97
 133 134 104 97
 103 133 139 140
 134 140 133 104
 140 103 133 104
 104 103 133 97
 135 99 105 98
 134 135 105 98
 104 134 140 141
 135 141 134 105
 141 104 134 105
 105 104 134 98
 136 100 106 99
 135 136 106 99
 105 135 141 142
 136 142 135 106
 142 105 135 106
 106 105 135 99
 137 101 107 100
 136 137 107 100
 106 136 142 143
 137 143 136 107
 143 106 136 107
 107 106 136 100
 145 109 115 108
 144 145 115 108
 114 144 150 151
 145 151 144 115
 151 114 144 115
 115 114 144 108
 146 110 116 109
 145 146 116 109
 115 145 151 152
 146 152 145 116
 152 115 145 116
 116 115 145 109
 147 111 117 110
 146 147 117 110
 116 146 152 153
 147 153 146 117
 153 116 146 117
 117 116 146 110
 148 112 118 111
 147 148 118 111
 117 147 153 154
 148 154 147 118
 154 117 147 118
 118 117 147 111
 149 113 119 112
 148 149 119 112
 118 148 154 155
 149 155 148 119
 155 118 148 119
 119 118 148 112
 151 115 121 114
 150 151 121 114
 120 150 156 157
 151 157 150 121
 157 120 150 121
 121 120 150 114
 152 116 122 115
 151 152 122 115
 121 151 157 158
 152 158 151 122
 158 121 151 122
 122 121 151 115
 153 117 123 116
 152 153 123 116
 122 152 158 159
 153 159 152 123
 159 122 152 123
 123 122 152 116
 154 118 124 117
 153 154 124 117
 123 153 159 160
 154 160 153 124
 160 123 153 124
 124 123 153 117
 155 119 125 118
 154 155 125 118
 124 154 160 161
 155 161 154 125
 161 124 154 125
 125 124 154 118
 157 121 127 120
 156 157 127 120
 126 156 162 163
 157 163 156 127
 163 126 156 127
 127 126 156 120
 158 122 128 121
 157 158 128 121
 127 157 163 164
 158 164 157 128
 164 127 157 128
 128 127 157 121
 159 123 129 122
 158 159 129 122
 128 158 164 165
 159 165 158 129
 165 128 158 129
 129 128 158 122
 160 124 130 123
 159 160 130 123
 129 159 165 166
 160 166 159 130
 166 129 159 130
 130 129 159 123
 161 125 131 124
 160 161 131 124
 130 160 166 167
 161 167 160 131
 167 130 160 131
 131 130 160 124
 163 127 133 126
 162 163 133 126
 132 162 168 169
 163 169 162 133
 169 132 162 133
 133 132 162 126
 164 128 134 127
 163 164 134 127
 133 163 169 170
 164 170 163 134
 170 133 163 134
 134 133 163 127
 165 129 135 128
 164 165 135 128
 134 164 170 171
 165 171 164 135
 171 134 164 135
 135 134 164 128
 166 130 136 129
 165 166 136 129
 135 165 171 172
 166 172 165 136
 172 135 165 136
 136 135 165 129
 167 131 137 130
 166 167 137 130
 136 166 172 173
 167 173 166 137
 173 136 166 137
 137 136 166 130
 169 133 139 132
 168 169 139 132
 138 168 174 175
 169 175 168 139
 175 138 168 139
 139 138 168 132
 170 134 140 133
 169 170 140 133
 139 169 175 176
 170 176 169 140
 176 139 169 140
 140 139 169 133
 171 135 141 134
 170 171 141 134
 140 170 176 177
 171 177 170 141
 177 140 170 141
 141 140 170 134
 172 136 142 135
 171 172 142 135
 141 171 177 178
 172 178 171 142
 178 141 171 142
 142 141 171 135
 173 137 143 136
 172 173 143 136
 142 172 178 179
 173 179 172 143
 179 142 172 143
 143 142 172 136
 181 145 151 144
 180 181 151 144
 150 180 186 187
 181 187 180 151
 187 150 180 151
 151 150 180 144
 182 146 152 145
 181 182 152 145
 151 181 187 188
 182 188 181 152
 188 151 181 152
 152 151 181 145
 183 147 153 146
 182 183 153 146
 152 182 188 189
 183 189 182 153
 189 152 182 153
 153 152 182 146
 184 148 154 147
 183 184 154 147
 153 183 189 190
 184 190 183 154
 190 153 183 154
 154 153 183 147
 185 149 155 148
 184 185 155 148
 154 184 190 191
 185 191 184 155
 191 154 184 155
 155 154 184 148
 187 151 157 150
 186 187 157 150
 156 186 192 193
 187 193 186 157
 193 156 186 157
 157 156 186 150
 188 152 158 151
 187 188 158 151
 157 187 193 194
 188 194 187 158
 194 157 187 158
 158 157 187 151
 189 153 159 152
 188 189 159 152
 158 188 194 195
 189 195 188 159
 195 158 188 159
 159 158 188 152
 190 154 160 153
 189 190 160 153
 159 189 195 196
 190 196 189 160
 196 159 189 160
 160 159 189 153
 191 155 161 154
 190 191 161 154
 160 190 196 197
 191 197 190 161
 197 160 190 161
 161 160 190 154
 193 157 163 156
 192 193 163 156
 162 192 198 199
 193 199 192 163
 199 162 192 163
 163 162 192 156
 194 158 164 157
 193 194 164 157
 163 193 199 200
 194 200 193 164
 200 163 193 164
 164 163 193 157
 195 159 165 158
 194 195 165 158
 164 194 200 201
 195 201 194 165
 201 164 194 165
 165 164 194 158
 196 160 166 159
 195 196 166 159
 165 195 201 202
 196 202 195 166
 202 165 195 166
 166 165 195 159
 197 161 167 160
 196 197 167 160
 166 196 202 203
 197 203 196 167
 203 166 196 167
 167 166 196 160
 199 163 169 162
 198 199 169 162
 168 198 204 205
 199 205 198 169
 205 168 198 169
 169 168 198 162
 200 164 170 163
 199 200 170 163
 169 199 205 206
 200 206 199 170
 206 169 199 170
 170 169 199 163
 201 165 171 164
 200 201 171 164
 170 200 206 207
 201 207 200 171
 207 170 200 171
 171 170 200 164
 202 166 172 165
 201 202 172 165
 171 201 207 208
 202 208 201 172
 208 171 201 172
 172 171 201 165
 203 167 173 166
 202 203 173 166
 172 202 208 209
 203 209 202 173
 209 172 202 173
 173 172 202 166
 205 169 175 168
 204 205 175 168
 174 204 210 211
 205 211 204 175
 211 174 204 175
 175 174 204 168
 206 170 176 169
 205 206 176 169
 175 205 211 212
 206 212 205 176
 212 175 205 176
 176 175 205 169
 207 171 177 170
 206 207 177 170
 176 206 212 213
 207 213 206 177
 213 176 206 177
 177 176 206 170
 208 172 178 171
 207 208 178 171
 177 207 213 214
 208 214 207 178
 214 177 207 178
 178 177 207 171
 209 173 179 172
 208 209 179 172
 178 208 214 215
 209 215 208 179
 215 178 208 179
 179 178 208 172</DataArray>
            <DataArray Name="offsets" format="ascii" type="Int32">4 8 12 16 20 24 28 32 36 40 44 48 52 56 60 64 68 72 76 80 84 88 92 96 100 104 108 112 116 120 124 128 132 136 140 144 148 152 156 160 164 168 172 176 180 184 188 192 196 200 204 208 212 216 220 224 228 232 236 240 244 248 252 256 260 264 268 272 276 280 284 288 292 296 300 304 308 312 316 320 324 328 332 336 340 344 348 352 356 360 364 368 372 376 380 384 388 392 396 400 404 408 412 416 420 424 428 432 436 440 444 448 452 456 460 464 468 472 476 480 484 488 492 496 500 504 508 512 516 520 524 528 532 536 540 544 548 552 556 560 564 568 572 576 580 584 588 592 596 600 604 608 612 616 620 624 628 632 636 640 644 648 652 656 660 664 668 672 676 680 684 688 692 696 700 704 708 712 716 720 724 728 732 736 740 744 748 752 756 760 764 768 772 776 780 784 788 792 796 800 804 808 812 816 820 824 828 832 836 840 844 848 852 856 860 864 868 872 876 880 884 888 892 896 900 904 908 912 916 920 924 928 932 936 940 944 948 952 956 960 964 968 972 976 980 984 988 992 996 1000 1004 1008 1012 1016 1020 1024 1028 1032 1036 1040 1044 1048 1052 1056 1060 1064 1068 1072 1076 1080 1084 1088 1092 1096 1100 1104 1108 1112 1116 1120 1124 1128 1132 1136 1140 1144 1148 1152 1156 1160 1164 1168 1172 1176 1180 1184 1188 1192 1196 1200 1204 1208 1212 1216 1220 1224 1228 1232 1236 1240 1244 1248 1252 1256 1260 1264 1268 1272 1276 1280 1284 1288 1292 1296 1300 1304 1308 1312 1316 1320 1324 1328 1332 1336 1340 1344 1348 1352 1356 1360 1364 1368 1372 1376 1380 1384 1388 1392 1396 1400 1404 1408 1412 1416 1420 1424 1428 1432 1436 1440 1444 1448 1452 1456 1460 1464 1468 1472 1476 1480 1484 1488 1492 1496 1500 1504 1508 1512 1516 1520 1524 1528 1532 1536 1540 1544 1548 1552 1556 1560 1564 1568 1572 1576 1580 1584 1588 1592 1596 1600 1604 1608 1612 1616 1620 1624 1628 1632 1636 1640 1644 1648 1652 1656 1660 1664 1668 1672 1676 1680 1684 1688 1692 1696 1700 1704 1708 1712 1716 1720 1724 1728 1732 1736 1740 1744 1748 1752 1756 1760 1764 1768 1772 1776 1780 1784 1788 1792 1796 1800 1804 1808 1812 1816 1820 1824 1828 1832 1836 1840 1844 1848 1852 1856 1860 1864 1868 1872 1876 1880 1884 1888 1892 1896 1900 1904 1908 1912 1916 1920 1924 1928 1932 1936 1940 1944 1948 1952 1956 1960 1964 1968 1972 1976 1980 1984 1988 1992 1996 2000 2004 2008 2012 2016 2020 2024 2028 2032 2036 2040 2044 2048 2052 2056 2060 2064 2068 2072 2076 2080 2084 2088 2092 2096 2100 2104 2108 2112 2116 2120 2124 2128 2132 2136 2140 2144 2148 2152 2156 2160 2164 2168 2172 2176 2180 2184 2188 2192 2196 2200 2204 2208 2212 2216 2220 2224 2228 2232 2236 2240 2244 2248 2252 2256 2260 2264 2268 2272 2276 2280 2284 2288 2292 2296 2300 2304 2308 2312 2316 2320 2324 2328 2332 2336 2340 2344 2348 2352 2356 2360 2364 2368 2372 2376 2380 2384 2388 2392 2396 2400 2404 2408 2412 2416 2420 2424 2428 2432 2436 2440 2444 2448 2452 2456 2460 2464 2468 2472 2476 2480 2484 2488 2492 2496 2500 2504 2508 2512 2516 2520 2524 2528 2532 2536 2540 2544 2548 2552 2556 2560 2564 2568 2572 2576 2580 2584 2588 2592 2596 2600 2604 2608 2612 2616 2620 2624 2628 2632 2636 2640 2644 2648 2652 2656 2660 2664 2668 2672 2676 2680 2684 2688 2692 2696 2700 2704 2708 2712 2716 2720 2724 2728 2732 2736 2740 2744 2748 2752 2756 2760 2764 2768 2772 2776 2780 2784 2788 2792 2796 2800 2804 2808 2812 2816 2820 2824 2828 2832 2836 2840 2844 2848 2852 2856 2860 2864 2868 2872 2876 2880 2884 2888 2892 2896 2900 2904 2908 2912 2916 2920 2924 2928 2932 2936 2940 2944 2948 2952 2956 2960 2964 2968 2972 2976 2980 2984 2988 2992 2996 3000 </DataArray>
            <DataArray Name="types" format="ascii" type="UInt8">10 10 10 10 10 10 10 10 10 10 10 10 10 10 10 10 10 10 10 10 10 10 10 10 10 10 10 10 10 10 10 10 10 10 10 10 10 10 10 10 10 10 10 10 10 10 10 10 10 10 10 10 10 10 10 10 10 10 10 10 10 10 10 10 10 10 10 10 10 10 10 10 10 10 10 10 10 10 10 10 10 10 10 10 10 10 10 10 10 10 10 10 10 10 10 10 10 10 10 10 10 10 10 10 10 10 10 10 10 10 10 10 10 10 10 10 10 10 10 10 10 10 10 10 10 10 10 10 10 10 10 10 10 10 10 10 10 10 10 10 10 10 10 10 10 10 10 10 10 10 10 10 10 10 10 10 10 10 10 10 10 10 10 10 10 10 10 10 10 10 10 10 10 10 10 10 10 10 10 10 10 10 10 10 10 10 10 10 10 10 10 10 10 10 10 10 10 10 10 10 10 10 10 10 10 10 10 10 10 10 10 10 10 10 10 10 10 10 10 10 10 10 10 10 10 10 10 10 10 10 10 10 10 10 10 10 10 10 10 10 10 10 10 10 10 10 10 10 10 10 10 10 10 10 10 10 10 10 10 10 10 10 10 10 10 10 10 10 10 10 10 10 10 10 10 10 10 10 10 10 10 10 10 10 10 10 10 10 10 10 10 10 10 10 10 10 10 10 10 10 10 10 10 10 10 10 10 10 10 10 10 10 10 10 10 10 10 10 10 10 10 10 10 10 10 10 10 10 10 10 10 10 10 10 10 10 10 10 10 10 10 10 10 10 10 10 10 10 10 10 10 10 10 10 10 10 10 10 10 10 10 10 10 10 10 10 10 10 10 10 10 10 10 10 10 10 10 10 10 10 10 10 10 10 10 10 10 10 10 10 10 10 10 10 10 10 10 10 10 10 10 10 10 10 10 10 10 10 10 10 10 10 10 10 10 10 10 10 10 10 10 10 10 10 10 10 10 10 10 10 10 10 10 10 10 10 10 10 10 10 10 10 10 10 10 10 10 10 10 10 10 10 10 10 10 10 10 10 10 10 10 10 10 10 10 10 10 10 10 10 10 10 10 10 10 10 10 10 10 10 10 10 10 10 10 10 10 10 10 10 10 10 10 10 10 10 10 10 10 10 10 10 10 10 10 10 10 10 10 10 10 10 10 10 10 10 10 10 10 10 10 10 10 10 10 10 10 10 10 10 10 10 10 10 10 10 10 10 10 10 10 10 10 10 10 10 10 10 10 10 10 10 10 10 10 10 10 10 10 10 10 10 10 10 10 10 10 10 10 10 10 10 10 10 10 10 10 10 10 10 10 10 10 10 10 10 10 10 10 10 10 10 10 10 10 10 10 10 10 10 10 10 10 10 10 10 10 10 10 10 10 10 10 10 10 10 10 10 10 10 10 10 10 10 10 10 10 10 10 10 10 10 10 10 10 10 10 10 10 10 10 10 10 10 10 10 10 10 10 10 10 10 10 10 10 10 10 10 10 10 10 10 10 10 10 10 10 10 10 10 10 10 10 10 10 10 10 10 10 10 10 10 10 10 10 10 10 10 10 10 10 10 10 10 10 10 10 10 10 10 10 10 10 10 10 10 10 10 10 10 10 10 10 10 10 10 10 10 10 10 10 10 10 10 10 10 10 10 10 10 10 10 10 10 10 10 10 10 10 10 10 10 10 10 10 10 10 10 10 10 </DataArray>
         </Cells>
         <PointData>
            <DataArray Name="fValues" NumberOfComponents="3" format="ascii" type="Float64">
 4.81391e-02 -6.77025e-03  3.92139e-02 
 2.86142e-02  9.07428e-03  7.03642e-02 
 1.97411e-02  2.61038e-02  1.12531e-01 
 1.79527e-02  3.89277e-02  1.64037e-01 
 2.37008e-02  4.43187e-02  2.30429e-01 
 2.39537e-02  3.33336e-02  3.19330e-01 
 6.38538e-03 -5.02734e-02 -6.67094e-03 
 2.41820e-02 -1.37847e-02 -1.60924e-02 
 2.36509e-02  1.24491e-02 -6.47627e-03 
 3.00329e-02  2.93670e-02  3.41833e-04 
 4.70078e-02  3.64273e-02  7.01603e-03 
 2.74817e-02  4.53073e-02  2.16991e-01 
-1.21853e-02 -3.11739e-02 -1.05205e-03 
-3.10003e-03 -9.63978e-03 -1.04176e-02 
 2.05960e-03  1.28250e-02 -2.85138e-03 
 7.72066e-03  2.29903e-02  2.27435e-03 
 2.31911e-02  2.27560e-02  7.33419e-03 
 1.62525e-02  1.77258e-02  1.49037e-01 
-2.20027e-02 -1.62856e-02  5.27520e-03 
-1.59558e-02 -4.81129e-03 -2.06918e-03 
-1.05682e-02  5.42365e-03  2.75337e-03 
-2.53212e-03  7.14551e-03  5.83368e-03 
 1.39667e-02 -1.25060e-03  8.52040e-03 
 1.65651e-02 -1.40420e-02  1.01831e-01 
-2.46650e-02 -2.25770e-03  9.99216e-03 
-1.85305e-02 -4.87420e-04  3.95758e-03 
-1.17113e-02 -1.77148e-03  5.97071e-03 
-1.35905e-03 -9.75472e-03  6.28986e-03 
 1.79807e-02 -2.52635e-02  5.58579e-03 
 2.41899e-02 -4.79105e-02  5.83912e-02 
-9.11592e-03  1.99179e-02  3.66930e-03 
-1.24625e-02  1.31637e-02  1.03854e-02 
-8.31778e-03  2.31352e-03  1.23105e-02 
 2.18708e-04 -1.28168e-02  1.21274e-02 
 1.29652e-02 -3.28274e-02  9.45809e-03 
 3.30069e-02 -4.94011e-02  5.15484e-03 
 4.22135e-02  5.25702e-03  4.93407e-02 
 2.64408e-02  9.43538e-03  7.98535e-02 
 2.30281e-02  1.77237e-02  1.32887e-01 
 2.43845e-02  1.65361e-02  1.94460e-01 
 3.16072e-02 -8.90199e-04  2.62553e-01 
 2.33785e-02 -2.76532e-02  3.48516e-01 
-1.81609e-04 -2.96601e-02 -1.34621e-02 
 8.87500e-03  1.45634e-02  2.83752e-02 
 2.61576e-03  3.01666e-02  6.52890e-02 
 2.07591e-03  3.46149e-02  1.03228e-01 
 9.71175e-03  2.75628e-02  1.49904e-01 
 2.77599e-02  3.16899e-02  2.72484e-01 
-1.55150e-02 -1.57818e-02 -7.95116e-03 
-1.52772e-02  1.31976e-02  1.93694e-02 
-1.78913e-02  2.87564e-02  4.68342e-02 
-1.95928e-02  3.11304e-02  7.44273e-02 
-1.25100e-02  2.18244e-02  1.08323e-01 
 8.37501e-03  1.59590e-02  1.93402e-01 
-2.26558e-02 -8.86465e-03 -4.20467e-04 
-2.51726e-02  1.04275e-02  1.77031e-02 
-2.84315e-02  1.84596e-02  3.63572e-02 
-2.87271e-02  1.67101e-02  5.49369e-02 
-2.03978e-02  4.32629e-03  7.73131e-02 
 1.95178e-03 -7.96894e-03  1.32386e-01 
-2.20203e-02 -4.29353e-03  4.91062e-03 
-2.46725e-02  6.58513e-03  1.51128e-02 
-2.73520e-02  7.41441e-03  2.60021e-02 
-2.59826e-02  2.00038e-04  3.61806e-02 
-1.60729e-02 -1.50015e-02  4.76158e-02 
 8.91556e-03 -3.44997e-02  7.42091e-02 
-8.35432e-03  1.87481e-02  8.67598e-04 
-1.29722e-02  1.33303e-02  5.84088e-03 
-1.19953e-02  5.47190e-03  7.66014e-03 
-7.26413e-03 -7.07352e-03  7.08742e-03 
 5.89389e-03 -2.38903e-02  3.97242e-03 
 3.07953e-02 -4.23051e-02 -3.41896e-03 
 3.48262e-02  1.92700e-02  6.08823e-02 
 1.37746e-02  2.05376e-02  1.10065e-01 
 4.79396e-03  2.03408e-02  1.84682e-01 
-2.49089e-04  9.41310e-03  2.66428e-01 
 1.80727e-03 -1.54255e-02  3.46739e-01 
-3.74902e-05 -5.47576e-02  4.17752e-01 
 2.14080e-03 -9.58546e-03 -1.42484e-02 
 1.90815e-03  2.67656e-02  6.42737e-02 
-9.90627e-03  3.60453e-02  1.29417e-01 
-1.63681e-02  3.30949e-02  1.93133e-01 
-1.24612e-02  2.15048e-02  2.60724e-01 
 1.27416e-02  1.76499e-02  3.55103e-01 
-9.38222e-03 -1.79972e-03 -1.04891e-02 
-1.63151e-02  2.37760e-02  4.54148e-02 
-2.52341e-02  3.54399e-02  9.56270e-02 
-3.24300e-02  3.34600e-02  1.43956e-01 
-2.88857e-02  2.20433e-02  1.94890e-01 
-2.94640e-03  1.22018e-02  2.61950e-01 
-1.33634e-02 -2.81621e-03 -4.64786e-03 
-2.27755e-02  1.67583e-02  3.39452e-02 
-3.28770e-02  2.44621e-02  6.89795e-02 
-3.93801e-02  2.16271e-02  1.02532e-01 
-3.55861e-02  9.92731e-03  1.37156e-01 
-8.48277e-03 -3.08802e-03  1.80163e-01 
-1.00462e-02 -6.82322e-03 -9.84499e-04 
-1.94181e-02  8.24441e-03  2.09116e-02 
-2.83098e-02  1.20829e-02  4.05397e-02 
-3.29965e-02  6.93149e-03  5.86178e-02 
-2.80253e-02 -6.05512e-03  7.58501e-02 
-2.52384e-04 -2.09240e-02  9.70638e-02 
 4.72759e-03  1.40471e-02 -7.85288e-03 
-4.20595e-03  1.13309e-02 -7.48909e-04 
-9.35316e-03  6.98301e-03  2.90330e-03 
-1.08897e-02 -1.67819e-03  3.78305e-03 
-3.12470e-03 -1.50217e-02  1.77035e-03 
 2.03260e-02 -3.27501e-02 -5.75996e-03 
 2.88120e-02  2.99824e-02  7.22263e-02 
 4.32700e-03  2.87412e-02  1.43693e-01 
-9.68632e-03  2.12173e-02  2.42355e-01 
-2.04102e-02  2.38500e-03  3.46055e-01 
-2.21445e-02 -3.01921e-02  4.39587e-01 
-1.24327e-02 -7.65248e-02  5.00332e-01 
 8.49355e-03  7.06424e-03 -1.34067e-02 
 1.56412e-04  3.46138e-02  9.69459e-02 
-1.53815e-02  3.82460e-02  1.88440e-01 
-2.61315e-02  2.90517e-02  2.75158e-01 
-2.47168e-02  1.07272e-02  3.58771e-01 
 3.53723e-03 -1.09137e-03  4.41632e-01 
 1.68740e-03  8.97376e-03 -1.21815e-02 
-1.11221e-02  3.06927e-02  7.05469e-02 
-2.55837e-02  3.86255e-02  1.42779e-01 
-3.74002e-02  3.31283e-02  2.11033e-01 
-3.76159e-02  1.75013e-02  2.76153e-01 
-7.86313e-03  4.30714e-03  3.35766e-01 
 8.15246e-04  5.07006e-04 -9.30745e-03 
-1.53041e-02  2.02266e-02  4.96584e-02 
-3.14186e-02  2.75504e-02  1.00848e-01 
-4.37701e-02  2.41617e-02  1.49388e-01 
-4.45068e-02  1.15448e-02  1.94434e-01 
-1.31398e-02 -1.73708e-03  2.32170e-01 
 7.36618e-03 -1.22940e-02 -9.28191e-03 
-8.56773e-03  6.70054e-03  2.45076e-02 
-2.34884e-02  1.34846e-02  5.32994e-02 
-3.41801e-02  1.09027e-02  7.99019e-02 
-3.50939e-02 -2.57298e-04  1.02962e-01 
-3.16480e-03 -1.10113e-02  1.21204e-01 
 2.28137e-02  6.59801e-03 -2.01454e-02 
 9.48720e-03  6.73407e-03 -1.00763e-02 
-1.48877e-03  6.13656e-03 -4.38364e-03 
-9.28461e-03  1.70931e-03 -1.41893e-03 
-6.86737e-03 -8.25884e-03 -1.85600e-03 
 1.81654e-02 -2.51905e-02 -1.00262e-02 
 2.34219e-02  2.45745e-02  7.86776e-02 
-3.35457e-03  2.26674e-02  1.73099e-01 
-1.94355e-02  1.01366e-02  2.93980e-01 
-3.41992e-02 -1.40598e-02  4.19113e-01 
-3.63778e-02 -5.10002e-02  5.27557e-01 
 1.66045e-03 -1.04974e-01  5.72582e-01 
 1.58025e-02  1.78501e-02 -1.28850e-02 
 4.20275e-03  3.96600e-02  1.26809e-01 
-1.19097e-02  3.98681e-02  2.44227e-01 
-2.45847e-02  2.57176e-02  3.54729e-01 
-2.59426e-02 -3.75712e-03  4.55441e-01 
 1.25472e-02 -2.30989e-02  5.19037e-01 
 1.25207e-02  1.59821e-02 -1.51207e-02 
-9.00939e-03  3.76620e-02  9.92801e-02 
-3.00834e-02  4.22440e-02  1.94009e-01 
-4.84811e-02  3.43662e-02  2.85857e-01 
-5.54882e-02  1.17929e-02  3.69270e-01 
-7.55619e-03 -9.32050e-03  4.06271e-01 
 1.60338e-02 -3.98777e-04 -1.64984e-02 
-6.65039e-03  2.10847e-02  6.39953e-02 
-2.90266e-02  2.88701e-02  1.31163e-01 
-4.82753e-02  2.56687e-02  1.95980e-01 
-5.58912e-02  1.10056e-02  2.54078e-01 
-1.00039e-02 -4.84634e-03  2.77801e-01 
 2.62156e-02 -2.13803e-02 -2.06826e-02 
 4.30228e-03  2.13856e-03  2.63578e-02 
-1.62335e-02  1.22460e-02  6.40480e-02 
-3.29656e-02  1.32922e-02  1.00107e-01 
-4.15865e-02  3.44863e-03  1.30900e-01 
 5.36384e-03 -4.25991e-03  1.39210e-01 
 4.15410e-02 -3.91699e-03 -3.56137e-02 
 2.52134e-02 -9.38343e-04 -2.29018e-02 
 9.46780e-03  2.36008e-03 -1.55556e-02 
-3.76860e-03  2.54304e-03 -1.03422e-02 
-3.39237e-03 -2.15847e-03 -8.12751e-03 
 3.13367e-02 -1.97625e-02 -2.03300e-02 
 3.46300e-02 -3.35211e-02  7.56493e-02 
 1.08728e-02 -3.91174e-02  1.73908e-01 
 8.22736e-03 -4.53411e-02  3.10187e-01 
 4.72536e-03 -6.39376e-02  4.44631e-01 
 1.44545e-02 -9.04319e-02  5.57268e-01 
 6.62468e-02 -1.13982e-01  6.26854e-01 
 7.74288e-03  1.16222e-02 -1.74058e-02 
-1.24891e-02  6.32262e-02  1.74883e-01 
-4.20479e-02  5.85540e-02  3.26713e-01 
-6.92757e-02  4.27294e-02  4.76137e-01 
-8.80721e-02  1.39170e-02  6.27616e-01 
 8.45457e-03 -6.08545e-02  5.91307e-01 
 1.65817e-02  7.10123e-03 -2.18888e-02 
-8.14841e-03  4.49270e-02  1.21411e-01 
-3.90919e-02  4.60187e-02  2.40290e-01 
-6.72465e-02  3.79335e-02  3.56840e-01 
-8.70014e-02  1.86388e-02  4.74457e-01 
-8.42791e-04 -3.05215e-02  4.56067e-01 
 2.70756e-02 -1.46022e-02 -2.78455e-02 
 1.75829e-03  1.87888e-02  7.42687e-02 
-2.85607e-02  2.63338e-02  1.57161e-01 
-5.66166e-02  2.51351e-02  2.38782e-01 
-7.56180e-02  1.54742e-02  3.20505e-01 
 7.18777e-03 -1.47438e-02  3.03415e-01 
 4.30182e-02 -3.79709e-02 -3.56444e-02 
 1.67859e-02 -6.53317e-03  2.61092e-02 
-1.08029e-02  6.90438e-03  7.26206e-02 
-3.68514e-02  1.15872e-02  1.18038e-01 
-5.69133e-02  8.24042e-03  1.62672e-01 
 3.50952e-02  4.58727e-03  1.42542e-01 
 6.16990e-02 -1.66645e-02 -5.28425e-02 
 5.19680e-02 -1.43198e-02 -4.53594e-02 
 4.02815e-02 -6.24393e-03 -4.04406e-02 
 3.00966e-02 -5.94986e-04 -3.81167e-02 
 3.71327e-02  5.89357e-03 -3.68834e-02 
 7.13453e-02 -5.77413e-03 -4.28393e-02 </DataArray>
         </PointData>
         <CellData/>
      </Piece>
   </UnstructuredGrid>
</VTKFile>