<?xml version="1.0" encoding="utf-8"?>
<VTKFile byte_order="LittleEndian" type="UnstructuredGrid" version="0.1">
   <UnstructuredGrid>
      <Piece NumberOfCells="64" NumberOfPoints="41">
         <Points>
            <DataArray Name="Points" NumberOfComponents="3" format="ascii" type="Float32">
0.0000 0.0000 0.0000
0.0000 0.2500 0.0000
0.0000 0.5000 0.0000
0.0000 0.7500 0.0000
0.0000 1.0000 0.0000
0.2500 0.0000 0.0000
0.2500 0.2500 0.0000
0.2500 0.5000 0.0000
0.2500 0.7500 0.0000
0.2500 1.0000 0.0000
0.5000 0.0000 0.0000
0.5000 0.2500 0.0000
0.5000 0.5000 0.0000
0.5000 0.7500 0.0000
0.5000 1.0000 0.0000
0.7500 0.0000 0.0000
0.7500 0.2500 0.0000
0.7500 0.5000 0.0000
0.7500 0.7500 0.0000
0.7500 1.0000 0.0000
1.0000 0.0000 0.0000
1.0000 0.2500 0.0000
1.0000 0.5000 0.0000
1.0000 0.7500 0.0000
1.0000 1.0000 0.0000
0.1250 0.1250 0.0000
0.1250 0.3750 0.0000
0.1250 0.6250 0.0000
0.1250 0.8750 0.0000
0.3750 0.1250 0.0000
0.3750 0.3750 0.0000
0.3750 0.6250 0.0000
0.3750 0.8750 0.0000
0.6250 0.1250 0.0000
0.6250 0.3750 0.0000
0.6250 0.6250 0.0000
0.6250 0.8750 0.0000
0.8750 0.1250 0.0000
0.8750 0.3750 0.0000
0.8750 0.6250 0.0000
0.8750 0.8750 0.0000</DataArray>
         </Points>
         <Cells>
            <DataArray Name="connectivity" format="ascii" type="Int32">
 1 0 25
 2 1 26
 3 2 27
 4 3 28
 6 5 29
 7 6 30
 8 7 31
 9 8 32
 11 10 33
 12 11 34
 13 12 35
 14 13 36
 16 15 37
 17 16 38
 18 17 39
 19 18 40
 6 1 25
 7 2 26
 8 3 27
 9 4 28
 11 6 29
 12 7 30
 13 8 31
 14 9 32
 16 11 33
 17 12 34
 18 13 35
 19 14 36
 21 16 37
 22 17 38
 23 18 39
 24 19 40
 5 6 25
 6 7 26
 7 8 27
 8 9 28
 10 11 29
 11 12 30
 12 13 31
 13 14 32
 15 16 33
 16 17 34
 17 18 35
 18 19 36
 20 21 37
 21 22 38
 22 23 39
 23 24 40
 0 5 25
 1 6 26
 2 7 27
 3 8 28
 5 10 29
 6 11 30
 7 12 31
 8 13 32
 10 15 33
 11 16 34
 12 17 35
 13 18 36
 15 20 37
 16 21 38
 17 22 39
 18 23 40</DataArray>
            <DataArray Name="offsets" format="ascii" type="Int32">3 6 9 12 15 18 21 24 27 30 33 36 39 42 45 48 51 54 57 60 63 66 69 72 75 78 81 84 87 90 93 96 99 102 105 108 111 114 117 120 123 126 129 132 135 138 141 144 147 150 153 156 159 162 165 168 171 174 177 180 183 186 189 192 </DataArray>
            <DataArray Name="types" format="ascii" type="UInt8">5 5 5 5 5 5 5 5 5 5 5 5 5 5 5 5 5 5 5 5 5 5 5 5 5 5 5 5 5 5 5 5 5 5 5 5 5 5 5 5 5 5 5 5 5 5 5 5 5 5 5 5 5 5 5 5 5 5 5 5 5 5 5 5 </DataArray>
         </Cells>
         <PointData>
            <DataArray Name="fValues" NumberOfComponents="6" format="ascii" type="Float64">
-4.22654e-02 -5.01829e-03 -3.28314e-03 -2.04841e-03  1.17974e-02  1.03084e-02 
-9.31765e-02 -2.87376e-03 -3.22509e-03 -2.14481e-03  3.35415e-02  4.58050e-03 
-1.16976e-01 -2.44811e-03 -3.48062e-03  7.45266e-19  4.31907e-02 -1.41955e-18 
-9.31765e-02 -2.87376e-03 -3.22509e-03  2.14481e-03  3.35415e-02 -4.58050e-03 
-4.22654e-02 -5.01829e-03 -3.28314e-03  2.04841e-03  1.17974e-02 -1.03084e-02 
 4.66784e-03 -7.63511e-03 -3.65018e-03 -2.14481e-03  5.24213e-03  2.93081e-02 
 9.84653e-03  1.16911e-03  7.64869e-04 -1.87967e-03  1.81902e-02  1.58943e-02 
 1.35747e-02  6.74738e-03  3.57093e-03  1.57036e-18  2.44810e-02  1.21576e-18 
 9.84653e-03  1.16911e-03  7.64869e-04  1.87967e-03  1.81902e-02 -1.58943e-02 
 4.66784e-03 -7.63511e-03 -3.65018e-03  2.14481e-03  5.24213e-03 -2.93081e-02 
 1.97158e-02 -9.09990e-03 -4.07449e-03 -1.07219e-18  8.57752e-19  3.77395e-02 
 7.49340e-02  3.76149e-03  3.30434e-03  1.01724e-19  4.06895e-19  2.13911e-02 
 1.00140e-01  1.18899e-02  7.77877e-03  1.25646e-18 -4.26435e-18 -1.25900e-17 
 7.49340e-02  3.76149e-03  3.30434e-03 -1.25241e-19 -1.49021e-17 -2.13911e-02 
 1.97158e-02 -9.09990e-03 -4.07449e-03 -1.64365e-18 -4.04036e-18 -3.77395e-02 
 4.66784e-03 -7.63511e-03 -3.65018e-03  2.14481e-03 -5.24213e-03  2.93081e-02 
 9.84653e-03  1.16911e-03  7.64869e-04  1.87967e-03 -1.81902e-02  1.58943e-02 
 1.35747e-02  6.74738e-03  3.57093e-03 -5.18659e-19 -2.44810e-02 -1.25214e-17 
 9.84653e-03  1.16911e-03  7.64869e-04 -1.87967e-03 -1.81902e-02 -1.58943e-02 
 4.66784e-03 -7.63511e-03 -3.65018e-03 -2.14481e-03 -5.24213e-03 -2.93081e-02 
-4.22654e-02 -5.01829e-03 -3.28314e-03  2.04841e-03 -1.17974e-02  1.03084e-02 
-9.31765e-02 -2.87376e-03 -3.22509e-03  2.14481e-03 -3.35415e-02  4.58050e-03 
-1.16976e-01 -2.44811e-03 -3.48062e-03 -1.35769e-18 -4.31907e-02 -3.99953e-18 
-9.31765e-02 -2.87376e-03 -3.22509e-03 -2.14481e-03 -3.35415e-02 -4.58050e-03 
-4.22654e-02 -5.01829e-03 -3.28314e-03 -2.04841e-03 -1.17974e-02 -1.03084e-02 
-3.87722e-02 -4.60353e-03 -3.01179e-03 -1.87911e-03  1.59899e-02  1.39717e-02 
-8.22335e-02 -2.31563e-05 -1.61490e-03 -1.16530e-03  3.65105e-02  3.58458e-03 
-8.22335e-02 -2.31563e-05 -1.61490e-03  1.16530e-03  3.65105e-02 -3.58458e-03 
-3.87722e-02 -4.60353e-03 -3.01179e-03  1.87911e-03  1.59899e-02 -1.39717e-02 
 3.41455e-02 -5.68645e-03 -2.12052e-03 -1.16530e-03  4.10235e-03  3.19024e-02 
 8.68601e-02  1.03131e-02  6.74721e-03 -4.51488e-04  9.94337e-03  8.68838e-03 
 8.68601e-02  1.03131e-02  6.74721e-03  4.51488e-04  9.94337e-03 -8.68838e-03 
 3.41455e-02 -5.68645e-03 -2.12052e-03  1.16530e-03  4.10235e-03 -3.19024e-02 
 3.41455e-02 -5.68645e-03 -2.12052e-03  1.16530e-03 -4.10235e-03  3.19024e-02 
 8.68601e-02  1.03131e-02  6.74721e-03  4.51488e-04 -9.94337e-03  8.68838e-03 
 8.68601e-02  1.03131e-02  6.74721e-03 -4.51488e-04 -9.94337e-03 -8.68838e-03 
 3.41455e-02 -5.68645e-03 -2.12052e-03 -1.16530e-03 -4.10235e-03 -3.19024e-02 
-3.87722e-02 -4.60353e-03 -3.01179e-03  1.87911e-03 -1.59899e-02  1.39717e-02 
-8.22335e-02 -2.31563e-05 -1.61490e-03  1.16530e-03 -3.65105e-02  3.58458e-03 
-8.22335e-02 -2.31563e-05 -1.61490e-03 -1.16530e-03 -3.65105e-02 -3.58458e-03 
-3.87722e-02 -4.60353e-03 -3.01179e-03 -1.87911e-03 -1.59899e-02 -1.39717e-02 </DataArray>
         </PointData>
         <CellData/>
      </Piece>
   </UnstructuredGrid>
</VTKFile>