ISO-10303-21;
HEADER;
FILE_DESCRIPTION(('FreeCAD Model'),'2;1');
FILE_NAME('Open CASCADE Shape Model','2026-06-20T11:47:22',('Author'),(
    ''),'Open CASCADE STEP processor 7.8','FreeCAD','Unknown');
FILE_SCHEMA(('AUTOMOTIVE_DESIGN { 1 0 10303 214 1 1 1 1 }'));
ENDSEC;
DATA;
#1 = APPLICATION_PROTOCOL_DEFINITION('international standard',
  'automotive_design',2000,#2);
#2 = APPLICATION_CONTEXT(
  'core data for automotive mechanical design processes');
#3 = SHAPE_DEFINITION_REPRESENTATION(#4,#10);
#4 = PRODUCT_DEFINITION_SHAPE('','',#5);
#5 = PRODUCT_DEFINITION('design','',#6,#9);
#6 = PRODUCT_DEFINITION_FORMATION('','',#7);
#7 = PRODUCT('Cut001','Cut001','',(#8));
#8 = PRODUCT_CONTEXT('',#2,'mechanical');
#9 = PRODUCT_DEFINITION_CONTEXT('part definition',#2,'design');
#10 = ADVANCED_BREP_SHAPE_REPRESENTATION('',(#11,#15),#843);
#11 = AXIS2_PLACEMENT_3D('',#12,#13,#14);
#12 = CARTESIAN_POINT('',(0.,0.,0.));
#13 = DIRECTION('',(0.,0.,1.));
#14 = DIRECTION('',(1.,0.,-0.));
#15 = BREP_WITH_VOIDS('',#16,(#429));
#16 = CLOSED_SHELL('',(#17,#57,#104,#144,#184,#217,#264,#281,#298,#322,
    #348,#381,#398,#417));
#17 = ADVANCED_FACE('',(#18),#52,.F.);
#18 = FACE_BOUND('',#19,.F.);
#19 = EDGE_LOOP('',(#20,#30,#38,#46));
#20 = ORIENTED_EDGE('',*,*,#21,.T.);
#21 = EDGE_CURVE('',#22,#24,#26,.T.);
#22 = VERTEX_POINT('',#23);
#23 = CARTESIAN_POINT('',(0.5,0.75,0.));
#24 = VERTEX_POINT('',#25);
#25 = CARTESIAN_POINT('',(0.25,0.5,0.));
#26 = LINE('',#27,#28);
#27 = CARTESIAN_POINT('',(0.5,0.75,0.));
#28 = VECTOR('',#29,1.);
#29 = DIRECTION('',(-0.707106781187,-0.707106781187,0.));
#30 = ORIENTED_EDGE('',*,*,#31,.T.);
#31 = EDGE_CURVE('',#24,#32,#34,.T.);
#32 = VERTEX_POINT('',#33);
#33 = CARTESIAN_POINT('',(0.5,0.25,0.));
#34 = LINE('',#35,#36);
#35 = CARTESIAN_POINT('',(0.25,0.5,0.));
#36 = VECTOR('',#37,1.);
#37 = DIRECTION('',(0.707106781187,-0.707106781187,0.));
#38 = ORIENTED_EDGE('',*,*,#39,.T.);
#39 = EDGE_CURVE('',#32,#40,#42,.T.);
#40 = VERTEX_POINT('',#41);
#41 = CARTESIAN_POINT('',(0.75,0.5,0.));
#42 = LINE('',#43,#44);
#43 = CARTESIAN_POINT('',(0.5,0.25,0.));
#44 = VECTOR('',#45,1.);
#45 = DIRECTION('',(0.707106781187,0.707106781187,0.));
#46 = ORIENTED_EDGE('',*,*,#47,.T.);
#47 = EDGE_CURVE('',#40,#22,#48,.T.);
#48 = LINE('',#49,#50);
#49 = CARTESIAN_POINT('',(0.75,0.5,0.));
#50 = VECTOR('',#51,1.);
#51 = DIRECTION('',(-0.707106781187,0.707106781187,0.));
#52 = PLANE('',#53);
#53 = AXIS2_PLACEMENT_3D('',#54,#55,#56);
#54 = CARTESIAN_POINT('',(0.5,0.5,0.));
#55 = DIRECTION('',(0.,0.,1.));
#56 = DIRECTION('',(1.,0.,0.));
#57 = ADVANCED_FACE('',(#58),#99,.F.);
#58 = FACE_BOUND('',#59,.F.);
#59 = EDGE_LOOP('',(#60,#70,#78,#84,#85,#93));
#60 = ORIENTED_EDGE('',*,*,#61,.T.);
#61 = EDGE_CURVE('',#62,#64,#66,.T.);
#62 = VERTEX_POINT('',#63);
#63 = CARTESIAN_POINT('',(0.25,1.,0.5));
#64 = VERTEX_POINT('',#65);
#65 = CARTESIAN_POINT('',(0.,0.75,0.5));
#66 = LINE('',#67,#68);
#67 = CARTESIAN_POINT('',(0.25,1.,0.5));
#68 = VECTOR('',#69,1.);
#69 = DIRECTION('',(-0.707106781187,-0.707106781187,0.));
#70 = ORIENTED_EDGE('',*,*,#71,.T.);
#71 = EDGE_CURVE('',#64,#72,#74,.T.);
#72 = VERTEX_POINT('',#73);
#73 = CARTESIAN_POINT('',(0.,0.5,0.25));
#74 = LINE('',#75,#76);
#75 = CARTESIAN_POINT('',(0.,0.75,0.5));
#76 = VECTOR('',#77,1.);
#77 = DIRECTION('',(0.,-0.707106781187,-0.707106781187));
#78 = ORIENTED_EDGE('',*,*,#79,.T.);
#79 = EDGE_CURVE('',#72,#24,#80,.T.);
#80 = LINE('',#81,#82);
#81 = CARTESIAN_POINT('',(0.,0.5,0.25));
#82 = VECTOR('',#83,1.);
#83 = DIRECTION('',(0.707106781187,0.,-0.707106781187));
#84 = ORIENTED_EDGE('',*,*,#21,.F.);
#85 = ORIENTED_EDGE('',*,*,#86,.T.);
#86 = EDGE_CURVE('',#22,#87,#89,.T.);
#87 = VERTEX_POINT('',#88);
#88 = CARTESIAN_POINT('',(0.5,1.,0.25));
#89 = LINE('',#90,#91);
#90 = CARTESIAN_POINT('',(0.5,0.75,0.));
#91 = VECTOR('',#92,1.);
#92 = DIRECTION('',(0.,0.707106781187,0.707106781187));
#93 = ORIENTED_EDGE('',*,*,#94,.T.);
#94 = EDGE_CURVE('',#87,#62,#95,.T.);
#95 = LINE('',#96,#97);
#96 = CARTESIAN_POINT('',(0.5,1.,0.25));
#97 = VECTOR('',#98,1.);
#98 = DIRECTION('',(-0.707106781187,0.,0.707106781187));
#99 = PLANE('',#100);
#100 = AXIS2_PLACEMENT_3D('',#101,#102,#103);
#101 = CARTESIAN_POINT('',(0.25,0.75,0.25));
#102 = DIRECTION('',(0.57735026919,-0.57735026919,0.57735026919));
#103 = DIRECTION('',(0.707106781187,0.,-0.707106781187));
#104 = ADVANCED_FACE('',(#105),#139,.T.);
#105 = FACE_BOUND('',#106,.T.);
#106 = EDGE_LOOP('',(#107,#117,#125,#131,#132,#133));
#107 = ORIENTED_EDGE('',*,*,#108,.T.);
#108 = EDGE_CURVE('',#109,#111,#113,.T.);
#109 = VERTEX_POINT('',#110);
#110 = CARTESIAN_POINT('',(0.5,0.,0.25));
#111 = VERTEX_POINT('',#112);
#112 = CARTESIAN_POINT('',(0.25,0.,0.5));
#113 = LINE('',#114,#115);
#114 = CARTESIAN_POINT('',(0.5,0.,0.25));
#115 = VECTOR('',#116,1.);
#116 = DIRECTION('',(-0.707106781187,0.,0.707106781187));
#117 = ORIENTED_EDGE('',*,*,#118,.T.);
#118 = EDGE_CURVE('',#111,#119,#121,.T.);
#119 = VERTEX_POINT('',#120);
#120 = CARTESIAN_POINT('',(0.,0.25,0.5));
#121 = LINE('',#122,#123);
#122 = CARTESIAN_POINT('',(0.25,0.,0.5));
#123 = VECTOR('',#124,1.);
#124 = DIRECTION('',(-0.707106781187,0.707106781187,0.));
#125 = ORIENTED_EDGE('',*,*,#126,.F.);
#126 = EDGE_CURVE('',#72,#119,#127,.T.);
#127 = LINE('',#128,#129);
#128 = CARTESIAN_POINT('',(0.,0.5,0.25));
#129 = VECTOR('',#130,1.);
#130 = DIRECTION('',(0.,-0.707106781187,0.707106781187));
#131 = ORIENTED_EDGE('',*,*,#79,.T.);
#132 = ORIENTED_EDGE('',*,*,#31,.T.);
#133 = ORIENTED_EDGE('',*,*,#134,.T.);
#134 = EDGE_CURVE('',#32,#109,#135,.T.);
#135 = LINE('',#136,#137);
#136 = CARTESIAN_POINT('',(0.5,0.25,0.));
#137 = VECTOR('',#138,1.);
#138 = DIRECTION('',(0.,-0.707106781187,0.707106781187));
#139 = PLANE('',#140);
#140 = AXIS2_PLACEMENT_3D('',#141,#142,#143);
#141 = CARTESIAN_POINT('',(0.25,0.25,0.25));
#142 = DIRECTION('',(-0.57735026919,-0.57735026919,-0.57735026919));
#143 = DIRECTION('',(-0.707106781187,0.,0.707106781187));
#144 = ADVANCED_FACE('',(#145),#179,.F.);
#145 = FACE_BOUND('',#146,.F.);
#146 = EDGE_LOOP('',(#147,#155,#163,#171,#177,#178));
#147 = ORIENTED_EDGE('',*,*,#148,.F.);
#148 = EDGE_CURVE('',#149,#109,#151,.T.);
#149 = VERTEX_POINT('',#150);
#150 = CARTESIAN_POINT('',(0.75,0.,0.5));
#151 = LINE('',#152,#153);
#152 = CARTESIAN_POINT('',(0.75,0.,0.5));
#153 = VECTOR('',#154,1.);
#154 = DIRECTION('',(-0.707106781187,0.,-0.707106781187));
#155 = ORIENTED_EDGE('',*,*,#156,.T.);
#156 = EDGE_CURVE('',#149,#157,#159,.T.);
#157 = VERTEX_POINT('',#158);
#158 = CARTESIAN_POINT('',(1.,0.25,0.5));
#159 = LINE('',#160,#161);
#160 = CARTESIAN_POINT('',(1.,0.25,0.5));
#161 = VECTOR('',#162,1.);
#162 = DIRECTION('',(0.707106781187,0.707106781187,0.));
#163 = ORIENTED_EDGE('',*,*,#164,.F.);
#164 = EDGE_CURVE('',#165,#157,#167,.T.);
#165 = VERTEX_POINT('',#166);
#166 = CARTESIAN_POINT('',(1.,0.5,0.25));
#167 = LINE('',#168,#169);
#168 = CARTESIAN_POINT('',(1.,0.5,0.25));
#169 = VECTOR('',#170,1.);
#170 = DIRECTION('',(0.,-0.707106781187,0.707106781187));
#171 = ORIENTED_EDGE('',*,*,#172,.T.);
#172 = EDGE_CURVE('',#165,#40,#173,.T.);
#173 = LINE('',#174,#175);
#174 = CARTESIAN_POINT('',(1.,0.5,0.25));
#175 = VECTOR('',#176,1.);
#176 = DIRECTION('',(-0.707106781187,0.,-0.707106781187));
#177 = ORIENTED_EDGE('',*,*,#39,.F.);
#178 = ORIENTED_EDGE('',*,*,#134,.T.);
#179 = PLANE('',#180);
#180 = AXIS2_PLACEMENT_3D('',#181,#182,#183);
#181 = CARTESIAN_POINT('',(0.75,0.25,0.25));
#182 = DIRECTION('',(-0.57735026919,0.57735026919,0.57735026919));
#183 = DIRECTION('',(-0.707106781187,0.,-0.707106781187));
#184 = ADVANCED_FACE('',(#185),#212,.F.);
#185 = FACE_BOUND('',#186,.F.);
#186 = EDGE_LOOP('',(#187,#195,#203,#209,#210,#211));
#187 = ORIENTED_EDGE('',*,*,#188,.F.);
#188 = EDGE_CURVE('',#189,#165,#191,.T.);
#189 = VERTEX_POINT('',#190);
#190 = CARTESIAN_POINT('',(1.,0.75,0.5));
#191 = LINE('',#192,#193);
#192 = CARTESIAN_POINT('',(1.,0.75,0.5));
#193 = VECTOR('',#194,1.);
#194 = DIRECTION('',(0.,-0.707106781187,-0.707106781187));
#195 = ORIENTED_EDGE('',*,*,#196,.F.);
#196 = EDGE_CURVE('',#197,#189,#199,.T.);
#197 = VERTEX_POINT('',#198);
#198 = CARTESIAN_POINT('',(0.75,1.,0.5));
#199 = LINE('',#200,#201);
#200 = CARTESIAN_POINT('',(0.75,1.,0.5));
#201 = VECTOR('',#202,1.);
#202 = DIRECTION('',(0.707106781187,-0.707106781187,0.));
#203 = ORIENTED_EDGE('',*,*,#204,.T.);
#204 = EDGE_CURVE('',#197,#87,#205,.T.);
#205 = LINE('',#206,#207);
#206 = CARTESIAN_POINT('',(0.75,1.,0.5));
#207 = VECTOR('',#208,1.);
#208 = DIRECTION('',(-0.707106781187,0.,-0.707106781187));
#209 = ORIENTED_EDGE('',*,*,#86,.F.);
#210 = ORIENTED_EDGE('',*,*,#47,.F.);
#211 = ORIENTED_EDGE('',*,*,#172,.F.);
#212 = PLANE('',#213);
#213 = AXIS2_PLACEMENT_3D('',#214,#215,#216);
#214 = CARTESIAN_POINT('',(0.75,0.75,0.25));
#215 = DIRECTION('',(-0.57735026919,-0.57735026919,0.57735026919));
#216 = DIRECTION('',(0.707106781187,0.,0.707106781187));
#217 = ADVANCED_FACE('',(#218),#259,.T.);
#218 = FACE_BOUND('',#219,.T.);
#219 = EDGE_LOOP('',(#220,#230,#238,#246,#252,#253));
#220 = ORIENTED_EDGE('',*,*,#221,.T.);
#221 = EDGE_CURVE('',#222,#224,#226,.T.);
#222 = VERTEX_POINT('',#223);
#223 = CARTESIAN_POINT('',(0.,0.5,0.75));
#224 = VERTEX_POINT('',#225);
#225 = CARTESIAN_POINT('',(0.25,0.5,1.));
#226 = LINE('',#227,#228);
#227 = CARTESIAN_POINT('',(0.,0.5,0.75));
#228 = VECTOR('',#229,1.);
#229 = DIRECTION('',(0.707106781187,0.,0.707106781187));
#230 = ORIENTED_EDGE('',*,*,#231,.F.);
#231 = EDGE_CURVE('',#232,#224,#234,.T.);
#232 = VERTEX_POINT('',#233);
#233 = CARTESIAN_POINT('',(0.5,0.75,1.));
#234 = LINE('',#235,#236);
#235 = CARTESIAN_POINT('',(0.5,0.75,1.));
#236 = VECTOR('',#237,1.);
#237 = DIRECTION('',(-0.707106781187,-0.707106781187,0.));
#238 = ORIENTED_EDGE('',*,*,#239,.T.);
#239 = EDGE_CURVE('',#232,#240,#242,.T.);
#240 = VERTEX_POINT('',#241);
#241 = CARTESIAN_POINT('',(0.5,1.,0.75));
#242 = LINE('',#243,#244);
#243 = CARTESIAN_POINT('',(0.5,1.,0.75));
#244 = VECTOR('',#245,1.);
#245 = DIRECTION('',(0.,0.707106781187,-0.707106781187));
#246 = ORIENTED_EDGE('',*,*,#247,.F.);
#247 = EDGE_CURVE('',#62,#240,#248,.T.);
#248 = LINE('',#249,#250);
#249 = CARTESIAN_POINT('',(0.5,1.,0.75));
#250 = VECTOR('',#251,1.);
#251 = DIRECTION('',(0.707106781187,0.,0.707106781187));
#252 = ORIENTED_EDGE('',*,*,#61,.T.);
#253 = ORIENTED_EDGE('',*,*,#254,.F.);
#254 = EDGE_CURVE('',#222,#64,#255,.T.);
#255 = LINE('',#256,#257);
#256 = CARTESIAN_POINT('',(0.,0.5,0.75));
#257 = VECTOR('',#258,1.);
#258 = DIRECTION('',(0.,0.707106781187,-0.707106781187));
#259 = PLANE('',#260);
#260 = AXIS2_PLACEMENT_3D('',#261,#262,#263);
#261 = CARTESIAN_POINT('',(0.25,0.75,0.75));
#262 = DIRECTION('',(-0.57735026919,0.57735026919,0.57735026919));
#263 = DIRECTION('',(-0.707106781187,0.,-0.707106781187));
#264 = ADVANCED_FACE('',(#265),#276,.T.);
#265 = FACE_BOUND('',#266,.T.);
#266 = EDGE_LOOP('',(#267,#268,#269,#270));
#267 = ORIENTED_EDGE('',*,*,#254,.T.);
#268 = ORIENTED_EDGE('',*,*,#71,.T.);
#269 = ORIENTED_EDGE('',*,*,#126,.T.);
#270 = ORIENTED_EDGE('',*,*,#271,.T.);
#271 = EDGE_CURVE('',#119,#222,#272,.T.);
#272 = LINE('',#273,#274);
#273 = CARTESIAN_POINT('',(0.,0.25,0.5));
#274 = VECTOR('',#275,1.);
#275 = DIRECTION('',(0.,0.707106781187,0.707106781187));
#276 = PLANE('',#277);
#277 = AXIS2_PLACEMENT_3D('',#278,#279,#280);
#278 = CARTESIAN_POINT('',(0.,0.5,0.5));
#279 = DIRECTION('',(-1.,-0.,-0.));
#280 = DIRECTION('',(0.,0.,-1.));
#281 = ADVANCED_FACE('',(#282),#293,.T.);
#282 = FACE_BOUND('',#283,.T.);
#283 = EDGE_LOOP('',(#284,#290,#291,#292));
#284 = ORIENTED_EDGE('',*,*,#285,.T.);
#285 = EDGE_CURVE('',#240,#197,#286,.T.);
#286 = LINE('',#287,#288);
#287 = CARTESIAN_POINT('',(0.75,1.,0.5));
#288 = VECTOR('',#289,1.);
#289 = DIRECTION('',(0.707106781187,0.,-0.707106781187));
#290 = ORIENTED_EDGE('',*,*,#204,.T.);
#291 = ORIENTED_EDGE('',*,*,#94,.T.);
#292 = ORIENTED_EDGE('',*,*,#247,.T.);
#293 = PLANE('',#294);
#294 = AXIS2_PLACEMENT_3D('',#295,#296,#297);
#295 = CARTESIAN_POINT('',(0.5,1.,0.5));
#296 = DIRECTION('',(0.,1.,0.));
#297 = DIRECTION('',(0.,0.,1.));
#298 = ADVANCED_FACE('',(#299),#317,.F.);
#299 = FACE_BOUND('',#300,.F.);
#300 = EDGE_LOOP('',(#301,#309,#310,#311));
#301 = ORIENTED_EDGE('',*,*,#302,.T.);
#302 = EDGE_CURVE('',#303,#149,#305,.T.);
#303 = VERTEX_POINT('',#304);
#304 = CARTESIAN_POINT('',(0.5,0.,0.75));
#305 = LINE('',#306,#307);
#306 = CARTESIAN_POINT('',(0.75,0.,0.5));
#307 = VECTOR('',#308,1.);
#308 = DIRECTION('',(0.707106781187,0.,-0.707106781187));
#309 = ORIENTED_EDGE('',*,*,#148,.T.);
#310 = ORIENTED_EDGE('',*,*,#108,.T.);
#311 = ORIENTED_EDGE('',*,*,#312,.T.);
#312 = EDGE_CURVE('',#111,#303,#313,.T.);
#313 = LINE('',#314,#315);
#314 = CARTESIAN_POINT('',(0.5,0.,0.75));
#315 = VECTOR('',#316,1.);
#316 = DIRECTION('',(0.707106781187,0.,0.707106781187));
#317 = PLANE('',#318);
#318 = AXIS2_PLACEMENT_3D('',#319,#320,#321);
#319 = CARTESIAN_POINT('',(0.5,0.,0.5));
#320 = DIRECTION('',(0.,1.,0.));
#321 = DIRECTION('',(0.,0.,1.));
#322 = ADVANCED_FACE('',(#323),#343,.T.);
#323 = FACE_BOUND('',#324,.T.);
#324 = EDGE_LOOP('',(#325,#333,#339,#340,#341,#342));
#325 = ORIENTED_EDGE('',*,*,#326,.F.);
#326 = EDGE_CURVE('',#327,#303,#329,.T.);
#327 = VERTEX_POINT('',#328);
#328 = CARTESIAN_POINT('',(0.5,0.25,1.));
#329 = LINE('',#330,#331);
#330 = CARTESIAN_POINT('',(0.5,0.,0.75));
#331 = VECTOR('',#332,1.);
#332 = DIRECTION('',(-0.,-0.707106781187,-0.707106781187));
#333 = ORIENTED_EDGE('',*,*,#334,.F.);
#334 = EDGE_CURVE('',#224,#327,#335,.T.);
#335 = LINE('',#336,#337);
#336 = CARTESIAN_POINT('',(0.25,0.5,1.));
#337 = VECTOR('',#338,1.);
#338 = DIRECTION('',(0.707106781187,-0.707106781187,0.));
#339 = ORIENTED_EDGE('',*,*,#221,.F.);
#340 = ORIENTED_EDGE('',*,*,#271,.F.);
#341 = ORIENTED_EDGE('',*,*,#118,.F.);
#342 = ORIENTED_EDGE('',*,*,#312,.T.);
#343 = PLANE('',#344);
#344 = AXIS2_PLACEMENT_3D('',#345,#346,#347);
#345 = CARTESIAN_POINT('',(0.25,0.25,0.75));
#346 = DIRECTION('',(-0.57735026919,-0.57735026919,0.57735026919));
#347 = DIRECTION('',(0.707106781187,0.,0.707106781187));
#348 = ADVANCED_FACE('',(#349),#376,.T.);
#349 = FACE_BOUND('',#350,.T.);
#350 = EDGE_LOOP('',(#351,#359,#360,#361,#362,#370));
#351 = ORIENTED_EDGE('',*,*,#352,.F.);
#352 = EDGE_CURVE('',#327,#353,#355,.T.);
#353 = VERTEX_POINT('',#354);
#354 = CARTESIAN_POINT('',(0.75,0.5,1.));
#355 = LINE('',#356,#357);
#356 = CARTESIAN_POINT('',(0.5,0.25,1.));
#357 = VECTOR('',#358,1.);
#358 = DIRECTION('',(0.707106781187,0.707106781187,0.));
#359 = ORIENTED_EDGE('',*,*,#326,.T.);
#360 = ORIENTED_EDGE('',*,*,#302,.T.);
#361 = ORIENTED_EDGE('',*,*,#156,.T.);
#362 = ORIENTED_EDGE('',*,*,#363,.T.);
#363 = EDGE_CURVE('',#157,#364,#366,.T.);
#364 = VERTEX_POINT('',#365);
#365 = CARTESIAN_POINT('',(1.,0.5,0.75));
#366 = LINE('',#367,#368);
#367 = CARTESIAN_POINT('',(1.,0.25,0.5));
#368 = VECTOR('',#369,1.);
#369 = DIRECTION('',(0.,0.707106781187,0.707106781187));
#370 = ORIENTED_EDGE('',*,*,#371,.T.);
#371 = EDGE_CURVE('',#364,#353,#372,.T.);
#372 = LINE('',#373,#374);
#373 = CARTESIAN_POINT('',(1.,0.5,0.75));
#374 = VECTOR('',#375,1.);
#375 = DIRECTION('',(-0.707106781187,0.,0.707106781187));
#376 = PLANE('',#377);
#377 = AXIS2_PLACEMENT_3D('',#378,#379,#380);
#378 = CARTESIAN_POINT('',(0.75,0.25,0.75));
#379 = DIRECTION('',(0.57735026919,-0.57735026919,0.57735026919));
#380 = DIRECTION('',(0.707106781187,0.,-0.707106781187));
#381 = ADVANCED_FACE('',(#382),#393,.F.);
#382 = FACE_BOUND('',#383,.F.);
#383 = EDGE_LOOP('',(#384,#390,#391,#392));
#384 = ORIENTED_EDGE('',*,*,#385,.T.);
#385 = EDGE_CURVE('',#364,#189,#386,.T.);
#386 = LINE('',#387,#388);
#387 = CARTESIAN_POINT('',(1.,0.5,0.75));
#388 = VECTOR('',#389,1.);
#389 = DIRECTION('',(0.,0.707106781187,-0.707106781187));
#390 = ORIENTED_EDGE('',*,*,#188,.T.);
#391 = ORIENTED_EDGE('',*,*,#164,.T.);
#392 = ORIENTED_EDGE('',*,*,#363,.T.);
#393 = PLANE('',#394);
#394 = AXIS2_PLACEMENT_3D('',#395,#396,#397);
#395 = CARTESIAN_POINT('',(1.,0.5,0.5));
#396 = DIRECTION('',(-1.,-0.,-0.));
#397 = DIRECTION('',(0.,0.,-1.));
#398 = ADVANCED_FACE('',(#399),#412,.F.);
#399 = FACE_BOUND('',#400,.F.);
#400 = EDGE_LOOP('',(#401,#402,#408,#409,#410,#411));
#401 = ORIENTED_EDGE('',*,*,#371,.T.);
#402 = ORIENTED_EDGE('',*,*,#403,.T.);
#403 = EDGE_CURVE('',#353,#232,#404,.T.);
#404 = LINE('',#405,#406);
#405 = CARTESIAN_POINT('',(0.75,0.5,1.));
#406 = VECTOR('',#407,1.);
#407 = DIRECTION('',(-0.707106781187,0.707106781187,0.));
#408 = ORIENTED_EDGE('',*,*,#239,.T.);
#409 = ORIENTED_EDGE('',*,*,#285,.T.);
#410 = ORIENTED_EDGE('',*,*,#196,.T.);
#411 = ORIENTED_EDGE('',*,*,#385,.F.);
#412 = PLANE('',#413);
#413 = AXIS2_PLACEMENT_3D('',#414,#415,#416);
#414 = CARTESIAN_POINT('',(0.75,0.75,0.75));
#415 = DIRECTION('',(-0.57735026919,-0.57735026919,-0.57735026919));
#416 = DIRECTION('',(-0.707106781187,0.,0.707106781187));
#417 = ADVANCED_FACE('',(#418),#424,.T.);
#418 = FACE_BOUND('',#419,.T.);
#419 = EDGE_LOOP('',(#420,#421,#422,#423));
#420 = ORIENTED_EDGE('',*,*,#231,.T.);
#421 = ORIENTED_EDGE('',*,*,#334,.T.);
#422 = ORIENTED_EDGE('',*,*,#352,.T.);
#423 = ORIENTED_EDGE('',*,*,#403,.T.);
#424 = PLANE('',#425);
#425 = AXIS2_PLACEMENT_3D('',#426,#427,#428);
#426 = CARTESIAN_POINT('',(0.5,0.5,1.));
#427 = DIRECTION('',(0.,0.,1.));
#428 = DIRECTION('',(1.,0.,0.));
#429 = ORIENTED_CLOSED_SHELL('',*,#430,.F.);
#430 = CLOSED_SHELL('',(#431,#471,#518,#558,#598,#631,#678,#695,#712,
    #736,#762,#795,#812,#831));
#431 = ADVANCED_FACE('',(#432),#466,.F.);
#432 = FACE_BOUND('',#433,.F.);
#433 = EDGE_LOOP('',(#434,#444,#452,#460));
#434 = ORIENTED_EDGE('',*,*,#435,.T.);
#435 = EDGE_CURVE('',#436,#438,#440,.T.);
#436 = VERTEX_POINT('',#437);
#437 = CARTESIAN_POINT('',(0.5,0.7375,2.5E-02));
#438 = VERTEX_POINT('',#439);
#439 = CARTESIAN_POINT('',(0.2625,0.5,2.5E-02));
#440 = LINE('',#441,#442);
#441 = CARTESIAN_POINT('',(0.5,0.7375,2.5E-02));
#442 = VECTOR('',#443,1.);
#443 = DIRECTION('',(-0.707106781187,-0.707106781187,0.));
#444 = ORIENTED_EDGE('',*,*,#445,.T.);
#445 = EDGE_CURVE('',#438,#446,#448,.T.);
#446 = VERTEX_POINT('',#447);
#447 = CARTESIAN_POINT('',(0.5,0.2625,2.5E-02));
#448 = LINE('',#449,#450);
#449 = CARTESIAN_POINT('',(0.2625,0.5,2.5E-02));
#450 = VECTOR('',#451,1.);
#451 = DIRECTION('',(0.707106781187,-0.707106781187,0.));
#452 = ORIENTED_EDGE('',*,*,#453,.T.);
#453 = EDGE_CURVE('',#446,#454,#456,.T.);
#454 = VERTEX_POINT('',#455);
#455 = CARTESIAN_POINT('',(0.7375,0.5,2.5E-02));
#456 = LINE('',#457,#458);
#457 = CARTESIAN_POINT('',(0.5,0.2625,2.5E-02));
#458 = VECTOR('',#459,1.);
#459 = DIRECTION('',(0.707106781187,0.707106781187,0.));
#460 = ORIENTED_EDGE('',*,*,#461,.T.);
#461 = EDGE_CURVE('',#454,#436,#462,.T.);
#462 = LINE('',#463,#464);
#463 = CARTESIAN_POINT('',(0.7375,0.5,2.5E-02));
#464 = VECTOR('',#465,1.);
#465 = DIRECTION('',(-0.707106781187,0.707106781187,0.));
#466 = PLANE('',#467);
#467 = AXIS2_PLACEMENT_3D('',#468,#469,#470);
#468 = CARTESIAN_POINT('',(0.5,0.5,2.5E-02));
#469 = DIRECTION('',(0.,0.,1.));
#470 = DIRECTION('',(1.,0.,0.));
#471 = ADVANCED_FACE('',(#472),#513,.F.);
#472 = FACE_BOUND('',#473,.F.);
#473 = EDGE_LOOP('',(#474,#484,#492,#498,#499,#507));
#474 = ORIENTED_EDGE('',*,*,#475,.T.);
#475 = EDGE_CURVE('',#476,#478,#480,.T.);
#476 = VERTEX_POINT('',#477);
#477 = CARTESIAN_POINT('',(0.2625,0.975,0.5));
#478 = VERTEX_POINT('',#479);
#479 = CARTESIAN_POINT('',(2.5E-02,0.7375,0.5));
#480 = LINE('',#481,#482);
#481 = CARTESIAN_POINT('',(0.2625,0.975,0.5));
#482 = VECTOR('',#483,1.);
#483 = DIRECTION('',(-0.707106781187,-0.707106781187,0.));
#484 = ORIENTED_EDGE('',*,*,#485,.T.);
#485 = EDGE_CURVE('',#478,#486,#488,.T.);
#486 = VERTEX_POINT('',#487);
#487 = CARTESIAN_POINT('',(2.5E-02,0.5,0.2625));
#488 = LINE('',#489,#490);
#489 = CARTESIAN_POINT('',(2.5E-02,0.7375,0.5));
#490 = VECTOR('',#491,1.);
#491 = DIRECTION('',(0.,-0.707106781187,-0.707106781187));
#492 = ORIENTED_EDGE('',*,*,#493,.T.);
#493 = EDGE_CURVE('',#486,#438,#494,.T.);
#494 = LINE('',#495,#496);
#495 = CARTESIAN_POINT('',(2.5E-02,0.5,0.2625));
#496 = VECTOR('',#497,1.);
#497 = DIRECTION('',(0.707106781187,0.,-0.707106781187));
#498 = ORIENTED_EDGE('',*,*,#435,.F.);
#499 = ORIENTED_EDGE('',*,*,#500,.T.);
#500 = EDGE_CURVE('',#436,#501,#503,.T.);
#501 = VERTEX_POINT('',#502);
#502 = CARTESIAN_POINT('',(0.5,0.975,0.2625));
#503 = LINE('',#504,#505);
#504 = CARTESIAN_POINT('',(0.5,0.7375,2.5E-02));
#505 = VECTOR('',#506,1.);
#506 = DIRECTION('',(0.,0.707106781187,0.707106781187));
#507 = ORIENTED_EDGE('',*,*,#508,.T.);
#508 = EDGE_CURVE('',#501,#476,#509,.T.);
#509 = LINE('',#510,#511);
#510 = CARTESIAN_POINT('',(0.5,0.975,0.2625));
#511 = VECTOR('',#512,1.);
#512 = DIRECTION('',(-0.707106781187,0.,0.707106781187));
#513 = PLANE('',#514);
#514 = AXIS2_PLACEMENT_3D('',#515,#516,#517);
#515 = CARTESIAN_POINT('',(0.2625,0.7375,0.2625));
#516 = DIRECTION('',(0.57735026919,-0.57735026919,0.57735026919));
#517 = DIRECTION('',(0.707106781187,0.,-0.707106781187));
#518 = ADVANCED_FACE('',(#519),#553,.T.);
#519 = FACE_BOUND('',#520,.T.);
#520 = EDGE_LOOP('',(#521,#531,#539,#545,#546,#547));
#521 = ORIENTED_EDGE('',*,*,#522,.T.);
#522 = EDGE_CURVE('',#523,#525,#527,.T.);
#523 = VERTEX_POINT('',#524);
#524 = CARTESIAN_POINT('',(0.5,2.5E-02,0.2625));
#525 = VERTEX_POINT('',#526);
#526 = CARTESIAN_POINT('',(0.2625,2.5E-02,0.5));
#527 = LINE('',#528,#529);
#528 = CARTESIAN_POINT('',(0.5,2.5E-02,0.2625));
#529 = VECTOR('',#530,1.);
#530 = DIRECTION('',(-0.707106781187,0.,0.707106781187));
#531 = ORIENTED_EDGE('',*,*,#532,.T.);
#532 = EDGE_CURVE('',#525,#533,#535,.T.);
#533 = VERTEX_POINT('',#534);
#534 = CARTESIAN_POINT('',(2.5E-02,0.2625,0.5));
#535 = LINE('',#536,#537);
#536 = CARTESIAN_POINT('',(0.2625,2.5E-02,0.5));
#537 = VECTOR('',#538,1.);
#538 = DIRECTION('',(-0.707106781187,0.707106781187,0.));
#539 = ORIENTED_EDGE('',*,*,#540,.F.);
#540 = EDGE_CURVE('',#486,#533,#541,.T.);
#541 = LINE('',#542,#543);
#542 = CARTESIAN_POINT('',(2.5E-02,0.5,0.2625));
#543 = VECTOR('',#544,1.);
#544 = DIRECTION('',(0.,-0.707106781187,0.707106781187));
#545 = ORIENTED_EDGE('',*,*,#493,.T.);
#546 = ORIENTED_EDGE('',*,*,#445,.T.);
#547 = ORIENTED_EDGE('',*,*,#548,.T.);
#548 = EDGE_CURVE('',#446,#523,#549,.T.);
#549 = LINE('',#550,#551);
#550 = CARTESIAN_POINT('',(0.5,0.2625,2.5E-02));
#551 = VECTOR('',#552,1.);
#552 = DIRECTION('',(0.,-0.707106781187,0.707106781187));
#553 = PLANE('',#554);
#554 = AXIS2_PLACEMENT_3D('',#555,#556,#557);
#555 = CARTESIAN_POINT('',(0.2625,0.2625,0.2625));
#556 = DIRECTION('',(-0.57735026919,-0.57735026919,-0.57735026919));
#557 = DIRECTION('',(-0.707106781187,0.,0.707106781187));
#558 = ADVANCED_FACE('',(#559),#593,.F.);
#559 = FACE_BOUND('',#560,.F.);
#560 = EDGE_LOOP('',(#561,#569,#577,#585,#591,#592));
#561 = ORIENTED_EDGE('',*,*,#562,.F.);
#562 = EDGE_CURVE('',#563,#523,#565,.T.);
#563 = VERTEX_POINT('',#564);
#564 = CARTESIAN_POINT('',(0.7375,2.5E-02,0.5));
#565 = LINE('',#566,#567);
#566 = CARTESIAN_POINT('',(0.7375,2.5E-02,0.5));
#567 = VECTOR('',#568,1.);
#568 = DIRECTION('',(-0.707106781187,0.,-0.707106781187));
#569 = ORIENTED_EDGE('',*,*,#570,.T.);
#570 = EDGE_CURVE('',#563,#571,#573,.T.);
#571 = VERTEX_POINT('',#572);
#572 = CARTESIAN_POINT('',(0.975,0.2625,0.5));
#573 = LINE('',#574,#575);
#574 = CARTESIAN_POINT('',(0.975,0.2625,0.5));
#575 = VECTOR('',#576,1.);
#576 = DIRECTION('',(0.707106781187,0.707106781187,0.));
#577 = ORIENTED_EDGE('',*,*,#578,.F.);
#578 = EDGE_CURVE('',#579,#571,#581,.T.);
#579 = VERTEX_POINT('',#580);
#580 = CARTESIAN_POINT('',(0.975,0.5,0.2625));
#581 = LINE('',#582,#583);
#582 = CARTESIAN_POINT('',(0.975,0.5,0.2625));
#583 = VECTOR('',#584,1.);
#584 = DIRECTION('',(0.,-0.707106781187,0.707106781187));
#585 = ORIENTED_EDGE('',*,*,#586,.T.);
#586 = EDGE_CURVE('',#579,#454,#587,.T.);
#587 = LINE('',#588,#589);
#588 = CARTESIAN_POINT('',(0.975,0.5,0.2625));
#589 = VECTOR('',#590,1.);
#590 = DIRECTION('',(-0.707106781187,0.,-0.707106781187));
#591 = ORIENTED_EDGE('',*,*,#453,.F.);
#592 = ORIENTED_EDGE('',*,*,#548,.T.);
#593 = PLANE('',#594);
#594 = AXIS2_PLACEMENT_3D('',#595,#596,#597);
#595 = CARTESIAN_POINT('',(0.7375,0.2625,0.2625));
#596 = DIRECTION('',(-0.57735026919,0.57735026919,0.57735026919));
#597 = DIRECTION('',(-0.707106781187,0.,-0.707106781187));
#598 = ADVANCED_FACE('',(#599),#626,.F.);
#599 = FACE_BOUND('',#600,.F.);
#600 = EDGE_LOOP('',(#601,#609,#617,#623,#624,#625));
#601 = ORIENTED_EDGE('',*,*,#602,.F.);
#602 = EDGE_CURVE('',#603,#579,#605,.T.);
#603 = VERTEX_POINT('',#604);
#604 = CARTESIAN_POINT('',(0.975,0.7375,0.5));
#605 = LINE('',#606,#607);
#606 = CARTESIAN_POINT('',(0.975,0.7375,0.5));
#607 = VECTOR('',#608,1.);
#608 = DIRECTION('',(0.,-0.707106781187,-0.707106781187));
#609 = ORIENTED_EDGE('',*,*,#610,.F.);
#610 = EDGE_CURVE('',#611,#603,#613,.T.);
#611 = VERTEX_POINT('',#612);
#612 = CARTESIAN_POINT('',(0.7375,0.975,0.5));
#613 = LINE('',#614,#615);
#614 = CARTESIAN_POINT('',(0.7375,0.975,0.5));
#615 = VECTOR('',#616,1.);
#616 = DIRECTION('',(0.707106781187,-0.707106781187,0.));
#617 = ORIENTED_EDGE('',*,*,#618,.T.);
#618 = EDGE_CURVE('',#611,#501,#619,.T.);
#619 = LINE('',#620,#621);
#620 = CARTESIAN_POINT('',(0.7375,0.975,0.5));
#621 = VECTOR('',#622,1.);
#622 = DIRECTION('',(-0.707106781187,0.,-0.707106781187));
#623 = ORIENTED_EDGE('',*,*,#500,.F.);
#624 = ORIENTED_EDGE('',*,*,#461,.F.);
#625 = ORIENTED_EDGE('',*,*,#586,.F.);
#626 = PLANE('',#627);
#627 = AXIS2_PLACEMENT_3D('',#628,#629,#630);
#628 = CARTESIAN_POINT('',(0.7375,0.7375,0.2625));
#629 = DIRECTION('',(-0.57735026919,-0.57735026919,0.57735026919));
#630 = DIRECTION('',(0.707106781187,0.,0.707106781187));
#631 = ADVANCED_FACE('',(#632),#673,.T.);
#632 = FACE_BOUND('',#633,.T.);
#633 = EDGE_LOOP('',(#634,#644,#652,#660,#666,#667));
#634 = ORIENTED_EDGE('',*,*,#635,.T.);
#635 = EDGE_CURVE('',#636,#638,#640,.T.);
#636 = VERTEX_POINT('',#637);
#637 = CARTESIAN_POINT('',(2.5E-02,0.5,0.7375));
#638 = VERTEX_POINT('',#639);
#639 = CARTESIAN_POINT('',(0.2625,0.5,0.975));
#640 = LINE('',#641,#642);
#641 = CARTESIAN_POINT('',(2.5E-02,0.5,0.7375));
#642 = VECTOR('',#643,1.);
#643 = DIRECTION('',(0.707106781187,0.,0.707106781187));
#644 = ORIENTED_EDGE('',*,*,#645,.F.);
#645 = EDGE_CURVE('',#646,#638,#648,.T.);
#646 = VERTEX_POINT('',#647);
#647 = CARTESIAN_POINT('',(0.5,0.7375,0.975));
#648 = LINE('',#649,#650);
#649 = CARTESIAN_POINT('',(0.5,0.7375,0.975));
#650 = VECTOR('',#651,1.);
#651 = DIRECTION('',(-0.707106781187,-0.707106781187,0.));
#652 = ORIENTED_EDGE('',*,*,#653,.T.);
#653 = EDGE_CURVE('',#646,#654,#656,.T.);
#654 = VERTEX_POINT('',#655);
#655 = CARTESIAN_POINT('',(0.5,0.975,0.7375));
#656 = LINE('',#657,#658);
#657 = CARTESIAN_POINT('',(0.5,0.975,0.7375));
#658 = VECTOR('',#659,1.);
#659 = DIRECTION('',(0.,0.707106781187,-0.707106781187));
#660 = ORIENTED_EDGE('',*,*,#661,.F.);
#661 = EDGE_CURVE('',#476,#654,#662,.T.);
#662 = LINE('',#663,#664);
#663 = CARTESIAN_POINT('',(0.5,0.975,0.7375));
#664 = VECTOR('',#665,1.);
#665 = DIRECTION('',(0.707106781187,0.,0.707106781187));
#666 = ORIENTED_EDGE('',*,*,#475,.T.);
#667 = ORIENTED_EDGE('',*,*,#668,.F.);
#668 = EDGE_CURVE('',#636,#478,#669,.T.);
#669 = LINE('',#670,#671);
#670 = CARTESIAN_POINT('',(2.5E-02,0.5,0.7375));
#671 = VECTOR('',#672,1.);
#672 = DIRECTION('',(0.,0.707106781187,-0.707106781187));
#673 = PLANE('',#674);
#674 = AXIS2_PLACEMENT_3D('',#675,#676,#677);
#675 = CARTESIAN_POINT('',(0.2625,0.7375,0.7375));
#676 = DIRECTION('',(-0.57735026919,0.57735026919,0.57735026919));
#677 = DIRECTION('',(-0.707106781187,0.,-0.707106781187));
#678 = ADVANCED_FACE('',(#679),#690,.T.);
#679 = FACE_BOUND('',#680,.T.);
#680 = EDGE_LOOP('',(#681,#682,#683,#684));
#681 = ORIENTED_EDGE('',*,*,#668,.T.);
#682 = ORIENTED_EDGE('',*,*,#485,.T.);
#683 = ORIENTED_EDGE('',*,*,#540,.T.);
#684 = ORIENTED_EDGE('',*,*,#685,.T.);
#685 = EDGE_CURVE('',#533,#636,#686,.T.);
#686 = LINE('',#687,#688);
#687 = CARTESIAN_POINT('',(2.5E-02,0.2625,0.5));
#688 = VECTOR('',#689,1.);
#689 = DIRECTION('',(0.,0.707106781187,0.707106781187));
#690 = PLANE('',#691);
#691 = AXIS2_PLACEMENT_3D('',#692,#693,#694);
#692 = CARTESIAN_POINT('',(2.5E-02,0.5,0.5));
#693 = DIRECTION('',(-1.,-0.,-0.));
#694 = DIRECTION('',(0.,0.,-1.));
#695 = ADVANCED_FACE('',(#696),#707,.T.);
#696 = FACE_BOUND('',#697,.T.);
#697 = EDGE_LOOP('',(#698,#704,#705,#706));
#698 = ORIENTED_EDGE('',*,*,#699,.T.);
#699 = EDGE_CURVE('',#654,#611,#700,.T.);
#700 = LINE('',#701,#702);
#701 = CARTESIAN_POINT('',(0.7375,0.975,0.5));
#702 = VECTOR('',#703,1.);
#703 = DIRECTION('',(0.707106781187,0.,-0.707106781187));
#704 = ORIENTED_EDGE('',*,*,#618,.T.);
#705 = ORIENTED_EDGE('',*,*,#508,.T.);
#706 = ORIENTED_EDGE('',*,*,#661,.T.);
#707 = PLANE('',#708);
#708 = AXIS2_PLACEMENT_3D('',#709,#710,#711);
#709 = CARTESIAN_POINT('',(0.5,0.975,0.5));
#710 = DIRECTION('',(0.,1.,0.));
#711 = DIRECTION('',(0.,0.,1.));
#712 = ADVANCED_FACE('',(#713),#731,.F.);
#713 = FACE_BOUND('',#714,.F.);
#714 = EDGE_LOOP('',(#715,#723,#724,#725));
#715 = ORIENTED_EDGE('',*,*,#716,.T.);
#716 = EDGE_CURVE('',#717,#563,#719,.T.);
#717 = VERTEX_POINT('',#718);
#718 = CARTESIAN_POINT('',(0.5,2.5E-02,0.7375));
#719 = LINE('',#720,#721);
#720 = CARTESIAN_POINT('',(0.7375,2.5E-02,0.5));
#721 = VECTOR('',#722,1.);
#722 = DIRECTION('',(0.707106781187,0.,-0.707106781187));
#723 = ORIENTED_EDGE('',*,*,#562,.T.);
#724 = ORIENTED_EDGE('',*,*,#522,.T.);
#725 = ORIENTED_EDGE('',*,*,#726,.T.);
#726 = EDGE_CURVE('',#525,#717,#727,.T.);
#727 = LINE('',#728,#729);
#728 = CARTESIAN_POINT('',(0.5,2.5E-02,0.7375));
#729 = VECTOR('',#730,1.);
#730 = DIRECTION('',(0.707106781187,0.,0.707106781187));
#731 = PLANE('',#732);
#732 = AXIS2_PLACEMENT_3D('',#733,#734,#735);
#733 = CARTESIAN_POINT('',(0.5,2.5E-02,0.5));
#734 = DIRECTION('',(0.,1.,0.));
#735 = DIRECTION('',(0.,0.,1.));
#736 = ADVANCED_FACE('',(#737),#757,.T.);
#737 = FACE_BOUND('',#738,.T.);
#738 = EDGE_LOOP('',(#739,#747,#753,#754,#755,#756));
#739 = ORIENTED_EDGE('',*,*,#740,.F.);
#740 = EDGE_CURVE('',#741,#717,#743,.T.);
#741 = VERTEX_POINT('',#742);
#742 = CARTESIAN_POINT('',(0.5,0.2625,0.975));
#743 = LINE('',#744,#745);
#744 = CARTESIAN_POINT('',(0.5,2.5E-02,0.7375));
#745 = VECTOR('',#746,1.);
#746 = DIRECTION('',(-0.,-0.707106781187,-0.707106781187));
#747 = ORIENTED_EDGE('',*,*,#748,.F.);
#748 = EDGE_CURVE('',#638,#741,#749,.T.);
#749 = LINE('',#750,#751);
#750 = CARTESIAN_POINT('',(0.2625,0.5,0.975));
#751 = VECTOR('',#752,1.);
#752 = DIRECTION('',(0.707106781187,-0.707106781187,0.));
#753 = ORIENTED_EDGE('',*,*,#635,.F.);
#754 = ORIENTED_EDGE('',*,*,#685,.F.);
#755 = ORIENTED_EDGE('',*,*,#532,.F.);
#756 = ORIENTED_EDGE('',*,*,#726,.T.);
#757 = PLANE('',#758);
#758 = AXIS2_PLACEMENT_3D('',#759,#760,#761);
#759 = CARTESIAN_POINT('',(0.2625,0.2625,0.7375));
#760 = DIRECTION('',(-0.57735026919,-0.57735026919,0.57735026919));
#761 = DIRECTION('',(0.707106781187,0.,0.707106781187));
#762 = ADVANCED_FACE('',(#763),#790,.T.);
#763 = FACE_BOUND('',#764,.T.);
#764 = EDGE_LOOP('',(#765,#773,#774,#775,#776,#784));
#765 = ORIENTED_EDGE('',*,*,#766,.F.);
#766 = EDGE_CURVE('',#741,#767,#769,.T.);
#767 = VERTEX_POINT('',#768);
#768 = CARTESIAN_POINT('',(0.7375,0.5,0.975));
#769 = LINE('',#770,#771);
#770 = CARTESIAN_POINT('',(0.5,0.2625,0.975));
#771 = VECTOR('',#772,1.);
#772 = DIRECTION('',(0.707106781187,0.707106781187,0.));
#773 = ORIENTED_EDGE('',*,*,#740,.T.);
#774 = ORIENTED_EDGE('',*,*,#716,.T.);
#775 = ORIENTED_EDGE('',*,*,#570,.T.);
#776 = ORIENTED_EDGE('',*,*,#777,.T.);
#777 = EDGE_CURVE('',#571,#778,#780,.T.);
#778 = VERTEX_POINT('',#779);
#779 = CARTESIAN_POINT('',(0.975,0.5,0.7375));
#780 = LINE('',#781,#782);
#781 = CARTESIAN_POINT('',(0.975,0.2625,0.5));
#782 = VECTOR('',#783,1.);
#783 = DIRECTION('',(0.,0.707106781187,0.707106781187));
#784 = ORIENTED_EDGE('',*,*,#785,.T.);
#785 = EDGE_CURVE('',#778,#767,#786,.T.);
#786 = LINE('',#787,#788);
#787 = CARTESIAN_POINT('',(0.975,0.5,0.7375));
#788 = VECTOR('',#789,1.);
#789 = DIRECTION('',(-0.707106781187,0.,0.707106781187));
#790 = PLANE('',#791);
#791 = AXIS2_PLACEMENT_3D('',#792,#793,#794);
#792 = CARTESIAN_POINT('',(0.7375,0.2625,0.7375));
#793 = DIRECTION('',(0.57735026919,-0.57735026919,0.57735026919));
#794 = DIRECTION('',(0.707106781187,0.,-0.707106781187));
#795 = ADVANCED_FACE('',(#796),#807,.F.);
#796 = FACE_BOUND('',#797,.F.);
#797 = EDGE_LOOP('',(#798,#804,#805,#806));
#798 = ORIENTED_EDGE('',*,*,#799,.T.);
#799 = EDGE_CURVE('',#778,#603,#800,.T.);
#800 = LINE('',#801,#802);
#801 = CARTESIAN_POINT('',(0.975,0.5,0.7375));
#802 = VECTOR('',#803,1.);
#803 = DIRECTION('',(0.,0.707106781187,-0.707106781187));
#804 = ORIENTED_EDGE('',*,*,#602,.T.);
#805 = ORIENTED_EDGE('',*,*,#578,.T.);
#806 = ORIENTED_EDGE('',*,*,#777,.T.);
#807 = PLANE('',#808);
#808 = AXIS2_PLACEMENT_3D('',#809,#810,#811);
#809 = CARTESIAN_POINT('',(0.975,0.5,0.5));
#810 = DIRECTION('',(-1.,-0.,-0.));
#811 = DIRECTION('',(0.,0.,-1.));
#812 = ADVANCED_FACE('',(#813),#826,.F.);
#813 = FACE_BOUND('',#814,.F.);
#814 = EDGE_LOOP('',(#815,#816,#822,#823,#824,#825));
#815 = ORIENTED_EDGE('',*,*,#785,.T.);
#816 = ORIENTED_EDGE('',*,*,#817,.T.);
#817 = EDGE_CURVE('',#767,#646,#818,.T.);
#818 = LINE('',#819,#820);
#819 = CARTESIAN_POINT('',(0.7375,0.5,0.975));
#820 = VECTOR('',#821,1.);
#821 = DIRECTION('',(-0.707106781187,0.707106781187,0.));
#822 = ORIENTED_EDGE('',*,*,#653,.T.);
#823 = ORIENTED_EDGE('',*,*,#699,.T.);
#824 = ORIENTED_EDGE('',*,*,#610,.T.);
#825 = ORIENTED_EDGE('',*,*,#799,.F.);
#826 = PLANE('',#827);
#827 = AXIS2_PLACEMENT_3D('',#828,#829,#830);
#828 = CARTESIAN_POINT('',(0.7375,0.7375,0.7375));
#829 = DIRECTION('',(-0.57735026919,-0.57735026919,-0.57735026919));
#830 = DIRECTION('',(-0.707106781187,0.,0.707106781187));
#831 = ADVANCED_FACE('',(#832),#838,.T.);
#832 = FACE_BOUND('',#833,.T.);
#833 = EDGE_LOOP('',(#834,#835,#836,#837));
#834 = ORIENTED_EDGE('',*,*,#645,.T.);
#835 = ORIENTED_EDGE('',*,*,#748,.T.);
#836 = ORIENTED_EDGE('',*,*,#766,.T.);
#837 = ORIENTED_EDGE('',*,*,#817,.T.);
#838 = PLANE('',#839);
#839 = AXIS2_PLACEMENT_3D('',#840,#841,#842);
#840 = CARTESIAN_POINT('',(0.5,0.5,0.975));
#841 = DIRECTION('',(0.,0.,1.));
#842 = DIRECTION('',(1.,0.,0.));
#843 = ( GEOMETRIC_REPRESENTATION_CONTEXT(3) 
GLOBAL_UNCERTAINTY_ASSIGNED_CONTEXT((#847)) GLOBAL_UNIT_ASSIGNED_CONTEXT
((#844,#845,#846)) REPRESENTATION_CONTEXT('Context #1',
  '3D Context with UNIT and UNCERTAINTY') );
#844 = ( LENGTH_UNIT() NAMED_UNIT(*) SI_UNIT(.MILLI.,.METRE.) );
#845 = ( NAMED_UNIT(*) PLANE_ANGLE_UNIT() SI_UNIT($,.RADIAN.) );
#846 = ( NAMED_UNIT(*) SI_UNIT($,.STERADIAN.) SOLID_ANGLE_UNIT() );
#847 = UNCERTAINTY_MEASURE_WITH_UNIT(LENGTH_MEASURE(1.E-06),#844,
  'distance_accuracy_value','confusion accuracy');
#848 = PRODUCT_RELATED_PRODUCT_CATEGORY('part',$,(#7));
#849 = MECHANICAL_DESIGN_GEOMETRIC_PRESENTATION_REPRESENTATION('',(#850)
  ,#843);
#850 = STYLED_ITEM('color',(#851),#15);
#851 = PRESENTATION_STYLE_ASSIGNMENT((#852,#858));
#852 = SURFACE_STYLE_USAGE(.BOTH.,#853);
#853 = SURFACE_SIDE_STYLE('',(#854));
#854 = SURFACE_STYLE_FILL_AREA(#855);
#855 = FILL_AREA_STYLE('',(#856));
#856 = FILL_AREA_STYLE_COLOUR('',#857);
#857 = COLOUR_RGB('',0.678431390124,0.709803936702,0.741176476869);
#858 = CURVE_STYLE('',#859,POSITIVE_LENGTH_MEASURE(0.1),#860);
#859 = DRAUGHTING_PRE_DEFINED_CURVE_FONT('continuous');
#860 = COLOUR_RGB('',9.803921802644E-02,9.803921802644E-02,
  9.803921802644E-02);
ENDSEC;
END-ISO-10303-21;
