ply
format ascii 1.0
comment Gypsilab generated PLY file
element vertex  100
property float x
property float y
property float z
element face  196
property list uchar int vertex_indices
end_header
0.000000 0.000000 -1.000000
-0.147466 -0.135091 -0.979798
0.024600 0.280304 -0.959596
0.208597 -0.272078 -0.939394
-0.387790 0.068595 -0.919192
0.369539 0.235070 -0.898990
-0.123886 -0.460851 -0.878788
-0.236293 0.454968 -0.858586
0.512006 -0.186984 -0.838384
-0.531461 -0.219380 -0.818182
0.255445 0.545872 -0.797980
0.188112 -0.599730 -0.777778
-0.564764 0.327292 -0.757576
0.659730 0.145040 -0.737374
-0.400806 -0.570105 -0.717172
-0.092155 0.711154 -0.696970
0.562932 -0.474440 -0.676768
-0.753625 -0.031165 -0.656566
0.546783 0.544122 -0.636364
-0.036381 -0.786779 -0.616162
-0.514499 0.616541 -0.595960
0.810319 -0.109027 -0.575758
-0.682527 -0.474884 -0.555556
0.185380 0.824033 -0.535354
0.426133 -0.743659 -0.515152
-0.827815 0.264096 -0.494949
0.798967 0.369143 -0.474747
-0.343874 -0.821669 -0.454545
-0.304860 0.847588 -0.434343
0.805711 -0.423459 -0.414141
-0.888777 -0.234279 -0.393939
0.501646 0.780174 -0.373737
0.158438 -0.921906 -0.353535
-0.745407 0.577285 -0.333333
0.946467 0.078413 -0.313131
-0.649291 -0.701864 -0.292929
0.004693 0.962080 -0.272727
0.650110 -0.716651 -0.252525
-0.968488 0.089759 -0.232323
0.778432 0.590802 -0.212121
-0.175656 -0.965563 -0.191919
-0.524694 0.833792 -0.171717
0.953303 -0.261261 -0.151515
-0.881982 -0.452619 -0.131313
0.345464 0.931831 -0.111111
0.375481 -0.922361 -0.090909
-0.901394 0.427187 -0.070707
0.954393 0.294250 -0.050505
-0.505390 -0.862359 -0.030303
-0.209942 0.977662 -0.010101
0.815205 -0.579084 0.010101
-0.991868 -0.123615 0.030303
0.647342 0.760524 0.050505
0.036352 -0.996835 0.070707
-0.699007 0.709313 0.090909
0.992511 -0.050748 0.111111
-0.764225 -0.631441 0.131313
0.136585 0.978973 0.151515
0.558697 -0.811401 0.171717
-0.956419 0.220070 0.191919
0.850262 0.481725 0.212121
-0.300136 -0.925173 0.232323
-0.401539 0.880339 0.252525
0.885681 -0.375751 0.272727
-0.901274 -0.319213 0.292929
0.445930 0.838508 0.313131
0.235863 -0.912830 0.333333
-0.784331 0.509743 0.353535
0.914889 0.152641 0.373737
-0.566328 -0.723936 0.393939
-0.070726 0.907461 0.414141
0.658215 -0.614897 0.434343
-0.890681 0.008690 0.454545
0.654744 0.588154 0.474747
-0.084408 -0.864812 0.494949
-0.514831 0.685250 0.515152
0.830242 -0.155227 0.535354
-0.705886 -0.439412 0.555556
0.219951 0.787480 0.575758
0.363145 -0.716211 0.595960
-0.737157 0.277389 0.616162
0.715868 0.287358 0.636364
-0.326344 -0.680016 0.656566
-0.213468 0.704569 0.676768
0.616906 -0.365596 0.696970
-0.682069 -0.142989 0.717172
0.393864 0.548772 0.737374
0.077565 -0.648122 0.757576
-0.476637 0.409730 0.777778
0.602384 0.019025 0.797980
-0.411486 -0.401569 0.818182
0.030489 0.544227 0.838384
0.324616 -0.396805 0.858586
-0.472307 0.068246 0.878788
0.361934 0.246619 0.898990
-0.090178 -0.383346 0.919192
-0.167543 0.299113 0.939394
0.267223 -0.088133 0.959596
-0.182359 -0.082105 0.979798
0.000000 0.000000 1.000000
3  0  1  4
3  0  2  5
3  0  3  1
3  0  4  2
3  0  5  3
3  1  3  6
3  1  6  9
3  1  9  4
3  2  4  7
3  2  7  10
3  2  10  5
3  3  5  8
3  3  8  16
3  3  11  6
3  3  16  11
3  4  9  17
3  4  12  7
3  4  17  12
3  5  10  18
3  5  13  8
3  5  18  13
3  6  11  19
3  6  14  9
3  6  19  14
3  7  12  20
3  7  15  10
3  7  20  15
3  8  13  21
3  8  21  16
3  9  14  22
3  9  22  17
3  10  15  23
3  10  23  18
3  11  16  24
3  11  24  19
3  12  17  25
3  12  25  20
3  13  18  26
3  13  26  21
3  14  19  27
3  14  27  22
3  15  20  28
3  15  28  23
3  16  21  29
3  16  29  37
3  16  37  24
3  17  22  30
3  17  30  38
3  17  38  25
3  18  23  31
3  18  31  39
3  18  39  26
3  19  24  32
3  19  32  40
3  19  40  27
3  20  25  33
3  20  33  41
3  20  41  28
3  21  26  34
3  21  34  42
3  21  42  29
3  22  27  35
3  22  35  43
3  22  43  30
3  23  28  36
3  23  36  44
3  23  44  31
3  24  37  45
3  24  45  32
3  25  38  46
3  25  46  33
3  26  39  47
3  26  47  34
3  27  40  48
3  27  48  35
3  28  41  49
3  28  49  36
3  29  42  50
3  29  50  37
3  30  43  51
3  30  51  38
3  31  44  52
3  31  52  39
3  32  45  53
3  32  53  40
3  33  46  54
3  33  54  41
3  34  47  55
3  34  55  42
3  35  48  56
3  35  56  43
3  36  49  57
3  36  57  44
3  37  50  58
3  37  58  45
3  38  51  59
3  38  59  46
3  39  52  60
3  39  60  47
3  40  53  61
3  40  61  48
3  41  54  62
3  41  62  49
3  42  55  63
3  42  63  50
3  43  56  64
3  43  64  51
3  44  57  65
3  44  65  52
3  45  58  66
3  45  66  53
3  46  59  67
3  46  67  54
3  47  60  68
3  47  68  55
3  48  61  69
3  48  69  56
3  49  62  70
3  49  70  57
3  50  63  71
3  50  71  58
3  51  64  72
3  51  72  59
3  52  65  73
3  52  73  60
3  53  66  74
3  53  74  61
3  54  67  75
3  54  75  62
3  55  68  76
3  55  76  63
3  56  69  77
3  56  77  64
3  57  70  78
3  57  78  65
3  58  71  79
3  58  79  66
3  59  72  80
3  59  80  67
3  60  73  81
3  60  81  68
3  61  74  82
3  61  82  69
3  62  75  83
3  62  83  70
3  63  76  71
3  64  77  72
3  65  78  73
3  66  79  74
3  67  80  75
3  68  81  76
3  69  82  77
3  70  83  78
3  71  76  84
3  71  84  79
3  72  77  85
3  72  85  80
3  73  78  86
3  73  86  81
3  74  79  87
3  74  87  82
3  75  80  88
3  75  88  83
3  76  81  89
3  76  89  84
3  77  82  90
3  77  90  85
3  78  83  91
3  78  91  86
3  79  84  92
3  79  92  87
3  80  85  93
3  80  93  88
3  81  86  94
3  81  94  89
3  82  87  95
3  82  95  90
3  83  88  96
3  83  96  91
3  84  89  92
3  85  90  93
3  86  91  94
3  87  92  95
3  88  93  96
3  89  94  97
3  89  97  92
3  90  95  98
3  90  98  93
3  91  96  94
3  92  97  95
3  93  98  96
3  94  96  99
3  94  99  97
3  95  97  99
3  95  99  98
3  96  98  99
