<?xml version="1.0" encoding="utf-8"?>
<VTKFile byte_order="LittleEndian" type="UnstructuredGrid" version="0.1">
   <UnstructuredGrid>
      <Piece NumberOfCells="1500" NumberOfPoints="396">
         <Points>
            <DataArray Name="Points" NumberOfComponents="3" format="ascii" type="Float32">
0.0000 0.0000 0.0000
0.0000 0.2000 0.0000
0.0000 0.4000 0.0000
0.0000 0.6000 0.0000
0.0000 0.8000 0.0000
0.0000 1.0000 0.0000
0.2000 0.0000 0.0000
0.2000 0.2000 0.0000
0.2000 0.4000 0.0000
0.2000 0.6000 0.0000
0.2000 0.8000 0.0000
0.2000 1.0000 0.0000
0.4000 0.0000 0.0000
0.4000 0.2000 0.0000
0.4000 0.4000 0.0000
0.4000 0.6000 0.0000
0.4000 0.8000 0.0000
0.4000 1.0000 0.0000
0.6000 0.0000 0.0000
0.6000 0.2000 0.0000
0.6000 0.4000 0.0000
0.6000 0.6000 0.0000
0.6000 0.8000 0.0000
0.6000 1.0000 0.0000
0.8000 0.0000 0.0000
0.8000 0.2000 0.0000
0.8000 0.4000 0.0000
0.8000 0.6000 0.0000
0.8000 0.8000 0.0000
0.8000 1.0000 0.0000
1.0000 0.0000 0.0000
1.0000 0.2000 0.0000
1.0000 0.4000 0.0000
1.0000 0.6000 0.0000
1.0000 0.8000 0.0000
1.0000 1.0000 0.0000
0.0000 0.0000 0.2000
0.0000 0.2000 0.2000
0.0000 0.4000 0.2000
0.0000 0.6000 0.2000
0.0000 0.8000 0.2000
0.0000 1.0000 0.2000
0.2000 0.0000 0.2000
0.2000 0.2000 0.2000
0.2000 0.4000 0.2000
0.2000 0.6000 0.2000
0.2000 0.8000 0.2000
0.2000 1.0000 0.2000
0.4000 0.0000 0.2000
0.4000 0.2000 0.2000
0.4000 0.4000 0.2000
0.4000 0.6000 0.2000
0.4000 0.8000 0.2000
0.4000 1.0000 0.2000
0.6000 0.0000 0.2000
0.6000 0.2000 0.2000
0.6000 0.4000 0.2000
0.6000 0.6000 0.2000
0.6000 0.8000 0.2000
0.6000 1.0000 0.2000
0.8000 0.0000 0.2000
0.8000 0.2000 0.2000
0.8000 0.4000 0.2000
0.8000 0.6000 0.2000
0.8000 0.8000 0.2000
0.8000 1.0000 0.2000
1.0000 0.0000 0.2000
1.0000 0.2000 0.2000
1.0000 0.4000 0.2000
1.0000 0.6000 0.2000
1.0000 0.8000 0.2000
1.0000 1.0000 0.2000
0.0000 0.0000 0.4000
0.0000 0.2000 0.4000
0.0000 0.4000 0.4000
0.0000 0.6000 0.4000
0.0000 0.8000 0.4000
0.0000 1.0000 0.4000
0.2000 0.0000 0.4000
0.2000 0.2000 0.4000
0.2000 0.4000 0.4000
0.2000 0.6000 0.4000
0.2000 0.8000 0.4000
0.2000 1.0000 0.4000
0.4000 0.0000 0.4000
0.4000 0.2000 0.4000
0.4000 0.4000 0.4000
0.4000 0.6000 0.4000
0.4000 0.8000 0.4000
0.4000 1.0000 0.4000
0.6000 0.0000 0.4000
0.6000 0.2000 0.4000
0.6000 0.4000 0.4000
0.6000 0.6000 0.4000
0.6000 0.8000 0.4000
0.6000 1.0000 0.4000
0.8000 0.0000 0.4000
0.8000 0.2000 0.4000
0.8000 0.4000 0.4000
0.8000 0.6000 0.4000
0.8000 0.8000 0.4000
0.8000 1.0000 0.4000
1.0000 0.0000 0.4000
1.0000 0.2000 0.4000
1.0000 0.4000 0.4000
1.0000 0.6000 0.4000
1.0000 0.8000 0.4000
1.0000 1.0000 0.4000
0.0000 0.0000 0.6000
0.0000 0.2000 0.6000
0.0000 0.4000 0.6000
0.0000 0.6000 0.6000
0.0000 0.8000 0.6000
0.0000 1.0000 0.6000
0.2000 0.0000 0.6000
0.2000 0.2000 0.6000
0.2000 0.4000 0.6000
0.2000 0.6000 0.6000
0.2000 0.8000 0.6000
0.2000 1.0000 0.6000
0.4000 0.0000 0.6000
0.4000 0.2000 0.6000
0.4000 0.4000 0.6000
0.4000 0.6000 0.6000
0.4000 0.8000 0.6000
0.4000 1.0000 0.6000
0.6000 0.0000 0.6000
0.6000 0.2000 0.6000
0.6000 0.4000 0.6000
0.6000 0.6000 0.6000
0.6000 0.8000 0.6000
0.6000 1.0000 0.6000
0.8000 0.0000 0.6000
0.8000 0.2000 0.6000
0.8000 0.4000 0.6000
0.8000 0.6000 0.6000
0.8000 0.8000 0.6000
0.8000 1.0000 0.6000
1.0000 0.0000 0.6000
1.0000 0.2000 0.6000
1.0000 0.4000 0.6000
1.0000 0.6000 0.6000
1.0000 0.8000 0.6000
1.0000 1.0000 0.6000
0.0000 0.0000 0.8000
0.0000 0.2000 0.8000
0.0000 0.4000 0.8000
0.0000 0.6000 0.8000
0.0000 0.8000 0.8000
0.0000 1.0000 0.8000
0.2000 0.0000 0.8000
0.2000 0.2000 0.8000
0.2000 0.4000 0.8000
0.2000 0.6000 0.8000
0.2000 0.8000 0.8000
0.2000 1.0000 0.8000
0.4000 0.0000 0.8000
0.4000 0.2000 0.8000
0.4000 0.4000 0.8000
0.4000 0.6000 0.8000
0.4000 0.8000 0.8000
0.4000 1.0000 0.8000
0.6000 0.0000 0.8000
0.6000 0.2000 0.8000
0.6000 0.4000 0.8000
0.6000 0.6000 0.8000
0.6000 0.8000 0.8000
0.6000 1.0000 0.8000
0.8000 0.0000 0.8000
0.8000 0.2000 0.8000
0.8000 0.4000 0.8000
0.8000 0.6000 0.8000
0.8000 0.8000 0.8000
0.8000 1.0000 0.8000
1.0000 0.0000 0.8000
1.0000 0.2000 0.8000
1.0000 0.4000 0.8000
1.0000 0.6000 0.8000
1.0000 0.8000 0.8000
1.0000 1.0000 0.8000
0.0000 0.0000 1.0000
0.0000 0.2000 1.0000
0.0000 0.4000 1.0000
0.0000 0.6000 1.0000
0.0000 0.8000 1.0000
0.0000 1.0000 1.0000
0.2000 0.0000 1.0000
0.2000 0.2000 1.0000
0.2000 0.4000 1.0000
0.2000 0.6000 1.0000
0.2000 0.8000 1.0000
0.2000 1.0000 1.0000
0.4000 0.0000 1.0000
0.4000 0.2000 1.0000
0.4000 0.4000 1.0000
0.4000 0.6000 1.0000
0.4000 0.8000 1.0000
0.4000 1.0000 1.0000
0.6000 0.0000 1.0000
0.6000 0.2000 1.0000
0.6000 0.4000 1.0000
0.6000 0.6000 1.0000
0.6000 0.8000 1.0000
0.6000 1.0000 1.0000
0.8000 0.0000 1.0000
0.8000 0.2000 1.0000
0.8000 0.4000 1.0000
0.8000 0.6000 1.0000
0.8000 0.8000 1.0000
0.8000 1.0000 1.0000
1.0000 0.0000 1.0000
1.0000 0.2000 1.0000
1.0000 0.4000 1.0000
1.0000 0.6000 1.0000
1.0000 0.8000 1.0000
1.0000 1.0000 1.0000
1.2000 0.0000 0.0000
1.2000 0.2000 0.0000
1.2000 0.4000 0.0000
1.2000 0.6000 0.0000
1.2000 0.8000 0.0000
1.2000 1.0000 0.0000
1.4000 0.0000 0.0000
1.4000 0.2000 0.0000
1.4000 0.4000 0.0000
1.4000 0.6000 0.0000
1.4000 0.8000 0.0000
1.4000 1.0000 0.0000
1.6000 0.0000 0.0000
1.6000 0.2000 0.0000
1.6000 0.4000 0.0000
1.6000 0.6000 0.0000
1.6000 0.8000 0.0000
1.6000 1.0000 0.0000
1.8000 0.0000 0.0000
1.8000 0.2000 0.0000
1.8000 0.4000 0.0000
1.8000 0.6000 0.0000
1.8000 0.8000 0.0000
1.8000 1.0000 0.0000
2.0000 0.0000 0.0000
2.0000 0.2000 0.0000
2.0000 0.4000 0.0000
2.0000 0.6000 0.0000
2.0000 0.8000 0.0000
2.0000 1.0000 0.0000
1.2000 0.0000 0.2000
1.2000 0.2000 0.2000
1.2000 0.4000 0.2000
1.2000 0.6000 0.2000
1.2000 0.8000 0.2000
1.2000 1.0000 0.2000
1.4000 0.0000 0.2000
1.4000 0.2000 0.2000
1.4000 0.4000 0.2000
1.4000 0.6000 0.2000
1.4000 0.8000 0.2000
1.4000 1.0000 0.2000
1.6000 0.0000 0.2000
1.6000 0.2000 0.2000
1.6000 0.4000 0.2000
1.6000 0.6000 0.2000
1.6000 0.8000 0.2000
1.6000 1.0000 0.2000
1.8000 0.0000 0.2000
1.8000 0.2000 0.2000
1.8000 0.4000 0.2000
1.8000 0.6000 0.2000
1.8000 0.8000 0.2000
1.8000 1.0000 0.2000
2.0000 0.0000 0.2000
2.0000 0.2000 0.2000
2.0000 0.4000 0.2000
2.0000 0.6000 0.2000
2.0000 0.8000 0.2000
2.0000 1.0000 0.2000
1.2000 0.0000 0.4000
1.2000 0.2000 0.4000
1.2000 0.4000 0.4000
1.2000 0.6000 0.4000
1.2000 0.8000 0.4000
1.2000 1.0000 0.4000
1.4000 0.0000 0.4000
1.4000 0.2000 0.4000
1.4000 0.4000 0.4000
1.4000 0.6000 0.4000
1.4000 0.8000 0.4000
1.4000 1.0000 0.4000
1.6000 0.0000 0.4000
1.6000 0.2000 0.4000
1.6000 0.4000 0.4000
1.6000 0.6000 0.4000
1.6000 0.8000 0.4000
1.6000 1.0000 0.4000
1.8000 0.0000 0.4000
1.8000 0.2000 0.4000
1.8000 0.4000 0.4000
1.8000 0.6000 0.4000
1.8000 0.8000 0.4000
1.8000 1.0000 0.4000
2.0000 0.0000 0.4000
2.0000 0.2000 0.4000
2.0000 0.4000 0.4000
2.0000 0.6000 0.4000
2.0000 0.8000 0.4000
2.0000 1.0000 0.4000
1.2000 0.0000 0.6000
1.2000 0.2000 0.6000
1.2000 0.4000 0.6000
1.2000 0.6000 0.6000
1.2000 0.8000 0.6000
1.2000 1.0000 0.6000
1.4000 0.0000 0.6000
1.4000 0.2000 0.6000
1.4000 0.4000 0.6000
1.4000 0.6000 0.6000
1.4000 0.8000 0.6000
1.4000 1.0000 0.6000
1.6000 0.0000 0.6000
1.6000 0.2000 0.6000
1.6000 0.4000 0.6000
1.6000 0.6000 0.6000
1.6000 0.8000 0.6000
1.6000 1.0000 0.6000
1.8000 0.0000 0.6000
1.8000 0.2000 0.6000
1.8000 0.4000 0.6000
1.8000 0.6000 0.6000
1.8000 0.8000 0.6000
1.8000 1.0000 0.6000
2.0000 0.0000 0.6000
2.0000 0.2000 0.6000
2.0000 0.4000 0.6000
2.0000 0.6000 0.6000
2.0000 0.8000 0.6000
2.0000 1.0000 0.6000
1.2000 0.0000 0.8000
1.2000 0.2000 0.8000
1.2000 0.4000 0.8000
1.2000 0.6000 0.8000
1.2000 0.8000 0.8000
1.2000 1.0000 0.8000
1.4000 0.0000 0.8000
1.4000 0.2000 0.8000
1.4000 0.4000 0.8000
1.4000 0.6000 0.8000
1.4000 0.8000 0.8000
1.4000 1.0000 0.8000
1.6000 0.0000 0.8000
1.6000 0.2000 0.8000
1.6000 0.4000 0.8000
1.6000 0.6000 0.8000
1.6000 0.8000 0.8000
1.6000 1.0000 0.8000
1.8000 0.0000 0.8000
1.8000 0.2000 0.8000
1.8000 0.4000 0.8000
1.8000 0.6000 0.8000
1.8000 0.8000 0.8000
1.8000 1.0000 0.8000
2.0000 0.0000 0.8000
2.0000 0.2000 0.8000
2.0000 0.4000 0.8000
2.0000 0.6000 0.8000
2.0000 0.8000 0.8000
2.0000 1.0000 0.8000
1.2000 0.0000 1.0000
1.2000 0.2000 1.0000
1.2000 0.4000 1.0000
1.2000 0.6000 1.0000
1.2000 0.8000 1.0000
1.2000 1.0000 1.0000
1.4000 0.0000 1.0000
1.4000 0.2000 1.0000
1.4000 0.4000 1.0000
1.4000 0.6000 1.0000
1.4000 0.8000 1.0000
1.4000 1.0000 1.0000
1.6000 0.0000 1.0000
1.6000 0.2000 1.0000
1.6000 0.4000 1.0000
1.6000 0.6000 1.0000
1.6000 0.8000 1.0000
1.6000 1.0000 1.0000
1.8000 0.0000 1.0000
1.8000 0.2000 1.0000
1.8000 0.4000 1.0000
1.8000 0.6000 1.0000
1.8000 0.8000 1.0000
1.8000 1.0000 1.0000
2.0000 0.0000 1.0000
2.0000 0.2000 1.0000
2.0000 0.4000 1.0000
2.0000 0.6000 1.0000
2.0000 0.8000 1.0000
2.0000 1.0000 1.0000</DataArray>
         </Points>
         <Cells>
            <DataArray Name="connectivity" format="ascii" type="Int32">
 37 1 7 0
 36 37 7 0
 6 36 42 43
 37 43 36 7
 43 6 36 7
 7 6 36 0
 38 2 8 1
 37 38 8 1
 7 37 43 44
 38 44 37 8
 44 7 37 8
 8 7 37 1
 39 3 9 2
 38 39 9 2
 8 38 44 45
 39 45 38 9
 45 8 38 9
 9 8 38 2
 40 4 10 3
 39 40 10 3
 9 39 45 46
 40 46 39 10
 46 9 39 10
 10 9 39 3
 41 5 11 4
 40 41 11 4
 10 40 46 47
 41 47 40 11
 47 10 40 11
 11 10 40 4
 43 7 13 6
 42 43 13 6
 12 42 48 49
 43 49 42 13
 49 12 42 13
 13 12 42 6
 44 8 14 7
 43 44 14 7
 13 43 49 50
 44 50 43 14
 50 13 43 14
 14 13 43 7
 45 9 15 8
 44 45 15 8
 14 44 50 51
 45 51 44 15
 51 14 44 15
 15 14 44 8
 46 10 16 9
 45 46 16 9
 15 45 51 52
 46 52 45 16
 52 15 45 16
 16 15 45 9
 47 11 17 10
 46 47 17 10
 16 46 52 53
 47 53 46 17
 53 16 46 17
 17 16 46 10
 49 13 19 12
 48 49 19 12
 18 48 54 55
 49 55 48 19
 55 18 48 19
 19 18 48 12
 50 14 20 13
 49 50 20 13
 19 49 55 56
 50 56 49 20
 56 19 49 20
 20 19 49 13
 51 15 21 14
 50 51 21 14
 20 50 56 57
 51 57 50 21
 57 20 50 21
 21 20 50 14
 52 16 22 15
 51 52 22 15
 21 51 57 58
 52 58 51 22
 58 21 51 22
 22 21 51 15
 53 17 23 16
 52 53 23 16
 22 52 58 59
 53 59 52 23
 59 22 52 23
 23 22 52 16
 55 19 25 18
 54 55 25 18
 24 54 60 61
 55 61 54 25
 61 24 54 25
 25 24 54 18
 56 20 26 19
 55 56 26 19
 25 55 61 62
 56 62 55 26
 62 25 55 26
 26 25 55 19
 57 21 27 20
 56 57 27 20
 26 56 62 63
 57 63 56 27
 63 26 56 27
 27 26 56 20
 58 22 28 21
 57 58 28 21
 27 57 63 64
 58 64 57 28
 64 27 57 28
 28 27 57 21
 59 23 29 22
 58 59 29 22
 28 58 64 65
 59 65 58 29
 65 28 58 29
 29 28 58 22
 61 25 31 24
 60 61 31 24
 30 60 66 67
 61 67 60 31
 67 30 60 31
 31 30 60 24
 62 26 32 25
 61 62 32 25
 31 61 67 68
 62 68 61 32
 68 31 61 32
 32 31 61 25
 63 27 33 26
 62 63 33 26
 32 62 68 69
 63 69 62 33
 69 32 62 33
 33 32 62 26
 64 28 34 27
 63 64 34 27
 33 63 69 70
 64 70 63 34
 70 33 63 34
 34 33 63 27
 65 29 35 28
 64 65 35 28
 34 64 70 71
 65 71 64 35
 71 34 64 35
 35 34 64 28
 73 37 43 36
 72 73 43 36
 42 72 78 79
 73 79 72 43
 79 42 72 43
 43 42 72 36
 74 38 44 37
 73 74 44 37
 43 73 79 80
 74 80 73 44
 80 43 73 44
 44 43 73 37
 75 39 45 38
 74 75 45 38
 44 74 80 81
 75 81 74 45
 81 44 74 45
 45 44 74 38
 76 40 46 39
 75 76 46 39
 45 75 81 82
 76 82 75 46
 82 45 75 46
 46 45 75 39
 77 41 47 40
 76 77 47 40
 46 76 82 83
 77 83 76 47
 83 46 76 47
 47 46 76 40
 79 43 49 42
 78 79 49 42
 48 78 84 85
 79 85 78 49
 85 48 78 49
 49 48 78 42
 80 44 50 43
 79 80 50 43
 49 79 85 86
 80 86 79 50
 86 49 79 50
 50 49 79 43
 81 45 51 44
 80 81 51 44
 50 80 86 87
 81 87 80 51
 87 50 80 51
 51 50 80 44
 82 46 52 45
 81 82 52 45
 51 81 87 88
 82 88 81 52
 88 51 81 52
 52 51 81 45
 83 47 53 46
 82 83 53 46
 52 82 88 89
 83 89 82 53
 89 52 82 53
 53 52 82 46
 85 49 55 48
 84 85 55 48
 54 84 90 91
 85 91 84 55
 91 54 84 55
 55 54 84 48
 86 50 56 49
 85 86 56 49
 55 85 91 92
 86 92 85 56
 92 55 85 56
 56 55 85 49
 87 51 57 50
 86 87 57 50
 56 86 92 93
 87 93 86 57
 93 56 86 57
 57 56 86 50
 88 52 58 51
 87 88 58 51
 57 87 93 94
 88 94 87 58
 94 57 87 58
 58 57 87 51
 89 53 59 52
 88 89 59 52
 58 88 94 95
 89 95 88 59
 95 58 88 59
 59 58 88 52
 91 55 61 54
 90 91 61 54
 60 90 96 97
 91 97 90 61
 97 60 90 61
 61 60 90 54
 92 56 62 55
 91 92 62 55
 61 91 97 98
 92 98 91 62
 98 61 91 62
 62 61 91 55
 93 57 63 56
 92 93 63 56
 62 92 98 99
 93 99 92 63
 99 62 92 63
 63 62 92 56
 94 58 64 57
 93 94 64 57
 63 93 99 100
 94 100 93 64
 100 63 93 64
 64 63 93 57
 95 59 65 58
 94 95 65 58
 64 94 100 101
 95 101 94 65
 101 64 94 65
 65 64 94 58
 97 61 67 60
 96 97 67 60
 66 96 102 103
 97 103 96 67
 103 66 96 67
 67 66 96 60
 98 62 68 61
 97 98 68 61
 67 97 103 104
 98 104 97 68
 104 67 97 68
 68 67 97 61
 99 63 69 62
 98 99 69 62
 68 98 104 105
 99 105 98 69
 105 68 98 69
 69 68 98 62
 100 64 70 63
 99 100 70 63
 69 99 105 106
 100 106 99 70
 106 69 99 70
 70 69 99 63
 101 65 71 64
 100 101 71 64
 70 100 106 107
 101 107 100 71
 107 70 100 71
 71 70 100 64
 109 73 79 72
 108 109 79 72
 78 108 114 115
 109 115 108 79
 115 78 108 79
 79 78 108 72
 110 74 80 73
 109 110 80 73
 79 109 115 116
 110 116 109 80
 116 79 109 80
 80 79 109 73
 111 75 81 74
 110 111 81 74
 80 110 116 117
 111 117 110 81
 117 80 110 81
 81 80 110 74
 112 76 82 75
 111 112 82 75
 81 111 117 118
 112 118 111 82
 118 81 111 82
 82 81 111 75
 113 77 83 76
 112 113 83 76
 82 112 118 119
 113 119 112 83
 119 82 112 83
 83 82 112 76
 115 79 85 78
 114 115 85 78
 84 114 120 121
 115 121 114 85
 121 84 114 85
 85 84 114 78
 116 80 86 79
 115 116 86 79
 85 115 121 122
 116 122 115 86
 122 85 115 86
 86 85 115 79
 117 81 87 80
 116 117 87 80
 86 116 122 123
 117 123 116 87
 123 86 116 87
 87 86 116 80
 118 82 88 81
 117 118 88 81
 87 117 123 124
 118 124 117 88
 124 87 117 88
 88 87 117 81
 119 83 89 82
 118 119 89 82
 88 118 124 125
 119 125 118 89
 125 88 118 89
 89 88 118 82
 121 85 91 84
 120 121 91 84
 90 120 126 127
 121 127 120 91
 127 90 120 91
 91 90 120 84
 122 86 92 85
 121 122 92 85
 91 121 127 128
 122 128 121 92
 128 91 121 92
 92 91 121 85
 123 87 93 86
 122 123 93 86
 92 122 128 129
 123 129 122 93
 129 92 122 93
 93 92 122 86
 124 88 94 87
 123 124 94 87
 93 123 129 130
 124 130 123 94
 130 93 123 94
 94 93 123 87
 125 89 95 88
 124 125 95 88
 94 124 130 131
 125 131 124 95
 131 94 124 95
 95 94 124 88
 127 91 97 90
 126 127 97 90
 96 126 132 133
 127 133 126 97
 133 96 126 97
 97 96 126 90
 128 92 98 91
 127 128 98 91
 97 127 133 134
 128 134 127 98
 134 97 127 98
 98 97 127 91
 129 93 99 92
 128 129 99 92
 98 128 134 135
 129 135 128 99
 135 98 128 99
 99 98 128 92
 130 94 100 93
 129 130 100 93
 99 129 135 136
 130 136 129 100
 136 99 129 100
 100 99 129 93
 131 95 101 94
 130 131 101 94
 100 130 136 137
 131 137 130 101
 137 100 130 101
 101 100 130 94
 133 97 103 96
 132 133 103 96
 102 132 138 139
 133 139 132 103
 139 102 132 103
 103 102 132 96
 134 98 104 97
 133 134 104 97
 103 133 139 140
 134 140 133 104
 140 103 133 104
 104 103 133 97
 135 99 105 98
 134 135 105 98
 104 134 140 141
 135 141 134 105
 141 104 134 105
 105 104 134 98
 136 100 106 99
 135 136 106 99
 105 135 141 142
 136 142 135 106
 142 105 135 106
 106 105 135 99
 137 101 107 100
 136 137 107 100
 106 136 142 143
 137 143 136 107
 143 106 136 107
 107 106 136 100
 145 109 115 108
 144 145 115 108
 114 144 150 151
 145 151 144 115
 151 114 144 115
 115 114 144 108
 146 110 116 109
 145 146 116 109
 115 145 151 152
 146 152 145 116
 152 115 145 116
 116 115 145 109
 147 111 117 110
 146 147 117 110
 116 146 152 153
 147 153 146 117
 153 116 146 117
 117 116 146 110
 148 112 118 111
 147 148 118 111
 117 147 153 154
 148 154 147 118
 154 117 147 118
 118 117 147 111
 149 113 119 112
 148 149 119 112
 118 148 154 155
 149 155 148 119
 155 118 148 119
 119 118 148 112
 151 115 121 114
 150 151 121 114
 120 150 156 157
 151 157 150 121
 157 120 150 121
 121 120 150 114
 152 116 122 115
 151 152 122 115
 121 151 157 158
 152 158 151 122
 158 121 151 122
 122 121 151 115
 153 117 123 116
 152 153 123 116
 122 152 158 159
 153 159 152 123
 159 122 152 123
 123 122 152 116
 154 118 124 117
 153 154 124 117
 123 153 159 160
 154 160 153 124
 160 123 153 124
 124 123 153 117
 155 119 125 118
 154 155 125 118
 124 154 160 161
 155 161 154 125
 161 124 154 125
 125 124 154 118
 157 121 127 120
 156 157 127 120
 126 156 162 163
 157 163 156 127
 163 126 156 127
 127 126 156 120
 158 122 128 121
 157 158 128 121
 127 157 163 164
 158 164 157 128
 164 127 157 128
 128 127 157 121
 159 123 129 122
 158 159 129 122
 128 158 164 165
 159 165 158 129
 165 128 158 129
 129 128 158 122
 160 124 130 123
 159 160 130 123
 129 159 165 166
 160 166 159 130
 166 129 159 130
 130 129 159 123
 161 125 131 124
 160 161 131 124
 130 160 166 167
 161 167 160 131
 167 130 160 131
 131 130 160 124
 163 127 133 126
 162 163 133 126
 132 162 168 169
 163 169 162 133
 169 132 162 133
 133 132 162 126
 164 128 134 127
 163 164 134 127
 133 163 169 170
 164 170 163 134
 170 133 163 134
 134 133 163 127
 165 129 135 128
 164 165 135 128
 134 164 170 171
 165 171 164 135
 171 134 164 135
 135 134 164 128
 166 130 136 129
 165 166 136 129
 135 165 171 172
 166 172 165 136
 172 135 165 136
 136 135 165 129
 167 131 137 130
 166 167 137 130
 136 166 172 173
 167 173 166 137
 173 136 166 137
 137 136 166 130
 169 133 139 132
 168 169 139 132
 138 168 174 175
 169 175 168 139
 175 138 168 139
 139 138 168 132
 170 134 140 133
 169 170 140 133
 139 169 175 176
 170 176 169 140
 176 139 169 140
 140 139 169 133
 171 135 141 134
 170 171 141 134
 140 170 176 177
 171 177 170 141
 177 140 170 141
 141 140 170 134
 172 136 142 135
 171 172 142 135
 141 171 177 178
 172 178 171 142
 178 141 171 142
 142 141 171 135
 173 137 143 136
 172 173 143 136
 142 172 178 179
 173 179 172 143
 179 142 172 143
 143 142 172 136
 181 145 151 144
 180 181 151 144
 150 180 186 187
 181 187 180 151
 187 150 180 151
 151 150 180 144
 182 146 152 145
 181 182 152 145
 151 181 187 188
 182 188 181 152
 188 151 181 152
 152 151 181 145
 183 147 153 146
 182 183 153 146
 152 182 188 189
 183 189 182 153
 189 152 182 153
 153 152 182 146
 184 148 154 147
 183 184 154 147
 153 183 189 190
 184 190 183 154
 190 153 183 154
 154 153 183 147
 185 149 155 148
 184 185 155 148
 154 184 190 191
 185 191 184 155
 191 154 184 155
 155 154 184 148
 187 151 157 150
 186 187 157 150
 156 186 192 193
 187 193 186 157
 193 156 186 157
 157 156 186 150
 188 152 158 151
 187 188 158 151
 157 187 193 194
 188 194 187 158
 194 157 187 158
 158 157 187 151
 189 153 159 152
 188 189 159 152
 158 188 194 195
 189 195 188 159
 195 158 188 159
 159 158 188 152
 190 154 160 153
 189 190 160 153
 159 189 195 196
 190 196 189 160
 196 159 189 160
 160 159 189 153
 191 155 161 154
 190 191 161 154
 160 190 196 197
 191 197 190 161
 197 160 190 161
 161 160 190 154
 193 157 163 156
 192 193 163 156
 162 192 198 199
 193 199 192 163
 199 162 192 163
 163 162 192 156
 194 158 164 157
 193 194 164 157
 163 193 199 200
 194 200 193 164
 200 163 193 164
 164 163 193 157
 195 159 165 158
 194 195 165 158
 164 194 200 201
 195 201 194 165
 201 164 194 165
 165 164 194 158
 196 160 166 159
 195 196 166 159
 165 195 201 202
 196 202 195 166
 202 165 195 166
 166 165 195 159
 197 161 167 160
 196 197 167 160
 166 196 202 203
 197 203 196 167
 203 166 196 167
 167 166 196 160
 199 163 169 162
 198 199 169 162
 168 198 204 205
 199 205 198 169
 205 168 198 169
 169 168 198 162
 200 164 170 163
 199 200 170 163
 169 199 205 206
 200 206 199 170
 206 169 199 170
 170 169 199 163
 201 165 171 164
 200 201 171 164
 170 200 206 207
 201 207 200 171
 207 170 200 171
 171 170 200 164
 202 166 172 165
 201 202 172 165
 171 201 207 208
 202 208 201 172
 208 171 201 172
 172 171 201 165
 203 167 173 166
 202 203 173 166
 172 202 208 209
 203 209 202 173
 209 172 202 173
 173 172 202 166
 205 169 175 168
 204 205 175 168
 174 204 210 211
 205 211 204 175
 211 174 204 175
 175 174 204 168
 206 170 176 169
 205 206 176 169
 175 205 211 212
 206 212 205 176
 212 175 205 176
 176 175 205 169
 207 171 177 170
 206 207 177 170
 176 206 212 213
 207 213 206 177
 213 176 206 177
 177 176 206 170
 208 172 178 171
 207 208 178 171
 177 207 213 214
 208 214 207 178
 214 177 207 178
 178 177 207 171
 209 173 179 172
 208 209 179 172
 178 208 214 215
 209 215 208 179
 215 178 208 179
 179 178 208 172
 67 31 217 30
 66 67 217 30
 216 66 246 247
 67 247 66 217
 247 216 66 217
 217 216 66 30
 68 32 218 31
 67 68 218 31
 217 67 247 248
 68 248 67 218
 248 217 67 218
 218 217 67 31
 69 33 219 32
 68 69 219 32
 218 68 248 249
 69 249 68 219
 249 218 68 219
 219 218 68 32
 70 34 220 33
 69 70 220 33
 219 69 249 250
 70 250 69 220
 250 219 69 220
 220 219 69 33
 71 35 221 34
 70 71 221 34
 220 70 250 251
 71 251 70 221
 251 220 70 221
 221 220 70 34
 247 217 223 216
 246 247 223 216
 222 246 252 253
 247 253 246 223
 253 222 246 223
 223 222 246 216
 248 218 224 217
 247 248 224 217
 223 247 253 254
 248 254 247 224
 254 223 247 224
 224 223 247 217
 249 219 225 218
 248 249 225 218
 224 248 254 255
 249 255 248 225
 255 224 248 225
 225 224 248 218
 250 220 226 219
 249 250 226 219
 225 249 255 256
 250 256 249 226
 256 225 249 226
 226 225 249 219
 251 221 227 220
 250 251 227 220
 226 250 256 257
 251 257 250 227
 257 226 250 227
 227 226 250 220
 253 223 229 222
 252 253 229 222
 228 252 258 259
 253 259 252 229
 259 228 252 229
 229 228 252 222
 254 224 230 223
 253 254 230 223
 229 253 259 260
 254 260 253 230
 260 229 253 230
 230 229 253 223
 255 225 231 224
 254 255 231 224
 230 254 260 261
 255 261 254 231
 261 230 254 231
 231 230 254 224
 256 226 232 225
 255 256 232 225
 231 255 261 262
 256 262 255 232
 262 231 255 232
 232 231 255 225
 257 227 233 226
 256 257 233 226
 232 256 262 263
 257 263 256 233
 263 232 256 233
 233 232 256 226
 259 229 235 228
 258 259 235 228
 234 258 264 265
 259 265 258 235
 265 234 258 235
 235 234 258 228
 260 230 236 229
 259 260 236 229
 235 259 265 266
 260 266 259 236
 266 235 259 236
 236 235 259 229
 261 231 237 230
 260 261 237 230
 236 260 266 267
 261 267 260 237
 267 236 260 237
 237 236 260 230
 262 232 238 231
 261 262 238 231
 237 261 267 268
 262 268 261 238
 268 237 261 238
 238 237 261 231
 263 233 239 232
 262 263 239 232
 238 262 268 269
 263 269 262 239
 269 238 262 239
 239 238 262 232
 265 235 241 234
 264 265 241 234
 240 264 270 271
 265 271 264 241
 271 240 264 241
 241 240 264 234
 266 236 242 235
 265 266 242 235
 241 265 271 272
 266 272 265 242
 272 241 265 242
 242 241 265 235
 267 237 243 236
 266 267 243 236
 242 266 272 273
 267 273 266 243
 273 242 266 243
 243 242 266 236
 268 238 244 237
 267 268 244 237
 243 267 273 274
 268 274 267 244
 274 243 267 244
 244 243 267 237
 269 239 245 238
 268 269 245 238
 244 268 274 275
 269 275 268 245
 275 244 268 245
 245 244 268 238
 103 67 247 66
 102 103 247 66
 246 102 276 277
 103 277 102 247
 277 246 102 247
 247 246 102 66
 104 68 248 67
 103 104 248 67
 247 103 277 278
 104 278 103 248
 278 247 103 248
 248 247 103 67
 105 69 249 68
 104 105 249 68
 248 104 278 279
 105 279 104 249
 279 248 104 249
 249 248 104 68
 106 70 250 69
 105 106 250 69
 249 105 279 280
 106 280 105 250
 280 249 105 250
 250 249 105 69
 107 71 251 70
 106 107 251 70
 250 106 280 281
 107 281 106 251
 281 250 106 251
 251 250 106 70
 277 247 253 246
 276 277 253 246
 252 276 282 283
 277 283 276 253
 283 252 276 253
 253 252 276 246
 278 248 254 247
 277 278 254 247
 253 277 283 284
 278 284 277 254
 284 253 277 254
 254 253 277 247
 279 249 255 248
 278 279 255 248
 254 278 284 285
 279 285 278 255
 285 254 278 255
 255 254 278 248
 280 250 256 249
 279 280 256 249
 255 279 285 286
 280 286 279 256
 286 255 279 256
 256 255 279 249
 281 251 257 250
 280 281 257 250
 256 280 286 287
 281 287 280 257
 287 256 280 257
 257 256 280 250
 283 253 259 252
 282 283 259 252
 258 282 288 289
 283 289 282 259
 289 258 282 259
 259 258 282 252
 284 254 260 253
 283 284 260 253
 259 283 289 290
 284 290 283 260
 290 259 283 260
 260 259 283 253
 285 255 261 254
 284 285 261 254
 260 284 290 291
 285 291 284 261
 291 260 284 261
 261 260 284 254
 286 256 262 255
 285 286 262 255
 261 285 291 292
 286 292 285 262
 292 261 285 262
 262 261 285 255
 287 257 263 256
 286 287 263 256
 262 286 292 293
 287 293 286 263
 293 262 286 263
 263 262 286 256
 289 259 265 258
 288 289 265 258
 264 288 294 295
 289 295 288 265
 295 264 288 265
 265 264 288 258
 290 260 266 259
 289 290 266 259
 265 289 295 296
 290 296 289 266
 296 265 289 266
 266 265 289 259
 291 261 267 260
 290 291 267 260
 266 290 296 297
 291 297 290 267
 297 266 290 267
 267 266 290 260
 292 262 268 261
 291 292 268 261
 267 291 297 298
 292 298 291 268
 298 267 291 268
 268 267 291 261
 293 263 269 262
 292 293 269 262
 268 292 298 299
 293 299 292 269
 299 268 292 269
 269 268 292 262
 295 265 271 264
 294 295 271 264
 270 294 300 301
 295 301 294 271
 301 270 294 271
 271 270 294 264
 296 266 272 265
 295 296 272 265
 271 295 301 302
 296 302 295 272
 302 271 295 272
 272 271 295 265
 297 267 273 266
 296 297 273 266
 272 296 302 303
 297 303 296 273
 303 272 296 273
 273 272 296 266
 298 268 274 267
 297 298 274 267
 273 297 303 304
 298 304 297 274
 304 273 297 274
 274 273 297 267
 299 269 275 268
 298 299 275 268
 274 298 304 305
 299 305 298 275
 305 274 298 275
 275 274 298 268
 139 103 277 102
 138 139 277 102
 276 138 306 307
 139 307 138 277
 307 276 138 277
 277 276 138 102
 140 104 278 103
 139 140 278 103
 277 139 307 308
 140 308 139 278
 308 277 139 278
 278 277 139 103
 141 105 279 104
 140 141 279 104
 278 140 308 309
 141 309 140 279
 309 278 140 279
 279 278 140 104
 142 106 280 105
 141 142 280 105
 279 141 309 310
 142 310 141 280
 310 279 141 280
 280 279 141 105
 143 107 281 106
 142 143 281 106
 280 142 310 311
 143 311 142 281
 311 280 142 281
 281 280 142 106
 307 277 283 276
 306 307 283 276
 282 306 312 313
 307 313 306 283
 313 282 306 283
 283 282 306 276
 308 278 284 277
 307 308 284 277
 283 307 313 314
 308 314 307 284
 314 283 307 284
 284 283 307 277
 309 279 285 278
 308 309 285 278
 284 308 314 315
 309 315 308 285
 315 284 308 285
 285 284 308 278
 310 280 286 279
 309 310 286 279
 285 309 315 316
 310 316 309 286
 316 285 309 286
 286 285 309 279
 311 281 287 280
 310 311 287 280
 286 310 316 317
 311 317 310 287
 317 286 310 287
 287 286 310 280
 313 283 289 282
 312 313 289 282
 288 312 318 319
 313 319 312 289
 319 288 312 289
 289 288 312 282
 314 284 290 283
 313 314 290 283
 289 313 319 320
 314 320 313 290
 320 289 313 290
 290 289 313 283
 315 285 291 284
 314 315 291 284
 290 314 320 321
 315 321 314 291
 321 290 314 291
 291 290 314 284
 316 286 292 285
 315 316 292 285
 291 315 321 322
 316 322 315 292
 322 291 315 292
 292 291 315 285
 317 287 293 286
 316 317 293 286
 292 316 322 323
 317 323 316 293
 323 292 316 293
 293 292 316 286
 319 289 295 288
 318 319 295 288
 294 318 324 325
 319 325 318 295
 325 294 318 295
 295 294 318 288
 320 290 296 289
 319 320 296 289
 295 319 325 326
 320 326 319 296
 326 295 319 296
 296 295 319 289
 321 291 297 290
 320 321 297 290
 296 320 326 327
 321 327 320 297
 327 296 320 297
 297 296 320 290
 322 292 298 291
 321 322 298 291
 297 321 327 328
 322 328 321 298
 328 297 321 298
 298 297 321 291
 323 293 299 292
 322 323 299 292
 298 322 328 329
 323 329 322 299
 329 298 322 299
 299 298 322 292
 325 295 301 294
 324 325 301 294
 300 324 330 331
 325 331 324 301
 331 300 324 301
 301 300 324 294
 326 296 302 295
 325 326 302 295
 301 325 331 332
 326 332 325 302
 332 301 325 302
 302 301 325 295
 327 297 303 296
 326 327 303 296
 302 326 332 333
 327 333 326 303
 333 302 326 303
 303 302 326 296
 328 298 304 297
 327 328 304 297
 303 327 333 334
 328 334 327 304
 334 303 327 304
 304 303 327 297
 329 299 305 298
 328 329 305 298
 304 328 334 335
 329 335 328 305
 335 304 328 305
 305 304 328 298
 175 139 307 138
 174 175 307 138
 306 174 336 337
 175 337 174 307
 337 306 174 307
 307 306 174 138
 176 140 308 139
 175 176 308 139
 307 175 337 338
 176 338 175 308
 338 307 175 308
 308 307 175 139
 177 141 309 140
 176 177 309 140
 308 176 338 339
 177 339 176 309
 339 308 176 309
 309 308 176 140
 178 142 310 141
 177 178 310 141
 309 177 339 340
 178 340 177 310
 340 309 177 310
 310 309 177 141
 179 143 311 142
 178 179 311 142
 310 178 340 341
 179 341 178 311
 341 310 178 311
 311 310 178 142
 337 307 313 306
 336 337 313 306
 312 336 342 343
 337 343 336 313
 343 312 336 313
 313 312 336 306
 338 308 314 307
 337 338 314 307
 313 337 343 344
 338 344 337 314
 344 313 337 314
 314 313 337 307
 339 309 315 308
 338 339 315 308
 314 338 344 345
 339 345 338 315
 345 314 338 315
 315 314 338 308
 340 310 316 309
 339 340 316 309
 315 339 345 346
 340 346 339 316
 346 315 339 316
 316 315 339 309
 341 311 317 310
 340 341 317 310
 316 340 346 347
 341 347 340 317
 347 316 340 317
 317 316 340 310
 343 313 319 312
 342 343 319 312
 318 342 348 349
 343 349 342 319
 349 318 342 319
 319 318 342 312
 344 314 320 313
 343 344 320 313
 319 343 349 350
 344 350 343 320
 350 319 343 320
 320 319 343 313
 345 315 321 314
 344 345 321 314
 320 344 350 351
 345 351 344 321
 351 320 344 321
 321 320 344 314
 346 316 322 315
 345 346 322 315
 321 345 351 352
 346 352 345 322
 352 321 345 322
 322 321 345 315
 347 317 323 316
 346 347 323 316
 322 346 352 353
 347 353 346 323
 353 322 346 323
 323 322 346 316
 349 319 325 318
 348 349 325 318
 324 348 354 355
 349 355 348 325
 355 324 348 325
 325 324 348 318
 350 320 326 319
 349 350 326 319
 325 349 355 356
 350 356 349 326
 356 325 349 326
 326 325 349 319
 351 321 327 320
 350 351 327 320
 326 350 356 357
 351 357 350 327
 357 326 350 327
 327 326 350 320
 352 322 328 321
 351 352 328 321
 327 351 357 358
 352 358 351 328
 358 327 351 328
 328 327 351 321
 353 323 329 322
 352 353 329 322
 328 352 358 359
 353 359 352 329
 359 328 352 329
 329 328 352 322
 355 325 331 324
 354 355 331 324
 330 354 360 361
 355 361 354 331
 361 330 354 331
 331 330 354 324
 356 326 332 325
 355 356 332 325
 331 355 361 362
 356 362 355 332
 362 331 355 332
 332 331 355 325
 357 327 333 326
 356 357 333 326
 332 356 362 363
 357 363 356 333
 363 332 356 333
 333 332 356 326
 358 328 334 327
 357 358 334 327
 333 357 363 364
 358 364 357 334
 364 333 357 334
 334 333 357 327
 359 329 335 328
 358 359 335 328
 334 358 364 365
 359 365 358 335
 365 334 358 335
 335 334 358 328
 211 175 337 174
 210 211 337 174
 336 210 366 367
 211 367 210 337
 367 336 210 337
 337 336 210 174
 212 176 338 175
 211 212 338 175
 337 211 367 368
 212 368 211 338
 368 337 211 338
 338 337 211 175
 213 177 339 176
 212 213 339 176
 338 212 368 369
 213 369 212 339
 369 338 212 339
 339 338 212 176
 214 178 340 177
 213 214 340 177
 339 213 369 370
 214 370 213 340
 370 339 213 340
 340 339 213 177
 215 179 341 178
 214 215 341 178
 340 214 370 371
 215 371 214 341
 371 340 214 341
 341 340 214 178
 367 337 343 336
 366 367 343 336
 342 366 372 373
 367 373 366 343
 373 342 366 343
 343 342 366 336
 368 338 344 337
 367 368 344 337
 343 367 373 374
 368 374 367 344
 374 343 367 344
 344 343 367 337
 369 339 345 338
 368 369 345 338
 344 368 374 375
 369 375 368 345
 375 344 368 345
 345 344 368 338
 370 340 346 339
 369 370 346 339
 345 369 375 376
 370 376 369 346
 376 345 369 346
 346 345 369 339
 371 341 347 340
 370 371 347 340
 346 370 376 377
 371 377 370 347
 377 346 370 347
 347 346 370 340
 373 343 349 342
 372 373 349 342
 348 372 378 379
 373 379 372 349
 379 348 372 349
 349 348 372 342
 374 344 350 343
 373 374 350 343
 349 373 379 380
 374 380 373 350
 380 349 373 350
 350 349 373 343
 375 345 351 344
 374 375 351 344
 350 374 380 381
 375 381 374 351
 381 350 374 351
 351 350 374 344
 376 346 352 345
 375 376 352 345
 351 375 381 382
 376 382 375 352
 382 351 375 352
 352 351 375 345
 377 347 353 346
 376 377 353 346
 352 376 382 383
 377 383 376 353
 383 352 376 353
 353 352 376 346
 379 349 355 348
 378 379 355 348
 354 378 384 385
 379 385 378 355
 385 354 378 355
 355 354 378 348
 380 350 356 349
 379 380 356 349
 355 379 385 386
 380 386 379 356
 386 355 379 356
 356 355 379 349
 381 351 357 350
 380 381 357 350
 356 380 386 387
 381 387 380 357
 387 356 380 357
 357 356 380 350
 382 352 358 351
 381 382 358 351
 357 381 387 388
 382 388 381 358
 388 357 381 358
 358 357 381 351
 383 353 359 352
 382 383 359 352
 358 382 388 389
 383 389 382 359
 389 358 382 359
 359 358 382 352
 385 355 361 354
 384 385 361 354
 360 384 390 391
 385 391 384 361
 391 360 384 361
 361 360 384 354
 386 356 362 355
 385 386 362 355
 361 385 391 392
 386 392 385 362
 392 361 385 362
 362 361 385 355
 387 357 363 356
 386 387 363 356
 362 386 392 393
 387 393 386 363
 393 362 386 363
 363 362 386 356
 388 358 364 357
 387 388 364 357
 363 387 393 394
 388 394 387 364
 394 363 387 364
 364 363 387 357
 389 359 365 358
 388 389 365 358
 364 388 394 395
 389 395 388 365
 395 364 388 365
 365 364 388 358</DataArray>
            <DataArray Name="offsets" format="ascii" type="Int32">4 8 12 16 20 24 28 32 36 40 44 48 52 56 60 64 68 72 76 80 84 88 92 96 100 104 108 112 116 120 124 128 132 136 140 144 148 152 156 160 164 168 172 176 180 184 188 192 196 200 204 208 212 216 220 224 228 232 236 240 244 248 252 256 260 264 268 272 276 280 284 288 292 296 300 304 308 312 316 320 324 328 332 336 340 344 348 352 356 360 364 368 372 376 380 384 388 392 396 400 404 408 412 416 420 424 428 432 436 440 444 448 452 456 460 464 468 472 476 480 484 488 492 496 500 504 508 512 516 520 524 528 532 536 540 544 548 552 556 560 564 568 572 576 580 584 588 592 596 600 604 608 612 616 620 624 628 632 636 640 644 648 652 656 660 664 668 672 676 680 684 688 692 696 700 704 708 712 716 720 724 728 732 736 740 744 748 752 756 760 764 768 772 776 780 784 788 792 796 800 804 808 812 816 820 824 828 832 836 840 844 848 852 856 860 864 868 872 876 880 884 888 892 896 900 904 908 912 916 920 924 928 932 936 940 944 948 952 956 960 964 968 972 976 980 984 988 992 996 1000 1004 1008 1012 1016 1020 1024 1028 1032 1036 1040 1044 1048 1052 1056 1060 1064 1068 1072 1076 1080 1084 1088 1092 1096 1100 1104 1108 1112 1116 1120 1124 1128 1132 1136 1140 1144 1148 1152 1156 1160 1164 1168 1172 1176 1180 1184 1188 1192 1196 1200 1204 1208 1212 1216 1220 1224 1228 1232 1236 1240 1244 1248 1252 1256 1260 1264 1268 1272 1276 1280 1284 1288 1292 1296 1300 1304 1308 1312 1316 1320 1324 1328 1332 1336 1340 1344 1348 1352 1356 1360 1364 1368 1372 1376 1380 1384 1388 1392 1396 1400 1404 1408 1412 1416 1420 1424 1428 1432 1436 1440 1444 1448 1452 1456 1460 1464 1468 1472 1476 1480 1484 1488 1492 1496 1500 1504 1508 1512 1516 1520 1524 1528 1532 1536 1540 1544 1548 1552 1556 1560 1564 1568 1572 1576 1580 1584 1588 1592 1596 1600 1604 1608 1612 1616 1620 1624 1628 1632 1636 1640 1644 1648 1652 1656 1660 1664 1668 1672 1676 1680 1684 1688 1692 1696 1700 1704 1708 1712 1716 1720 1724 1728 1732 1736 1740 1744 1748 1752 1756 1760 1764 1768 1772 1776 1780 1784 1788 1792 1796 1800 1804 1808 1812 1816 1820 1824 1828 1832 1836 1840 1844 1848 1852 1856 1860 1864 1868 1872 1876 1880 1884 1888 1892 1896 1900 1904 1908 1912 1916 1920 1924 1928 1932 1936 1940 1944 1948 1952 1956 1960 1964 1968 1972 1976 1980 1984 1988 1992 1996 2000 2004 2008 2012 2016 2020 2024 2028 2032 2036 2040 2044 2048 2052 2056 2060 2064 2068 2072 2076 2080 2084 2088 2092 2096 2100 2104 2108 2112 2116 2120 2124 2128 2132 2136 2140 2144 2148 2152 2156 2160 2164 2168 2172 2176 2180 2184 2188 2192 2196 2200 2204 2208 2212 2216 2220 2224 2228 2232 2236 2240 2244 2248 2252 2256 2260 2264 2268 2272 2276 2280 2284 2288 2292 2296 2300 2304 2308 2312 2316 2320 2324 2328 2332 2336 2340 2344 2348 2352 2356 2360 2364 2368 2372 2376 2380 2384 2388 2392 2396 2400 2404 2408 2412 2416 2420 2424 2428 2432 2436 2440 2444 2448 2452 2456 2460 2464 2468 2472 2476 2480 2484 2488 2492 2496 2500 2504 2508 2512 2516 2520 2524 2528 2532 2536 2540 2544 2548 2552 2556 2560 2564 2568 2572 2576 2580 2584 2588 2592 2596 2600 2604 2608 2612 2616 2620 2624 2628 2632 2636 2640 2644 2648 2652 2656 2660 2664 2668 2672 2676 2680 2684 2688 2692 2696 2700 2704 2708 2712 2716 2720 2724 2728 2732 2736 2740 2744 2748 2752 2756 2760 2764 2768 2772 2776 2780 2784 2788 2792 2796 2800 2804 2808 2812 2816 2820 2824 2828 2832 2836 2840 2844 2848 2852 2856 2860 2864 2868 2872 2876 2880 2884 2888 2892 2896 2900 2904 2908 2912 2916 2920 2924 2928 2932 2936 2940 2944 2948 2952 2956 2960 2964 2968 2972 2976 2980 2984 2988 2992 2996 3000 3004 3008 3012 3016 3020 3024 3028 3032 3036 3040 3044 3048 3052 3056 3060 3064 3068 3072 3076 3080 3084 3088 3092 3096 3100 3104 3108 3112 3116 3120 3124 3128 3132 3136 3140 3144 3148 3152 3156 3160 3164 3168 3172 3176 3180 3184 3188 3192 3196 3200 3204 3208 3212 3216 3220 3224 3228 3232 3236 3240 3244 3248 3252 3256 3260 3264 3268 3272 3276 3280 3284 3288 3292 3296 3300 3304 3308 3312 3316 3320 3324 3328 3332 3336 3340 3344 3348 3352 3356 3360 3364 3368 3372 3376 3380 3384 3388 3392 3396 3400 3404 3408 3412 3416 3420 3424 3428 3432 3436 3440 3444 3448 3452 3456 3460 3464 3468 3472 3476 3480 3484 3488 3492 3496 3500 3504 3508 3512 3516 3520 3524 3528 3532 3536 3540 3544 3548 3552 3556 3560 3564 3568 3572 3576 3580 3584 3588 3592 3596 3600 3604 3608 3612 3616 3620 3624 3628 3632 3636 3640 3644 3648 3652 3656 3660 3664 3668 3672 3676 3680 3684 3688 3692 3696 3700 3704 3708 3712 3716 3720 3724 3728 3732 3736 3740 3744 3748 3752 3756 3760 3764 3768 3772 3776 3780 3784 3788 3792 3796 3800 3804 3808 3812 3816 3820 3824 3828 3832 3836 3840 3844 3848 3852 3856 3860 3864 3868 3872 3876 3880 3884 3888 3892 3896 3900 3904 3908 3912 3916 3920 3924 3928 3932 3936 3940 3944 3948 3952 3956 3960 3964 3968 3972 3976 3980 3984 3988 3992 3996 4000 4004 4008 4012 4016 4020 4024 4028 4032 4036 4040 4044 4048 4052 4056 4060 4064 4068 4072 4076 4080 4084 4088 4092 4096 4100 4104 4108 4112 4116 4120 4124 4128 4132 4136 4140 4144 4148 4152 4156 4160 4164 4168 4172 4176 4180 4184 4188 4192 4196 4200 4204 4208 4212 4216 4220 4224 4228 4232 4236 4240 4244 4248 4252 4256 4260 4264 4268 4272 4276 4280 4284 4288 4292 4296 4300 4304 4308 4312 4316 4320 4324 4328 4332 4336 4340 4344 4348 4352 4356 4360 4364 4368 4372 4376 4380 4384 4388 4392 4396 4400 4404 4408 4412 4416 4420 4424 4428 4432 4436 4440 4444 4448 4452 4456 4460 4464 4468 4472 4476 4480 4484 4488 4492 4496 4500 4504 4508 4512 4516 4520 4524 4528 4532 4536 4540 4544 4548 4552 4556 4560 4564 4568 4572 4576 4580 4584 4588 4592 4596 4600 4604 4608 4612 4616 4620 4624 4628 4632 4636 4640 4644 4648 4652 4656 4660 4664 4668 4672 4676 4680 4684 4688 4692 4696 4700 4704 4708 4712 4716 4720 4724 4728 4732 4736 4740 4744 4748 4752 4756 4760 4764 4768 4772 4776 4780 4784 4788 4792 4796 4800 4804 4808 4812 4816 4820 4824 4828 4832 4836 4840 4844 4848 4852 4856 4860 4864 4868 4872 4876 4880 4884 4888 4892 4896 4900 4904 4908 4912 4916 4920 4924 4928 4932 4936 4940 4944 4948 4952 4956 4960 4964 4968 4972 4976 4980 4984 4988 4992 4996 5000 5004 5008 5012 5016 5020 5024 5028 5032 5036 5040 5044 5048 5052 5056 5060 5064 5068 5072 5076 5080 5084 5088 5092 5096 5100 5104 5108 5112 5116 5120 5124 5128 5132 5136 5140 5144 5148 5152 5156 5160 5164 5168 5172 5176 5180 5184 5188 5192 5196 5200 5204 5208 5212 5216 5220 5224 5228 5232 5236 5240 5244 5248 5252 5256 5260 5264 5268 5272 5276 5280 5284 5288 5292 5296 5300 5304 5308 5312 5316 5320 5324 5328 5332 5336 5340 5344 5348 5352 5356 5360 5364 5368 5372 5376 5380 5384 5388 5392 5396 5400 5404 5408 5412 5416 5420 5424 5428 5432 5436 5440 5444 5448 5452 5456 5460 5464 5468 5472 5476 5480 5484 5488 5492 5496 5500 5504 5508 5512 5516 5520 5524 5528 5532 5536 5540 5544 5548 5552 5556 5560 5564 5568 5572 5576 5580 5584 5588 5592 5596 5600 5604 5608 5612 5616 5620 5624 5628 5632 5636 5640 5644 5648 5652 5656 5660 5664 5668 5672 5676 5680 5684 5688 5692 5696 5700 5704 5708 5712 5716 5720 5724 5728 5732 5736 5740 5744 5748 5752 5756 5760 5764 5768 5772 5776 5780 5784 5788 5792 5796 5800 5804 5808 5812 5816 5820 5824 5828 5832 5836 5840 5844 5848 5852 5856 5860 5864 5868 5872 5876 5880 5884 5888 5892 5896 5900 5904 5908 5912 5916 5920 5924 5928 5932 5936 5940 5944 5948 5952 5956 5960 5964 5968 5972 5976 5980 5984 5988 5992 5996 6000 </DataArray>
            <DataArray Name="types" format="ascii" type="UInt8">10 10 10 10 10 10 10 10 10 10 10 10 10 10 10 10 10 10 10 10 10 10 10 10 10 10 10 10 10 10 10 10 10 10 10 10 10 10 10 10 10 10 10 10 10 10 10 10 10 10 10 10 10 10 10 10 10 10 10 10 10 10 10 10 10 10 10 10 10 10 10 10 10 10 10 10 10 10 10 10 10 10 10 10 10 10 10 10 10 10 10 10 10 10 10 10 10 10 10 10 10 10 10 10 10 10 10 10 10 10 10 10 10 10 10 10 10 10 10 10 10 10 10 10 10 10 10 10 10 10 10 10 10 10 10 10 10 10 10 10 10 10 10 10 10 10 10 10 10 10 10 10 10 10 10 10 10 10 10 10 10 10 10 10 10 10 10 10 10 10 10 10 10 10 10 10 10 10 10 10 10 10 10 10 10 10 10 10 10 10 10 10 10 10 10 10 10 10 10 10 10 10 10 10 10 10 10 10 10 10 10 10 10 10 10 10 10 10 10 10 10 10 10 10 10 10 10 10 10 10 10 10 10 10 10 10 10 10 10 10 10 10 10 10 10 10 10 10 10 10 10 10 10 10 10 10 10 10 10 10 10 10 10 10 10 10 10 10 10 10 10 10 10 10 10 10 10 10 10 10 10 10 10 10 10 10 10 10 10 10 10 10 10 10 10 10 10 10 10 10 10 10 10 10 10 10 10 10 10 10 10 10 10 10 10 10 10 10 10 10 10 10 10 10 10 10 10 10 10 10 10 10 10 10 10 10 10 10 10 10 10 10 10 10 10 10 10 10 10 10 10 10 10 10 10 10 10 10 10 10 10 10 10 10 10 10 10 10 10 10 10 10 10 10 10 10 10 10 10 10 10 10 10 10 10 10 10 10 10 10 10 10 10 10 10 10 10 10 10 10 10 10 10 10 10 10 10 10 10 10 10 10 10 10 10 10 10 10 10 10 10 10 10 10 10 10 10 10 10 10 10 10 10 10 10 10 10 10 10 10 10 10 10 10 10 10 10 10 10 10 10 10 10 10 10 10 10 10 10 10 10 10 10 10 10 10 10 10 10 10 10 10 10 10 10 10 10 10 10 10 10 10 10 10 10 10 10 10 10 10 10 10 10 10 10 10 10 10 10 10 10 10 10 10 10 10 10 10 10 10 10 10 10 10 10 10 10 10 10 10 10 10 10 10 10 10 10 10 10 10 10 10 10 10 10 10 10 10 10 10 10 10 10 10 10 10 10 10 10 10 10 10 10 10 10 10 10 10 10 10 10 10 10 10 10 10 10 10 10 10 10 10 10 10 10 10 10 10 10 10 10 10 10 10 10 10 10 10 10 10 10 10 10 10 10 10 10 10 10 10 10 10 10 10 10 10 10 10 10 10 10 10 10 10 10 10 10 10 10 10 10 10 10 10 10 10 10 10 10 10 10 10 10 10 10 10 10 10 10 10 10 10 10 10 10 10 10 10 10 10 10 10 10 10 10 10 10 10 10 10 10 10 10 10 10 10 10 10 10 10 10 10 10 10 10 10 10 10 10 10 10 10 10 10 10 10 10 10 10 10 10 10 10 10 10 10 10 10 10 10 10 10 10 10 10 10 10 10 10 10 10 10 10 10 10 10 10 10 10 10 10 10 10 10 10 10 10 10 10 10 10 10 10 10 10 10 10 10 10 10 10 10 10 10 10 10 10 10 10 10 10 10 10 10 10 10 10 10 10 10 10 10 10 10 10 10 10 10 10 10 10 10 10 10 10 10 10 10 10 10 10 10 10 10 10 10 10 10 10 10 10 10 10 10 10 10 10 10 10 10 10 10 10 10 10 10 10 10 10 10 10 10 10 10 10 10 10 10 10 10 10 10 10 10 10 10 10 10 10 10 10 10 10 10 10 10 10 10 10 10 10 10 10 10 10 10 10 10 10 10 10 10 10 10 10 10 10 10 10 10 10 10 10 10 10 10 10 10 10 10 10 10 10 10 10 10 10 10 10 10 10 10 10 10 10 10 10 10 10 10 10 10 10 10 10 10 10 10 10 10 10 10 10 10 10 10 10 10 10 10 10 10 10 10 10 10 10 10 10 10 10 10 10 10 10 10 10 10 10 10 10 10 10 10 10 10 10 10 10 10 10 10 10 10 10 10 10 10 10 10 10 10 10 10 10 10 10 10 10 10 10 10 10 10 10 10 10 10 10 10 10 10 10 10 10 10 10 10 10 10 10 10 10 10 10 10 10 10 10 10 10 10 10 10 10 10 10 10 10 10 10 10 10 10 10 10 10 10 10 10 10 10 10 10 10 10 10 10 10 10 10 10 10 10 10 10 10 10 10 10 10 10 10 10 10 10 10 10 10 10 10 10 10 10 10 10 10 10 10 10 10 10 10 10 10 10 10 10 10 10 10 10 10 10 10 10 10 10 10 10 10 10 10 10 10 10 10 10 10 10 10 10 10 10 10 10 10 10 10 10 10 10 10 10 10 10 10 10 10 10 10 10 10 10 10 10 10 10 10 10 10 10 10 10 10 10 10 10 10 10 10 10 10 10 10 10 10 10 10 10 10 10 10 10 10 10 10 10 10 10 10 10 10 10 10 10 10 10 10 10 10 10 10 10 10 10 10 10 10 10 10 10 10 10 10 10 10 10 10 10 10 10 10 10 10 10 10 10 10 10 10 10 10 10 10 10 10 10 10 10 10 10 10 10 10 10 10 10 10 10 10 10 10 10 10 10 10 10 10 10 10 10 10 10 10 10 10 10 10 10 10 10 10 10 10 10 10 10 10 10 10 10 10 10 10 10 10 10 10 10 10 10 10 10 10 10 10 10 10 10 10 10 10 10 10 10 10 10 10 10 10 10 10 10 10 10 10 10 10 10 10 10 10 10 10 10 10 10 10 10 10 10 10 10 10 10 10 10 10 10 10 10 10 10 10 10 10 10 10 10 10 10 10 10 10 10 10 10 10 10 10 10 10 10 10 10 10 10 10 10 10 10 10 10 10 10 10 10 10 10 10 10 10 10 10 10 10 10 10 10 10 10 10 10 10 10 10 10 10 10 10 10 10 10 10 10 10 10 10 10 10 10 10 10 10 10 10 10 10 10 10 10 10 10 10 10 10 10 10 10 10 10 10 10 10 10 10 10 10 10 10 10 10 10 10 10 10 10 10 10 10 10 10 10 10 10 10 10 10 10 10 10 10 10 10 10 10 10 10 10 10 10 10 10 10 10 10 10 10 10 10 10 10 10 10 10 10 10 10 10 10 10 10 10 10 10 10 10 10 10 10 10 10 10 10 10 10 10 10 10 10 10 10 10 10 10 10 10 10 10 10 10 10 10 10 10 10 10 10 10 10 10 10 10 10 10 10 10 10 10 10 10 10 10 10 10 10 10 10 10 </DataArray>
         </Cells>
         <PointData>
            <DataArray Name="fValues" NumberOfComponents="1" format="ascii" type="Float64">
 6.21650e-19 
 7.68574e-19 
 1.26038e-18 
 6.68352e-19 
-4.60917e-19 
 1.21694e-19 
-5.15806e-19 
-2.01487e-18 
-4.24365e-18 
-3.54364e-18 
 3.03859e-19 
 3.26273e-19 
 3.21197e-18 
-2.61350e-18 
-5.53720e-18 
 5.59008e-18 
 5.62168e-18 
-1.94961e-18 
-1.69213e-18 
 6.60220e-19 
 9.60980e-18 
 9.26526e-18 
-1.19807e-18 
 5.94383e-18 
 1.58324e-18 
 5.99275e-19 
 1.48066e-17 
 1.61163e-17 
 1.71601e-18 
-4.83046e-19 
-1.91200e-18 
-1.29105e-17 
 7.87767e-18 
-1.03892e-17 
-6.31370e-18 
 1.01642e-18 
-4.39768e-20 
 1.07494e-18 
 2.75262e-18 
-3.29800e-19 
 5.09413e-19 
-1.08744e-19 
-6.45324e-19 
 1.90356e-02 
 2.57252e-02 
 2.56268e-02 
 1.88558e-02 
-1.10920e-18 
-4.02472e-18 
 2.61653e-02 
 3.62585e-02 
 3.61983e-02 
 2.60510e-02 
 3.74189e-18 
-2.42607e-18 
 2.89689e-02 
 4.06106e-02 
 4.05791e-02 
 2.89076e-02 
 4.30708e-18 
-5.14490e-18 
 3.00405e-02 
 4.23335e-02 
 4.23275e-02 
 3.00296e-02 
-1.66664e-18 
-1.32229e-17 
 3.03182e-02 
 4.28140e-02 
 4.28406e-02 
 3.03707e-02 
 4.45659e-18 
-3.37995e-18 
-1.31958e-17 
-7.79492e-18 
-1.20794e-18 
-1.17303e-19 
 1.38144e-18 
-5.68162e-18 
 2.62111e-02 
 3.56216e-02 
 3.53480e-02 
 2.56268e-02 
-3.88624e-18 
-8.78126e-18 
 3.66762e-02 
 5.12643e-02 
 5.10390e-02 
 3.61983e-02 
 3.47861e-18 
-3.67485e-18 
 4.08474e-02 
 5.78746e-02 
 5.77435e-02 
 4.05791e-02 
-2.13890e-18 
-1.77141e-18 
 4.24316e-02 
 6.04865e-02 
 6.04338e-02 
 4.23275e-02 
-2.64551e-18 
-9.00577e-18 
 4.28140e-02 
 6.11723e-02 
 6.11861e-02 
 4.28406e-02 
-6.32382e-18 
 3.61255e-18 
 1.22169e-17 
 5.52866e-18 
 5.42311e-18 
 2.15252e-18 
-5.09587e-19 
 7.41931e-18 
 2.67877e-02 
 3.60808e-02 
 3.56216e-02 
 2.57252e-02 
 5.33311e-18 
 1.10379e-18 
 3.70765e-02 
 5.16375e-02 
 5.12643e-02 
 3.62585e-02 
 2.42670e-19 
 1.31977e-17 
 4.10438e-02 
 5.80878e-02 
 5.78746e-02 
 4.06106e-02 
 3.89433e-18 
 3.20399e-18 
 4.25152e-02 
 6.05791e-02 
 6.04865e-02 
 4.23335e-02 
 1.34946e-17 
 4.41159e-18 
 4.28406e-02 
 6.11861e-02 
 6.11723e-02 
 4.28140e-02 
-4.03400e-18 
 2.61140e-18 
 1.11463e-17 
 1.14573e-17 
-7.92171e-18 
 1.11473e-18 
-2.53521e-18 
 9.91953e-19 
 2.05430e-02 
 2.67877e-02 
 2.62111e-02 
 1.90356e-02 
-3.27059e-18 
 8.66945e-19 
 2.70211e-02 
 3.70765e-02 
 3.66762e-02 
 2.61653e-02 
-3.02787e-18 
-2.90993e-19 
 2.93626e-02 
 4.10438e-02 
 4.08474e-02 
 2.89689e-02 
-2.06723e-18 
-4.98101e-18 
 3.02042e-02 
 4.25152e-02 
 4.24316e-02 
 3.00405e-02 
 2.38982e-18 
-5.26599e-18 
 3.03707e-02 
 4.28406e-02 
 4.28140e-02 
 3.03182e-02 
-3.27403e-18 
-2.86542e-18 
-2.39608e-18 
 4.75443e-18 
-4.16383e-18 
-3.82285e-18 
 3.68392e-18 
-3.65122e-18 
 1.44371e-18 
 4.23991e-19 
-5.06321e-18 
-1.59636e-18 
-4.34027e-18 
 4.22879e-18 
 3.02444e-18 
-1.21968e-17 
-7.57203e-18 
-7.03474e-18 
-4.14851e-18 
-6.71101e-18 
-3.95366e-18 
-5.21058e-18 
 9.26362e-18 
 5.84880e-18 
-3.47728e-18 
 2.39153e-18 
-2.49887e-20 
-2.44177e-18 
-8.59876e-18 
-4.00978e-18 
 9.41244e-18 
 5.69782e-18 
-6.17678e-18 
-3.52624e-18 
-3.08955e-18 
-1.17033e-17 
-7.34694e-18 
 7.34484e-18 
 3.75877e-18 
 6.66948e-18 
-1.62495e-17 
-5.01937e-18 
 4.87754e-18 
 2.63737e-18 
-7.88019e-18 
 3.16079e-19 
 4.83498e-18 
 1.69393e-17 
-1.43366e-19 
-1.05742e-18 
-3.38122e-18 
 5.08812e-18 
-1.13312e-17 
 2.05306e-18 
 9.27737e-19 
-2.53462e-18 
-2.52024e-18 
 1.32872e-17 
-9.83421e-18 
-4.66624e-18 
-4.21869e-18 
 1.11945e-18 
-3.13538e-19 
-3.62486e-19 
-5.42340e-18 
-4.12506e-18 
 1.64312e-18 
-5.40320e-18 
 3.00405e-02 
 4.24316e-02 
 4.25152e-02 
 3.02042e-02 
-6.79193e-18 
-1.19856e-18 
 2.89689e-02 
 4.08474e-02 
 4.10438e-02 
 2.93626e-02 
 1.55360e-17 
-1.86821e-18 
 2.61653e-02 
 3.66762e-02 
 3.70765e-02 
 2.70211e-02 
 3.18437e-18 
-2.26463e-18 
 1.90356e-02 
 2.62111e-02 
 2.67877e-02 
 2.05430e-02 
 2.60557e-18 
 9.95024e-19 
 1.12193e-18 
-4.58024e-18 
-1.02039e-17 
-1.01130e-17 
-3.28845e-18 
-9.74456e-18 
 4.23335e-02 
 6.04865e-02 
 6.05791e-02 
 4.25152e-02 
-1.33626e-17 
 6.39577e-18 
 4.06106e-02 
 5.78746e-02 
 5.80878e-02 
 4.10438e-02 
 6.75877e-18 
-4.91461e-19 
 3.62585e-02 
 5.12643e-02 
 5.16375e-02 
 3.70765e-02 
-4.18791e-18 
-2.72692e-18 
 2.57252e-02 
 3.56216e-02 
 3.60808e-02 
 2.67877e-02 
-9.43641e-19 
 3.44869e-18 
-1.59206e-18 
-5.89826e-18 
-1.40424e-17 
-1.95409e-18 
 5.04742e-19 
-6.01027e-18 
 4.23275e-02 
 6.04338e-02 
 6.04865e-02 
 4.24316e-02 
-8.65072e-18 
-1.36153e-19 
 4.05791e-02 
 5.77435e-02 
 5.78746e-02 
 4.08474e-02 
-8.86816e-18 
-3.31778e-18 
 3.61983e-02 
 5.10390e-02 
 5.12643e-02 
 3.66762e-02 
-2.27554e-19 
-5.19160e-18 
 2.56268e-02 
 3.53480e-02 
 3.56216e-02 
 2.62111e-02 
-7.41318e-18 
 2.49969e-18 
-2.63970e-18 
-4.78057e-18 
-5.61938e-18 
 9.86729e-19 
 3.25279e-18 
-2.98710e-18 
 3.00296e-02 
 4.23275e-02 
 4.23335e-02 
 3.00405e-02 
-1.79310e-18 
 3.15335e-18 
 2.89076e-02 
 4.05791e-02 
 4.06106e-02 
 2.89689e-02 
-2.06660e-18 
-2.26212e-18 
 2.60510e-02 
 3.61983e-02 
 3.62585e-02 
 2.61653e-02 
 1.21243e-18 
-1.61184e-18 
 1.88558e-02 
 2.56268e-02 
 2.57252e-02 
 1.90356e-02 
-3.84358e-18 
-2.52939e-19 
-2.77233e-20 
-4.23063e-19 
 4.86199e-18 
 3.12952e-19 
-5.92647e-18 
 9.55965e-19 
 4.66031e-18 
-4.54283e-18 
-1.17914e-17 
 1.26258e-18 
 1.54172e-20 
 2.32332e-18 
 2.46068e-18 
 5.34107e-18 
 1.45485e-17 
 4.75185e-18 
 2.63508e-18 
-3.90167e-18 
 1.75610e-18 
-2.04474e-18 
 2.10491e-19 
-4.86367e-18 
-5.38884e-18 
 1.20803e-18 
-1.29515e-18 
-3.83264e-18 
-2.76398e-18 
-4.05493e-18 
-2.19538e-18 
-3.72256e-19 
-2.10579e-19 
 1.61215e-18 
 1.88717e-19 
 1.64132e-19 
 4.23718e-18 </DataArray>
         </PointData>
         <CellData/>
      </Piece>
   </UnstructuredGrid>
</VTKFile>