<?xml version="1.0" encoding="utf-8"?>
<VTKFile byte_order="LittleEndian" type="UnstructuredGrid" version="0.1">
   <UnstructuredGrid>
      <Piece NumberOfCells="532" NumberOfPoints="351">
         <Points>
            <DataArray Name="Points" NumberOfComponents="3" format="ascii" type="Float32">
0.0634 0.3357 0.0000
0.0685 0.3200 0.0000
0.0804 0.3357 0.0000
0.0736 0.3043 0.0000
0.0863 0.3197 0.0000
0.0973 0.3357 0.0000
0.0000 0.1942 0.0000
0.0787 0.2885 0.0000
0.0921 0.3036 0.0000
0.1143 0.3357 0.0000
0.1040 0.3194 0.0000
0.0000 0.1766 0.0000
0.0156 0.1942 0.0000
0.0838 0.2728 0.0000
0.0975 0.2871 0.0000
0.1313 0.3357 0.0000
0.1106 0.3027 0.0000
0.1217 0.3190 0.0000
0.0155 0.1766 0.0000
0.0000 0.1591 0.0000
0.0312 0.1942 0.0000
0.0888 0.2571 0.0000
0.1024 0.2706 0.0000
0.0155 0.1590 0.0000
0.0309 0.1766 0.0000
0.0000 0.1415 0.0000
0.1482 0.3357 0.0000
0.0468 0.1942 0.0000
0.1167 0.2856 0.0000
0.1390 0.3188 0.0000
0.1292 0.3019 0.0000
0.0939 0.2414 0.0000
0.0309 0.1590 0.0000
0.0156 0.1415 0.0000
0.1070 0.2539 0.0000
0.0466 0.1766 0.0000
0.0624 0.1942 0.0000
0.1652 0.3357 0.0000
0.1212 0.2684 0.0000
0.1563 0.3187 0.0000
0.1468 0.3016 0.0000
0.1374 0.2840 0.0000
0.0990 0.2257 0.0000
0.0465 0.1589 0.0000
0.0312 0.1415 0.0000
0.0621 0.1765 0.0000
0.0780 0.1942 0.0000
0.1111 0.2372 0.0000
0.1253 0.2507 0.0000
0.1821 0.3357 0.0000
0.1734 0.3188 0.0000
0.1406 0.2660 0.0000
0.1643 0.3016 0.0000
0.1547 0.2840 0.0000
0.0468 0.1415 0.0000
0.0622 0.1590 0.0000
0.1041 0.2099 0.0000
0.0778 0.1766 0.0000
0.0936 0.1942 0.0000
0.1146 0.2208 0.0000
0.1288 0.2327 0.0000
0.1991 0.3357 0.0000
0.1438 0.2480 0.0000
0.1906 0.3188 0.0000
0.0624 0.1415 0.0000
0.1816 0.3016 0.0000
0.0777 0.1589 0.0000
0.1164 0.2074 0.0000
0.0934 0.1766 0.0000
0.1720 0.2840 0.0000
0.1092 0.1942 0.0000
0.1324 0.2129 0.0000
0.1267 0.2048 0.0000
0.1202 0.1942 0.0000
0.1470 0.2300 0.0000
0.0780 0.1415 0.0000
0.2161 0.3357 0.0000
0.0935 0.1590 0.0000
0.2077 0.3188 0.0000
0.1092 0.1766 0.0000
0.1988 0.3016 0.0000
0.1893 0.2840 0.0000
0.1313 0.1942 0.0000
0.0936 0.1415 0.0000
0.1092 0.1591 0.0000
0.1502 0.2121 0.0000
0.1260 0.1769 0.0000
0.2330 0.3357 0.0000
0.1336 0.1845 0.0000
0.2248 0.3188 0.0000
0.1423 0.1941 0.0000
0.2160 0.3016 0.0000
0.2067 0.2840 0.0000
0.1092 0.1415 0.0000
0.1434 0.1826 0.0000
0.1249 0.1584 0.0000
0.1534 0.1941 0.0000
0.2500 0.3357 0.0000
0.1041 0.1258 0.0000
0.2419 0.3188 0.0000
0.1420 0.1708 0.0000
0.2333 0.3016 0.0000
0.2240 0.2840 0.0000
0.1239 0.1415 0.0000
0.1557 0.1810 0.0000
0.0990 0.1100 0.0000
0.1404 0.1563 0.0000
0.1194 0.1252 0.0000
0.0939 0.0943 0.0000
0.2670 0.3357 0.0000
0.1580 0.1678 0.0000
0.2590 0.3188 0.0000
0.1386 0.1415 0.0000
0.2505 0.3016 0.0000
0.2413 0.2840 0.0000
0.1149 0.1088 0.0000
0.0888 0.0786 0.0000
0.1557 0.1547 0.0000
0.1347 0.1245 0.0000
0.0838 0.0629 0.0000
0.1104 0.0923 0.0000
0.1534 0.1416 0.0000
0.2839 0.3357 0.0000
0.2761 0.3188 0.0000
0.2677 0.3016 0.0000
0.1309 0.1072 0.0000
0.2587 0.2840 0.0000
0.0787 0.0472 0.0000
0.1058 0.0756 0.0000
0.1502 0.1236 0.0000
0.1270 0.0900 0.0000
0.0736 0.0314 0.0000
0.1008 0.0589 0.0000
0.3009 0.3357 0.0000
0.2932 0.3188 0.0000
0.1470 0.1056 0.0000
0.2849 0.3016 0.0000
0.0685 0.0157 0.0000
0.2760 0.2840 0.0000
0.0951 0.0425 0.0000
0.1230 0.0726 0.0000
0.0883 0.0288 0.0000
0.1438 0.0876 0.0000
0.0634 0.0000 0.0000
0.1184 0.0546 0.0000
0.3179 0.3357 0.0000
0.0841 0.0148 0.0000
0.3106 0.3190 0.0000
0.3022 0.3017 0.0000
0.2933 0.2840 0.0000
0.0999 0.0261 0.0000
0.1406 0.0697 0.0000
0.1124 0.0349 0.0000
0.0804 0.0000 0.0000
0.0990 0.0144 0.0000
0.1374 0.0517 0.0000
0.3348 0.3357 0.0000
0.3283 0.3195 0.0000
0.3199 0.3018 0.0000
0.3107 0.2840 0.0000
0.0973 0.0000 0.0000
0.1146 0.0167 0.0000
0.1335 0.0345 0.0000
0.1547 0.0517 0.0000
0.3518 0.3357 0.0000
0.3462 0.3211 0.0000
0.1143 0.0000 0.0000
0.3280 0.2840 0.0000
0.3387 0.3024 0.0000
0.1325 0.0171 0.0000
0.1519 0.0344 0.0000
0.1720 0.0517 0.0000
0.3606 0.3252 0.0000
0.1313 0.0000 0.0000
0.3687 0.3357 0.0000
0.1499 0.0170 0.0000
0.3453 0.2840 0.0000
0.3704 0.3287 0.0000
0.1696 0.0343 0.0000
0.3611 0.3038 0.0000
0.1893 0.0517 0.0000
0.1482 0.0000 0.0000
0.3737 0.3162 0.0000
0.1674 0.0170 0.0000
0.3857 0.3357 0.0000
0.3819 0.3256 0.0000
0.1871 0.0343 0.0000
0.3626 0.2840 0.0000
0.2067 0.0517 0.0000
0.1652 0.0000 0.0000
0.3594 0.2660 0.0000
0.1846 0.0171 0.0000
0.4027 0.3357 0.0000
0.3562 0.2481 0.0000
0.2044 0.0344 0.0000
0.3977 0.3230 0.0000
0.3913 0.3103 0.0000
0.3841 0.2962 0.0000
0.2240 0.0517 0.0000
0.3805 0.2798 0.0000
0.1821 0.0000 0.0000
0.3530 0.2301 0.0000
0.2017 0.0172 0.0000
0.3768 0.2628 0.0000
0.3499 0.2121 0.0000
0.2215 0.0343 0.0000
0.4196 0.3357 0.0000
0.3728 0.2456 0.0000
0.4146 0.3212 0.0000
0.2413 0.0517 0.0000
0.4090 0.3068 0.0000
0.1991 0.0000 0.0000
0.4033 0.2919 0.0000
0.3467 0.1942 0.0000
0.3690 0.2284 0.0000
0.2188 0.0172 0.0000
0.3985 0.2761 0.0000
0.3443 0.1810 0.0000
0.2388 0.0344 0.0000
0.3652 0.2112 0.0000
0.3941 0.2599 0.0000
0.4366 0.3357 0.0000
0.3420 0.1678 0.0000
0.2587 0.0517 0.0000
0.3895 0.2434 0.0000
0.2161 0.0000 0.0000
0.4315 0.3200 0.0000
0.3614 0.1942 0.0000
0.4264 0.3043 0.0000
0.2359 0.0172 0.0000
0.3850 0.2269 0.0000
0.4213 0.2885 0.0000
0.3603 0.1811 0.0000
0.3443 0.1548 0.0000
0.2561 0.0344 0.0000
0.4162 0.2728 0.0000
0.3806 0.2105 0.0000
0.4112 0.2571 0.0000
0.2330 0.0000 0.0000
0.2760 0.0517 0.0000
0.3761 0.1942 0.0000
0.3596 0.1679 0.0000
0.4061 0.2414 0.0000
0.2530 0.0171 0.0000
0.3466 0.1417 0.0000
0.4010 0.2257 0.0000
0.3757 0.1811 0.0000
0.3603 0.1548 0.0000
0.2733 0.0345 0.0000
0.3959 0.2099 0.0000
0.2500 0.0000 0.0000
0.3908 0.1942 0.0000
0.2933 0.0517 0.0000
0.3754 0.1679 0.0000
0.3613 0.1416 0.0000
0.3498 0.1237 0.0000
0.2701 0.0171 0.0000
0.3908 0.1810 0.0000
0.3757 0.1547 0.0000
0.2904 0.0344 0.0000
0.4045 0.1942 0.0000
0.2670 0.0000 0.0000
0.3908 0.1678 0.0000
0.3107 0.0517 0.0000
0.3761 0.1416 0.0000
0.3651 0.1250 0.0000
0.3530 0.1057 0.0000
0.4039 0.1828 0.0000
0.2872 0.0171 0.0000
0.3908 0.1547 0.0000
0.3078 0.0342 0.0000
0.4181 0.1942 0.0000
0.4060 0.1711 0.0000
0.4150 0.1847 0.0000
0.2839 0.0000 0.0000
0.3804 0.1263 0.0000
0.3908 0.1415 0.0000
0.3280 0.0517 0.0000
0.3689 0.1082 0.0000
0.3562 0.0877 0.0000
0.3043 0.0170 0.0000
0.4063 0.1565 0.0000
0.4318 0.1942 0.0000
0.4230 0.1772 0.0000
0.3253 0.0340 0.0000
0.3009 0.0000 0.0000
0.3954 0.1273 0.0000
0.3845 0.1108 0.0000
0.3728 0.0915 0.0000
0.4064 0.1415 0.0000
0.3453 0.0517 0.0000
0.3594 0.0697 0.0000
0.3216 0.0168 0.0000
0.4224 0.1585 0.0000
0.4454 0.1942 0.0000
0.4000 0.1132 0.0000
0.4408 0.1768 0.0000
0.3440 0.0335 0.0000
0.3179 0.0000 0.0000
0.3888 0.0953 0.0000
0.3766 0.0750 0.0000
0.4220 0.1415 0.0000
0.3626 0.0517 0.0000
0.4591 0.1942 0.0000
0.3393 0.0163 0.0000
0.4387 0.1590 0.0000
0.4045 0.0990 0.0000
0.3932 0.0799 0.0000
0.4562 0.1767 0.0000
0.3348 0.0000 0.0000
0.3810 0.0588 0.0000
0.4376 0.1415 0.0000
0.4727 0.1942 0.0000
0.3667 0.0323 0.0000
0.4543 0.1591 0.0000
0.3568 0.0149 0.0000
0.4091 0.0849 0.0000
0.3978 0.0651 0.0000
0.4709 0.1767 0.0000
0.3518 0.0000 0.0000
0.3867 0.0431 0.0000
0.4532 0.1415 0.0000
0.4864 0.1942 0.0000
0.4696 0.1591 0.0000
0.3698 0.0108 0.0000
0.4137 0.0707 0.0000
0.4032 0.0507 0.0000
0.4855 0.1767 0.0000
0.3687 0.0000 0.0000
0.3840 0.0176 0.0000
0.4688 0.1415 0.0000
0.5000 0.1942 0.0000
0.3961 0.0307 0.0000
0.4183 0.0566 0.0000
0.4848 0.1591 0.0000
0.4092 0.0376 0.0000
0.5000 0.1766 0.0000
0.3857 0.0000 0.0000
0.4042 0.0236 0.0000
0.4844 0.1415 0.0000
0.4020 0.0139 0.0000
0.4229 0.0424 0.0000
0.5000 0.1591 0.0000
0.4146 0.0261 0.0000
0.4027 0.0000 0.0000
0.5000 0.1415 0.0000
0.4274 0.0283 0.0000
0.4171 0.0137 0.0000
0.4196 0.0000 0.0000
0.4320 0.0141 0.0000
0.4366 0.0000 0.0000</DataArray>
         </Points>
         <Cells>
            <DataArray Name="connectivity" format="ascii" type="Int32">
 0 1 4
 1 3 8
 3 7 14
 4 8 16
 5 2 4
 7 13 22
 9 5 10
 10 16 30
 11 19 23
 12 6 11
 13 21 34
 14 28 16
 15 9 17
 17 30 40
 18 23 32
 20 12 18
 21 31 47
 22 38 28
 24 32 43
 25 33 23
 26 15 29
 27 20 24
 28 41 30
 29 40 52
 31 42 59
 33 44 32
 34 48 38
 36 27 35
 37 26 39
 39 52 65
 41 53 40
 42 56 67
 44 54 43
 45 35 43
 46 36 45
 47 60 48
 49 37 50
 50 65 80
 51 41 28
 53 69 52
 55 43 54
 58 46 57
 59 71 60
 61 49 63
 62 51 38
 63 80 91
 64 75 66
 66 57 45
 67 72 71
 69 81 65
 70 58 68
 70 73 67
 73 70 79
 73 82 72
 74 62 48
 75 83 77
 76 61 78
 77 68 57
 78 91 101
 79 84 95
 81 92 80
 82 73 86
 82 90 71
 83 93 84
 84 79 68
 85 74 60
 87 76 89
 88 86 100
 89 101 113
 90 82 88
 90 96 85
 92 102 91
 93 103 95
 95 106 100
 96 90 94
 97 87 99
 98 105 115
 99 113 124
 102 114 101
 103 112 106
 103 93 98
 105 108 120
 108 116 128
 109 97 111
 110 104 94
 111 124 136
 112 103 107
 114 126 113
 115 125 118
 116 119 132
 117 110 100
 119 127 139
 121 117 106
 121 112 118
 122 109 123
 123 136 148
 125 115 120
 126 138 124
 127 131 141
 130 120 128
 131 137 146
 132 139 152
 133 122 134
 134 148 158
 135 129 118
 137 143 153
 138 149 136
 139 141 150
 140 128 132
 141 146 154
 142 135 125
 145 133 147
 147 158 168
 149 159 148
 151 142 130
 152 161 169
 153 160 154
 154 161 152
 155 151 140
 155 144 152
 156 145 157
 157 168 179
 159 167 158
 160 166 161
 162 169 175
 163 155 162
 164 156 165
 166 173 169
 167 176 168
 170 175 183
 171 163 170
 172 165 179
 172 182 185
 173 181 175
 174 164 172
 176 187 179
 178 183 191
 179 197 196
 180 171 178
 181 189 183
 184 174 177
 186 191 202
 187 190 203
 187 199 197
 188 180 186
 189 200 191
 190 193 207
 192 184 185
 193 201 214
 194 202 215
 196 195 185
 198 188 194
 200 211 202
 201 204 219
 203 220 216
 205 215 229
 206 192 195
 207 224 220
 208 195 196
 209 198 205
 211 225 215
 212 210 196
 213 217 232
 213 227 219
 214 230 224
 216 212 197
 218 229 243
 219 236 230
 222 233 247
 223 209 218
 225 238 229
 226 221 206
 227 240 236
 228 226 208
 231 228 210
 233 244 254
 234 243 256
 235 231 212
 237 235 216
 238 250 243
 239 223 234
 240 251 249
 241 232 217
 241 253 246
 242 237 220
 245 242 224
 246 240 227
 247 258 253
 248 256 268
 249 245 230
 250 261 256
 251 257 267
 252 239 248
 254 264 258
 254 244 255
 255 266 278
 257 251 240
 257 262 272
 259 268 280
 261 274 268
 262 257 246
 262 269 281
 263 252 259
 264 254 265
 266 279 288
 269 262 253
 269 276 289
 270 280 292
 271 260 267
 273 267 272
 274 285 280
 275 265 278
 276 269 258
 276 264 275
 277 263 270
 279 291 300
 281 293 283
 282 271 273
 284 292 304
 285 298 292
 287 278 288
 289 301 293
 290 277 284
 291 302 310
 294 282 283
 295 286 275
 298 309 304
 299 288 300
 301 311 305
 302 290 297
 303 294 296
 304 315 313
 305 296 283
 306 295 287
 307 300 310
 309 319 315
 310 302 313
 311 321 314
 312 303 308
 314 308 296
 316 306 299
 319 328 324
 321 330 323
 322 312 318
 323 318 308
 324 329 313
 325 316 307
 326 317 310
 328 337 329
 330 339 334
 331 322 327
 332 320 313
 333 325 317
 334 327 318
 335 326 320
 337 344 340
 339 345 342
 340 338 332
 341 333 326
 342 336 327
 343 335 332
 344 348 347
 346 341 335
 347 343 338
 349 346 343
 350 349 347
 0 4 2
 1 8 4
 3 14 8
 4 16 10
 5 4 10
 7 22 14
 9 10 17
 10 30 17
 11 23 18
 12 11 18
 13 34 22
 14 16 8
 15 17 29
 17 40 29
 18 32 24
 20 18 24
 21 47 34
 22 28 14
 24 43 35
 25 23 19
 26 29 39
 27 24 35
 28 30 16
 29 52 39
 31 59 47
 33 32 23
 34 38 22
 36 35 45
 37 39 50
 39 65 50
 41 40 30
 42 67 59
 44 43 32
 45 43 55
 46 45 57
 47 48 34
 49 50 63
 50 80 63
 51 28 38
 53 52 40
 55 54 64
 58 57 68
 59 60 47
 61 63 78
 62 38 48
 63 91 78
 64 66 55
 66 45 55
 67 71 59
 69 65 52
 70 68 79
 70 67 56
 73 79 86
 73 72 67
 74 48 60
 75 77 66
 76 78 89
 77 57 66
 78 101 89
 79 95 86
 81 80 65
 82 86 88
 82 71 72
 83 84 77
 84 68 77
 85 60 71
 87 89 99
 88 100 94
 89 113 99
 90 88 94
 90 85 71
 92 91 80
 93 95 84
 95 100 86
 96 94 104
 97 99 111
 98 115 107
 99 124 111
 102 101 91
 103 106 95
 103 98 107
 105 120 115
 108 128 120
 109 111 123
 110 94 100
 111 136 123
 112 107 118
 114 113 101
 115 118 107
 116 132 128
 117 100 106
 119 139 132
 121 106 112
 121 118 129
 122 123 134
 123 148 134
 125 120 130
 126 124 113
 127 141 139
 130 128 140
 131 146 141
 132 152 144
 133 134 147
 134 158 147
 135 118 125
 137 153 146
 138 136 124
 139 150 152
 140 132 144
 141 154 150
 142 125 130
 145 147 157
 147 168 157
 149 148 136
 151 130 140
 152 169 162
 153 154 146
 154 152 150
 155 140 144
 155 152 162
 156 157 165
 157 179 165
 159 158 148
 160 161 154
 162 175 170
 163 162 170
 164 165 172
 166 169 161
 167 168 158
 170 183 178
 171 170 178
 172 179 182
 172 185 177
 173 175 169
 174 172 177
 176 179 168
 178 191 186
 179 196 182
 180 178 186
 181 183 175
 184 177 185
 186 202 194
 187 203 199
 187 197 179
 188 186 194
 189 191 183
 190 207 203
 192 185 195
 193 214 207
 194 215 205
 196 185 182
 198 194 205
 200 202 191
 201 219 214
 203 216 199
 205 229 218
 206 195 208
 207 220 203
 208 196 210
 209 205 218
 211 215 202
 212 196 197
 213 232 227
 213 219 204
 214 224 207
 216 197 199
 218 243 234
 219 230 214
 222 247 241
 223 218 234
 225 229 215
 226 206 208
 227 236 219
 228 208 210
 231 210 212
 233 254 247
 234 256 248
 235 212 216
 237 216 220
 238 243 229
 239 234 248
 240 249 236
 241 217 222
 241 246 232
 242 220 224
 245 224 230
 246 227 232
 247 253 241
 248 268 259
 249 230 236
 250 256 243
 251 267 260
 252 248 259
 254 258 247
 254 255 265
 255 278 265
 257 240 246
 257 272 267
 259 280 270
 261 268 256
 262 246 253
 262 281 272
 263 259 270
 264 265 275
 266 288 278
 269 253 258
 269 289 281
 270 292 284
 271 267 273
 273 272 283
 274 280 268
 275 278 287
 276 258 264
 276 275 286
 277 270 284
 279 300 288
 281 283 272
 282 273 283
 284 304 297
 285 292 280
 287 288 299
 289 293 281
 290 284 297
 291 310 300
 294 283 296
 295 275 287
 298 304 292
 299 300 307
 301 305 293
 302 297 313
 303 296 308
 304 313 297
 305 283 293
 306 287 299
 307 310 317
 309 315 304
 310 313 320
 311 314 305
 312 308 318
 314 296 305
 316 299 307
 319 324 315
 321 323 314
 322 318 327
 323 308 314
 324 313 315
 325 307 317
 326 310 320
 328 329 324
 330 334 323
 331 327 336
 332 313 329
 333 317 326
 334 318 323
 335 320 332
 337 340 329
 339 342 334
 340 332 329
 341 326 335
 342 327 334
 343 332 338
 344 347 340
 346 335 343
 347 338 340
 349 343 347
 350 347 348</DataArray>
            <DataArray Name="offsets" format="ascii" type="Int32">3 6 9 12 15 18 21 24 27 30 33 36 39 42 45 48 51 54 57 60 63 66 69 72 75 78 81 84 87 90 93 96 99 102 105 108 111 114 117 120 123 126 129 132 135 138 141 144 147 150 153 156 159 162 165 168 171 174 177 180 183 186 189 192 195 198 201 204 207 210 213 216 219 222 225 228 231 234 237 240 243 246 249 252 255 258 261 264 267 270 273 276 279 282 285 288 291 294 297 300 303 306 309 312 315 318 321 324 327 330 333 336 339 342 345 348 351 354 357 360 363 366 369 372 375 378 381 384 387 390 393 396 399 402 405 408 411 414 417 420 423 426 429 432 435 438 441 444 447 450 453 456 459 462 465 468 471 474 477 480 483 486 489 492 495 498 501 504 507 510 513 516 519 522 525 528 531 534 537 540 543 546 549 552 555 558 561 564 567 570 573 576 579 582 585 588 591 594 597 600 603 606 609 612 615 618 621 624 627 630 633 636 639 642 645 648 651 654 657 660 663 666 669 672 675 678 681 684 687 690 693 696 699 702 705 708 711 714 717 720 723 726 729 732 735 738 741 744 747 750 753 756 759 762 765 768 771 774 777 780 783 786 789 792 795 798 801 804 807 810 813 816 819 822 825 828 831 834 837 840 843 846 849 852 855 858 861 864 867 870 873 876 879 882 885 888 891 894 897 900 903 906 909 912 915 918 921 924 927 930 933 936 939 942 945 948 951 954 957 960 963 966 969 972 975 978 981 984 987 990 993 996 999 1002 1005 1008 1011 1014 1017 1020 1023 1026 1029 1032 1035 1038 1041 1044 1047 1050 1053 1056 1059 1062 1065 1068 1071 1074 1077 1080 1083 1086 1089 1092 1095 1098 1101 1104 1107 1110 1113 1116 1119 1122 1125 1128 1131 1134 1137 1140 1143 1146 1149 1152 1155 1158 1161 1164 1167 1170 1173 1176 1179 1182 1185 1188 1191 1194 1197 1200 1203 1206 1209 1212 1215 1218 1221 1224 1227 1230 1233 1236 1239 1242 1245 1248 1251 1254 1257 1260 1263 1266 1269 1272 1275 1278 1281 1284 1287 1290 1293 1296 1299 1302 1305 1308 1311 1314 1317 1320 1323 1326 1329 1332 1335 1338 1341 1344 1347 1350 1353 1356 1359 1362 1365 1368 1371 1374 1377 1380 1383 1386 1389 1392 1395 1398 1401 1404 1407 1410 1413 1416 1419 1422 1425 1428 1431 1434 1437 1440 1443 1446 1449 1452 1455 1458 1461 1464 1467 1470 1473 1476 1479 1482 1485 1488 1491 1494 1497 1500 1503 1506 1509 1512 1515 1518 1521 1524 1527 1530 1533 1536 1539 1542 1545 1548 1551 1554 1557 1560 1563 1566 1569 1572 1575 1578 1581 1584 1587 1590 1593 1596 </DataArray>
            <DataArray Name="types" format="ascii" type="UInt8">5 5 5 5 5 5 5 5 5 5 5 5 5 5 5 5 5 5 5 5 5 5 5 5 5 5 5 5 5 5 5 5 5 5 5 5 5 5 5 5 5 5 5 5 5 5 5 5 5 5 5 5 5 5 5 5 5 5 5 5 5 5 5 5 5 5 5 5 5 5 5 5 5 5 5 5 5 5 5 5 5 5 5 5 5 5 5 5 5 5 5 5 5 5 5 5 5 5 5 5 5 5 5 5 5 5 5 5 5 5 5 5 5 5 5 5 5 5 5 5 5 5 5 5 5 5 5 5 5 5 5 5 5 5 5 5 5 5 5 5 5 5 5 5 5 5 5 5 5 5 5 5 5 5 5 5 5 5 5 5 5 5 5 5 5 5 5 5 5 5 5 5 5 5 5 5 5 5 5 5 5 5 5 5 5 5 5 5 5 5 5 5 5 5 5 5 5 5 5 5 5 5 5 5 5 5 5 5 5 5 5 5 5 5 5 5 5 5 5 5 5 5 5 5 5 5 5 5 5 5 5 5 5 5 5 5 5 5 5 5 5 5 5 5 5 5 5 5 5 5 5 5 5 5 5 5 5 5 5 5 5 5 5 5 5 5 5 5 5 5 5 5 5 5 5 5 5 5 5 5 5 5 5 5 5 5 5 5 5 5 5 5 5 5 5 5 5 5 5 5 5 5 5 5 5 5 5 5 5 5 5 5 5 5 5 5 5 5 5 5 5 5 5 5 5 5 5 5 5 5 5 5 5 5 5 5 5 5 5 5 5 5 5 5 5 5 5 5 5 5 5 5 5 5 5 5 5 5 5 5 5 5 5 5 5 5 5 5 5 5 5 5 5 5 5 5 5 5 5 5 5 5 5 5 5 5 5 5 5 5 5 5 5 5 5 5 5 5 5 5 5 5 5 5 5 5 5 5 5 5 5 5 5 5 5 5 5 5 5 5 5 5 5 5 5 5 5 5 5 5 5 5 5 5 5 5 5 5 5 5 5 5 5 5 5 5 5 5 5 5 5 5 5 5 5 5 5 5 5 5 5 5 5 5 5 5 5 5 5 5 5 5 5 5 5 5 5 5 5 5 5 5 5 5 5 5 5 5 5 5 5 5 5 5 5 5 5 5 5 5 5 5 5 5 5 5 5 5 5 5 5 5 5 5 5 5 5 5 5 5 5 5 5 5 5 5 5 5 5 5 5 5 </DataArray>
         </Cells>
         <PointData>
            <DataArray Name="fValues" NumberOfComponents="3" format="ascii" type="Float64">
       00000        00000        00000 
       00000        00000        00000 
       00000        00000        00000 
       00000        00000        00000 
       00000        00000        00000 
       00000        00000        00000 
       00000        00000        00000 
       00000        00000        00000 
       00000        00000        00000 
       00000        00000        00000 
       00000        00000        00000 
       00000        00000        00000 
       00000        00000        00000 
       00000        00000        00000 
       00000        00000        00000 
       00000        00000        00000 
       00000        00000        00000 
       00000        00000        00000 
       00000        00000        00000 
       00000        00000        00000 
       00000        00000        00000 
       00000        00000        00000 
       00000        00000        00000 
       00000        00000        00000 
       00000        00000        00000 
       00000        00000        00000 
       00000        00000        00000 
       00000        00000        00000 
       00000        00000        00000 
       00000        00000        00000 
       00000        00000        00000 
       00000        00000        00000 
       00000        00000        00000 
       00000        00000        00000 
       00000        00000        00000 
       00000        00000        00000 
       00000        00000        00000 
       00000        00000        00000 
       00000        00000        00000 
       00000        00000        00000 
       00000        00000        00000 
       00000        00000        00000 
       00000        00000        00000 
       00000        00000        00000 
       00000        00000        00000 
       00000        00000        00000 
       00000        00000        00000 
       00000        00000        00000 
       00000        00000        00000 
       00000        00000        00000 
       00000        00000        00000 
       00000        00000        00000 
       00000        00000        00000 
       00000        00000        00000 
       00000        00000        00000 
       00000        00000        00000 
       00000        00000        00000 
       00000        00000        00000 
       00000        00000        00000 
       00000        00000        00000 
       00000        00000        00000 
       00000        00000        00000 
       00000        00000        00000 
       00000        00000        00000 
       00000        00000        00000 
       00000        00000        00000 
       00000        00000        00000 
       00000        00000        00000 
       00000        00000        00000 
       00000        00000        00000 
       00000        00000        00000 
       00000        00000        00000 
       00000        00000        00000 
       00000        00000        00000 
       00000        00000        00000 
       00000        00000        00000 
       00000        00000        00000 
       00000        00000        00000 
       00000        00000        00000 
       00000        00000        00000 
       00000        00000        00000 
       00000        00000        00000 
       00000        00000        00000 
       00000        00000        00000 
       00000        00000        00000 
       00000        00000        00000 
       00000        00000        00000 
       00000        00000        00000 
       00000        00000        00000 
       00000        00000        00000 
       00000        00000        00000 
       00000        00000        00000 
       00000        00000        00000 
       00000        00000        00000 
       00000        00000        00000 
       00000        00000        00000 
       00000        00000        00000 
       00000        00000        00000 
       00000        00000        00000 
       00000        00000        00000 
       00000        00000        00000 
       00000        00000        00000 
       00000        00000        00000 
       00000        00000        00000 
       00000        00000        00000 
       00000        00000        00000 
       00000        00000        00000 
       00000        00000        00000 
       00000        00000        00000 
       00000        00000        00000 
       00000        00000        00000 
       00000        00000        00000 
       00000        00000        00000 
       00000        00000        00000 
       00000        00000        00000 
       00000        00000        00000 
       00000        00000        00000 
       00000        00000        00000 
       00000        00000        00000 
       00000        00000        00000 
       00000        00000        00000 
       00000        00000        00000 
       00000        00000        00000 
       00000        00000        00000 
       00000        00000        00000 
       00000        00000        00000 
       00000        00000        00000 
       00000        00000        00000 
       00000        00000        00000 
       00000        00000        00000 
       00000        00000        00000 
       00000        00000        00000 
       00000        00000        00000 
       00000        00000        00000 
       00000        00000        00000 
       00000        00000        00000 
       00000        00000        00000 
       00000        00000        00000 
       00000        00000        00000 
       00000        00000        00000 
       00000        00000        00000 
       00000        00000        00000 
       00000        00000        00000 
       00000        00000        00000 
       00000        00000        00000 
       00000        00000        00000 
       00000        00000        00000 
       00000        00000        00000 
       00000        00000        00000 
       00000        00000        00000 
       00000        00000        00000 
       00000        00000        00000 
       00000        00000        00000 
       00000        00000        00000 
       00000        00000        00000 
       00000        00000        00000 
       00000        00000        00000 
       00000        00000        00000 
       00000        00000        00000 
       00000        00000        00000 
       00000        00000        00000 
       00000        00000        00000 
       00000        00000        00000 
       00000        00000        00000 
       00000        00000        00000 
       00000        00000        00000 
       00000        00000        00000 
       00000        00000        00000 
       00000        00000        00000 
       00000        00000        00000 
       00000        00000        00000 
       00000        00000        00000 
       00000        00000        00000 
       00000        00000        00000 
       00000        00000        00000 
       00000        00000        00000 
       00000        00000        00000 
       00000        00000        00000 
       00000        00000        00000 
       00000        00000        00000 
       00000        00000        00000 
       00000        00000        00000 
       00000        00000        00000 
       00000        00000        00000 
       00000        00000        00000 
       00000        00000        00000 
       00000        00000        00000 
       00000        00000        00000 
       00000        00000        00000 
       00000        00000        00000 
       00000        00000        00000 
       00000        00000        00000 
       00000        00000        00000 
       00000        00000        00000 
       00000        00000        00000 
       00000        00000        00000 
       00000        00000        00000 
       00000        00000        00000 
       00000        00000        00000 
       00000        00000        00000 
       00000        00000        00000 
       00000        00000        00000 
       00000        00000        00000 
       00000        00000        00000 
       00000        00000        00000 
       00000        00000        00000 
       00000        00000        00000 
       00000        00000        00000 
       00000        00000        00000 
       00000        00000        00000 
       00000        00000        00000 
       00000        00000        00000 
       00000        00000        00000 
       00000        00000        00000 
       00000        00000        00000 
       00000        00000        00000 
       00000        00000        00000 
       00000        00000        00000 
       00000        00000        00000 
       00000        00000        00000 
       00000        00000        00000 
       00000        00000        00000 
       00000        00000        00000 
       00000        00000        00000 
       00000        00000        00000 
       00000        00000        00000 
       00000        00000        00000 
       00000        00000        00000 
       00000        00000        00000 
       00000        00000        00000 
       00000        00000        00000 
       00000        00000        00000 
       00000        00000        00000 
       00000        00000        00000 
       00000        00000        00000 
       00000        00000        00000 
       00000        00000        00000 
       00000        00000        00000 
       00000        00000        00000 
       00000        00000        00000 
       00000        00000        00000 
       00000        00000        00000 
       00000        00000        00000 
       00000        00000        00000 
       00000        00000        00000 
       00000        00000        00000 
       00000        00000        00000 
       00000        00000        00000 
       00000        00000        00000 
       00000        00000        00000 
       00000        00000        00000 
       00000        00000        00000 
       00000        00000        00000 
       00000        00000        00000 
       00000        00000        00000 
       00000        00000        00000 
       00000        00000        00000 
       00000        00000        00000 
       00000        00000        00000 
       00000        00000        00000 
       00000        00000        00000 
       00000        00000        00000 
       00000        00000        00000 
       00000        00000        00000 
       00000        00000        00000 
       00000        00000        00000 
       00000        00000        00000 
       00000        00000        00000 
       00000        00000        00000 
       00000        00000        00000 
       00000        00000        00000 
       00000        00000        00000 
       00000        00000        00000 
       00000        00000        00000 
       00000        00000        00000 
       00000        00000        00000 
       00000        00000        00000 
       00000        00000        00000 
       00000        00000        00000 
       00000        00000        00000 
       00000        00000        00000 
       00000        00000        00000 
       00000        00000        00000 
       00000        00000        00000 
       00000        00000        00000 
       00000        00000        00000 
       00000        00000        00000 
       00000        00000        00000 
       00000        00000        00000 
       00000        00000        00000 
       00000        00000        00000 
       00000        00000        00000 
       00000        00000        00000 
       00000        00000        00000 
       00000        00000        00000 
       00000        00000        00000 
       00000        00000        00000 
       00000        00000        00000 
       00000        00000        00000 
       00000        00000        00000 
       00000        00000        00000 
       00000        00000        00000 
       00000        00000        00000 
       00000        00000        00000 
       00000        00000        00000 
       00000        00000        00000 
       00000        00000        00000 
       00000        00000        00000 
       00000        00000        00000 
       00000        00000        00000 
       00000        00000        00000 
       00000        00000        00000 
       00000        00000        00000 
       00000        00000        00000 
       00000        00000        00000 
       00000        00000        00000 
       00000        00000        00000 
       00000        00000        00000 
       00000        00000        00000 
       00000        00000        00000 
       00000        00000        00000 
       00000        00000        00000 
       00000        00000        00000 
       00000        00000        00000 
       00000        00000        00000 
       00000        00000        00000 
       00000        00000        00000 
       00000        00000        00000 
       00000        00000        00000 
       00000        00000        00000 
       00000        00000        00000 
       00000        00000        00000 
       00000        00000        00000 
       00000        00000        00000 
       00000        00000        00000 
       00000        00000        00000 
       00000        00000        00000 
       00000        00000        00000 
       00000        00000        00000 
       00000        00000        00000 
       00000        00000        00000 
       00000        00000        00000 
       00000        00000        00000 
       00000        00000        00000 
       00000        00000        00000 
       00000        00000        00000 
       00000        00000        00000 
       00000        00000        00000 
       00000        00000        00000 
       00000        00000        00000 
       00000        00000        00000 </DataArray>
         </PointData>
         <CellData/>
      </Piece>
   </UnstructuredGrid>
</VTKFile>