<?xml version="1.0" encoding="utf-8"?>
<VTKFile byte_order="LittleEndian" type="UnstructuredGrid" version="0.1">
   <UnstructuredGrid>
      <Piece NumberOfCells="768" NumberOfPoints="429">
         <Points>
            <DataArray Name="Points" NumberOfComponents="3" format="ascii" type="Float32">
0.2765 0.2765 0.0000
0.2699 0.2831 0.0000
0.2633 0.2898 0.0000
0.2566 0.2964 0.0000
0.2500 0.3030 0.0000
0.2699 0.2699 0.0000
0.2633 0.2765 0.0000
0.2566 0.2831 0.0000
0.2500 0.2898 0.0000
0.2434 0.2964 0.0000
0.2633 0.2633 0.0000
0.2566 0.2699 0.0000
0.2500 0.2765 0.0000
0.2434 0.2831 0.0000
0.2367 0.2898 0.0000
0.2566 0.2566 0.0000
0.2500 0.2633 0.0000
0.2434 0.2699 0.0000
0.2367 0.2765 0.0000
0.2301 0.2831 0.0000
0.2500 0.2500 0.0000
0.2434 0.2566 0.0000
0.2367 0.2633 0.0000
0.2301 0.2699 0.0000
0.2235 0.2765 0.0000
0.2434 0.2434 0.0000
0.2367 0.2500 0.0000
0.2301 0.2566 0.0000
0.2235 0.2633 0.0000
0.2169 0.2699 0.0000
0.2367 0.2367 0.0000
0.2301 0.2434 0.0000
0.2235 0.2500 0.0000
0.2169 0.2566 0.0000
0.2102 0.2633 0.0000
0.2301 0.2301 0.0000
0.2235 0.2367 0.0000
0.2169 0.2434 0.0000
0.2102 0.2500 0.0000
0.2036 0.2566 0.0000
0.2235 0.2235 0.0000
0.2169 0.2301 0.0000
0.2102 0.2367 0.0000
0.2036 0.2434 0.0000
0.1970 0.2500 0.0000
0.2765 0.2235 0.0000
0.2699 0.2301 0.0000
0.2633 0.2367 0.0000
0.2566 0.2434 0.0000
0.2699 0.2169 0.0000
0.2633 0.2235 0.0000
0.2566 0.2301 0.0000
0.2500 0.2367 0.0000
0.2633 0.2102 0.0000
0.2566 0.2169 0.0000
0.2500 0.2235 0.0000
0.2434 0.2301 0.0000
0.2566 0.2036 0.0000
0.2500 0.2102 0.0000
0.2434 0.2169 0.0000
0.2367 0.2235 0.0000
0.2500 0.1970 0.0000
0.2434 0.2036 0.0000
0.2367 0.2102 0.0000
0.2301 0.2169 0.0000
0.3030 0.2500 0.0000
0.2964 0.2566 0.0000
0.2898 0.2633 0.0000
0.2831 0.2699 0.0000
0.2964 0.2434 0.0000
0.2898 0.2500 0.0000
0.2831 0.2566 0.0000
0.2765 0.2633 0.0000
0.2898 0.2367 0.0000
0.2831 0.2434 0.0000
0.2765 0.2500 0.0000
0.2699 0.2566 0.0000
0.2831 0.2301 0.0000
0.2765 0.2367 0.0000
0.2699 0.2434 0.0000
0.2633 0.2500 0.0000
0.4600 0.4600 0.0000
0.4467 0.4600 0.0000
0.4335 0.4600 0.0000
0.4202 0.4600 0.0000
0.4070 0.4600 0.0000
0.4141 0.4141 0.0000
0.4025 0.4158 0.0000
0.3909 0.4174 0.0000
0.3793 0.4191 0.0000
0.3677 0.4208 0.0000
0.3683 0.3683 0.0000
0.3583 0.3716 0.0000
0.3484 0.3749 0.0000
0.3384 0.3782 0.0000
0.3285 0.3815 0.0000
0.3224 0.3224 0.0000
0.3141 0.3274 0.0000
0.3058 0.3323 0.0000
0.2975 0.3373 0.0000
0.2892 0.3423 0.0000
0.4600 0.4070 0.0000
0.4600 0.4202 0.0000
0.4600 0.4335 0.0000
0.4600 0.4467 0.0000
0.4208 0.3677 0.0000
0.4191 0.3793 0.0000
0.4174 0.3909 0.0000
0.4158 0.4025 0.0000
0.3815 0.3285 0.0000
0.3782 0.3384 0.0000
0.3749 0.3484 0.0000
0.3716 0.3583 0.0000
0.3423 0.2892 0.0000
0.3373 0.2975 0.0000
0.3323 0.3058 0.0000
0.3274 0.3141 0.0000
0.1776 0.1776 0.0000
0.1726 0.1859 0.0000
0.1677 0.1942 0.0000
0.1627 0.2025 0.0000
0.1577 0.2108 0.0000
0.1317 0.1317 0.0000
0.1284 0.1417 0.0000
0.1251 0.1516 0.0000
0.1218 0.1616 0.0000
0.1185 0.1715 0.0000
0.0859 0.0859 0.0000
0.0842 0.0975 0.0000
0.0826 0.1091 0.0000
0.0809 0.1207 0.0000
0.0792 0.1323 0.0000
0.0400 0.0400 0.0000
0.0400 0.0533 0.0000
0.0400 0.0665 0.0000
0.0400 0.0798 0.0000
0.0400 0.0930 0.0000
0.2108 0.1577 0.0000
0.2025 0.1627 0.0000
0.1942 0.1677 0.0000
0.1859 0.1726 0.0000
0.1715 0.1185 0.0000
0.1616 0.1218 0.0000
0.1516 0.1251 0.0000
0.1417 0.1284 0.0000
0.1323 0.0792 0.0000
0.1207 0.0809 0.0000
0.1091 0.0826 0.0000
0.0975 0.0842 0.0000
0.0930 0.0400 0.0000
0.0798 0.0400 0.0000
0.0665 0.0400 0.0000
0.0533 0.0400 0.0000
0.0930 0.4600 0.0000
0.0798 0.4600 0.0000
0.0665 0.4600 0.0000
0.0533 0.4600 0.0000
0.0400 0.4600 0.0000
0.1323 0.4208 0.0000
0.1207 0.4191 0.0000
0.1091 0.4174 0.0000
0.0975 0.4158 0.0000
0.0859 0.4141 0.0000
0.1715 0.3815 0.0000
0.1616 0.3782 0.0000
0.1516 0.3749 0.0000
0.1417 0.3716 0.0000
0.1317 0.3683 0.0000
0.2108 0.3423 0.0000
0.2025 0.3373 0.0000
0.1942 0.3323 0.0000
0.1859 0.3274 0.0000
0.1776 0.3224 0.0000
0.0400 0.4467 0.0000
0.0400 0.4335 0.0000
0.0400 0.4202 0.0000
0.0400 0.4070 0.0000
0.0842 0.4025 0.0000
0.0826 0.3909 0.0000
0.0809 0.3793 0.0000
0.0792 0.3677 0.0000
0.1284 0.3583 0.0000
0.1251 0.3484 0.0000
0.1218 0.3384 0.0000
0.1185 0.3285 0.0000
0.1726 0.3141 0.0000
0.1677 0.3058 0.0000
0.1627 0.2975 0.0000
0.1577 0.2892 0.0000
0.3224 0.1776 0.0000
0.3141 0.1726 0.0000
0.3058 0.1677 0.0000
0.2975 0.1627 0.0000
0.2892 0.1577 0.0000
0.3683 0.1317 0.0000
0.3583 0.1284 0.0000
0.3484 0.1251 0.0000
0.3384 0.1218 0.0000
0.3285 0.1185 0.0000
0.4141 0.0859 0.0000
0.4025 0.0842 0.0000
0.3909 0.0826 0.0000
0.3793 0.0809 0.0000
0.3677 0.0792 0.0000
0.4600 0.0400 0.0000
0.4467 0.0400 0.0000
0.4335 0.0400 0.0000
0.4202 0.0400 0.0000
0.4070 0.0400 0.0000
0.4600 0.0930 0.0000
0.4208 0.1323 0.0000
0.3815 0.1715 0.0000
0.3423 0.2108 0.0000
0.4600 0.0798 0.0000
0.4191 0.1207 0.0000
0.3782 0.1616 0.0000
0.3373 0.2025 0.0000
0.4600 0.0665 0.0000
0.4174 0.1091 0.0000
0.3749 0.1516 0.0000
0.3323 0.1942 0.0000
0.4600 0.0533 0.0000
0.4158 0.0975 0.0000
0.3716 0.1417 0.0000
0.3274 0.1859 0.0000
0.4070 0.5000 0.0000
0.3285 0.5000 0.0000
0.2500 0.5000 0.0000
0.1715 0.5000 0.0000
0.0930 0.5000 0.0000
0.4070 0.4900 0.0000
0.3285 0.4900 0.0000
0.2500 0.4900 0.0000
0.1715 0.4900 0.0000
0.0930 0.4900 0.0000
0.4070 0.4800 0.0000
0.3285 0.4800 0.0000
0.2500 0.4800 0.0000
0.1715 0.4800 0.0000
0.0930 0.4800 0.0000
0.4070 0.4700 0.0000
0.3285 0.4700 0.0000
0.2500 0.4700 0.0000
0.1715 0.4700 0.0000
0.0930 0.4700 0.0000
0.3285 0.4600 0.0000
0.2500 0.4600 0.0000
0.1715 0.4600 0.0000
0.5000 0.4070 0.0000
0.4900 0.4070 0.0000
0.4800 0.4070 0.0000
0.4700 0.4070 0.0000
0.5000 0.3285 0.0000
0.4900 0.3285 0.0000
0.4800 0.3285 0.0000
0.4700 0.3285 0.0000
0.4600 0.3285 0.0000
0.5000 0.2500 0.0000
0.4900 0.2500 0.0000
0.4800 0.2500 0.0000
0.4700 0.2500 0.0000
0.4600 0.2500 0.0000
0.5000 0.1715 0.0000
0.4900 0.1715 0.0000
0.4800 0.1715 0.0000
0.4700 0.1715 0.0000
0.4600 0.1715 0.0000
0.5000 0.0930 0.0000
0.4900 0.0930 0.0000
0.4800 0.0930 0.0000
0.4700 0.0930 0.0000
0.5000 0.5000 0.0000
0.4767 0.5000 0.0000
0.4535 0.5000 0.0000
0.4302 0.5000 0.0000
0.4900 0.4900 0.0000
0.4692 0.4900 0.0000
0.4485 0.4900 0.0000
0.4277 0.4900 0.0000
0.4800 0.4800 0.0000
0.4617 0.4800 0.0000
0.4435 0.4800 0.0000
0.4252 0.4800 0.0000
0.4700 0.4700 0.0000
0.4542 0.4700 0.0000
0.4385 0.4700 0.0000
0.4227 0.4700 0.0000
0.0300 0.4070 0.0000
0.0200 0.4070 0.0000
0.0100 0.4070 0.0000
0.0000 0.4070 0.0000
0.0400 0.3285 0.0000
0.0300 0.3285 0.0000
0.0200 0.3285 0.0000
0.0100 0.3285 0.0000
0.0000 0.3285 0.0000
0.0400 0.2500 0.0000
0.0300 0.2500 0.0000
0.0200 0.2500 0.0000
0.0100 0.2500 0.0000
0.0000 0.2500 0.0000
0.0400 0.1715 0.0000
0.0300 0.1715 0.0000
0.0200 0.1715 0.0000
0.0100 0.1715 0.0000
0.0000 0.1715 0.0000
0.0300 0.0930 0.0000
0.0200 0.0930 0.0000
0.0100 0.0930 0.0000
0.0000 0.0930 0.0000
0.0698 0.5000 0.0000
0.0465 0.5000 0.0000
0.0233 0.5000 0.0000
0.0000 0.5000 0.0000
0.0723 0.4900 0.0000
0.0515 0.4900 0.0000
0.0308 0.4900 0.0000
0.0100 0.4900 0.0000
0.0748 0.4800 0.0000
0.0565 0.4800 0.0000
0.0383 0.4800 0.0000
0.0200 0.4800 0.0000
0.0773 0.4700 0.0000
0.0615 0.4700 0.0000
0.0458 0.4700 0.0000
0.0300 0.4700 0.0000
0.3285 0.0400 0.0000
0.2500 0.0400 0.0000
0.1715 0.0400 0.0000
0.4070 0.0300 0.0000
0.3285 0.0300 0.0000
0.2500 0.0300 0.0000
0.1715 0.0300 0.0000
0.0930 0.0300 0.0000
0.4070 0.0200 0.0000
0.3285 0.0200 0.0000
0.2500 0.0200 0.0000
0.1715 0.0200 0.0000
0.0930 0.0200 0.0000
0.4070 0.0100 0.0000
0.3285 0.0100 0.0000
0.2500 0.0100 0.0000
0.1715 0.0100 0.0000
0.0930 0.0100 0.0000
0.4070 0.0000 0.0000
0.3285 0.0000 0.0000
0.2500 0.0000 0.0000
0.1715 0.0000 0.0000
0.0930 0.0000 0.0000
0.0300 0.4542 0.0000
0.0200 0.4617 0.0000
0.0100 0.4692 0.0000
0.0000 0.4767 0.0000
0.0300 0.4385 0.0000
0.0200 0.4435 0.0000
0.0100 0.4485 0.0000
0.0000 0.4535 0.0000
0.0300 0.4227 0.0000
0.0200 0.4252 0.0000
0.0100 0.4277 0.0000
0.0000 0.4302 0.0000
0.0300 0.0773 0.0000
0.0200 0.0748 0.0000
0.0100 0.0723 0.0000
0.0000 0.0698 0.0000
0.0300 0.0615 0.0000
0.0200 0.0565 0.0000
0.0100 0.0515 0.0000
0.0000 0.0465 0.0000
0.0300 0.0458 0.0000
0.0200 0.0383 0.0000
0.0100 0.0308 0.0000
0.0000 0.0233 0.0000
0.0300 0.0300 0.0000
0.0200 0.0200 0.0000
0.0100 0.0100 0.0000
0.0000 0.0000 0.0000
0.0773 0.0300 0.0000
0.0615 0.0300 0.0000
0.0458 0.0300 0.0000
0.0748 0.0200 0.0000
0.0565 0.0200 0.0000
0.0383 0.0200 0.0000
0.0723 0.0100 0.0000
0.0515 0.0100 0.0000
0.0308 0.0100 0.0000
0.0698 0.0000 0.0000
0.0465 0.0000 0.0000
0.0233 0.0000 0.0000
0.4700 0.0300 0.0000
0.4542 0.0300 0.0000
0.4385 0.0300 0.0000
0.4227 0.0300 0.0000
0.4800 0.0200 0.0000
0.4617 0.0200 0.0000
0.4435 0.0200 0.0000
0.4252 0.0200 0.0000
0.4900 0.0100 0.0000
0.4692 0.0100 0.0000
0.4485 0.0100 0.0000
0.4277 0.0100 0.0000
0.5000 0.0000 0.0000
0.4767 0.0000 0.0000
0.4535 0.0000 0.0000
0.4302 0.0000 0.0000
0.5000 0.0698 0.0000
0.4900 0.0723 0.0000
0.4800 0.0748 0.0000
0.4700 0.0773 0.0000
0.5000 0.0465 0.0000
0.4900 0.0515 0.0000
0.4800 0.0565 0.0000
0.4700 0.0615 0.0000
0.5000 0.0233 0.0000
0.4900 0.0308 0.0000
0.4800 0.0383 0.0000
0.4700 0.0458 0.0000
0.5000 0.4767 0.0000
0.4900 0.4692 0.0000
0.4800 0.4617 0.0000
0.4700 0.4542 0.0000
0.5000 0.4535 0.0000
0.4900 0.4485 0.0000
0.4800 0.4435 0.0000
0.4700 0.4385 0.0000
0.5000 0.4302 0.0000
0.4900 0.4277 0.0000
0.4800 0.4252 0.0000
0.4700 0.4227 0.0000</DataArray>
         </Points>
         <Cells>
            <DataArray Name="connectivity" format="ascii" type="Int32">
 0 1 6
 1 2 7
 2 3 8
 3 4 9
 5 6 11
 6 7 12
 7 8 13
 8 9 14
 10 11 16
 11 12 17
 12 13 18
 13 14 19
 15 16 21
 16 17 22
 17 18 23
 18 19 24
 20 21 26
 21 22 27
 22 23 28
 23 24 29
 25 26 31
 26 27 32
 27 28 33
 28 29 34
 30 31 36
 31 32 37
 32 33 38
 33 34 39
 35 36 41
 36 37 42
 37 38 43
 38 39 44
 45 46 50
 46 47 51
 47 48 52
 48 20 25
 49 50 54
 50 51 55
 51 52 56
 52 25 30
 53 54 58
 54 55 59
 55 56 60
 56 30 35
 57 58 62
 58 59 63
 59 60 64
 60 35 40
 65 66 70
 66 67 71
 67 68 72
 68 0 5
 69 70 74
 70 71 75
 71 72 76
 72 5 10
 73 74 78
 74 75 79
 75 76 80
 76 10 15
 77 78 46
 78 79 47
 79 80 48
 80 15 20
 81 82 87
 82 83 88
 83 84 89
 84 85 90
 86 87 92
 87 88 93
 88 89 94
 89 90 95
 91 92 97
 92 93 98
 93 94 99
 94 95 100
 96 97 1
 97 98 2
 98 99 3
 99 100 4
 101 102 106
 102 103 107
 103 104 108
 104 81 86
 105 106 110
 106 107 111
 107 108 112
 108 86 91
 109 110 114
 110 111 115
 111 112 116
 112 91 96
 113 114 66
 114 115 67
 115 116 68
 116 96 0
 40 41 118
 41 42 119
 42 43 120
 43 44 121
 117 118 123
 118 119 124
 119 120 125
 120 121 126
 122 123 128
 123 124 129
 124 125 130
 125 126 131
 127 128 133
 128 129 134
 129 130 135
 130 131 136
 61 62 138
 62 63 139
 63 64 140
 64 40 117
 137 138 142
 138 139 143
 139 140 144
 140 117 122
 141 142 146
 142 143 147
 143 144 148
 144 122 127
 145 146 150
 146 147 151
 147 148 152
 148 127 132
 153 154 159
 154 155 160
 155 156 161
 156 157 162
 158 159 164
 159 160 165
 160 161 166
 161 162 167
 163 164 169
 164 165 170
 165 166 171
 166 167 172
 168 169 9
 169 170 14
 170 171 19
 171 172 24
 157 173 177
 173 174 178
 174 175 179
 175 176 180
 162 177 181
 177 178 182
 178 179 183
 179 180 184
 167 181 185
 181 182 186
 182 183 187
 183 184 188
 172 185 29
 185 186 34
 186 187 39
 187 188 44
 45 49 190
 49 53 191
 53 57 192
 57 61 193
 189 190 195
 190 191 196
 191 192 197
 192 193 198
 194 195 200
 195 196 201
 196 197 202
 197 198 203
 199 200 205
 200 201 206
 201 202 207
 202 203 208
 209 210 214
 210 211 215
 211 212 216
 212 65 69
 213 214 218
 214 215 219
 215 216 220
 216 69 73
 217 218 222
 218 219 223
 219 220 224
 220 73 77
 221 222 199
 222 223 194
 223 224 189
 224 77 45
 225 226 231
 226 227 232
 227 228 233
 228 229 234
 230 231 236
 231 232 237
 232 233 238
 233 234 239
 235 236 241
 236 237 242
 237 238 243
 238 239 244
 240 241 245
 241 242 246
 242 243 247
 243 244 153
 248 249 253
 249 250 254
 250 251 255
 251 101 256
 252 253 258
 253 254 259
 254 255 260
 255 256 261
 257 258 263
 258 259 264
 259 260 265
 260 261 266
 262 263 268
 263 264 269
 264 265 270
 265 266 209
 271 272 276
 272 273 277
 273 274 278
 274 225 230
 275 276 280
 276 277 281
 277 278 282
 278 230 235
 279 280 284
 280 281 285
 281 282 286
 282 235 240
 283 284 82
 284 285 83
 285 286 84
 286 240 85
 176 287 292
 287 288 293
 288 289 294
 289 290 295
 291 292 297
 292 293 298
 293 294 299
 294 295 300
 296 297 302
 297 298 303
 298 299 304
 299 300 305
 301 302 306
 302 303 307
 303 304 308
 304 305 309
 229 310 314
 310 311 315
 311 312 316
 312 313 317
 234 314 318
 314 315 319
 315 316 320
 316 317 321
 239 318 322
 318 319 323
 319 320 324
 320 321 325
 244 322 154
 322 323 155
 323 324 156
 324 325 157
 208 326 330
 326 327 331
 327 328 332
 328 149 333
 329 330 335
 330 331 336
 331 332 337
 332 333 338
 334 335 340
 335 336 341
 336 337 342
 337 338 343
 339 340 345
 340 341 346
 341 342 347
 342 343 348
 157 325 349
 325 321 350
 321 317 351
 317 313 352
 173 349 353
 349 350 354
 350 351 355
 351 352 356
 174 353 357
 353 354 358
 354 355 359
 355 356 360
 175 357 287
 357 358 288
 358 359 289
 359 360 290
 136 306 361
 306 307 362
 307 308 363
 308 309 364
 135 361 365
 361 362 366
 362 363 367
 363 364 368
 134 365 369
 365 366 370
 366 367 371
 367 368 372
 133 369 373
 369 370 374
 370 371 375
 371 372 376
 149 150 377
 150 151 378
 151 152 379
 152 132 373
 333 377 380
 377 378 381
 378 379 382
 379 373 374
 338 380 383
 380 381 384
 381 382 385
 382 374 375
 343 383 386
 383 384 387
 384 385 388
 385 375 376
 204 205 390
 205 206 391
 206 207 392
 207 208 329
 389 390 394
 390 391 395
 391 392 396
 392 329 334
 393 394 398
 394 395 399
 395 396 400
 396 334 339
 397 398 402
 398 399 403
 399 400 404
 400 339 344
 267 268 406
 268 269 407
 269 270 408
 270 209 213
 405 406 410
 406 407 411
 407 408 412
 408 213 217
 409 410 414
 410 411 415
 411 412 416
 412 217 221
 413 414 397
 414 415 393
 415 416 389
 416 221 204
 271 275 418
 275 279 419
 279 283 420
 283 81 104
 417 418 422
 418 419 423
 419 420 424
 420 104 103
 421 422 426
 422 423 427
 423 424 428
 424 103 102
 425 426 249
 426 427 250
 427 428 251
 428 102 101
 0 6 5
 1 7 6
 2 8 7
 3 9 8
 5 11 10
 6 12 11
 7 13 12
 8 14 13
 10 16 15
 11 17 16
 12 18 17
 13 19 18
 15 21 20
 16 22 21
 17 23 22
 18 24 23
 20 26 25
 21 27 26
 22 28 27
 23 29 28
 25 31 30
 26 32 31
 27 33 32
 28 34 33
 30 36 35
 31 37 36
 32 38 37
 33 39 38
 35 41 40
 36 42 41
 37 43 42
 38 44 43
 45 50 49
 46 51 50
 47 52 51
 48 25 52
 49 54 53
 50 55 54
 51 56 55
 52 30 56
 53 58 57
 54 59 58
 55 60 59
 56 35 60
 57 62 61
 58 63 62
 59 64 63
 60 40 64
 65 70 69
 66 71 70
 67 72 71
 68 5 72
 69 74 73
 70 75 74
 71 76 75
 72 10 76
 73 78 77
 74 79 78
 75 80 79
 76 15 80
 77 46 45
 78 47 46
 79 48 47
 80 20 48
 81 87 86
 82 88 87
 83 89 88
 84 90 89
 86 92 91
 87 93 92
 88 94 93
 89 95 94
 91 97 96
 92 98 97
 93 99 98
 94 100 99
 96 1 0
 97 2 1
 98 3 2
 99 4 3
 101 106 105
 102 107 106
 103 108 107
 104 86 108
 105 110 109
 106 111 110
 107 112 111
 108 91 112
 109 114 113
 110 115 114
 111 116 115
 112 96 116
 113 66 65
 114 67 66
 115 68 67
 116 0 68
 40 118 117
 41 119 118
 42 120 119
 43 121 120
 117 123 122
 118 124 123
 119 125 124
 120 126 125
 122 128 127
 123 129 128
 124 130 129
 125 131 130
 127 133 132
 128 134 133
 129 135 134
 130 136 135
 61 138 137
 62 139 138
 63 140 139
 64 117 140
 137 142 141
 138 143 142
 139 144 143
 140 122 144
 141 146 145
 142 147 146
 143 148 147
 144 127 148
 145 150 149
 146 151 150
 147 152 151
 148 132 152
 153 159 158
 154 160 159
 155 161 160
 156 162 161
 158 164 163
 159 165 164
 160 166 165
 161 167 166
 163 169 168
 164 170 169
 165 171 170
 166 172 171
 168 9 4
 169 14 9
 170 19 14
 171 24 19
 157 177 162
 173 178 177
 174 179 178
 175 180 179
 162 181 167
 177 182 181
 178 183 182
 179 184 183
 167 185 172
 181 186 185
 182 187 186
 183 188 187
 172 29 24
 185 34 29
 186 39 34
 187 44 39
 45 190 189
 49 191 190
 53 192 191
 57 193 192
 189 195 194
 190 196 195
 191 197 196
 192 198 197
 194 200 199
 195 201 200
 196 202 201
 197 203 202
 199 205 204
 200 206 205
 201 207 206
 202 208 207
 209 214 213
 210 215 214
 211 216 215
 212 69 216
 213 218 217
 214 219 218
 215 220 219
 216 73 220
 217 222 221
 218 223 222
 219 224 223
 220 77 224
 221 199 204
 222 194 199
 223 189 194
 224 45 189
 225 231 230
 226 232 231
 227 233 232
 228 234 233
 230 236 235
 231 237 236
 232 238 237
 233 239 238
 235 241 240
 236 242 241
 237 243 242
 238 244 243
 240 245 85
 241 246 245
 242 247 246
 243 153 247
 248 253 252
 249 254 253
 250 255 254
 251 256 255
 252 258 257
 253 259 258
 254 260 259
 255 261 260
 257 263 262
 258 264 263
 259 265 264
 260 266 265
 262 268 267
 263 269 268
 264 270 269
 265 209 270
 271 276 275
 272 277 276
 273 278 277
 274 230 278
 275 280 279
 276 281 280
 277 282 281
 278 235 282
 279 284 283
 280 285 284
 281 286 285
 282 240 286
 283 82 81
 284 83 82
 285 84 83
 286 85 84
 176 292 291
 287 293 292
 288 294 293
 289 295 294
 291 297 296
 292 298 297
 293 299 298
 294 300 299
 296 302 301
 297 303 302
 298 304 303
 299 305 304
 301 306 136
 302 307 306
 303 308 307
 304 309 308
 229 314 234
 310 315 314
 311 316 315
 312 317 316
 234 318 239
 314 319 318
 315 320 319
 316 321 320
 239 322 244
 318 323 322
 319 324 323
 320 325 324
 244 154 153
 322 155 154
 323 156 155
 324 157 156
 208 330 329
 326 331 330
 327 332 331
 328 333 332
 329 335 334
 330 336 335
 331 337 336
 332 338 337
 334 340 339
 335 341 340
 336 342 341
 337 343 342
 339 345 344
 340 346 345
 341 347 346
 342 348 347
 157 349 173
 325 350 349
 321 351 350
 317 352 351
 173 353 174
 349 354 353
 350 355 354
 351 356 355
 174 357 175
 353 358 357
 354 359 358
 355 360 359
 175 287 176
 357 288 287
 358 289 288
 359 290 289
 136 361 135
 306 362 361
 307 363 362
 308 364 363
 135 365 134
 361 366 365
 362 367 366
 363 368 367
 134 369 133
 365 370 369
 366 371 370
 367 372 371
 133 373 132
 369 374 373
 370 375 374
 371 376 375
 149 377 333
 150 378 377
 151 379 378
 152 373 379
 333 380 338
 377 381 380
 378 382 381
 379 374 382
 338 383 343
 380 384 383
 381 385 384
 382 375 385
 343 386 348
 383 387 386
 384 388 387
 385 376 388
 204 390 389
 205 391 390
 206 392 391
 207 329 392
 389 394 393
 390 395 394
 391 396 395
 392 334 396
 393 398 397
 394 399 398
 395 400 399
 396 339 400
 397 402 401
 398 403 402
 399 404 403
 400 344 404
 267 406 405
 268 407 406
 269 408 407
 270 213 408
 405 410 409
 406 411 410
 407 412 411
 408 217 412
 409 414 413
 410 415 414
 411 416 415
 412 221 416
 413 397 401
 414 393 397
 415 389 393
 416 204 389
 271 418 417
 275 419 418
 279 420 419
 283 104 420
 417 422 421
 418 423 422
 419 424 423
 420 103 424
 421 426 425
 422 427 426
 423 428 427
 424 102 428
 425 249 248
 426 250 249
 427 251 250
 428 101 251</DataArray>
            <DataArray Name="offsets" format="ascii" type="Int32">3 6 9 12 15 18 21 24 27 30 33 36 39 42 45 48 51 54 57 60 63 66 69 72 75 78 81 84 87 90 93 96 99 102 105 108 111 114 117 120 123 126 129 132 135 138 141 144 147 150 153 156 159 162 165 168 171 174 177 180 183 186 189 192 195 198 201 204 207 210 213 216 219 222 225 228 231 234 237 240 243 246 249 252 255 258 261 264 267 270 273 276 279 282 285 288 291 294 297 300 303 306 309 312 315 318 321 324 327 330 333 336 339 342 345 348 351 354 357 360 363 366 369 372 375 378 381 384 387 390 393 396 399 402 405 408 411 414 417 420 423 426 429 432 435 438 441 444 447 450 453 456 459 462 465 468 471 474 477 480 483 486 489 492 495 498 501 504 507 510 513 516 519 522 525 528 531 534 537 540 543 546 549 552 555 558 561 564 567 570 573 576 579 582 585 588 591 594 597 600 603 606 609 612 615 618 621 624 627 630 633 636 639 642 645 648 651 654 657 660 663 666 669 672 675 678 681 684 687 690 693 696 699 702 705 708 711 714 717 720 723 726 729 732 735 738 741 744 747 750 753 756 759 762 765 768 771 774 777 780 783 786 789 792 795 798 801 804 807 810 813 816 819 822 825 828 831 834 837 840 843 846 849 852 855 858 861 864 867 870 873 876 879 882 885 888 891 894 897 900 903 906 909 912 915 918 921 924 927 930 933 936 939 942 945 948 951 954 957 960 963 966 969 972 975 978 981 984 987 990 993 996 999 1002 1005 1008 1011 1014 1017 1020 1023 1026 1029 1032 1035 1038 1041 1044 1047 1050 1053 1056 1059 1062 1065 1068 1071 1074 1077 1080 1083 1086 1089 1092 1095 1098 1101 1104 1107 1110 1113 1116 1119 1122 1125 1128 1131 1134 1137 1140 1143 1146 1149 1152 1155 1158 1161 1164 1167 1170 1173 1176 1179 1182 1185 1188 1191 1194 1197 1200 1203 1206 1209 1212 1215 1218 1221 1224 1227 1230 1233 1236 1239 1242 1245 1248 1251 1254 1257 1260 1263 1266 1269 1272 1275 1278 1281 1284 1287 1290 1293 1296 1299 1302 1305 1308 1311 1314 1317 1320 1323 1326 1329 1332 1335 1338 1341 1344 1347 1350 1353 1356 1359 1362 1365 1368 1371 1374 1377 1380 1383 1386 1389 1392 1395 1398 1401 1404 1407 1410 1413 1416 1419 1422 1425 1428 1431 1434 1437 1440 1443 1446 1449 1452 1455 1458 1461 1464 1467 1470 1473 1476 1479 1482 1485 1488 1491 1494 1497 1500 1503 1506 1509 1512 1515 1518 1521 1524 1527 1530 1533 1536 1539 1542 1545 1548 1551 1554 1557 1560 1563 1566 1569 1572 1575 1578 1581 1584 1587 1590 1593 1596 1599 1602 1605 1608 1611 1614 1617 1620 1623 1626 1629 1632 1635 1638 1641 1644 1647 1650 1653 1656 1659 1662 1665 1668 1671 1674 1677 1680 1683 1686 1689 1692 1695 1698 1701 1704 1707 1710 1713 1716 1719 1722 1725 1728 1731 1734 1737 1740 1743 1746 1749 1752 1755 1758 1761 1764 1767 1770 1773 1776 1779 1782 1785 1788 1791 1794 1797 1800 1803 1806 1809 1812 1815 1818 1821 1824 1827 1830 1833 1836 1839 1842 1845 1848 1851 1854 1857 1860 1863 1866 1869 1872 1875 1878 1881 1884 1887 1890 1893 1896 1899 1902 1905 1908 1911 1914 1917 1920 1923 1926 1929 1932 1935 1938 1941 1944 1947 1950 1953 1956 1959 1962 1965 1968 1971 1974 1977 1980 1983 1986 1989 1992 1995 1998 2001 2004 2007 2010 2013 2016 2019 2022 2025 2028 2031 2034 2037 2040 2043 2046 2049 2052 2055 2058 2061 2064 2067 2070 2073 2076 2079 2082 2085 2088 2091 2094 2097 2100 2103 2106 2109 2112 2115 2118 2121 2124 2127 2130 2133 2136 2139 2142 2145 2148 2151 2154 2157 2160 2163 2166 2169 2172 2175 2178 2181 2184 2187 2190 2193 2196 2199 2202 2205 2208 2211 2214 2217 2220 2223 2226 2229 2232 2235 2238 2241 2244 2247 2250 2253 2256 2259 2262 2265 2268 2271 2274 2277 2280 2283 2286 2289 2292 2295 2298 2301 2304 </DataArray>
            <DataArray Name="types" format="ascii" type="UInt8">5 5 5 5 5 5 5 5 5 5 5 5 5 5 5 5 5 5 5 5 5 5 5 5 5 5 5 5 5 5 5 5 5 5 5 5 5 5 5 5 5 5 5 5 5 5 5 5 5 5 5 5 5 5 5 5 5 5 5 5 5 5 5 5 5 5 5 5 5 5 5 5 5 5 5 5 5 5 5 5 5 5 5 5 5 5 5 5 5 5 5 5 5 5 5 5 5 5 5 5 5 5 5 5 5 5 5 5 5 5 5 5 5 5 5 5 5 5 5 5 5 5 5 5 5 5 5 5 5 5 5 5 5 5 5 5 5 5 5 5 5 5 5 5 5 5 5 5 5 5 5 5 5 5 5 5 5 5 5 5 5 5 5 5 5 5 5 5 5 5 5 5 5 5 5 5 5 5 5 5 5 5 5 5 5 5 5 5 5 5 5 5 5 5 5 5 5 5 5 5 5 5 5 5 5 5 5 5 5 5 5 5 5 5 5 5 5 5 5 5 5 5 5 5 5 5 5 5 5 5 5 5 5 5 5 5 5 5 5 5 5 5 5 5 5 5 5 5 5 5 5 5 5 5 5 5 5 5 5 5 5 5 5 5 5 5 5 5 5 5 5 5 5 5 5 5 5 5 5 5 5 5 5 5 5 5 5 5 5 5 5 5 5 5 5 5 5 5 5 5 5 5 5 5 5 5 5 5 5 5 5 5 5 5 5 5 5 5 5 5 5 5 5 5 5 5 5 5 5 5 5 5 5 5 5 5 5 5 5 5 5 5 5 5 5 5 5 5 5 5 5 5 5 5 5 5 5 5 5 5 5 5 5 5 5 5 5 5 5 5 5 5 5 5 5 5 5 5 5 5 5 5 5 5 5 5 5 5 5 5 5 5 5 5 5 5 5 5 5 5 5 5 5 5 5 5 5 5 5 5 5 5 5 5 5 5 5 5 5 5 5 5 5 5 5 5 5 5 5 5 5 5 5 5 5 5 5 5 5 5 5 5 5 5 5 5 5 5 5 5 5 5 5 5 5 5 5 5 5 5 5 5 5 5 5 5 5 5 5 5 5 5 5 5 5 5 5 5 5 5 5 5 5 5 5 5 5 5 5 5 5 5 5 5 5 5 5 5 5 5 5 5 5 5 5 5 5 5 5 5 5 5 5 5 5 5 5 5 5 5 5 5 5 5 5 5 5 5 5 5 5 5 5 5 5 5 5 5 5 5 5 5 5 5 5 5 5 5 5 5 5 5 5 5 5 5 5 5 5 5 5 5 5 5 5 5 5 5 5 5 5 5 5 5 5 5 5 5 5 5 5 5 5 5 5 5 5 5 5 5 5 5 5 5 5 5 5 5 5 5 5 5 5 5 5 5 5 5 5 5 5 5 5 5 5 5 5 5 5 5 5 5 5 5 5 5 5 5 5 5 5 5 5 5 5 5 5 5 5 5 5 5 5 5 5 5 5 5 5 5 5 5 5 5 5 5 5 5 5 5 5 5 5 5 5 5 5 5 5 5 5 5 5 5 5 5 5 5 5 5 5 5 5 5 5 5 5 5 5 5 5 5 5 5 5 5 5 5 5 5 5 5 5 5 5 5 5 5 5 5 5 5 5 5 5 5 5 5 5 5 5 5 5 5 5 5 5 5 5 5 5 5 5 5 5 5 5 5 5 5 5 5 5 5 5 5 5 5 5 5 5 5 5 5 5 5 5 5 5 5 5 5 5 5 5 5 5 5 </DataArray>
         </Cells>
         <PointData>
            <DataArray Name="fValues" NumberOfComponents="3" format="ascii" type="Float64">
       00000        00000        00000 
       00000        00000        00000 
       00000        00000        00000 
       00000        00000        00000 
       00000        00000        00000 
       00000        00000        00000 
       00000        00000        00000 
       00000        00000        00000 
       00000        00000        00000 
       00000        00000        00000 
       00000        00000        00000 
       00000        00000        00000 
       00000        00000        00000 
       00000        00000        00000 
       00000        00000        00000 
       00000        00000        00000 
       00000        00000        00000 
       00000        00000        00000 
       00000        00000        00000 
       00000        00000        00000 
       00000        00000        00000 
       00000        00000        00000 
       00000        00000        00000 
       00000        00000        00000 
       00000        00000        00000 
       00000        00000        00000 
       00000        00000        00000 
       00000        00000        00000 
       00000        00000        00000 
       00000        00000        00000 
       00000        00000        00000 
       00000        00000        00000 
       00000        00000        00000 
       00000        00000        00000 
       00000        00000        00000 
       00000        00000        00000 
       00000        00000        00000 
       00000        00000        00000 
       00000        00000        00000 
       00000        00000        00000 
       00000        00000        00000 
       00000        00000        00000 
       00000        00000        00000 
       00000        00000        00000 
       00000        00000        00000 
       00000        00000        00000 
       00000        00000        00000 
       00000        00000        00000 
       00000        00000        00000 
       00000        00000        00000 
       00000        00000        00000 
       00000        00000        00000 
       00000        00000        00000 
       00000        00000        00000 
       00000        00000        00000 
       00000        00000        00000 
       00000        00000        00000 
       00000        00000        00000 
       00000        00000        00000 
       00000        00000        00000 
       00000        00000        00000 
       00000        00000        00000 
       00000        00000        00000 
       00000        00000        00000 
       00000        00000        00000 
       00000        00000        00000 
       00000        00000        00000 
       00000        00000        00000 
       00000        00000        00000 
       00000        00000        00000 
       00000        00000        00000 
       00000        00000        00000 
       00000        00000        00000 
       00000        00000        00000 
       00000        00000        00000 
       00000        00000        00000 
       00000        00000        00000 
       00000        00000        00000 
       00000        00000        00000 
       00000        00000        00000 
       00000        00000        00000 
       00000        00000        00000 
       00000        00000        00000 
       00000        00000        00000 
       00000        00000        00000 
       00000        00000        00000 
       00000        00000        00000 
       00000        00000        00000 
       00000        00000        00000 
       00000        00000        00000 
       00000        00000        00000 
       00000        00000        00000 
       00000        00000        00000 
       00000        00000        00000 
       00000        00000        00000 
       00000        00000        00000 
       00000        00000        00000 
       00000        00000        00000 
       00000        00000        00000 
       00000        00000        00000 
       00000        00000        00000 
       00000        00000        00000 
       00000        00000        00000 
       00000        00000        00000 
       00000        00000        00000 
       00000        00000        00000 
       00000        00000        00000 
       00000        00000        00000 
       00000        00000        00000 
       00000        00000        00000 
       00000        00000        00000 
       00000        00000        00000 
       00000        00000        00000 
       00000        00000        00000 
       00000        00000        00000 
       00000        00000        00000 
       00000        00000        00000 
       00000        00000        00000 
       00000        00000        00000 
       00000        00000        00000 
       00000        00000        00000 
       00000        00000        00000 
       00000        00000        00000 
       00000        00000        00000 
       00000        00000        00000 
       00000        00000        00000 
       00000        00000        00000 
       00000        00000        00000 
       00000        00000        00000 
       00000        00000        00000 
       00000        00000        00000 
       00000        00000        00000 
       00000        00000        00000 
       00000        00000        00000 
       00000        00000        00000 
       00000        00000        00000 
       00000        00000        00000 
       00000        00000        00000 
       00000        00000        00000 
       00000        00000        00000 
       00000        00000        00000 
       00000        00000        00000 
       00000        00000        00000 
       00000        00000        00000 
       00000        00000        00000 
       00000        00000        00000 
       00000        00000        00000 
       00000        00000        00000 
       00000        00000        00000 
       00000        00000        00000 
       00000        00000        00000 
       00000        00000        00000 
       00000        00000        00000 
       00000        00000        00000 
       00000        00000        00000 
       00000        00000        00000 
       00000        00000        00000 
       00000        00000        00000 
       00000        00000        00000 
       00000        00000        00000 
       00000        00000        00000 
       00000        00000        00000 
       00000        00000        00000 
       00000        00000        00000 
       00000        00000        00000 
       00000        00000        00000 
       00000        00000        00000 
       00000        00000        00000 
       00000        00000        00000 
       00000        00000        00000 
       00000        00000        00000 
       00000        00000        00000 
       00000        00000        00000 
       00000        00000        00000 
       00000        00000        00000 
       00000        00000        00000 
       00000        00000        00000 
       00000        00000        00000 
       00000        00000        00000 
       00000        00000        00000 
       00000        00000        00000 
       00000        00000        00000 
       00000        00000        00000 
       00000        00000        00000 
       00000        00000        00000 
       00000        00000        00000 
       00000        00000        00000 
       00000        00000        00000 
       00000        00000        00000 
       00000        00000        00000 
       00000        00000        00000 
       00000        00000        00000 
       00000        00000        00000 
       00000        00000        00000 
       00000        00000        00000 
       00000        00000        00000 
       00000        00000        00000 
       00000        00000        00000 
       00000        00000        00000 
       00000        00000        00000 
       00000        00000        00000 
       00000        00000        00000 
       00000        00000        00000 
       00000        00000        00000 
       00000        00000        00000 
       00000        00000        00000 
       00000        00000        00000 
       00000        00000        00000 
       00000        00000        00000 
       00000        00000        00000 
       00000        00000        00000 
       00000        00000        00000 
       00000        00000        00000 
       00000        00000        00000 
       00000        00000        00000 
       00000        00000        00000 
       00000        00000        00000 
       00000        00000        00000 
       00000        00000        00000 
       00000        00000        00000 
       00000        00000        00000 
       00000        00000        00000 
       00000        00000        00000 
       00000        00000        00000 
       00000        00000        00000 
       00000        00000        00000 
       00000        00000        00000 
       00000        00000        00000 
       00000        00000        00000 
       00000        00000        00000 
       00000        00000        00000 
       00000        00000        00000 
       00000        00000        00000 
       00000        00000        00000 
       00000        00000        00000 
       00000        00000        00000 
       00000        00000        00000 
       00000        00000        00000 
       00000        00000        00000 
       00000        00000        00000 
       00000        00000        00000 
       00000        00000        00000 
       00000        00000        00000 
       00000        00000        00000 
       00000        00000        00000 
       00000        00000        00000 
       00000        00000        00000 
       00000        00000        00000 
       00000        00000        00000 
       00000        00000        00000 
       00000        00000        00000 
       00000        00000        00000 
       00000        00000        00000 
       00000        00000        00000 
       00000        00000        00000 
       00000        00000        00000 
       00000        00000        00000 
       00000        00000        00000 
       00000        00000        00000 
       00000        00000        00000 
       00000        00000        00000 
       00000        00000        00000 
       00000        00000        00000 
       00000        00000        00000 
       00000        00000        00000 
       00000        00000        00000 
       00000        00000        00000 
       00000        00000        00000 
       00000        00000        00000 
       00000        00000        00000 
       00000        00000        00000 
       00000        00000        00000 
       00000        00000        00000 
       00000        00000        00000 
       00000        00000        00000 
       00000        00000        00000 
       00000        00000        00000 
       00000        00000        00000 
       00000        00000        00000 
       00000        00000        00000 
       00000        00000        00000 
       00000        00000        00000 
       00000        00000        00000 
       00000        00000        00000 
       00000        00000        00000 
       00000        00000        00000 
       00000        00000        00000 
       00000        00000        00000 
       00000        00000        00000 
       00000        00000        00000 
       00000        00000        00000 
       00000        00000        00000 
       00000        00000        00000 
       00000        00000        00000 
       00000        00000        00000 
       00000        00000        00000 
       00000        00000        00000 
       00000        00000        00000 
       00000        00000        00000 
       00000        00000        00000 
       00000        00000        00000 
       00000        00000        00000 
       00000        00000        00000 
       00000        00000        00000 
       00000        00000        00000 
       00000        00000        00000 
       00000        00000        00000 
       00000        00000        00000 
       00000        00000        00000 
       00000        00000        00000 
       00000        00000        00000 
       00000        00000        00000 
       00000        00000        00000 
       00000        00000        00000 
       00000        00000        00000 
       00000        00000        00000 
       00000        00000        00000 
       00000        00000        00000 
       00000        00000        00000 
       00000        00000        00000 
       00000        00000        00000 
       00000        00000        00000 
       00000        00000        00000 
       00000        00000        00000 
       00000        00000        00000 
       00000        00000        00000 
       00000        00000        00000 
       00000        00000        00000 
       00000        00000        00000 
       00000        00000        00000 
       00000        00000        00000 
       00000        00000        00000 
       00000        00000        00000 
       00000        00000        00000 
       00000        00000        00000 
       00000        00000        00000 
       00000        00000        00000 
       00000        00000        00000 
       00000        00000        00000 
       00000        00000        00000 
       00000        00000        00000 
       00000        00000        00000 
       00000        00000        00000 
       00000        00000        00000 
       00000        00000        00000 
       00000        00000        00000 
       00000        00000        00000 
       00000        00000        00000 
       00000        00000        00000 
       00000        00000        00000 
       00000        00000        00000 
       00000        00000        00000 
       00000        00000        00000 
       00000        00000        00000 
       00000        00000        00000 
       00000        00000        00000 
       00000        00000        00000 
       00000        00000        00000 
       00000        00000        00000 
       00000        00000        00000 
       00000        00000        00000 
       00000        00000        00000 
       00000        00000        00000 
       00000        00000        00000 
       00000        00000        00000 
       00000        00000        00000 
       00000        00000        00000 
       00000        00000        00000 
       00000        00000        00000 
       00000        00000        00000 
       00000        00000        00000 
       00000        00000        00000 
       00000        00000        00000 
       00000        00000        00000 
       00000        00000        00000 
       00000        00000        00000 
       00000        00000        00000 
       00000        00000        00000 
       00000        00000        00000 
       00000        00000        00000 
       00000        00000        00000 
       00000        00000        00000 
       00000        00000        00000 
       00000        00000        00000 
       00000        00000        00000 
       00000        00000        00000 
       00000        00000        00000 
       00000        00000        00000 
       00000        00000        00000 
       00000        00000        00000 
       00000        00000        00000 
       00000        00000        00000 
       00000        00000        00000 
       00000        00000        00000 
       00000        00000        00000 
       00000        00000        00000 
       00000        00000        00000 
       00000        00000        00000 
       00000        00000        00000 
       00000        00000        00000 
       00000        00000        00000 
       00000        00000        00000 
       00000        00000        00000 
       00000        00000        00000 
       00000        00000        00000 
       00000        00000        00000 
       00000        00000        00000 
       00000        00000        00000 
       00000        00000        00000 
       00000        00000        00000 
       00000        00000        00000 
       00000        00000        00000 
       00000        00000        00000 
       00000        00000        00000 
       00000        00000        00000 
       00000        00000        00000 
       00000        00000        00000 
       00000        00000        00000 
       00000        00000        00000 
       00000        00000        00000 
       00000        00000        00000 
       00000        00000        00000 
       00000        00000        00000 
       00000        00000        00000 
       00000        00000        00000 
       00000        00000        00000 
       00000        00000        00000 
       00000        00000        00000 
       00000        00000        00000 </DataArray>
         </PointData>
         <CellData/>
      </Piece>
   </UnstructuredGrid>
</VTKFile>